<?xml version='1.0' encoding='ASCII' standalone='yes'?>
<svg xmlns="http://www.w3.org/2000/svg" xmlns:xlink="http://www.w3.org/1999/xlink" version="1.1" width="67px" height="86px">
  <g><desc>
        <referenceFile>QT Py rev B not castel_breadboard.svg</referenceFile>
    </desc>
    <desc>Fritzing breadboard generated by brd2svg</desc>
    <g>
        <path d="M50.4,10.08v44.28c0,3.9765-3.2235,7.2-7.2,7.2c0,0,0,0,0,0h-36c-3.9765,0-7.2-3.2235-7.2-7.2c0,0,0,0,0,0V10.08c0-3.9764,3.2235-7.2,7.2-7.2l0,0h36C47.1765,2.88,50.4,6.1036,50.4,10.08L50.4,10.08 M16.0866,17.8016c-0.0011,0.5088,0.4105,0.9221,0.9193,0.9232c0.5088,0.0011,0.9221-0.4105,0.9232-0.9193c0-0.0013,0-0.0026,0-0.004c0.0011-0.5088-0.4105-0.9221-0.9193-0.9232c-0.5088-0.0011-0.9221,0.4105-0.9232,0.9193C16.0866,17.799,16.0866,17.8003,16.0866,17.8016z M32.4708,17.8016c-0.0008,0.5088,0.411,0.9219,0.9198,0.9227c0.5088,0.0008,0.9219-0.411,0.9227-0.9198c0-0.001,0-0.002,0-0.003c0.0008-0.5088-0.411-0.9219-0.9198-0.9227c-0.5088-0.0008-0.9219,0.411-0.9227,0.9198C32.4708,17.7996,32.4708,17.8006,32.4708,17.8016z M2.1827,10.62c0,0.7828,0.6346,1.4173,1.4173,1.4173s1.4173-0.6346,1.4173-1.4173S4.3828,9.2027,3.6,9.2027S2.1827,9.8372,2.1827,10.62z M2.1827,17.82c0,0.7828,0.6346,1.4173,1.4173,1.4173s1.4173-0.6346,1.4173-1.4173S4.3828,16.4027,3.6,16.4027S2.1827,17.0372,2.1827,17.82z M2.1827,25.02c0,0.7828,0.6346,1.4173,1.4173,1.4173s1.4173-0.6346,1.4173-1.4173S4.3828,23.6027,3.6,23.6027S2.1827,24.2372,2.1827,25.02z M2.1827,32.22c0,0.7828,0.6346,1.4173,1.4173,1.4173s1.4173-0.6346,1.4173-1.4173S4.3828,30.8027,3.6,30.8027S2.1827,31.4372,2.1827,32.22z M2.1827,39.42c0,0.7828,0.6346,1.4173,1.4173,1.4173s1.4173-0.6346,1.4173-1.4173S4.3828,38.0027,3.6,38.0027S2.1827,38.6372,2.1827,39.42z M2.1827,46.62c0,0.7828,0.6346,1.4173,1.4173,1.4173s1.4173-0.6346,1.4173-1.4173S4.3828,45.2027,3.6,45.2027S2.1827,45.8372,2.1827,46.62z M2.1827,53.82c0,0.7828,0.6346,1.4173,1.4173,1.4173s1.4173-0.6346,1.4173-1.4173S4.3828,52.4027,3.6,52.4027S2.1827,53.0372,2.1827,53.82z M45.3827,53.82c0,0.7828,0.6346,1.4173,1.4173,1.4173c0.7828,0,1.4173-0.6346,1.4173-1.4173s-0.6346-1.4173-1.4173-1.4173S45.3827,53.0372,45.3827,53.82z M45.3827,46.62c0,0.7828,0.6346,1.4173,1.4173,1.4173c0.7828,0,1.4173-0.6346,1.4173-1.4173l0,0c0-0.7828-0.6346-1.4173-1.4173-1.4173S45.3827,45.8372,45.3827,46.62z M45.3827,39.42c0,0.7828,0.6346,1.4173,1.4173,1.4173c0.7828,0,1.4173-0.6346,1.4173-1.4173s-0.6346-1.4173-1.4173-1.4173S45.3827,38.6372,45.3827,39.42z M45.3827,32.22c0,0.7828,0.6346,1.4173,1.4173,1.4173c0.7828,0,1.4173-0.6346,1.4173-1.4173s-0.6346-1.4173-1.4173-1.4173S45.3827,31.4372,45.3827,32.22z M45.3827,25.02c0,0.7828,0.6346,1.4173,1.4173,1.4173c0.7828,0,1.4173-0.6346,1.4173-1.4173c0-0.7828-0.6346-1.4173-1.4173-1.4173S45.3827,24.2372,45.3827,25.02z M45.3827,17.82c0,0.7828,0.6346,1.4173,1.4173,1.4173c0.7828,0,1.4173-0.6346,1.4173-1.4173c0-0.7828-0.6346-1.4173-1.4173-1.4173S45.3827,17.0372,45.3827,17.82z M45.3827,10.62c0,0.7828,0.6346,1.4173,1.4173,1.4173c0.7828,0,1.4173-0.6346,1.4173-1.4173l0,0c0-0.7828-0.6346-1.4173-1.4173-1.4173S45.3827,9.8372,45.3827,10.62z M36.5953,19.2189c-0.0011,0.4697,0.3787,0.8513,0.8483,0.8525c0.4697,0.0011,0.8513-0.3787,0.8525-0.8483c0-0.0014,0-0.0028,0-0.0041c0.0011-0.4697-0.3787-0.8513-0.8483-0.8525c-0.4697-0.0011-0.8513,0.3787-0.8525,0.8483C36.5953,19.2162,36.5953,19.2175,36.5953,19.2189z M12.1039,19.2189c-0.001,0.4697,0.3789,0.8512,0.8485,0.8522c0.4697,0.001,0.8512-0.3789,0.8522-0.8485c0-0.0012,0-0.0025,0-0.0037c0.001-0.4697-0.3789-0.8512-0.8485-0.8522c-0.4697-0.001-0.8512,0.3789-0.8522,0.8485C12.1039,19.2164,12.1039,19.2177,12.1039,19.2189z M36.5953,7.3701c-0.0011,0.4697,0.3787,0.8513,0.8483,0.8525c0.4697,0.0011,0.8513-0.3787,0.8525-0.8483c0-0.0014,0-0.0028,0-0.0041c0.0011-0.4697-0.3787-0.8513-0.8483-0.8525c-0.4697-0.0011-0.8513,0.3787-0.8525,0.8483C36.5953,7.3673,36.5953,7.3687,36.5953,7.3701z M12.1039,7.3701c-0.001,0.4697,0.3789,0.8512,0.8485,0.8522c0.4697,0.001,0.8512-0.3789,0.8522-0.8485c0-0.0012,0-0.0025,0-0.0037c0.001-0.4697-0.3789-0.8512-0.8485-0.8522c-0.4697-0.001-0.8512,0.3789-0.8522,0.8485C12.1039,7.3676,12.1039,7.3688,12.1039,7.3701z"/>
        <g>
            <g>
                <g>
                    <line stroke="#FFFFFF" fill="none" x2="37.728" y2="31.14" x1="40.608" stroke-width="0.576" y1="31.14" stroke-linecap="round"/>
                </g>
            </g>
            <g>
                <g>
                    <line stroke="#FFFFFF" fill="none" x2="14.04" y2="24.084" x1="14.04" stroke-width="0.576" y1="25.524" stroke-linecap="round"/>
                </g>
            </g>
            <g>
                <g>
                    <line stroke="#FFFFFF" fill="none" x2="21.852" y2="25.488" x1="21.852" stroke-width="0.576" y1="24.048" stroke-linecap="round"/>
                </g>
            </g>
            <g>
                <g>
                    <line stroke="#FFFFFF" fill="none" x2="37.656" y2="41.472" x1="40.536" stroke-width="0.576" y1="41.472" stroke-linecap="round"/>
                </g>
            </g>
            <g>
                <g>
                    <line stroke="#FFFFFF" fill="none" x2="10.9361" y2="48.4441" x1="10.9361" stroke-width="0.432" y1="55.8142" stroke-linecap="round"/>
                    <line stroke="#FFFFFF" fill="none" x2="14.0542" y2="48.4441" x1="10.9361" stroke-width="0.432" y1="48.4441" stroke-linecap="round"/>
                    <line stroke="#FFFFFF" fill="none" x2="28.2274" y2="48.4441" x1="24.8258" stroke-width="0.432" y1="48.4441" stroke-linecap="round"/>
                    <line stroke="#FFFFFF" fill="none" x2="28.2274" y2="55.8142" x1="28.2274" stroke-width="0.432" y1="48.4441" stroke-linecap="round"/>
                    <line stroke="#FFFFFF" fill="none" x2="25.3927" y2="60.6331" x1="13.4873" stroke-width="0.432" y1="60.6331" stroke-linecap="round"/>
                </g>
            </g>
            <g>
                <g>
                    <line stroke="#FFFFFF" fill="none" x2="30.3574" y2="26.8242" x1="36.0266" stroke-width="0.576" y1="26.8242" stroke-linecap="round"/>
                    <line stroke="#FFFFFF" fill="none" x2="36.0266" y2="22.8558" x1="30.3574" stroke-width="0.576" y1="22.8558" stroke-linecap="round"/>
                    <line stroke="#FFFFFF" fill="none" x2="32.1998" y2="25.9739" x1="33.9007" stroke-width="0.576" y1="24.84" stroke-linecap="round"/>
                    <line stroke="#FFFFFF" fill="none" x2="32.1998" y2="23.7061" x1="32.1998" stroke-width="0.576" y1="25.9739" stroke-linecap="round"/>
                    <line stroke="#FFFFFF" fill="none" x2="33.9007" y2="24.84" x1="32.1998" stroke-width="0.576" y1="23.7061" stroke-linecap="round"/>
                    <g>
                        <path stroke="#FFFFFF" fill="none" d="M33.4755,24.84l-0.8504,0.5669v-1.1338L33.4755,24.84" stroke-width="0.576" stroke-linecap="round"/>
                    </g>
                </g>
            </g>
            <g>
                <g>
                    <line stroke="#FFFFFF" fill="none" x2="10.8433" y2="27.9649" x1="12.5441" stroke-width="0.36" y1="27.9649" stroke-linecap="round"/>
                    <line stroke="#FFFFFF" fill="none" x2="10.8433" y2="29.6657" x1="10.8433" stroke-width="0.36" y1="27.9649" stroke-linecap="round"/>
                    <line stroke="#FFFFFF" fill="none" x2="26.1503" y2="27.9649" x1="24.4495" stroke-width="0.36" y1="27.9649" stroke-linecap="round"/>
                    <line stroke="#FFFFFF" fill="none" x2="26.1503" y2="29.6657" x1="26.1503" stroke-width="0.36" y1="27.9649" stroke-linecap="round"/>
                    <line stroke="#FFFFFF" fill="none" x2="10.8433" y2="43.2719" x1="10.8433" stroke-width="0.36" y1="41.5711" stroke-linecap="round"/>
                    <line stroke="#FFFFFF" fill="none" x2="12.5441" y2="43.2719" x1="10.8433" stroke-width="0.36" y1="43.2719" stroke-linecap="round"/>
                    <line stroke="#FFFFFF" fill="none" x2="26.1503" y2="43.2719" x1="26.1503" stroke-width="0.36" y1="41.5711" stroke-linecap="round"/>
                    <line stroke="#FFFFFF" fill="none" x2="24.4495" y2="43.2719" x1="26.1503" stroke-width="0.36" y1="43.2719" stroke-linecap="round"/>
                </g>
            </g>
            <g>
                <g>
                    <line stroke="#FFFFFF" fill="none" x2="35.7432" y2="43.2717" x1="35.7432" stroke-width="0.432" y1="38.7363" stroke-linecap="round"/>
                    <line stroke="#FFFFFF" fill="none" x2="33.192" y2="41.4292" x1="33.192" stroke-width="0.432" y1="42.9882" stroke-linecap="round"/>
                    <line stroke="#FFFFFF" fill="none" x2="30.6408" y2="43.2717" x1="30.6408" stroke-width="0.432" y1="38.7363" stroke-linecap="round"/>
                </g>
            </g>
            <g>
                <g>
                    <line stroke="#FFFFFF" fill="none" x2="31.316" y2="47.6873" x1="31.316" stroke-width="0.576" y1="59.5927" stroke-linecap="round"/>
                    <line stroke="#FFFFFF" fill="none" x2="39.964" y2="59.5927" x1="39.964" stroke-width="0.576" y1="47.6873" stroke-linecap="round"/>
                </g>
            </g>
            <g>
                <g>
                    <line stroke="#FFFFFF" fill="none" x2="11.736" y2="47.7" x1="11.736" stroke-width="0.576" y1="46.26" stroke-linecap="round"/>
                </g>
            </g>
            <g>
                <g>
                    <line stroke="#FFFFFF" fill="none" x2="9.72" y2="15.228" x1="9.72" stroke-width="0.576" y1="13.788" stroke-linecap="round"/>
                </g>
            </g>
            <g>
                <g>
                    <line stroke="#FFFFFF" fill="none" x2="40.68" y2="12.528" x1="40.68" stroke-width="0.576" y1="13.968" stroke-linecap="round"/>
                </g>
            </g>
            <g>
                <g>
                    <line stroke="#FFFFFF" fill="none" x2="37.0772" y2="30.3483" x1="37.0772" stroke-width="0.576" y1="34.8837" stroke-linecap="round"/>
                    <line stroke="#FFFFFF" fill="none" x2="27.7228" y2="30.3483" x1="27.7228" stroke-width="0.576" y1="34.8837" stroke-linecap="round"/>
                    <line stroke="#FFFFFF" fill="none" x2="31.2661" y2="35.5924" x1="33.5339" stroke-width="0.576" y1="35.5924" stroke-linecap="round"/>
                </g>
            </g>
            <g>
                <g>
                    <line stroke="#FFFFFF" fill="none" x2="37.8708" y2="15.1654" x1="37.8708" stroke-width="0.288" y1="11.3386" stroke-linecap="round"/>
                    <line stroke="#FFFFFF" fill="none" x2="12.5292" y2="11.3386" x1="12.5292" stroke-width="0.288" y1="15.1654" stroke-linecap="round"/>
                    <line stroke="#FFFFFF" fill="none" x2="37.8708" y2="0" x1="12.5292" stroke-width="0.288" y1="0" stroke-linecap="round"/>
                    <line stroke="#FFFFFF" fill="none" x2="37.8708" y2="3.8268" x1="37.8708" stroke-width="0.288" y1="0" stroke-linecap="round"/>
                    <line stroke="#FFFFFF" fill="none" x2="12.5292" y2="0" x1="12.5292" stroke-width="0.288" y1="3.8268" stroke-linecap="round"/>
                </g>
            </g>
        </g>
        <g transform="matrix(0, 1, -1, 0, 67.428, -10.908)">
            <g>
                <g>
                    <g transform="matrix(2.535182e-06 1 -1 2.535182e-06 67.4278 -10.9081)">
                        <g>
                            <rect width="3.685" fill="#9A916C" gorn="0.2.2.0.0.0.0.0" x="37.3255" id="connector5pin" y="26.5591" height="3.4016"/>
                        </g>
                    </g>
                </g>
            </g>
        </g>
        <g transform="matrix(0, 1, -1, 0, 73.188, -5.148)">
            <g>
                <g>
                    <g transform="matrix(2.535182e-06 1 -1 2.535182e-06 73.1878 -5.1482)">
                        <g>
                            <rect width="3.685" fill="#9A916C" gorn="0.2.3.0.0.0.0.0" x="37.3255" id="connector6pin" y="32.3191" height="3.4016"/>
                        </g>
                    </g>
                </g>
            </g>
        </g>
        <g transform="matrix(-1, 0, 0, -1, 30.96, 49.608)">
            <g>
                <g>
                    <rect width="1.7008" fill="#9A916C" gorn="0.2.4.0.0.0" x="14.6296" id="connector7pin" y="23.9536" height="1.7008"/>
                </g>
            </g>
        </g>
        <g transform="matrix(-1, 0, 0, -1, 25.2, 49.608)">
            <g>
                <g>
                    <rect width="1.7008" fill="#9A916C" gorn="0.2.5.0.0.0" x="11.7496" id="connector8pin" y="23.9536" height="1.7008"/>
                </g>
            </g>
        </g>
        <rect width="1.7008" fill="#9A916C" gorn="0.2.6" x="19.5616" id="connector9pin" y="23.9176" height="1.7008"/>
        <rect width="1.7008" fill="#9A916C" gorn="0.2.7" x="22.4416" id="connector10pin" y="23.9176" height="1.7008"/>
        <g transform="matrix(0, 1, -1, 0, 77.688, -0.504)">
            <g>
                <g>
                    <g transform="matrix(2.535182e-06 1 -1 2.535182e-06 77.6878 -0.5042)">
                        <g>
                            <rect width="3.685" fill="#9A916C" gorn="0.2.8.0.0.0.0.0" x="37.2535" id="connector11pin" y="36.8911" height="3.4016"/>
                        </g>
                    </g>
                </g>
            </g>
        </g>
        <g transform="matrix(0, 1, -1, 0, 83.448, 5.256)">
            <g>
                <g>
                    <g transform="matrix(2.535182e-06 1 -1 2.535182e-06 83.4478 5.2558)">
                        <g>
                            <rect width="3.685" fill="#9A916C" gorn="0.2.9.0.0.0.0.0" x="37.2535" id="connector12pin" y="42.6511" height="3.4016"/>
                        </g>
                    </g>
                </g>
            </g>
        </g>
        <g transform="matrix(0, -1, 1, 0, -32.4057, 62.7818)">
            <g>
                <g>
                    <g transform="matrix(-2.535182e-06 -1 1 -2.535182e-06 -32.4056 62.7818)">
                        <g>
                            <rect width="1.4173" fill="#9A916C" x="14.4794" y="45.3968" height="4.3937"/>
                        </g>
                    </g>
                </g>
            </g>
        </g>
        <g transform="matrix(0, -1, 1, 0, -29.571, 65.6164)">
            <g>
                <g>
                    <g transform="matrix(-2.535182e-06 -1 1 -2.535182e-06 -29.571 65.6164)">
                        <g>
                            <rect width="1.4173" fill="#9A916C" x="17.314" y="45.3968" height="4.3937"/>
                        </g>
                    </g>
                </g>
            </g>
        </g>
        <g transform="matrix(0, -1, 1, 0, -26.7364, 68.451)">
            <g>
                <g>
                    <g transform="matrix(-2.535182e-06 -1 1 -2.535182e-06 -26.7363 68.4511)">
                        <g>
                            <rect width="1.4173" fill="#9A916C" x="20.1487" y="45.3968" height="4.3937"/>
                        </g>
                    </g>
                </g>
            </g>
        </g>
        <g transform="matrix(0, -1, 1, 0, -23.9018, 71.2857)">
            <g>
                <g>
                    <g transform="matrix(-2.535182e-06 -1 1 -2.535182e-06 -23.9016 71.2857)">
                        <g>
                            <rect width="1.4173" fill="#9A916C" x="22.9833" y="45.3968" height="4.3937"/>
                        </g>
                    </g>
                </g>
            </g>
        </g>
        <g transform="matrix(0, -1, 1, 0, -47.1458, 70.1518)">
            <g>
                <g>
                    <g transform="matrix(-2.535182e-06 -1 1 -2.535182e-06 -47.1458 70.1519)">
                        <g>
                            <rect width="3.4016" fill="#9A916C" gorn="0.2.14.0.0.0.0.0" x="9.8022" id="connector17pin" y="56.0976" height="5.1024"/>
                        </g>
                    </g>
                </g>
            </g>
        </g>
        <g transform="matrix(0, -1, 1, 0, -31.2718, 86.0256)">
            <g>
                <g>
                    <g transform="matrix(-2.535182e-06 -1 1 -2.535182e-06 -31.2717 86.0259)">
                        <g>
                            <rect width="3.4016" fill="#9A916C" gorn="0.2.15.0.0.0.0.0" x="25.6762" id="connector18pin" y="56.0976" height="5.1024"/>
                        </g>
                    </g>
                </g>
            </g>
        </g>
        <g transform="matrix(-1, 0, 0, -1, 60.3179, 49.68)">
            <g>
                <g>
                    <rect width="2.5512" fill="#9A916C" gorn="0.2.16.0.0.0" x="28.8833" id="connector19pin" y="23.7061" height="2.2677"/>
                </g>
            </g>
        </g>
        <g transform="matrix(-1, 0, 0, -1, 72.45, 49.68)">
            <g>
                <g>
                    <rect width="2.5512" fill="#9A916C" gorn="0.2.17.0.0.0" x="34.9494" id="connector20pin" y="23.7061" height="2.2677"/>
                </g>
            </g>
        </g>
        <g transform="matrix(0, -1, 1, 0, -19.2476, 42.0679)">
            <g>
                <g>
                    <g transform="matrix(-2.535182e-06 -1 1 -2.535182e-06 -19.2475 42.0681)">
                        <g>
                            <rect width="2.2677" fill="#9A916C" gorn="0.2.18.0.0.0.0.0" x="10.2764" id="connector21pin" y="30.3034" height="0.7087"/>
                        </g>
                    </g>
                </g>
            </g>
        </g>
        <g transform="matrix(0, -1, 1, 0, -20.6649, 43.4853)">
            <g>
                <g>
                    <g transform="matrix(-2.535182e-06 -1 1 -2.535182e-06 -20.6648 43.4854)">
                        <g>
                            <rect width="2.2677" fill="#9A916C" gorn="0.2.19.0.0.0.0.0" x="10.2764" id="connector22pin" y="31.7207" height="0.7087"/>
                        </g>
                    </g>
                </g>
            </g>
        </g>
        <g transform="matrix(0, -1, 1, 0, -22.0823, 44.9026)">
            <g>
                <g>
                    <g transform="matrix(-2.535182e-06 -1 1 -2.535182e-06 -22.0821 44.9027)">
                        <g>
                            <rect width="2.2677" fill="#9A916C" gorn="0.2.20.0.0.0.0.0" x="10.2764" id="connector23pin" y="33.138" height="0.7087"/>
                        </g>
                    </g>
                </g>
            </g>
        </g>
        <g transform="matrix(0, -1, 1, 0, -23.4996, 46.3199)">
            <g>
                <g>
                    <g transform="matrix(-2.535182e-06 -1 1 -2.535182e-06 -23.4994 46.32)">
                        <g>
                            <rect width="2.2677" fill="#9A916C" gorn="0.2.21.0.0.0.0.0" x="10.2764" id="connector24pin" y="34.5553" height="0.7087"/>
                        </g>
                    </g>
                </g>
            </g>
        </g>
        <g transform="matrix(0, -1, 1, 0, -24.9169, 47.7372)">
            <g>
                <g>
                    <g transform="matrix(-2.535182e-06 -1 1 -2.535182e-06 -24.9168 47.7374)">
                        <g>
                            <rect width="2.2677" fill="#9A916C" gorn="0.2.22.0.0.0.0.0" x="10.2764" id="connector25pin" y="35.9727" height="0.7087"/>
                        </g>
                    </g>
                </g>
            </g>
        </g>
        <g transform="matrix(0, -1, 1, 0, -26.3342, 49.1545)">
            <g>
                <g>
                    <g transform="matrix(-2.535182e-06 -1 1 -2.535182e-06 -26.3342 49.1548)">
                        <g>
                            <rect width="2.2677" fill="#9A916C" gorn="0.2.23.0.0.0.0.0" x="10.2764" id="connector26pin" y="37.3901" height="0.7087"/>
                        </g>
                    </g>
                </g>
            </g>
        </g>
        <g transform="matrix(0, -1, 1, 0, -27.7515, 50.5719)">
            <g>
                <g>
                    <g transform="matrix(-2.535182e-06 -1 1 -2.535182e-06 -27.7515 50.5721)">
                        <g>
                            <rect width="2.2677" fill="#9A916C" gorn="0.2.24.0.0.0.0.0" x="10.2764" id="connector27pin" y="38.8074" height="0.7087"/>
                        </g>
                    </g>
                </g>
            </g>
        </g>
        <g transform="matrix(0, -1, 1, 0, -29.1689, 51.9892)">
            <g>
                <g>
                    <g transform="matrix(-2.535182e-06 -1 1 -2.535182e-06 -29.1688 51.9894)">
                        <g>
                            <rect width="2.2677" fill="#9A916C" gorn="0.2.25.0.0.0.0.0" x="10.2764" id="connector28pin" y="40.2247" height="0.7087"/>
                        </g>
                    </g>
                </g>
            </g>
        </g>
        <g transform="matrix(-1, 0, 0, -1, 27.0724, 85.41)">
            <g>
                <g>
                    <rect width="0.7087" fill="#9A916C" gorn="0.2.26.0.0.0" x="13.1818" id="connector29pin" y="41.5711" height="2.2677"/>
                </g>
            </g>
        </g>
        <g transform="matrix(-1, 0, 0, -1, 29.907, 85.41)">
            <g>
                <g>
                    <rect width="0.7087" fill="#9A916C" gorn="0.2.27.0.0.0" x="14.5992" id="connector30pin" y="41.5711" height="2.2677"/>
                </g>
            </g>
        </g>
        <g transform="matrix(-1, 0, 0, -1, 32.7416, 85.41)">
            <g>
                <g>
                    <rect width="0.7087" fill="#9A916C" gorn="0.2.28.0.0.0" x="16.0165" id="connector31pin" y="41.5711" height="2.2677"/>
                </g>
            </g>
        </g>
        <g transform="matrix(-1, 0, 0, -1, 35.5763, 85.41)">
            <g>
                <g>
                    <rect width="0.7087" fill="#9A916C" gorn="0.2.29.0.0.0" x="17.4338" id="connector32pin" y="41.5711" height="2.2677"/>
                </g>
            </g>
        </g>
        <g transform="matrix(-1, 0, 0, -1, 38.4109, 85.41)">
            <g>
                <g>
                    <rect width="0.7087" fill="#9A916C" gorn="0.2.30.0.0.0" x="18.8511" id="connector33pin" y="41.5711" height="2.2677"/>
                </g>
            </g>
        </g>
        <g transform="matrix(-1, 0, 0, -1, 41.2456, 85.41)">
            <g>
                <g>
                    <rect width="0.7087" fill="#9A916C" gorn="0.2.31.0.0.0" x="20.2684" id="connector34pin" y="41.5711" height="2.2677"/>
                </g>
            </g>
        </g>
        <g transform="matrix(-1, 0, 0, -1, 44.0802, 85.41)">
            <g>
                <g>
                    <rect width="0.7087" fill="#9A916C" gorn="0.2.32.0.0.0" x="21.6858" id="connector35pin" y="41.5711" height="2.2677"/>
                </g>
            </g>
        </g>
        <g transform="matrix(-1, 0, 0, -1, 46.9148, 85.41)">
            <g>
                <g>
                    <rect width="0.7087" fill="#9A916C" gorn="0.2.33.0.0.0" x="23.1031" id="connector36pin" y="41.5711" height="2.2677"/>
                </g>
            </g>
        </g>
        <g transform="matrix(0, 1, -1, 0, 66.1625, 14.9957)">
            <g>
                <g>
                    <g transform="matrix(2.535182e-06 1 -1 2.535182e-06 66.1624 14.9955)">
                        <g>
                            <rect width="2.2677" fill="#9A916C" gorn="0.2.34.0.0.0.0.0" x="24.4496" id="connector37pin" y="40.2247" height="0.7087"/>
                        </g>
                    </g>
                </g>
            </g>
        </g>
        <g transform="matrix(0, 1, -1, 0, 64.7451, 13.5783)">
            <g>
                <g>
                    <g transform="matrix(2.535182e-06 1 -1 2.535182e-06 64.7451 13.5782)">
                        <g>
                            <rect width="2.2677" fill="#9A916C" gorn="0.2.35.0.0.0.0.0" x="24.4496" id="connector38pin" y="38.8074" height="0.7087"/>
                        </g>
                    </g>
                </g>
            </g>
        </g>
        <g transform="matrix(0, 1, -1, 0, 63.3278, 12.1609)">
            <g>
                <g>
                    <g transform="matrix(2.535182e-06 1 -1 2.535182e-06 63.3278 12.1609)">
                        <g>
                            <rect width="2.2677" fill="#9A916C" gorn="0.2.36.0.0.0.0.0" x="24.4496" id="connector39pin" y="37.3901" height="0.7087"/>
                        </g>
                    </g>
                </g>
            </g>
        </g>
        <g transform="matrix(0, 1, -1, 0, 61.9105, 10.7436)">
            <g>
                <g>
                    <g transform="matrix(2.535182e-06 1 -1 2.535182e-06 61.9104 10.7435)">
                        <g>
                            <rect width="2.2677" fill="#9A916C" gorn="0.2.37.0.0.0.0.0" x="24.4496" id="connector40pin" y="35.9727" height="0.7087"/>
                        </g>
                    </g>
                </g>
            </g>
        </g>
        <g transform="matrix(0, 1, -1, 0, 60.4932, 9.3263)">
            <g>
                <g>
                    <g transform="matrix(2.535182e-06 1 -1 2.535182e-06 60.493 9.3261)">
                        <g>
                            <rect width="2.2677" fill="#9A916C" gorn="0.2.38.0.0.0.0.0" x="24.4496" id="connector41pin" y="34.5553" height="0.7087"/>
                        </g>
                    </g>
                </g>
            </g>
        </g>
        <g transform="matrix(0, 1, -1, 0, 59.0759, 7.90898)">
            <g>
                <g>
                    <g transform="matrix(2.535182e-06 1 -1 2.535182e-06 59.0757 7.9088)">
                        <g>
                            <rect width="2.2677" fill="#9A916C" gorn="0.2.39.0.0.0.0.0" x="24.4496" id="connector42pin" y="33.138" height="0.7087"/>
                        </g>
                    </g>
                </g>
            </g>
        </g>
        <g transform="matrix(0, 1, -1, 0, 57.6585, 6.49169)">
            <g>
                <g>
                    <g transform="matrix(2.535182e-06 1 -1 2.535182e-06 57.6584 6.4915)">
                        <g>
                            <rect width="2.2677" fill="#9A916C" gorn="0.2.40.0.0.0.0.0" x="24.4496" id="connector43pin" y="31.7207" height="0.7087"/>
                        </g>
                    </g>
                </g>
            </g>
        </g>
        <g transform="matrix(0, 1, -1, 0, 56.2412, 5.07436)">
            <g>
                <g>
                    <g transform="matrix(2.535182e-06 1 -1 2.535182e-06 56.2411 5.0742)">
                        <g>
                            <rect width="2.2677" fill="#9A916C" gorn="0.2.41.0.0.0.0.0" x="24.4496" id="connector44pin" y="30.3034" height="0.7087"/>
                        </g>
                    </g>
                </g>
            </g>
        </g>
        <rect width="0.7087" fill="#9A916C" gorn="0.2.42" x="23.1031" id="connector45pin" y="27.3979" height="2.2677"/>
        <rect width="0.7087" fill="#9A916C" gorn="0.2.43" x="21.6858" id="connector46pin" y="27.3979" height="2.2677"/>
        <rect width="0.7087" fill="#9A916C" gorn="0.2.44" x="20.2684" id="connector47pin" y="27.3979" height="2.2677"/>
        <rect width="0.7087" fill="#9A916C" gorn="0.2.45" x="18.8511" id="connector48pin" y="27.3979" height="2.2677"/>
        <rect width="0.7087" fill="#9A916C" gorn="0.2.46" x="17.4338" id="connector49pin" y="27.3979" height="2.2677"/>
        <rect width="0.7087" fill="#9A916C" gorn="0.2.47" x="16.0165" id="connector50pin" y="27.3979" height="2.2677"/>
        <rect width="0.7087" fill="#9A916C" gorn="0.2.48" x="14.5992" id="connector51pin" y="27.3979" height="2.2677"/>
        <rect width="0.7087" fill="#9A916C" gorn="0.2.49" x="13.1818" id="connector52pin" y="27.3979" height="2.2677"/>
        <path fill="#9A916C" d="M14.0322,30.6577h8.9291c0.274,0,0.4961,0.2221,0.4961,0.4961v8.9291c0,0.274-0.2221,0.4961-0.4961,0.4961h-8.9291c-0.274,0-0.4961-0.2221-0.4961-0.4961v-8.9291C13.5361,30.8798,13.7582,30.6577,14.0322,30.6577z" gorn="0.2.50" id="connector53pin"/>
        <circle stroke="#9A916C" fill="none" gorn="0.2.51" id="connector54pin" r="1.9687" stroke-width="1.1027" cx="3.6" cy="10.62"/>
        <circle stroke="#9A916C" fill="none" gorn="0.2.52" id="connector55pin" r="1.9687" stroke-width="1.1027" cx="3.6" cy="17.82"/>
        <circle stroke="#9A916C" fill="none" gorn="0.2.53" id="connector56pin" r="1.9687" stroke-width="1.1027" cx="3.6" cy="25.02"/>
        <circle stroke="#9A916C" fill="none" gorn="0.2.54" id="connector57pin" r="1.9687" stroke-width="1.1027" cx="3.6" cy="32.22"/>
        <circle stroke="#9A916C" fill="none" gorn="0.2.55" id="connector60pin" r="1.9687" stroke-width="1.1027" cx="3.6" cy="53.82"/>
        <circle stroke="#9A916C" fill="none" gorn="0.2.56" id="connector61pin" r="1.9687" stroke-width="1.1027" cx="46.8" cy="53.82"/>
        <circle stroke="#9A916C" fill="none" gorn="0.2.57" id="connector65pin" r="1.9687" stroke-width="1.1027" cx="46.8" cy="25.02"/>
        <circle stroke="#9A916C" fill="none" gorn="0.2.58" id="connector66pin" r="1.9687" stroke-width="1.1027" cx="46.8" cy="17.82"/>
        <circle stroke="#9A916C" fill="none" gorn="0.2.59" id="connector67pin" r="1.9687" stroke-width="1.1027" cx="46.8" cy="10.62"/>
        <g transform="matrix(0, 1, -1, 0, 71.5031, 7.67023)">
            <g>
                <g>
                    <g transform="matrix(2.535182e-06 1 -1 2.535182e-06 71.503 7.6701)">
                        <g>
                            <rect width="1.4173" fill="#9A916C" gorn="0.2.60.0.0.0.0.0" x="31.2078" id="connector68pin" y="38.878" height="1.4173"/>
                        </g>
                    </g>
                </g>
            </g>
        </g>
        <g transform="matrix(0, 1, -1, 0, 74.3378, 10.5049)">
            <g>
                <g>
                    <g transform="matrix(2.535182e-06 1 -1 2.535182e-06 74.3377 10.5048)">
                        <g>
                            <rect width="1.4173" fill="#9A916C" gorn="0.2.61.0.0.0.0.0" x="31.2078" id="connector69pin" y="41.7127" height="1.4173"/>
                        </g>
                    </g>
                </g>
            </g>
        </g>
        <g transform="matrix(0, 1, -1, 0, 76.8888, 7.95377)">
            <g>
                <g>
                    <g transform="matrix(2.535182e-06 1 -1 2.535182e-06 76.8888 7.9537)">
                        <g>
                            <rect width="1.4173" fill="#9A916C" gorn="0.2.62.0.0.0.0.0" x="33.7589" id="connector70pin" y="41.7127" height="1.4173"/>
                        </g>
                    </g>
                </g>
            </g>
        </g>
        <g transform="matrix(0, 1, -1, 0, 74.0542, 5.11908)">
            <g>
                <g>
                    <g transform="matrix(2.535182e-06 1 -1 2.535182e-06 74.0541 5.119)">
                        <g>
                            <rect width="1.4173" fill="#9A916C" gorn="0.2.63.0.0.0.0.0" x="33.7589" id="connector71pin" y="38.878" height="1.4173"/>
                        </g>
                    </g>
                </g>
            </g>
        </g>
        <g transform="matrix(0, -1, 1, 0, -14.4567, 81.2016)">
            <g>
                <g>
                    <g transform="matrix(-2.535182e-06 -1 1 -2.535182e-06 -14.4566 81.2014)">
                        <g>
                            <rect width="2.5512" fill="#9A916C" gorn="0.2.64.0.0.0.0.0" x="32.0967" id="connector72pin" y="46.5534" height="2.5512"/>
                        </g>
                    </g>
                </g>
            </g>
        </g>
        <g transform="matrix(0, -1, 1, 0, -26.0788, 92.8231)">
            <g>
                <g>
                    <g transform="matrix(-2.535182e-06 -1 1 -2.535182e-06 -26.0786 92.8234)">
                        <g>
                            <rect width="2.5512" fill="#9A916C" gorn="0.2.65.0.0.0.0.0" x="32.0967" id="connector73pin" y="58.1754" height="2.5512"/>
                        </g>
                    </g>
                </g>
            </g>
        </g>
        <g transform="matrix(0, -1, 1, 0, -9.92124, 85.7369)">
            <g>
                <g>
                    <g transform="matrix(-2.535182e-06 -1 1 -2.535182e-06 -9.9211 85.7369)">
                        <g>
                            <rect width="2.5512" fill="#9A916C" gorn="0.2.66.0.0.0.0.0" x="36.6322" id="connector74pin" y="46.5534" height="2.5512"/>
                        </g>
                    </g>
                </g>
            </g>
        </g>
        <g transform="matrix(0, -1, 1, 0, -21.5433, 97.3584)">
            <g>
                <g>
                    <g transform="matrix(-2.535182e-06 -1 1 -2.535182e-06 -21.5431 97.3589)">
                        <g>
                            <rect width="2.5512" fill="#9A916C" gorn="0.2.67.0.0.0.0.0" x="36.6322" id="connector75pin" y="58.1754" height="2.5512"/>
                        </g>
                    </g>
                </g>
            </g>
        </g>
        <rect width="1.7008" fill="#9A916C" gorn="0.2.68" x="9.4456" id="connector76pin" y="46.1296" height="1.7008"/>
        <rect width="1.7008" fill="#9A916C" gorn="0.2.69" x="12.3256" id="connector77pin" y="46.1296" height="1.7008"/>
        <rect width="1.7008" fill="#9A916C" gorn="0.2.70" x="7.4296" id="connector78pin" y="13.6576" height="1.7008"/>
        <rect width="1.7008" fill="#9A916C" gorn="0.2.71" x="10.3096" id="connector79pin" y="13.6576" height="1.7008"/>
        <g transform="matrix(-1, 0, 0, -1, 84.24, 26.496)">
            <g>
                <g>
                    <rect width="1.7008" fill="#9A916C" gorn="0.2.72.0.0.0" x="41.2696" id="connector80pin" y="12.3976" height="1.7008"/>
                </g>
            </g>
        </g>
        <g transform="matrix(-1, 0, 0, -1, 78.48, 26.496)">
            <g>
                <g>
                    <rect width="1.7008" fill="#9A916C" gorn="0.2.73.0.0.0" x="38.3896" id="connector81pin" y="12.3976" height="1.7008"/>
                </g>
            </g>
        </g>
        <path fill="#9A916C" d="M17.28,55.3187L17.28,55.3187c0.7828,0,1.4173,0.6346,1.4173,1.4173v0c0,0.7828-0.6346,1.4173-1.4173,1.4173h0c-0.7828,0-1.4173-0.6346-1.4173-1.4173v0C15.8627,55.9533,16.4973,55.3187,17.28,55.3187z" gorn="0.2.74" id="connector82pin"/>
        <path fill="#9A916C" d="M25.2,4.3427L25.2,4.3427c0.7828,0,1.4173,0.6346,1.4173,1.4173v0c0,0.7828-0.6346,1.4173-1.4173,1.4173h0c-0.7828,0-1.4173-0.6346-1.4173-1.4173v0C23.7827,4.9772,24.4173,4.3427,25.2,4.3427z" gorn="0.2.75" id="connector83pin"/>
        <g transform="matrix(-1, 0, 0, -1, 70.1858, 57.8614)">
            <g>
                <g>
                    <rect width="1.5591" fill="#9A916C" gorn="0.2.76.0.0.0" x="34.3134" id="connector84pin" y="27.2299" height="3.4016"/>
                </g>
            </g>
        </g>
        <g transform="matrix(-1, 0, 0, -1, 64.8, 57.8614)">
            <g>
                <g>
                    <rect width="1.559" fill="#9A916C" gorn="0.2.77.0.0.0" x="31.6205" id="connector85pin" y="27.2299" height="3.4016"/>
                </g>
            </g>
        </g>
        <g transform="matrix(-1, 0, 0, -1, 59.4142, 57.8614)">
            <g>
                <g>
                    <rect width="1.559" fill="#9A916C" gorn="0.2.78.0.0.0" x="28.9276" id="connector86pin" y="27.2299" height="3.4016"/>
                </g>
            </g>
        </g>
        <g transform="matrix(-1, 0, 0, -1, 59.4142, 72.6026)">
            <g>
                <g>
                    <rect width="1.559" fill="#9A916C" gorn="0.2.79.0.0.0" x="28.9276" id="connector87pin" y="34.6005" height="3.4016"/>
                </g>
            </g>
        </g>
        <g transform="matrix(-1, 0, 0, -1, 70.1858, 72.6026)">
            <g>
                <g>
                    <rect width="1.5591" fill="#9A916C" gorn="0.2.80.0.0.0" x="34.3134" id="connector88pin" y="34.6005" height="3.4016"/>
                </g>
            </g>
        </g>
        <g transform="matrix(-1, 0, 0, -1, 68.5418, 41.6976)">
            <g>
                <g>
                    <rect width="1.6299" fill="#9A916C" gorn="0.2.81.0.0.0" x="33.4559" id="connector89pin" y="19.2189" height="3.2598"/>
                </g>
            </g>
        </g>
        <g transform="matrix(-1, 0, 0, -1, 64.0063, 41.6976)">
            <g>
                <g>
                    <rect width="1.6299" fill="#9A916C" gorn="0.2.82.0.0.0" x="31.1882" id="connector90pin" y="19.2189" height="3.2598"/>
                </g>
            </g>
        </g>
        <g transform="matrix(-1, 0, 0, -1, 57.4866, 41.6976)">
            <g>
                <g>
                    <rect width="0.7795" fill="#9A916C" gorn="0.2.83.0.0.0" x="28.3535" id="connector91pin" y="19.2189" height="3.2598"/>
                </g>
            </g>
        </g>
        <g transform="matrix(-1, 0, 0, -1, 51.8173, 41.6976)">
            <g>
                <g>
                    <rect width="0.7795" fill="#9A916C" gorn="0.2.84.0.0.0" x="25.5189" id="connector92pin" y="19.2189" height="3.2598"/>
                </g>
            </g>
        </g>
        <g transform="matrix(-1, 0, 0, -1, 48.9827, 41.6976)">
            <g>
                <g>
                    <rect width="0.7795" fill="#9A916C" gorn="0.2.85.0.0.0" x="24.1016" id="connector93pin" y="19.2189" height="3.2598"/>
                </g>
            </g>
        </g>
        <g transform="matrix(-1, 0, 0, -1, 43.3134, 41.6976)">
            <g>
                <g>
                    <rect width="0.7795" fill="#9A916C" gorn="0.2.86.0.0.0" x="21.2669" id="connector94pin" y="19.2189" height="3.2598"/>
                </g>
            </g>
        </g>
        <g transform="matrix(-1, 0, 0, -1, 32.2582, 41.6976)">
            <g>
                <g>
                    <rect width="1.6299" fill="#9A916C" gorn="0.2.87.0.0.0" x="15.3142" id="connector95pin" y="19.2189" height="3.2598"/>
                </g>
            </g>
        </g>
        <g transform="matrix(-1, 0, 0, -1, 36.7937, 41.6976)">
            <g>
                <g>
                    <rect width="1.6299" fill="#9A916C" gorn="0.2.88.0.0.0" x="17.5819" id="connector96pin" y="19.2189" height="3.2598"/>
                </g>
            </g>
        </g>
        <g transform="matrix(-1, 0, 0, -1, 40.4788, 41.6976)">
            <g>
                <g>
                    <rect width="0.7795" fill="#9A916C" gorn="0.2.89.0.0.0" x="19.8496" id="connector97pin" y="19.2189" height="3.2598"/>
                </g>
            </g>
        </g>
        <g transform="matrix(-1, 0, 0, -1, 46.148, 41.6976)">
            <g>
                <g>
                    <rect width="0.7795" fill="#9A916C" gorn="0.2.90.0.0.0" x="22.6842" id="connector98pin" y="19.2189" height="3.2598"/>
                </g>
            </g>
        </g>
        <g transform="matrix(-1, 0, 0, -1, 54.652, 41.6976)">
            <g>
                <g>
                    <rect width="0.7795" fill="#9A916C" gorn="0.2.91.0.0.0" x="26.9362" id="connector99pin" y="19.2189" height="3.2598"/>
                </g>
            </g>
        </g>
        <g transform="matrix(-1, 0, 0, -1, 60.3212, 41.6976)">
            <g>
                <g>
                    <rect width="0.7795" fill="#9A916C" gorn="0.2.92.0.0.0" x="29.7708" id="connector100pin" y="19.2189" height="3.2598"/>
                </g>
            </g>
        </g>
        <circle stroke="#9A916C" fill="none" gorn="0.2.93" id="connector101pin" r="1.2104" stroke-width="0.72" cx="37.4457" cy="19.2189"/>
        <path fill="#9A916C" d="M36.2353,16.435h2.4208v5.5678h-2.4208V16.435 M36.2353,19.2189c0,0.6685,0.5419,1.2104,1.2104,1.2104c0.6685,0,1.2104-0.5419,1.2104-1.2104s-0.5419-1.2104-1.2104-1.2104C36.7772,18.0085,36.2353,18.5504,36.2353,19.2189L36.2353,19.2189z"/>
        <circle stroke="#9A916C" fill="none" gorn="0.2.95" id="connector102pin" r="1.2104" stroke-width="0.72" cx="12.9543" cy="19.2189"/>
        <path fill="#9A916C" d="M11.7439,16.435h2.4208v5.5678h-2.4208V16.435 M11.7439,19.2189c0,0.6685,0.5419,1.2104,1.2104,1.2104s1.2104-0.5419,1.2104-1.2104s-0.5419-1.2104-1.2104-1.2104S11.7439,18.5504,11.7439,19.2189L11.7439,19.2189z"/>
        <circle stroke="#9A916C" fill="none" gorn="0.2.97" id="connector103pin" r="1.2104" stroke-width="0.72" cx="37.4457" cy="7.3701"/>
        <path fill="#9A916C" d="M36.2353,4.5862h2.4208v5.5678h-2.4208V4.5862 M36.2353,7.3701c0,0.6685,0.5419,1.2104,1.2104,1.2104c0.6685,0,1.2104-0.5419,1.2104-1.2104s-0.5419-1.2104-1.2104-1.2104C36.7772,6.1597,36.2353,6.7016,36.2353,7.3701z"/>
        <circle stroke="#9A916C" fill="none" gorn="0.2.99" id="connector104pin" r="1.2104" stroke-width="0.72" cx="12.9543" cy="7.3701"/>
        <path fill="#9A916C" d="M11.7439,4.5862h2.4208v5.5678h-2.4208V4.5862 M11.7439,7.3701c0,0.6685,0.5419,1.2104,1.2104,1.2104s1.2104-0.5419,1.2104-1.2104s-0.5419-1.2104-1.2104-1.2104S11.7439,6.7016,11.7439,7.3701z"/>
        <g transform="matrix(1, 0, 0, 1, 36.3335, 29.3685)">
            <g>
                <g gorn="0.2.101.0.0" id="_x30_805-cap">
                    <g transform="matrix(0, 1, -1, 0, 4.606, -1.063)">
                        <g>
                            <g>
                                <path fill="#DCDCDC" d="M5.386,3.543H0.283C0.127,3.543,0,3.416,0,3.26V0.283C0,0.127,0.127,0,0.283,0h5.102c0.157,0,0.283,0.127,0.283,0.283V3.26C5.669,3.416,5.542,3.543,5.386,3.543z"/>
                                <g transform="matrix(2.535182e-06 1 -1 2.535182e-06 4.606 -1.063)">
                                    <g>
                                        <rect width="3.543" fill="#6E554B" x="1.063" y="0" height="3.543"/>
                                    </g>
                                </g>
                            </g>
                        </g>
                    </g>
                </g>
            </g>
        </g>
        <g transform="matrix(1, 0, 0, 1, 36.2615, 39.7005)">
            <g>
                <g gorn="0.2.102.0.0" id="_x30_805-cap_1_">
                    <g transform="matrix(0, 1, -1, 0, 4.606, -1.063)">
                        <g>
                            <g>
                                <path fill="#DCDCDC" d="M5.386,3.543H0.283C0.127,3.543,0,3.416,0,3.26V0.283C0,0.127,0.127,0,0.283,0h5.102c0.157,0,0.283,0.127,0.283,0.283V3.26C5.669,3.416,5.542,3.543,5.386,3.543z"/>
                                <g transform="matrix(2.535182e-06 1 -1 2.535182e-06 4.606 -1.063)">
                                    <g>
                                        <rect width="3.543" fill="#6E554B" x="1.063" y="0" height="3.543"/>
                                    </g>
                                </g>
                            </g>
                        </g>
                    </g>
                </g>
            </g>
        </g>
        <g transform="matrix(1, 0, 0, 1, 31.066, 20.7991)">
            <g>
                <g gorn="0.2.103.0.0" id="sod-323_mini">
                    <g transform="matrix(-1, 0, 0, -1, 4.252, 8.08178)">
                        <g>
                            <g>
                                <g>
                                    <rect width="5.5276" fill="#333333" x="-0.5552" y="1.999" height="4.252"/>
                                    <rect width="1.2756" fill="#DCDCDC" x="-1.8308" y="3.558" height="1.1339"/>
                                    <rect width="1.2756" fill="#DCDCDC" x="4.9723" y="3.558" height="1.1339"/>
                                    <rect width="0.9947" fill="#111111" x="0.453" y="1.999" height="4.252"/>
                                </g>
                            </g>
                        </g>
                    </g>
                </g>
            </g>
        </g>
        <g transform="matrix(1, 0, 0, 1, 11.4102, 28.5318)">
            <g>
                <g gorn="0.2.104.0.0" id="qfn32_5mm">
                    <g transform="scale(1.2499999,1.2499999)">
                        <g>
                            <g gorn="0.2.104.0.0.0.0.0" id="g3335">
                                <path fill="#333333" d="M0.5669,0h10.2047c0.3131,0,0.5669,0.2538,0.5669,0.5669v10.2047c0,0.3131-0.2538,0.5669-0.5669,0.5669H0.5669C0.2538,11.3386,0,11.0848,0,10.7717V0.5669C0,0.2538,0.2538,0,0.5669,0z" gorn="0.2.104.0.0.0.0.0.0" id="rect3"/>
                                <circle fill="#666666" gorn="0.2.104.0.0.0.0.0.1" id="path3333" r="0.5381" cx="1.2684" cy="1.3208"/>
                            </g>
                        </g>
                    </g>
                </g>
            </g>
        </g>
        <g transform="matrix(1, 0, 0, 1, 29.262, 49.388)">
            <g>
                <g gorn="0.2.105.0.0" id="btn_kmr2_4.6x2.8">
                    <g transform="matrix(0, -1, 1, 0, 2.12602, 10.63)">
                        <g>
                            <g>
                                <g>
                                    <polygon points="12.756,2.692 12.756,1.275 11.339,1.275 11.339,0 1.417,0 1.417,1.275 0,1.275 0,2.692 1.417,2.692 1.417,5.811 0,5.811 0,7.228 1.417,7.228 1.417,8.504 11.339,8.504 11.339,7.228 12.756,7.228 12.756,5.811 11.339,5.811 11.339,2.692 " fill="#DCDCDC"/>
                                    <circle fill="#1E1E1E" r="2.48" cx="6.378" cy="4.252"/>
                                    <g transform="matrix(-2.535182e-06 -1 1 -2.535182e-06 -2.9765 5.5275)">
                                        <g>
                                            <rect width="8.504" fill="#B4B4B4" x="-2.9765" y="3.9685" height="0.567"/>
                                        </g>
                                    </g>
                                    <g transform="matrix(-2.535182e-06 -1 1 -2.535182e-06 7.2285 15.7325)">
                                        <g>
                                            <rect width="8.504" fill="#B4B4B4" x="7.2285" y="3.9685" height="0.567"/>
                                        </g>
                                    </g>
                                </g>
                            </g>
                        </g>
                    </g>
                </g>
            </g>
        </g>
        <g transform="matrix(1, 0, 0, 1, 28.29, 28.789)">
            <g>
                <g gorn="0.2.106.0.0" id="sot23-5">
                    <g transform="matrix(-1, 0, 0, -1, 8.22002, 7.65403)">
                        <g>
                            <g>
                                <g>
                                    <rect width="1.134" fill="#DCDCDC" x="0.85" y="0" height="7.654"/>
                                    <rect width="1.134" fill="#DCDCDC" x="6.236" y="0" height="7.654"/>
                                    <rect width="1.134" fill="#DCDCDC" x="3.543" y="4.535" height="3.118"/>
                                    <rect width="8.22" fill="#303030" x="0" y="1.559" height="4.535"/>
                                </g>
                            </g>
                        </g>
                    </g>
                </g>
            </g>
        </g>
        <g transform="matrix(1, 0, 0, 1, 54.5625, 23.2925)">
            <g>
                <g>
                    <g>
                        <g gorn="0.2.107.0.0.0.0" id="jst_sh4">
                            <g transform="matrix(0, -1, 1, 0, -0.291564, 17.9233)">
                                <g>
                                    <g>
                                        <g>
                                            <g>
                                                <path fill="#666666" d="M-7.6601-41.8701l0.017,14.1872l-1.4315,0.0019l0.0017,1.4185l-10.0208,0.0136l-0.0204-17.0237l10.0208-0.0137l0.0017,1.418L-7.6601-41.8701z" gorn="0.2.107.0.0.0.0.0.0.0.0.0.0" id="polygon5"/>
                                                <g transform="matrix(-0.0068 -1 1 -0.0068 1.8836 27.4403)">
                                                    <g>
                                                        <g>
                                                            <g>
                                                                <rect width="1.4185" gorn="0.2.107.0.0.0.0.0.0.0.0.0.1.0.0.0.0" x="55.925" id="rect7" y="-16.26" height="4.3718"/>
                                                            </g>
                                                        </g>
                                                    </g>
                                                </g>
                                                <g transform="matrix(-0.0068 -1 1 -0.0068 -9.6171 16.1724)">
                                                    <g>
                                                        <g>
                                                            <g>
                                                                <rect width="1.4185" gorn="0.2.107.0.0.0.0.0.0.0.0.0.2.0.0.0.0" x="55.9257" id="rect9" y="-4.837" height="4.3718"/>
                                                            </g>
                                                        </g>
                                                    </g>
                                                </g>
                                                <g transform="matrix(-0.0068 -1 1 -0.0068 4.7764 24.4845)">
                                                    <g>
                                                        <g>
                                                            <g>
                                                                <rect width="1.4185" fill="#333333" gorn="0.2.107.0.0.0.0.0.0.0.0.0.3.0.0.0.0" x="52.9907" id="rect11" y="-14.8011" height="1.4574"/>
                                                            </g>
                                                        </g>
                                                    </g>
                                                </g>
                                                <g transform="matrix(-0.0068 -1 1 -0.0068 -6.7243 13.2165)">
                                                    <g>
                                                        <g>
                                                            <g>
                                                                <rect width="1.4185" fill="#333333" gorn="0.2.107.0.0.0.0.0.0.0.0.0.4.0.0.0.0" x="52.9913" id="rect13" y="-3.378" height="1.4574"/>
                                                            </g>
                                                        </g>
                                                    </g>
                                                </g>
                                                <g transform="matrix(-0.0068 -1 1 -0.0068 5.8703 20.4896)">
                                                    <g>
                                                        <g>
                                                            <g>
                                                                <rect width="0.9927" fill="#DCDCDC" gorn="0.2.107.0.0.0.0.0.0.0.0.0.5.0.0.0.0" x="50.636" id="rect19" y="-14.4648" height="3.6433"/>
                                                            </g>
                                                        </g>
                                                    </g>
                                                </g>
                                                <g transform="matrix(-0.0068 -1 1 -0.0068 2.9953 17.6727)">
                                                    <g>
                                                        <g>
                                                            <g>
                                                                <rect width="0.9927" fill="#DCDCDC" gorn="0.2.107.0.0.0.0.0.0.0.0.0.6.0.0.0.0" x="50.636" id="rect21" y="-11.6091" height="3.6433"/>
                                                            </g>
                                                        </g>
                                                    </g>
                                                </g>
                                                <g transform="matrix(-0.0068 -1 1 -0.0068 2.9953 17.6727)">
                                                    <g>
                                                        <g>
                                                            <g>
                                                                <rect width="0.9927" fill="#DCDCDC" gorn="0.2.107.0.0.0.0.0.0.0.0.0.7.0.0.0.0" x="50.636" id="rect4164" y="-11.6091" height="3.6433"/>
                                                            </g>
                                                        </g>
                                                    </g>
                                                </g>
                                                <g transform="matrix(-0.0068 -1 1 -0.0068 0.12 14.8556)">
                                                    <g>
                                                        <g>
                                                            <g>
                                                                <rect width="0.9927" fill="#DCDCDC" gorn="0.2.107.0.0.0.0.0.0.0.0.0.8.0.0.0.0" x="50.6362" id="rect4188" y="-8.7532" height="3.6433"/>
                                                            </g>
                                                        </g>
                                                    </g>
                                                </g>
                                                <g transform="matrix(-0.0068 -1 1 -0.0068 -2.7552 12.0386)">
                                                    <g>
                                                        <g>
                                                            <g>
                                                                <rect width="0.9927" fill="#DCDCDC" gorn="0.2.107.0.0.0.0.0.0.0.0.0.9.0.0.0.0" x="50.6364" id="rect4143" y="-5.8974" height="3.6433"/>
                                                            </g>
                                                        </g>
                                                    </g>
                                                </g>
                                                <path d="M-14.2271-43.2722c2.6862,0,4.9385-0.0043,5.0052-0.0095l0.1211-0.0095v0.7148v0.7148h0.72h0.7199v1.1437v1.1436l-0.3416,0.0097c-0.1879,0.0053-0.492,0.0097-0.6758,0.0097h-0.3342v0.2241c0,0.1232,0.0044,0.348,0.0097,0.4995l0.0096,0.2755h0.6661h0.6662v0.9086v0.9086l-0.2314,0.0096c-0.1273,0.0052-0.4248,0.0095-0.6612,0.0096h-0.4297v0.4996v0.4995h0.6611h0.6612v0.9109v0.9109l-0.1102,0.0019c-0.0606,0.001-0.1168,0.0035-0.1249,0.0055c-0.0081,0.002-0.2528,0.0045-0.5438,0.0055l-0.5291,0.0018l0.0039,0.5007l0.0039,0.5007l0.65-0.0016l0.6501-0.0018v0.9099c0,0.8162-0.0024,0.9108-0.0232,0.9188c-0.0128,0.0049-0.3037,0.0089-0.6465,0.0089h-0.6232v0.3062c0,0.1684,0.0042,0.3949,0.0094,0.5032l0.0094,0.197l0.6444-0.0044l0.6445-0.0043v1.1834v1.1834h-0.7199h-0.72v0.7028v0.7028l-1.6553,0.0098c-0.9104,0.0054-3.1616,0.0098-5.0027,0.0098h-3.3474v-3.2507c0-1.7879-0.0044-5.6159-0.0098-8.5068l-0.0098-5.2561L-14.2271-43.2722z M-14.5405-39.7165c0.545,0.0002,4.2541-0.0289,4.9092-0.0384l0.6373-0.0093l-0.0108-0.7071c-0.0059-0.3889-0.0125-0.709-0.0146-0.7112c-0.0052-0.0056-4.2668,0.0235-5.1318,0.035l-0.6942,0.0092v0.7108v0.7108L-14.5405-39.7165L-14.5405-39.7165z M-14.7524-28.3792c0.0116,0.0116,5.4879-0.0206,5.6931-0.0335l0.1369-0.0086l-0.0047-0.7025c-0.0026-0.3864-0.008-0.7058-0.012-0.7097c-0.0069-0.0067-1.8862,0.0045-4.6263,0.0275l-1.2104,0.0102l0.0067,0.7033C-14.7654-28.7057-14.7579-28.3847-14.7524-28.3792z" gorn="0.2.107.0.0.0.0.0.0.0.0.0.10" id="path594"/>
                                                <path d="M-10.379-41.1766c0.0525-0.005,0.3774-0.0091,0.722-0.0091l0.6265-0.0001l0.0071,0.0551c0.0095,0.0736,0.0168,0.4796,0.0176,0.9673l0.0006,0.398l-0.5216,0.0091c-0.2869,0.005-0.6157,0.0051-0.7307,0.0001l-0.2091-0.009l-0.004-0.7012l-0.004-0.7012L-10.379-41.1766z" gorn="0.2.107.0.0.0.0.0.0.0.0.0.11" id="path596"/>
                                                <path d="M-10.193-29.8191c0.1104-0.0053,0.4376-0.0096,0.7273-0.0096l0.5266,0.0001l0.0034,0.1065c0.0019,0.0586,0.0035,0.3759,0.0037,0.7052l0.0002,0.5986l-0.0955,0.0016c-0.0525,0.0009-0.3814,0.0026-0.7309,0.0038l-0.6354,0.0022V-29.11v-0.6993L-10.193-29.8191z" gorn="0.2.107.0.0.0.0.0.0.0.0.0.12" id="path598"/>
                                                <g transform="matrix(-2.535182e-06 -1 1 -2.535182e-06 -19.4739 23.9397)">
                                                    <g>
                                                        <g>
                                                            <g>
                                                                <ellipse gorn="0.2.107.0.0.0.0.0.0.0.0.0.13.0.0.0.0" rx="2.0127" id="connector13pin" cx="65.3743" cy="-2.0238" ry="2.0127"/>
                                                            </g>
                                                        </g>
                                                    </g>
                                                </g>
                                                <g transform="matrix(-2.535182e-06 -1 1 -2.535182e-06 -14.9384 28.4752)">
                                                    <g>
                                                        <g>
                                                            <g>
                                                                <ellipse fill="#FF0000" gorn="0.2.107.0.0.0.0.0.0.0.0.0.14.0.0.0.0" rx="2.0127" id="connector14pin" cx="65.3743" cy="-6.5594" ry="2.0127"/>
                                                            </g>
                                                        </g>
                                                    </g>
                                                </g>
                                                <g transform="matrix(-2.535182e-06 -1 1 -2.535182e-06 -10.403 33.0106)">
                                                    <g>
                                                        <g>
                                                            <g>
                                                                <ellipse fill="#0000FF" gorn="0.2.107.0.0.0.0.0.0.0.0.0.15.0.0.0.0" rx="2.0127" id="connector15pin" cx="65.3744" cy="-11.0946" ry="2.0127"/>
                                                            </g>
                                                        </g>
                                                    </g>
                                                </g>
                                                <g transform="matrix(-2.535182e-06 -1 1 -2.535182e-06 -5.8676 37.546)">
                                                    <g>
                                                        <g>
                                                            <g>
                                                                <ellipse fill="#FFFF00" gorn="0.2.107.0.0.0.0.0.0.0.0.0.16.0.0.0.0" rx="2.0127" id="connector16pin" cx="65.3744" cy="-15.63" ry="2.0127"/>
                                                            </g>
                                                        </g>
                                                    </g>
                                                </g>
                                            </g>
                                        </g>
                                    </g>
                                </g>
                            </g>
                        </g>
                    </g>
                </g>
            </g>
        </g>
        <path fill="#DCDCDC" d="M22.9683,25.4503h-2.2677c-0.1566,0-0.2835-0.1269-0.2835-0.2835v-0.8504c0-0.1566,0.1269-0.2835,0.2835-0.2835h2.2677c0.1566,0,0.2835,0.1269,0.2835,0.2835v0.8504C23.2517,25.3234,23.1248,25.4503,22.9683,25.4503z"/>
        <rect width="1.4173" fill="#6E554B" x="21.1258" y="24.033" height="1.4173"/>
        <path fill="#DCDCDC" d="M15.1759,25.4882h-2.2677c-0.1566,0-0.2835-0.1269-0.2835-0.2835v-0.8504c0-0.1566,0.1269-0.2835,0.2835-0.2835h2.2677c0.1566,0,0.2835,0.1269,0.2835,0.2835v0.8504C15.4593,25.3613,15.3324,25.4882,15.1759,25.4882z"/>
        <rect width="1.4173" fill="#6E554B" x="13.3333" y="24.0708" height="1.4173"/>
        <path fill="#DCDCDC" d="M10.8471,15.2179H8.5794c-0.1566,0-0.2835-0.1269-0.2835-0.2835v-0.8504c0-0.1566,0.1269-0.2835,0.2835-0.2835h2.2677c0.1566,0,0.2835,0.1269,0.2835,0.2835v0.8504C11.1306,15.091,11.0037,15.2179,10.8471,15.2179z"/>
        <rect width="1.4173" fill="#6E554B" x="9.0046" y="13.8006" height="1.4173"/>
        <path fill="#DCDCDC" d="M41.8133,13.935h-2.2677c-0.1566,0-0.2835-0.1269-0.2835-0.2835v-0.8504c0-0.1566,0.1269-0.2835,0.2835-0.2835h2.2677c0.1566,0,0.2835,0.1269,0.2835,0.2835v0.8504C42.0967,13.8081,41.9698,13.935,41.8133,13.935z"/>
        <rect width="1.4173" fill="#6E554B" x="39.9708" y="12.5177" height="1.4173"/>
        <path fill="#DCDCDC" d="M12.888,47.6819h-2.2677c-0.1566,0-0.2835-0.1269-0.2835-0.2835v-0.8504c0-0.1566,0.1269-0.2835,0.2835-0.2835h2.2677c0.1566,0,0.2835,0.1269,0.2835,0.2835v0.8504C13.1715,47.555,13.0446,47.6819,12.888,47.6819z"/>
        <rect width="1.4173" fill="#6E554B" x="11.0455" y="46.2646" height="1.4173"/>
        <g>
            <rect width="5.2979" fill="#9C8F6D" x="30.5387" y="38.3347" height="5.2979"/>
            <rect width="3.1788" fill="#807C73" x="30.9361" y="39.3943" height="3.1788"/>
        </g>
        <path fill="#FFFFFF" d="M30.12,42.0747h-2.1924l0.3359,0.4453l-0.5205,0.2979l-0.5967-0.8145v-0.5879H30.12V42.0747z M30.12,40.2886h-2.1924l0.3359,0.4453l-0.5205,0.2979l-0.5967-0.8145v-0.5879H30.12V40.2886z M8.5653,41.5796l-1.2036,0.251v-0.5322l1.2036,0.2637V41.5796z M41.5766,28.6103h8.8225v2.2037c-0.7828,0-1.4174,0.6345-1.4174,1.4173c0,0.7828,0.6346,1.4173,1.4174,1.4173v4.3654c-0.7828,0-1.4174,0.6346-1.4174,1.4174s0.6346,1.4173,1.4174,1.4173v4.3654c-0.7828,0-1.4174,0.6346-1.4174,1.4174c0,0.7827,0.6346,1.4173,1.4174,1.4173v2.2033h-8.8225c-0.4697,0-0.8504-0.3807-0.8504-0.8504V29.4608C40.7262,28.9911,41.1069,28.6103,41.5766,28.6103z M44.1249,48.7358c0-0.126-0.0195-0.248-0.0576-0.3652c-0.0391-0.1182-0.0967-0.2227-0.1729-0.3125s-0.1719-0.1611-0.2881-0.2148c-0.1162-0.0527-0.251-0.0791-0.4033-0.0791c-0.1221,0-0.2285,0.0215-0.3184,0.0635c-0.0889,0.043-0.166,0.0967-0.2305,0.1621c-0.0635,0.0645-0.1182,0.1367-0.1621,0.2148s-0.082,0.1523-0.1143,0.2236c-0.0586,0.126-0.1123,0.2217-0.1621,0.2861c-0.0488,0.0645-0.1182,0.0967-0.2061,0.0967c-0.1045,0-0.1787-0.0312-0.2246-0.0947c-0.0449-0.0635-0.0684-0.1338-0.0684-0.2129c0-0.0771,0.0156-0.1504,0.0459-0.2207c0.0312-0.0703,0.0742-0.1318,0.1309-0.1846l-0.4707-0.3652c-0.0869,0.0908-0.1562,0.2041-0.2061,0.3389c-0.0508,0.1348-0.0762,0.2871-0.0762,0.458c0,0.1143,0.0176,0.2275,0.0527,0.3408c0.0342,0.1123,0.0879,0.2158,0.1602,0.3076c0.0713,0.0928,0.1641,0.167,0.2773,0.2246c0.1133,0.0566,0.249,0.0859,0.4062,0.0859c0.1172,0,0.2188-0.0166,0.3037-0.0488c0.0859-0.0322,0.1602-0.0771,0.2246-0.1338c0.0635-0.0576,0.1182-0.123,0.1641-0.1982c0.0449-0.0752,0.0859-0.1543,0.124-0.2402c0.0605-0.1348,0.1191-0.2373,0.1738-0.3076s0.1279-0.1055,0.2217-0.1055c0.0908,0,0.1611,0.0293,0.2119,0.0879c0.0508,0.0586,0.0762,0.1309,0.0762,0.2158c0,0.0908-0.0195,0.1807-0.0576,0.2686c-0.0391,0.0879-0.0908,0.165-0.1543,0.2324l0.4795,0.3613c0.0859-0.0938,0.1602-0.2178,0.2246-0.3721C44.0926,49.0952,44.1249,48.9243,44.1249,48.7358z M44.1249,46.478c0-0.2139-0.0361-0.3906-0.1104-0.5283c-0.0732-0.1377-0.1641-0.249-0.2734-0.334l-0.4443,0.3916c0.0586,0.041,0.1094,0.0967,0.1523,0.167s0.0635,0.1523,0.0635,0.2461s-0.0225,0.1758-0.0674,0.2471c-0.0459,0.0703-0.1084,0.1289-0.1885,0.1777s-0.1729,0.084-0.2793,0.1074c-0.1074,0.0234-0.2217,0.0352-0.3447,0.0352c-0.1221,0-0.2373-0.0117-0.3457-0.0352s-0.2012-0.0586-0.2803-0.1074c-0.0781-0.0488-0.1406-0.1074-0.1855-0.1758c-0.0459-0.0693-0.0684-0.1504-0.0684-0.2441c0-0.0996,0.0186-0.1826,0.0557-0.249c0.0381-0.0654,0.0889-0.125,0.1523-0.1777l-0.4639-0.3789c-0.1016,0.085-0.1855,0.1973-0.2539,0.3369s-0.1025,0.3135-0.1025,0.5215c0,0.1816,0.0361,0.3467,0.1084,0.4951c0.0723,0.1475,0.1738,0.2744,0.3037,0.3799c0.1309,0.1064,0.2881,0.1885,0.4727,0.2471c0.1836,0.0586,0.3867,0.0879,0.6074,0.0879c0.2188,0,0.4199-0.0293,0.6025-0.0879s0.3398-0.1406,0.4717-0.2471c0.1318-0.1055,0.2344-0.2324,0.3076-0.3799C44.0887,46.8247,44.1249,46.6597,44.1249,46.478z M42.3973,44.7876v0.0137h-1.1807v0.708h2.832v-0.708h-1.3154v-0.0137l1.3154-0.6641v-0.8145l-1.5361,0.8496l-1.2959-0.8008v0.7871L42.3973,44.7876z M43.0409,39.813v0.0176l-1.8242,0.502v0.8887h2.832v-0.6377l-1.9434,0.0215v-0.0127l1.9434-0.5059v-0.4971l-1.9434-0.5244v-0.0176l1.9434,0.0264v-0.6904h-2.832v0.9414L43.0409,39.813z M43.0409,33.3325v0.0176l-1.8242,0.502v0.8887h2.832V34.103l-1.9434,0.0215v-0.0127l1.9434-0.5059v-0.4971l-1.9434-0.5244v-0.0176l1.9434,0.0264v-0.6904h-2.832v0.9414L43.0409,33.3325z M41.2167,37.3296v0.708h2.832v-0.708H41.2167z M45.3818,32.2313c0,0.7828,0.6346,1.4173,1.4173,1.4173c0.7828,0,1.4174-0.6345,1.4174-1.4173c0-0.7828-0.6346-1.4173-1.4174-1.4173C46.0163,30.814,45.3818,31.4485,45.3818,32.2313z M45.3818,39.4313c0,0.7828,0.6346,1.4173,1.4173,1.4173c0.7828,0,1.4174-0.6345,1.4174-1.4173s-0.6346-1.4174-1.4174-1.4174C46.0163,38.014,45.3818,38.6486,45.3818,39.4313z M45.3818,46.6313c0,0.7827,0.6346,1.4173,1.4173,1.4173c0.7828,0,1.4174-0.6346,1.4174-1.4173c0-0.7828-0.6346-1.4174-1.4174-1.4174C46.0163,45.214,45.3818,45.8486,45.3818,46.6313z M42.0145,29.3667c-0.1826,0.0557-0.3379,0.1357-0.4678,0.2383c-0.1289,0.1025-0.2295,0.2275-0.2998,0.376s-0.1064,0.3145-0.1064,0.499c0,0.1885,0.0361,0.3564,0.1064,0.5039c0.0703,0.1484,0.1709,0.2734,0.2998,0.376c0.1299,0.1035,0.2852,0.1816,0.4678,0.2354c0.1836,0.0547,0.3867,0.082,0.6104,0.082s0.4287-0.0283,0.6143-0.084s0.3428-0.1348,0.4736-0.2373s0.2324-0.2285,0.3037-0.376c0.0723-0.1484,0.1084-0.3145,0.1084-0.5c0-0.1846-0.0361-0.3506-0.1084-0.499c-0.0713-0.1484-0.1729-0.2734-0.3037-0.376s-0.2881-0.1826-0.4736-0.2383s-0.3906-0.083-0.6143-0.083S42.1981,29.311,42.0145,29.3667z M8.8216,50.252h-8.8225v-2.2033c0.7828,0,1.4174-0.6346,1.4174-1.4173c0-0.7828-0.6346-1.4174-1.4174-1.4174v-4.3654c0.7828,0,1.4174-0.6345,1.4174-1.4173S0.7819,38.014-0.0009,38.014v-2.1744h8.8225c0.4697,0,0.8504,0.3807,0.8504,0.8504v12.7116C9.672,49.8712,9.2913,50.252,8.8216,50.252z M6.2733,37.2368c0,0.126,0.0195,0.248,0.0581,0.3652c0.0391,0.1182,0.0962,0.2227,0.1724,0.3125s0.1724,0.1611,0.2886,0.2148c0.1162,0.0527,0.2505,0.0791,0.4028,0.0791c0.1226,0,0.229-0.0215,0.3184-0.0635c0.0894-0.043,0.166-0.0967,0.2305-0.1621c0.064-0.0645,0.1182-0.1367,0.1621-0.2148s0.082-0.1523,0.1143-0.2236c0.0586-0.126,0.1128-0.2217,0.1621-0.2861s0.1182-0.0967,0.2065-0.0967c0.104,0,0.1787,0.0312,0.2241,0.0947s0.0684,0.1338,0.0684,0.2129c0,0.0771-0.0156,0.1504-0.0459,0.2207c-0.0308,0.0703-0.0742,0.1318-0.1304,0.1846l0.4702,0.3652c0.0874-0.0908,0.1562-0.2041,0.2065-0.3389s0.0757-0.2871,0.0757-0.458c0-0.1143-0.0176-0.2275-0.0522-0.3408c-0.0347-0.1123-0.0879-0.2158-0.1602-0.3076c-0.0718-0.0928-0.1646-0.167-0.2778-0.2246c-0.1133-0.0566-0.2485-0.0859-0.4058-0.0859c-0.1177,0-0.2188,0.0166-0.3042,0.0488s-0.1602,0.0771-0.2241,0.1338c-0.064,0.0576-0.1187,0.123-0.1641,0.1982s-0.0864,0.1543-0.124,0.2402c-0.061,0.1348-0.1191,0.2373-0.1738,0.3076s-0.1284,0.1055-0.2222,0.1055c-0.0903,0-0.1611-0.0293-0.2119-0.0879c-0.0508-0.0586-0.0757-0.1309-0.0757-0.2158c0-0.0908,0.019-0.1807,0.0576-0.2686s0.0903-0.165,0.1543-0.2324l-0.48-0.3613c-0.0854,0.0938-0.1602,0.2178-0.2241,0.3721C6.3055,36.8774,6.2733,37.0483,6.2733,37.2368z M6.8656,41.2192v0.6992l-0.5161,0.1279v0.7344l2.832-0.752V41.144l-2.832-0.7568v0.7041L6.8656,41.2192z M9.1815,39.2827v-0.875h-2.832v0.875c0,0.2236,0.0332,0.416,0.1001,0.5791c0.0664,0.1631,0.1611,0.2969,0.2837,0.4023c0.123,0.1055,0.271,0.1846,0.4443,0.2354c0.1733,0.0518,0.3667,0.0771,0.5801,0.0771c0.2183,0,0.415-0.0254,0.5898-0.0771c0.1748-0.0508,0.3237-0.1299,0.4478-0.2354s0.2197-0.2393,0.2861-0.4023C9.1483,39.6987,9.1815,39.5063,9.1815,39.2827z M6.2733,44.8013c0,0.126,0.0195,0.248,0.0581,0.3652c0.0391,0.1182,0.0962,0.2227,0.1724,0.3125s0.1724,0.1611,0.2886,0.2148c0.1162,0.0527,0.2505,0.0791,0.4028,0.0791c0.1226,0,0.229-0.0215,0.3184-0.0635c0.0894-0.043,0.166-0.0967,0.2305-0.1621c0.064-0.0645,0.1182-0.1367,0.1621-0.2148s0.082-0.1523,0.1143-0.2236c0.0586-0.126,0.1128-0.2217,0.1621-0.2861s0.1182-0.0967,0.2065-0.0967c0.104,0,0.1787,0.0312,0.2241,0.0947s0.0684,0.1338,0.0684,0.2129c0,0.0771-0.0156,0.1504-0.0459,0.2207c-0.0308,0.0703-0.0742,0.1318-0.1304,0.1846l0.4702,0.3652c0.0874-0.0908,0.1562-0.2041,0.2065-0.3389s0.0757-0.2871,0.0757-0.458c0-0.1143-0.0176-0.2275-0.0522-0.3408c-0.0347-0.1123-0.0879-0.2158-0.1602-0.3076c-0.0718-0.0928-0.1646-0.167-0.2778-0.2246c-0.1133-0.0566-0.2485-0.0859-0.4058-0.0859c-0.1177,0-0.2188,0.0166-0.3042,0.0488s-0.1602,0.0771-0.2241,0.1338c-0.064,0.0576-0.1187,0.123-0.1641,0.1982s-0.0864,0.1543-0.124,0.2402c-0.061,0.1348-0.1191,0.2373-0.1738,0.3076s-0.1284,0.1055-0.2222,0.1055c-0.0903,0-0.1611-0.0293-0.2119-0.0879c-0.0508-0.0586-0.0757-0.1309-0.0757-0.2158c0-0.0908,0.019-0.1807,0.0576-0.2686s0.0903-0.165,0.1543-0.2324l-0.48-0.3613c-0.0854,0.0938-0.1602,0.2178-0.2241,0.3721C6.3055,44.4419,6.2733,44.6128,6.2733,44.8013z M5.0164,46.6313c0-0.7828-0.6346-1.4174-1.4173-1.4174c-0.7828,0-1.4174,0.6346-1.4174,1.4174c0,0.7827,0.6346,1.4173,1.4174,1.4173C4.3818,48.0486,5.0164,47.4141,5.0164,46.6313z M5.0164,39.4313c0-0.7828-0.6346-1.4174-1.4173-1.4174c-0.7828,0-1.4174,0.6346-1.4174,1.4174s0.6346,1.4173,1.4174,1.4173C4.3818,40.8486,5.0164,40.2141,5.0164,39.4313z M6.2733,47.0591c0,0.2139,0.0366,0.3906,0.1104,0.5283c0.0732,0.1377,0.1646,0.249,0.2739,0.334l0.4438-0.3916c-0.0586-0.041-0.1094-0.0967-0.1519-0.167c-0.043-0.0703-0.064-0.1523-0.064-0.2461s0.0225-0.1758,0.0679-0.2471c0.0454-0.0703,0.1079-0.1289,0.188-0.1777s0.1733-0.084,0.2798-0.1074c0.1069-0.0234,0.2217-0.0352,0.3442-0.0352s0.2378,0.0117,0.3462,0.0352c0.1079,0.0234,0.2012,0.0586,0.2798,0.1074s0.1406,0.1074,0.186,0.1758c0.0454,0.0693,0.0679,0.1504,0.0679,0.2441c0,0.0996-0.0186,0.1826-0.0557,0.249c-0.0376,0.0654-0.0884,0.125-0.1523,0.1777l0.4639,0.3789c0.1016-0.085,0.186-0.1973,0.2544-0.3369c0.0679-0.1396,0.1021-0.3135,0.1021-0.5215c0-0.1816-0.0361-0.3467-0.1084-0.4951c-0.0718-0.1475-0.1733-0.2744-0.3037-0.3799c-0.1309-0.1064-0.2881-0.1885-0.4722-0.2471s-0.3867-0.0879-0.6079-0.0879c-0.2188,0-0.4194,0.0293-0.6021,0.0879s-0.3398,0.1406-0.4722,0.2471c-0.1318,0.1055-0.2344,0.2324-0.3076,0.3799C6.3099,46.7124,6.2733,46.8774,6.2733,47.0591z M6.9413,48.7417h2.2402v-0.7129h-2.832v1.5439h0.5918V48.7417z M42.0087,30.8384c0.0781,0.04,0.1689,0.0693,0.2744,0.0889c0.1055,0.0186,0.2197,0.0283,0.3418,0.0283c0.123,0,0.2373-0.0098,0.3438-0.0283c0.1074-0.0195,0.1992-0.0488,0.2764-0.0889c0.0771-0.0391,0.1387-0.0889,0.1836-0.1494c0.0459-0.0596,0.0684-0.1299,0.0684-0.209s-0.0225-0.1475-0.0684-0.2061c-0.0449-0.0596-0.1064-0.1084-0.1836-0.1475c-0.0771-0.04-0.1689-0.0703-0.2764-0.0908c-0.1064-0.0205-0.2207-0.0303-0.3438-0.0303c-0.1221,0-0.2363,0.0098-0.3418,0.0303s-0.1963,0.0508-0.2744,0.0908c-0.0771,0.0391-0.1377,0.0879-0.1816,0.1475c-0.0439,0.0586-0.0664,0.127-0.0664,0.2061s0.0225,0.1494,0.0664,0.209C41.871,30.7495,41.9315,30.7993,42.0087,30.8384z M6.9095,39.2915c0,0.1709,0.0728,0.3096,0.2178,0.416c0.1455,0.1074,0.3555,0.1611,0.6304,0.1611c0.2852,0,0.5005-0.0537,0.646-0.1611c0.145-0.1064,0.2178-0.2451,0.2178-0.416v-0.1709H6.9095V39.2915z M44.0487,54.4556l-1.2969,0.4355v0.2158h1.2969v0.708h-3.2568v-1.042c0-0.3145,0.082-0.5596,0.2461-0.7344c0.1641-0.1738,0.4092-0.2607,0.7344-0.2607c0.1191,0,0.2266,0.0137,0.3213,0.041c0.0957,0.0273,0.1768,0.0635,0.2441,0.1074c0.0674,0.0449,0.123,0.0938,0.166,0.1494c0.043,0.0547,0.0732,0.1084,0.0918,0.1602l1.4531-0.5547V54.4556z M41.8133,54.4995c-0.083,0-0.1504,0.0117-0.2021,0.0342c-0.0527,0.0234-0.0938,0.0537-0.124,0.0898c-0.0312,0.0371-0.0518,0.0781-0.0625,0.1221c-0.0107,0.0449-0.0166,0.0879-0.0166,0.1309v0.2305h0.8242v-0.2168c0-0.1035-0.0332-0.1953-0.0996-0.2734C42.0673,54.5386,41.9608,54.4995,41.8133,54.4995z M44.0487,52.0396l-1.0762,0.4502l1.0762,0.4463v0.7686l-1.7061-0.8008l-1.5508,0.7363v-0.7686l0.9893-0.4004l-0.9893-0.4043V51.312l1.5459,0.7412l1.7109-0.8096V52.0396z M43.0965,24.6958c0.166,0,0.3115,0.0254,0.4375,0.0762c0.125,0.0518,0.2324,0.1201,0.3193,0.208c0.0879,0.0869,0.1533,0.1904,0.1982,0.3076c0.0439,0.1182,0.0664,0.2461,0.0664,0.3828c0,0.2529-0.0684,0.4707-0.2051,0.6514c-0.1357,0.1807-0.3438,0.2998-0.623,0.3584l-0.166-0.6162c0.1074-0.0234,0.1953-0.0645,0.2627-0.123c0.0674-0.0576,0.1016-0.1377,0.1016-0.2402c0-0.0547-0.0127-0.1035-0.0371-0.1436c-0.0244-0.041-0.0566-0.0752-0.0967-0.1035c-0.04-0.0273-0.085-0.0478-0.1357-0.0605c-0.0508-0.0137-0.1016-0.0195-0.1543-0.0195c-0.1406,0-0.2451,0.0381-0.3125,0.1152s-0.1016,0.1797-0.1016,0.3086v0.1572h-0.543v-0.1748c0-0.1162-0.0352-0.2061-0.1074-0.2686s-0.1729-0.0947-0.3018-0.0947c-0.083,0-0.1611,0.0234-0.2344,0.0684s-0.1104,0.1172-0.1104,0.2158c0,0.085,0.0293,0.1504,0.0869,0.1973c0.0586,0.0459,0.1328,0.0811,0.2217,0.1045l-0.1572,0.5986c-0.1406-0.0352-0.2598-0.085-0.3584-0.1504c-0.0977-0.0654-0.1787-0.1396-0.2412-0.2227c-0.0635-0.084-0.1094-0.1748-0.1387-0.2734c-0.0283-0.0996-0.043-0.1992-0.043-0.3018c0-0.1133,0.0176-0.2236,0.0547-0.3301s0.0918-0.2012,0.166-0.2861c0.0732-0.084,0.165-0.1523,0.2754-0.2031s0.2393-0.0762,0.3867-0.0762c0.1904,0,0.3506,0.0381,0.4805,0.1152c0.1309,0.0771,0.2168,0.1807,0.2598,0.3086h0.0146c0.043-0.1484,0.1318-0.2666,0.2666-0.3545C42.7626,24.7397,42.9188,24.6958,43.0965,24.6958z M44.0487,23.1489v0.8867l-3.2568,0.7471v-0.79l2.3828-0.4199V23.564l-2.3828-0.415v-0.7607L44.0487,23.1489z M44.0487,19.6235c0.0488,0.1406,0.0742,0.3047,0.0742,0.4941c0,0.1953-0.042,0.3691-0.125,0.5225c-0.082,0.1523-0.1982,0.2822-0.3467,0.3887s-0.3271,0.1875-0.5361,0.2451c-0.208,0.0566-0.4404,0.085-0.6943,0.085c-0.2549,0-0.4873-0.0283-0.6973-0.085c-0.21-0.0576-0.3906-0.1377-0.543-0.2432c-0.1514-0.1045-0.2686-0.2305-0.3516-0.3779c-0.083-0.1465-0.124-0.3105-0.124-0.4912c0-0.21,0.0371-0.3857,0.1123-0.5264c0.0752-0.1416,0.1699-0.2529,0.2832-0.335l0.5381,0.3809c-0.1533,0.1045-0.2305,0.248-0.2305,0.4297c0,0.0967,0.0273,0.1797,0.0811,0.25s0.126,0.1289,0.2188,0.1758c0.0918,0.0469,0.1992,0.0811,0.3213,0.1035c0.123,0.0215,0.2529,0.0322,0.3916,0.0322c0.1377,0,0.2686-0.0098,0.3906-0.0303c0.123-0.0205,0.2305-0.0537,0.3223-0.0986c0.0918-0.0459,0.165-0.1025,0.2207-0.1719c0.0557-0.0684,0.083-0.1514,0.083-0.248c0-0.1055-0.0234-0.1875-0.0693-0.2461h-0.6074v0.332h-0.6387v-0.9443h1.7334C43.9354,19.3647,43.9999,19.4839,44.0487,19.6235z M44.0487,17.6792l-1.9824,0.7168v0.0127l1.9824-0.0176v0.625h-3.2568v-0.7686l2.0107-0.7129V17.522l-2.0107,0.0127v-0.6025h3.2568V17.6792z M42.4296,14.477c0.2451,0,0.4678,0.0254,0.667,0.0762c0.1992,0.0518,0.3701,0.1289,0.5107,0.2344c0.1416,0.1045,0.25,0.2383,0.3262,0.3994c0.0771,0.1621,0.1152,0.3535,0.1152,0.5752v0.8691h-3.2568v-0.8691c0-0.2217,0.0391-0.4131,0.1152-0.5752c0.0771-0.1611,0.1865-0.2949,0.3291-0.3994c0.1426-0.1055,0.3145-0.1826,0.5146-0.2344C41.952,14.5024,42.1786,14.477,42.4296,14.477z M42.4296,15.1802c-0.3281,0-0.5752,0.0537-0.7432,0.1602c-0.167,0.1064-0.25,0.2441-0.25,0.4131v0.1699h1.9688v-0.1699c0-0.1689-0.084-0.3066-0.251-0.4131S42.746,15.1802,42.4296,15.1802z M42.9676,10.3384c0.1934,0,0.3613,0.0254,0.5039,0.0742c0.1426,0.0498,0.2627,0.1172,0.3594,0.2031c0.0957,0.0859,0.168,0.1865,0.2158,0.3027c0.0479,0.1152,0.0713,0.2383,0.0713,0.3682c0,0.2285-0.0693,0.4277-0.207,0.5967s-0.3467,0.2803-0.626,0.334l-0.1973-0.5791c0.1074-0.0225,0.1992-0.0615,0.2754-0.1172c0.0771-0.0547,0.1152-0.127,0.1152-0.2178c0-0.1045-0.0469-0.1826-0.1406-0.2344c-0.0928-0.0527-0.209-0.0781-0.3467-0.0781c-0.1689,0-0.293,0.043-0.373,0.1289c-0.0791,0.0859-0.1191,0.1895-0.1191,0.3105c0,0.0879,0.0146,0.1885,0.0439,0.3027c0.0283,0.1143,0.0615,0.2129,0.0986,0.2939l-1.8496-0.0635v-1.5186h0.6396v0.9521l0.5615,0.0205c-0.0156-0.0332-0.0283-0.0723-0.0371-0.1162s-0.0137-0.0811-0.0137-0.1123c0-0.1348,0.0244-0.2559,0.0732-0.3613c0.0498-0.1064,0.1182-0.1953,0.207-0.2666c0.0889-0.0723,0.1963-0.127,0.3223-0.165S42.8114,10.3384,42.9676,10.3384z M44.0487,8.7935v0.8584l-3.2568,0.7236V9.6099l2.3828-0.4062V9.1948l-2.3828-0.4014V8.0571L44.0487,8.7935z M6.3495,10.0923l0.5933-0.1338V9.227L6.3495,9.0942V8.3579l3.2568,0.791v0.9248l-3.2568,0.7861V10.0923z M8.8978,9.605V9.5864L7.5131,9.3101v0.5566L8.8978,9.605z M7.9779,12.9048c-0.1841,0-0.3755-0.0146-0.5752-0.0439c-0.1992-0.0293-0.3823-0.083-0.5493-0.1611c-0.1675-0.0781-0.3047-0.1875-0.4121-0.3262c-0.1069-0.1396-0.1606-0.3203-0.1606-0.541s0.0537-0.4004,0.1606-0.54c0.1074-0.1396,0.2446-0.249,0.4121-0.3271c0.167-0.0781,0.3501-0.1309,0.5493-0.1582c0.1997-0.0283,0.3911-0.042,0.5752-0.042s0.3755,0.0137,0.5752,0.042c0.1992,0.0273,0.3823,0.0801,0.5493,0.1582c0.1675,0.0781,0.3047,0.1875,0.4121,0.3271c0.1069,0.1396,0.1606,0.3193,0.1606,0.54s-0.0537,0.4014-0.1606,0.541c-0.1074,0.1387-0.2446,0.248-0.4121,0.3262c-0.167,0.0781-0.3501,0.1318-0.5493,0.1611C8.3534,12.8901,8.162,12.9048,7.9779,12.9048z M7.9779,12.1685c0.1074,0,0.2222-0.0039,0.3452-0.0117c0.1226-0.0078,0.2358-0.0234,0.3403-0.0479c0.104-0.0244,0.1909-0.0586,0.2598-0.1016s0.1035-0.1016,0.1035-0.1748c0-0.0732-0.0347-0.1318-0.1035-0.1748s-0.1558-0.0762-0.2598-0.1006c-0.1045-0.0254-0.2178-0.041-0.3403-0.0488c-0.123-0.0078-0.2378-0.0117-0.3452-0.0117c-0.1104,0-0.2271,0.0039-0.3496,0.0117s-0.2354,0.0234-0.3379,0.0488c-0.103,0.0244-0.189,0.0576-0.2578,0.1006s-0.1035,0.1016-0.1035,0.1748c0,0.0733,0.0347,0.1318,0.1035,0.1748s0.1548,0.0771,0.2578,0.1016c0.1025,0.0244,0.2153,0.04,0.3379,0.0479S7.8675,12.1685,7.9779,12.1685z M6.3495,17.5327l0.5933-0.1338v-0.7314l-0.5933-0.1328v-0.7363l3.2568,0.791v0.9248l-3.2568,0.7861V17.5327z M8.8978,17.0454v-0.0186l-1.3848-0.2764v0.5566L8.8978,17.0454z M6.3495,18.8892h2.4014l-0.3682-0.4873l0.5703-0.3262l0.6533,0.8916v0.6445H6.3495V18.8892z M6.3495,24.3667l0.5933-0.1338v-0.7314l-0.5933-0.1328v-0.7363l3.2568,0.791v0.9248l-3.2568,0.7861V24.3667z M8.8978,23.8794v-0.0186l-1.3848-0.2764v0.5566L8.8978,23.8794z M8.7093,27.1548c-0.1074,0-0.207-0.0137-0.2988-0.041c-0.0923-0.0273-0.1797-0.0645-0.2622-0.1104c-0.083-0.0459-0.1626-0.0986-0.2393-0.1562c-0.0767-0.0586-0.1504-0.1182-0.2212-0.1797l-0.7036-0.6074v1.0537H6.3495V25.186h0.6533l1.1362,0.9893c0.0918,0.0801,0.186,0.1426,0.2827,0.1885s0.1895,0.0693,0.2783,0.0693c0.0952,0,0.1763-0.0225,0.2437-0.0664c0.0674-0.0449,0.1016-0.1143,0.1016-0.21c0-0.0889-0.0361-0.1621-0.1084-0.2207c-0.0718-0.0586-0.1772-0.0938-0.3149-0.1055l0.0645-0.6904c0.3311,0.0371,0.5786,0.1494,0.7427,0.3379c0.1641,0.1895,0.2461,0.4229,0.2461,0.7021c0,0.1504-0.0229,0.2852-0.0688,0.4043c-0.0459,0.1201-0.1104,0.2217-0.1934,0.3066c-0.0825,0.084-0.1841,0.1494-0.3037,0.1953C8.9901,27.1323,8.8563,27.1548,8.7093,27.1548z M6.3495,31.6274l0.5933-0.1338v-0.7314l-0.5933-0.1328v-0.7363l3.2568,0.791v0.9248L6.3495,32.395V31.6274z M8.8978,31.1401v-0.0186l-1.3848-0.2764v0.5566L8.8978,31.1401z M7.3016,34.4106c-0.1655,0-0.311-0.0273-0.437-0.0801c-0.1255-0.0537-0.2324-0.127-0.3198-0.2188s-0.1533-0.2002-0.1978-0.3242s-0.0664-0.2588-0.0664-0.4023c0-0.2676,0.0684-0.4961,0.2046-0.6855c0.1362-0.1904,0.3442-0.3164,0.623-0.3779l0.166,0.6494c-0.1074,0.0244-0.1948,0.0674-0.2622,0.1289c-0.0679,0.0605-0.1016,0.1455-0.1016,0.2529c0,0.0576,0.0122,0.1084,0.0371,0.1514c0.0244,0.043,0.0566,0.0791,0.0967,0.1084c0.0396,0.0293,0.085,0.0508,0.1353,0.0645c0.0508,0.0137,0.1021,0.0205,0.1543,0.0205c0.1411,0,0.2451-0.041,0.313-0.1221c0.0674-0.0811,0.1011-0.1895,0.1011-0.3242v-0.166h0.543V33.27c0,0.1221,0.0356,0.2168,0.1079,0.2832c0.0718,0.0654,0.1724,0.0986,0.3013,0.0986c0.083,0,0.1611-0.0244,0.2344-0.0713c0.0737-0.0479,0.1108-0.124,0.1108-0.2275c0-0.0898-0.0293-0.1582-0.0874-0.207c-0.0586-0.0498-0.1323-0.0859-0.2212-0.1104l0.1567-0.6309c0.1411,0.0371,0.2603,0.0898,0.3589,0.1592c0.0977,0.0684,0.1782,0.1465,0.2412,0.2344c0.063,0.0869,0.1089,0.1836,0.1382,0.2871c0.0288,0.1045,0.0435,0.21,0.0435,0.3174c0,0.1201-0.0181,0.2354-0.0552,0.3477c-0.0366,0.1123-0.0918,0.2119-0.1655,0.3018c-0.0737,0.0889-0.1655,0.1602-0.2759,0.2139s-0.2393,0.0801-0.3867,0.0801c-0.1899,0-0.3501-0.041-0.4805-0.1221s-0.2168-0.1895-0.2598-0.3242H8.0375c-0.043,0.1562-0.1318,0.2803-0.2666,0.373C7.6361,34.3647,7.4794,34.4106,7.3016,34.4106z M8.9808,52.9087H6.3495V52.187h2.6313v-0.5986h0.6255v1.9189H8.9808V52.9087z M6.3495,55.0825l1.0762-0.4502L6.3495,54.186v-0.7686l1.7065,0.8008l1.5503-0.7363v0.7686l-0.9893,0.4004l0.9893,0.4043v0.7549l-1.5454-0.7412l-1.7114,0.8096V55.0825z M42.1044,60.7388l-0.4355-1.2979H41.453v1.2979h-0.708v-3.2568h1.042c0.3145,0,0.5596,0.082,0.7344,0.2461c0.1738,0.1641,0.2607,0.4082,0.2607,0.7334c0,0.1201-0.0137,0.2275-0.041,0.3223s-0.0635,0.1758-0.1074,0.2432c-0.0449,0.0684-0.0938,0.123-0.1494,0.166c-0.0547,0.043-0.1084,0.0732-0.1602,0.0918l0.5547,1.4541H42.1044z M42.0604,58.5024c0-0.082-0.0117-0.1494-0.0342-0.2021c-0.0234-0.0518-0.0537-0.0938-0.0898-0.124c-0.0371-0.0303-0.0781-0.0508-0.1221-0.0625c-0.0449-0.0098-0.0879-0.0156-0.1309-0.0156H41.453v0.8232h0.2168c0.1035,0,0.1953-0.0332,0.2734-0.0986C42.0214,58.7563,42.0604,58.6499,42.0604,58.5024z M44.3417,58.2593c-0.0557-0.0645-0.1201-0.1143-0.1934-0.1494s-0.1504-0.0527-0.2295-0.0527c-0.083,0-0.1572,0.0254-0.2236,0.0781c-0.0654,0.0518-0.0986,0.1377-0.0986,0.2578c0,0.1016,0.0332,0.1807,0.1006,0.2373s0.168,0.1191,0.2998,0.1865c0.0732,0.0371,0.1514,0.0811,0.2334,0.1318c0.082,0.0498,0.1562,0.1123,0.2246,0.1865c0.0684,0.0732,0.124,0.1621,0.1689,0.2646s0.0674,0.2246,0.0674,0.3662c0,0.1748-0.0283,0.3291-0.083,0.4629c-0.0557,0.1338-0.1309,0.2441-0.2246,0.332c-0.0947,0.0879-0.2031,0.1533-0.3262,0.1982c-0.123,0.0439-0.251,0.0664-0.3828,0.0664c-0.1963,0-0.375-0.0361-0.5361-0.1104c-0.1611-0.0732-0.29-0.1592-0.3887-0.2578l0.377-0.5518c0.0713,0.0742,0.1523,0.1328,0.2441,0.1777c0.0918,0.0439,0.1855,0.0664,0.2803,0.0664c0.0889,0,0.1641-0.0293,0.2256-0.0879c0.0615-0.0576,0.0918-0.1396,0.0918-0.2432c0-0.1074-0.0361-0.1924-0.1104-0.2559c-0.0732-0.0625-0.1807-0.1289-0.3213-0.2002c-0.0898-0.043-0.1729-0.0898-0.251-0.1426c-0.0781-0.0518-0.1475-0.1143-0.207-0.1885c-0.0596-0.0732-0.1064-0.1592-0.1406-0.2578c-0.0332-0.0977-0.0508-0.2139-0.0508-0.3496c0-0.1807,0.0303-0.3359,0.0898-0.4668c0.0605-0.1299,0.1387-0.2363,0.2344-0.3193c0.0967-0.083,0.2041-0.1445,0.3223-0.1836c0.1182-0.04,0.2373-0.0605,0.3564-0.0605c0.1777,0,0.3379,0.0293,0.4785,0.0869c0.1416,0.0576,0.2588,0.1377,0.3545,0.2373L44.3417,58.2593z M46.0301,58.1069v2.6318h-0.7217v-2.6318h-0.5986v-0.625h1.9189v0.625H46.0301z M24.9901,47.8364v-3.2568h0.7402v3.2568H24.9901z M27.9647,45.4761c0,0.1074-0.0137,0.207-0.041,0.2988c-0.0273,0.0928-0.0645,0.1797-0.1104,0.2627s-0.0986,0.1621-0.1562,0.2393c-0.0586,0.0762-0.1182,0.1504-0.1797,0.2207L26.87,47.2017h1.0537v0.6348H25.996v-0.6533l0.9893-1.1367c0.0801-0.0918,0.1426-0.1855,0.1885-0.2822s0.0693-0.1895,0.0693-0.2783c0-0.0957-0.0225-0.1768-0.0664-0.2441c-0.0449-0.0674-0.1143-0.1016-0.21-0.1016c-0.0889,0-0.1621,0.0361-0.2207,0.1084s-0.0938,0.1777-0.1055,0.3154l-0.6904-0.0645c0.0371-0.3311,0.1494-0.5791,0.3379-0.7432c0.1895-0.1641,0.4229-0.2461,0.7021-0.2461c0.1504,0,0.2852,0.0234,0.4043,0.0693c0.1201,0.0459,0.2217,0.1104,0.3066,0.1934c0.084,0.082,0.1494,0.1836,0.1953,0.3037C27.9423,45.1958,27.9647,45.3296,27.9647,45.4761z M29.909,47.7974c-0.1445,0.084-0.3281,0.126-0.5518,0.126c-0.1904,0-0.3633-0.042-0.5176-0.126c-0.1553-0.085-0.2881-0.2031-0.3984-0.3545s-0.1963-0.333-0.2578-0.543c-0.0605-0.21-0.0918-0.4404-0.0918-0.6924c0-0.2539,0.0312-0.4873,0.0918-0.6992c0.0615-0.2109,0.1475-0.3926,0.2578-0.543c0.1104-0.1494,0.2432-0.2666,0.3984-0.3496c0.1543-0.082,0.3271-0.124,0.5176-0.124c0.2168,0,0.3994,0.0391,0.5449,0.1172c0.1455,0.0781,0.2627,0.1758,0.3516,0.293l-0.3955,0.5332c-0.0557-0.0732-0.1172-0.1318-0.1865-0.1748c-0.0684-0.043-0.1553-0.0645-0.2598-0.0645c-0.0977,0-0.1836,0.0264-0.2549,0.0781c-0.0723,0.0518-0.1338,0.124-0.1846,0.2139c-0.0508,0.0908-0.0879,0.1982-0.1123,0.3223s-0.0371,0.2568-0.0371,0.3975c0,0.1416,0.0127,0.2734,0.0371,0.3955c0.0244,0.123,0.0615,0.2305,0.1123,0.3223s0.1133,0.1641,0.1865,0.2158c0.0732,0.0527,0.1592,0.0791,0.2578,0.0791c0.0977,0,0.1836-0.0254,0.2578-0.0742c0.0732-0.0488,0.1318-0.1074,0.1748-0.1748l0.4092,0.5107C30.1698,47.6079,30.0526,47.7124,29.909,47.7974z M50.0125,7.7903c-0.9599-2.8464-3.6431-4.899-6.8134-4.899h-36c-3.1703,0-5.8535,2.0526-6.8134,4.899h11.8367c-0.0692-0.123-0.1193-0.2576-0.1193-0.4089c0-0.4697,0.3807-0.8504,0.8504-0.8504s0.8504,0.3807,0.8504,0.8504c0,0.1512-0.0501,0.2858-0.1193,0.4089h23.0292c-0.0692-0.123-0.1193-0.2576-0.1193-0.4089c0-0.4697,0.3807-0.8504,0.8504-0.8504s0.8504,0.3807,0.8504,0.8504c0,0.1512-0.0501,0.2858-0.1193,0.4089H50.0125z M8.515,7.3813H6.2289c-0.292,0-0.5605-0.0454-0.8037-0.1362C5.181,7.1543,4.972,7.02,4.7982,6.8418C4.6244,6.6641,4.4886,6.4448,4.391,6.1836C4.2943,5.9229,4.2455,5.6221,4.2455,5.2817c0-0.313,0.0518-0.6001,0.1562-0.8613c0.1045-0.2607,0.248-0.4854,0.4307-0.6729S5.2318,3.415,5.4828,3.3125c0.25-0.1021,0.5215-0.1533,0.8135-0.1533c0.293,0,0.5625,0.0513,0.8096,0.1533c0.2471,0.1025,0.46,0.2446,0.6396,0.4263c0.1787,0.1821,0.3193,0.4004,0.4199,0.6558c0.1006,0.2549,0.1514,0.5332,0.1514,0.835c0,0.1162-0.0117,0.23-0.0342,0.3423S8.2308,5.7871,8.1937,5.8818C8.1576,5.977,8.1156,6.062,8.0687,6.1372C8.0218,6.2129,7.9759,6.2715,7.931,6.314v0.0234l0.584-0.0405V7.3813z M11.4174,4.4409h-0.9082v2.9404H9.266V4.4409H8.3578v-1.166h3.0596V4.4409z M43.9462,3.936l0.4014,1.1484l0.4023-1.1484h1.3359l-1.1797,2.2388v1.2065h-1.2061V6.1748L42.578,3.936H43.9462z M39.5887,3.2749h1.5869c0.1875,0,0.3721,0.0225,0.5527,0.0669c0.1816,0.0444,0.3428,0.1196,0.4854,0.2261c0.1436,0.1064,0.2578,0.2476,0.3447,0.4233c0.0869,0.1763,0.1309,0.3975,0.1309,0.6641c0,0.2554-0.043,0.4717-0.1279,0.6499c-0.085,0.1777-0.1982,0.3228-0.3398,0.4346c-0.1406,0.1123-0.3027,0.1934-0.4854,0.2437s-0.3691,0.0757-0.5605,0.0757H40.826v1.3223h-1.2373V3.2749z M6.8187,4.6641C6.7523,4.5889,6.6752,4.5298,6.5863,4.4873s-0.1855-0.064-0.29-0.064c-0.1035,0-0.2012,0.0215-0.292,0.064s-0.168,0.1016-0.2324,0.1768S5.6576,4.832,5.6205,4.9424c-0.0361,0.1104-0.0547,0.231-0.0547,0.3628c0,0.1353,0.0186,0.2588,0.0547,0.3711c0.0371,0.1123,0.0869,0.2085,0.1514,0.29c0.0645,0.0811,0.1416,0.144,0.2324,0.1885s0.1885,0.0664,0.292,0.0664c0.1045,0,0.2012-0.022,0.29-0.0664s0.166-0.1074,0.2324-0.1885c0.0664-0.0815,0.1172-0.1777,0.1543-0.29C7.0091,5.564,7.0277,5.4404,7.0277,5.3052c0-0.1318-0.0186-0.2524-0.0547-0.3628C6.9359,4.832,6.8851,4.7393,6.8187,4.6641z M41.3446,4.9307c0.0791-0.0522,0.1182-0.1401,0.1182-0.2637c0-0.0659-0.0107-0.1191-0.0312-0.1597c-0.0215-0.0405-0.0498-0.0723-0.0869-0.0957c-0.0361-0.0229-0.0771-0.0396-0.1221-0.0493c-0.0449-0.0093-0.0908-0.0142-0.1357-0.0142H40.826v0.6611h0.2607C41.1805,5.0093,41.2665,4.9829,41.3446,4.9307z"/>
        <g transform="matrix(1, 0, 0, 1, 12.529, 0.465846)">
            <g>
                <g gorn="0.2.120.0.0" id="usb_c_cusb31-cfm2ax-01-x">
                    <g transform="matrix(-1, 0, 0, -1, 25.342, 21.572)">
                        <g>
                            <g>
                                <g>
                                    <rect width="25.342" fill="#DCDCDC" x="0" y="0.737" height="20.835"/>
                                    <path fill="#DCDCDC" d="M3.458,1.304H2.891V0h0.567V1.304z M4.309,0H3.742v1.304h0.567V0z M5.726,0H5.159v1.304h0.567V0z M6.576,0H6.009v1.304h0.567L6.576,0z M7.994,0H7.427v1.304h0.567V0z M9.411,0H8.844v1.304h0.567V0z M10.828,0h-0.567v1.304h0.567V0z M12.246,0h-0.567v1.304h0.567V0z M13.663,0h-0.567v1.304h0.567V0z M15.08,0h-0.567v1.304h0.567V0z M16.498,0h-0.567v1.304h0.567V0z M17.915,0h-0.567v1.304h0.567V0z M19.332,0h-0.567v1.304h0.567V0z M20.183,0h-0.567v1.304h0.567V0z M21.6,0h-0.567v1.304H21.6V0z M22.45,0h-0.567v1.304h0.567V0z"/>
                                    <rect width="1.297" fill="#F0F0F0" x="2.044" y="0.737" height="20.835"/>
                                    <rect width="1.297" fill="#BEBEBE" x="22" y="0.737" height="20.835"/>
                                    <path fill="#8C8C8C" d="M25.342,0.737v1.998h-0.283c-0.344,0-0.624-0.279-0.624-0.624l0-0.532c0-0.344-0.279-0.624-0.624-0.624H20.98c-0.344,0-0.624,0.279-0.624,0.624l0,2.021c0,0.344-0.279,0.624-0.624,0.624h-3.413c-0.344,0-0.624-0.279-0.624-0.624l0-0.047c0-0.344,0.279-0.624,0.624-0.624h1.536c0.344,0,0.624-0.279,0.624-0.624V1.579c0-0.344-0.279-0.624-0.624-0.624l-10.37,0c-0.344,0-0.624,0.279-0.624,0.624v0.727c0,0.344,0.279,0.624,0.624,0.624h1.536c0.344,0,0.624,0.279,0.624,0.624l0,0.046c0,0.344-0.279,0.624-0.624,0.624H5.608c-0.344,0-0.624-0.279-0.624-0.624l0-2.021c0-0.344-0.279-0.624-0.624-0.624l-2.83,0c-0.344,0-0.624,0.279-0.624,0.624v0.533c0,0.344-0.279,0.624-0.624,0.624L0,2.736V0.737H25.342z"/>
                                    <rect width="3.463" fill="#8C8C8C" x="5.89" y="6.554" height="1.424"/>
                                    <rect width="3.463" fill="#8C8C8C" x="15.9886" y="6.5547" height="1.424"/>
                                </g>
                            </g>
                        </g>
                    </g>
                </g>
            </g>
        </g>
        <circle stroke="#9A916C" fill="none" gorn="0.2.121" id="connector64pin" r="1.9687" stroke-width="1.1027" cx="46.8" cy="32.22"/>
        <circle stroke="#9A916C" fill="none" gorn="0.2.122" id="connector63pin" r="1.9687" stroke-width="1.1027" cx="46.8" cy="39.42"/>
        <circle stroke="#9A916C" fill="none" gorn="0.2.123" id="connector62pin" r="1.9687" stroke-width="1.1027" cx="46.8" cy="46.62"/>
        <circle stroke="#9A916C" fill="none" gorn="0.2.124" id="connector58pin" r="1.9687" stroke-width="1.1027" cx="3.6" cy="39.42"/>
        <circle stroke="#9A916C" fill="none" gorn="0.2.125" id="connector59pin" r="1.9687" stroke-width="1.1027" cx="3.6" cy="46.62"/>
    </g>
</g>
</svg>
