<?xml version='1.0' encoding='ASCII' standalone='yes'?>
<svg xmlns="http://www.w3.org/2000/svg" xmlns:xlink="http://www.w3.org/1999/xlink" version="1.1" width="67px" height="89px">
  <g><desc>
        <referenceFile>QT Py ESP32 Pico rev A_breadboard.svg</referenceFile>
    </desc>
    <metadata id="metadata723"/>
    <defs id="defs721"/>
    <desc id="desc2">Fritzing breadboard generated by brd2svg</desc>
    <path id="path4" stroke-width="0" fill="#014cb1" stroke="none" gorn="0.3" style="fill:#000000;fill-opacity:1" d="m 50.4,11.966025 v 44.28 a 7.2,7.2 0 0 1 -7.2,7.2 H 7.1999999 A 7.2,7.2 0 0 1 0,56.246025 v -44.28 A 7.2,7.2 0 0 1 7.1999999,4.7660254 H 43.2 a 7.2,7.2 0 0 1 7.2,7.1999996 m -34.3134,7.7216 a 0.921262,0.921262 0 1 0 1.84252,0 0.921262,0.921262 0 1 0 -1.84252,0 z m 16.3842,0 a 0.921262,0.921262 0 1 0 1.84252,0 0.921262,0.921262 0 1 0 -1.84252,0 z m -30.2881201,-7.1816 a 1.417325,1.417325 0 1 0 2.83465,0 1.417325,1.417325 0 1 0 -2.83465,0 z m 0,7.2 a 1.417325,1.417325 0 1 0 2.83465,0 1.417325,1.417325 0 1 0 -2.83465,0 z m 0,7.2 a 1.417325,1.417325 0 1 0 2.83465,0 1.417325,1.417325 0 1 0 -2.83465,0 z m 0,7.2 a 1.417325,1.417325 0 1 0 2.83465,0 1.417325,1.417325 0 1 0 -2.83465,0 z m 0,7.2 a 1.417325,1.417325 0 1 0 2.83465,0 1.417325,1.417325 0 1 0 -2.83465,0 z m 0,7.2 a 1.417325,1.417325 0 1 0 2.83465,0 1.417325,1.417325 0 1 0 -2.83465,0 z m 0,7.2 a 1.417325,1.417325 0 1 0 2.83465,0 1.417325,1.417325 0 1 0 -2.83465,0 z m 43.2000201,0 a 1.417325,1.417325 0 1 0 2.83465,0 1.417325,1.417325 0 1 0 -2.83465,0 z m 0,-7.2 a 1.417325,1.417325 0 1 0 2.83465,0 1.417325,1.417325 0 1 0 -2.83465,0 z m 0,-7.2 a 1.417325,1.417325 0 1 0 2.83465,0 1.417325,1.417325 0 1 0 -2.83465,0 z m 0,-7.2 a 1.417325,1.417325 0 1 0 2.83465,0 1.417325,1.417325 0 1 0 -2.83465,0 z m 0,-7.2 a 1.417325,1.417325 0 1 0 2.83465,0 1.417325,1.417325 0 1 0 -2.83465,0 z m 0,-7.2 a 1.417325,1.417325 0 1 0 2.83465,0 1.417325,1.417325 0 1 0 -2.83465,0 z m 0,-7.2 a 1.417325,1.417325 0 1 0 2.83465,0 1.417325,1.417325 0 1 0 -2.83465,0 z m -8.7874,8.5989 a 0.850392,0.850392 0 1 0 1.70078,0 0.850392,0.850392 0 1 0 -1.70078,0 z m -24.4914,0 a 0.850392,0.850392 0 1 0 1.70078,0 0.850392,0.850392 0 1 0 -1.70078,0 z M 36.5953,9.2560854 a 0.850392,0.850392 0 1 0 1.70078,0 0.850392,0.850392 0 1 0 -1.70078,0 z m -24.4914,0 a 0.850392,0.850392 0 1 0 1.70078,0 0.850392,0.850392 0 1 0 -1.70078,0 z"/>
    <g transform="translate(0,1.8860254)">
        <g id="g410" gorn="0.4.0">
            <title id="title6">layer 21</title>
            <g id="g16" gorn="0.4.0.1">
                <title id="title8">element:C1</title>
                <g id="g14" gorn="0.4.0.1.1">
                    <title id="title10">package:0805-NO</title>
                    <line stroke-linecap="round" id="line12" stroke-width="0.864" x2="33.84" stroke="#ffffff" x1="33.84" y1="26.892" y2="24.011999" gorn="0.4.0.1.1.1"/>
                </g>
            </g>
            <g id="g24" gorn="0.4.0.2">
                <title id="title18">element:C2</title>
                <g id="g22" gorn="0.4.0.2.1">
                    <title id="title20">package:_0402NO</title>
                </g>
            </g>
            <g id="g32" gorn="0.4.0.3">
                <title id="title26">element:C3</title>
                <g id="g30" gorn="0.4.0.3.1">
                    <title id="title28">package:_0402NO</title>
                </g>
            </g>
            <g id="g40" gorn="0.4.0.4">
                <title id="title34">element:C5</title>
                <g id="g38" gorn="0.4.0.4.1">
                    <title id="title36">package:_0402NO</title>
                </g>
            </g>
            <g id="g50" gorn="0.4.0.5">
                <title id="title42">element:C6</title>
                <g id="g48" gorn="0.4.0.5.1">
                    <title id="title44">package:0805-NO</title>
                    <line stroke-linecap="round" id="line46" stroke-width="0.864" x2="39.492001" stroke="#ffffff" x1="36.612" y1="33.768002" y2="33.768002" gorn="0.4.0.5.1.1"/>
                </g>
            </g>
            <g id="g58" gorn="0.4.0.6">
                <title id="title52">element:C7</title>
                <g id="g56" gorn="0.4.0.6.1">
                    <title id="title54">package:_0402NO</title>
                </g>
            </g>
            <g id="g68" gorn="0.4.0.7">
                <title id="title60">element:C8</title>
                <g id="g66" gorn="0.4.0.7.1">
                    <title id="title62">package:0805-NO</title>
                    <line stroke-linecap="round" id="line64" stroke-width="0.864" x2="29.628" stroke="#ffffff" x1="29.628" y1="43.344002" y2="40.464001" gorn="0.4.0.7.1.1"/>
                </g>
            </g>
            <g id="g76" gorn="0.4.0.8">
                <title id="title70">element:C9</title>
                <g id="g74" gorn="0.4.0.8.1">
                    <title id="title72">package:_0402NO</title>
                </g>
            </g>
            <g id="g84" gorn="0.4.0.9">
                <title id="title78">element:C11</title>
                <g id="g82" gorn="0.4.0.9.1">
                    <title id="title80">package:_0402NO</title>
                </g>
            </g>
            <g id="g92" gorn="0.4.0.10">
                <title id="title86">element:C12</title>
                <g id="g90" gorn="0.4.0.10.1">
                    <title id="title88">package:_0402NO</title>
                </g>
            </g>
            <g id="g100" gorn="0.4.0.11">
                <title id="title94">element:C13</title>
                <g id="g98" gorn="0.4.0.11.1">
                    <title id="title96">package:0603-NO</title>
                </g>
            </g>
            <g id="g108" gorn="0.4.0.12">
                <title id="title102">element:C19</title>
                <g id="g106" gorn="0.4.0.12.1">
                    <title id="title104">package:_0402NO</title>
                </g>
            </g>
            <g id="g126" gorn="0.4.0.13">
                <title id="title110">element:CONN1</title>
                <g id="g124" gorn="0.4.0.13.1">
                    <title id="title112">package:JST_SH4_SKINNY</title>
                    <line stroke-linecap="round" id="line114" stroke-width="0.432" x2="22.8881" stroke="#ffffff" x1="22.8881" y1="55.346199" y2="47.976101" gorn="0.4.0.13.1.1"/>
                    <line stroke-linecap="round" id="line116" stroke-width="0.432" x2="26.006201" stroke="#ffffff" x1="22.8881" y1="47.976101" y2="47.976101" gorn="0.4.0.13.1.2"/>
                    <line stroke-linecap="round" id="line118" stroke-width="0.432" x2="40.179401" stroke="#ffffff" x1="36.777802" y1="47.976101" y2="47.976101" gorn="0.4.0.13.1.3"/>
                    <line stroke-linecap="round" id="line120" stroke-width="0.432" x2="40.179401" stroke="#ffffff" x1="40.179401" y1="47.976101" y2="55.346199" gorn="0.4.0.13.1.4"/>
                    <line stroke-linecap="round" id="line122" stroke-width="0.432" x2="37.3447" stroke="#ffffff" x1="25.439301" y1="60.1651" y2="60.1651" gorn="0.4.0.13.1.5"/>
                </g>
            </g>
            <g id="g134" gorn="0.4.0.14">
                <title id="title128">element:D1</title>
                <g id="g132" gorn="0.4.0.14.1">
                    <title id="title130">package:SOD-323_MINI</title>
                </g>
            </g>
            <g id="g142" gorn="0.4.0.15">
                <title id="title136">element:D2</title>
                <g id="g140" gorn="0.4.0.15.1">
                    <title id="title138">package:SOD-323_MINI</title>
                </g>
            </g>
            <g id="g150" gorn="0.4.0.16">
                <title id="title144">element:GND</title>
                <g id="g148" gorn="0.4.0.16.1">
                    <title id="title146">package:TESTPOINT_RECT_1X3MM</title>
                </g>
            </g>
            <g id="g158" gorn="0.4.0.17">
                <title id="title152">element:IC1</title>
                <g id="g156" gorn="0.4.0.17.1">
                    <title id="title154">package:QFN24_4MM_SMSC</title>
                </g>
            </g>
            <g id="g166" gorn="0.4.0.18">
                <title id="title160">element:JP1</title>
                <g id="g164" gorn="0.4.0.18.1">
                    <title id="title162">package:1X07_ROUND_70</title>
                </g>
            </g>
            <g id="g174" gorn="0.4.0.19">
                <title id="title168">element:JP3</title>
                <g id="g172" gorn="0.4.0.19.1">
                    <title id="title170">package:1X07_ROUND_70</title>
                </g>
            </g>
            <g id="g182" gorn="0.4.0.20">
                <title id="title176">element:L2</title>
                <g id="g180" gorn="0.4.0.20.1">
                    <title id="title178">package:_0402</title>
                </g>
            </g>
            <g id="g196" gorn="0.4.0.21">
                <title id="title184">element:LED1</title>
                <g id="g194" gorn="0.4.0.21.1">
                    <title id="title186">package:SK6805_1515</title>
                    <line stroke-linecap="round" id="line188" stroke-width="0.432" x2="39.383701" stroke="#ffffff" x1="34.848301" y1="39.172798" y2="39.172798" gorn="0.4.0.21.1.1"/>
                    <line stroke-linecap="round" id="line190" stroke-width="0.432" x2="37.541199" stroke="#ffffff" x1="39.100201" y1="41.723999" y2="41.723999" gorn="0.4.0.21.1.2"/>
                    <line stroke-linecap="round" id="line192" stroke-width="0.432" x2="39.383701" stroke="#ffffff" x1="34.848301" y1="44.2752" y2="44.2752" gorn="0.4.0.21.1.3"/>
                </g>
            </g>
            <g id="g208" gorn="0.4.0.22">
                <title id="title198">element:Q1</title>
                <g id="g206" gorn="0.4.0.22.1">
                    <title id="title200">package:BTN_KMR2_4.6X2.8</title>
                    <line stroke-linecap="round" id="line202" stroke-width="0.576" x2="11.3273" stroke="#ffffff" x1="23.2327" y1="34.563999" y2="34.563999" gorn="0.4.0.22.1.1"/>
                    <line stroke-linecap="round" id="line204" stroke-width="0.576" x2="23.2327" stroke="#ffffff" x1="11.3273" y1="25.916" y2="25.916" gorn="0.4.0.22.1.2"/>
                </g>
            </g>
            <g id="g220" gorn="0.4.0.23">
                <title id="title210">element:Q2</title>
                <g id="g218" gorn="0.4.0.23.1">
                    <title id="title212">package:BTN_KMR2_4.6X2.8</title>
                    <line stroke-linecap="round" id="line214" stroke-width="0.576" x2="11.3993" stroke="#ffffff" x1="23.304701" y1="45.256001" y2="45.256001" gorn="0.4.0.23.1.1"/>
                    <line stroke-linecap="round" id="line216" stroke-width="0.576" x2="23.304701" stroke="#ffffff" x1="11.3993" y1="36.608002" y2="36.608002" gorn="0.4.0.23.1.2"/>
                </g>
            </g>
            <g id="g228" gorn="0.4.0.24">
                <title id="title222">element:Q5</title>
                <g id="g226" gorn="0.4.0.24.1">
                    <title id="title224">package:SOT363</title>
                </g>
            </g>
            <g id="g236" gorn="0.4.0.25">
                <title id="title230">element:R1</title>
                <g id="g234" gorn="0.4.0.25.1">
                    <title id="title232">package:_0402NO</title>
                </g>
            </g>
            <g id="g244" gorn="0.4.0.26">
                <title id="title238">element:R2</title>
                <g id="g242" gorn="0.4.0.26.1">
                    <title id="title240">package:_0402NO</title>
                </g>
            </g>
            <g id="g252" gorn="0.4.0.27">
                <title id="title246">element:R3</title>
                <g id="g250" gorn="0.4.0.27.1">
                    <title id="title248">package:_0402NO</title>
                </g>
            </g>
            <g id="g260" gorn="0.4.0.28">
                <title id="title254">element:R4</title>
                <g id="g258" gorn="0.4.0.28.1">
                    <title id="title256">package:_0402NO</title>
                </g>
            </g>
            <g id="g270" gorn="0.4.0.29">
                <title id="title262">element:R5</title>
                <g id="g268" gorn="0.4.0.29.1">
                    <title id="title264">package:_0402NO</title>
                    <line stroke-linecap="round" id="line266" stroke-width="0.576" x2="20.700001" stroke="#ffffff" x1="20.700001" y1="23.688" y2="25.128" gorn="0.4.0.29.1.1"/>
                </g>
            </g>
            <g id="g280" gorn="0.4.0.30">
                <title id="title272">element:R6</title>
                <g id="g278" gorn="0.4.0.30.1">
                    <title id="title274">package:_0402NO</title>
                    <line stroke-linecap="round" id="line276" stroke-width="0.576" x2="26.280001" stroke="#ffffff" x1="26.280001" y1="24.191999" y2="25.632" gorn="0.4.0.30.1.1"/>
                </g>
            </g>
            <g id="g288" gorn="0.4.0.31">
                <title id="title282">element:R7</title>
                <g id="g286" gorn="0.4.0.31.1">
                    <title id="title284">package:_0402NO</title>
                </g>
            </g>
            <g id="g296" gorn="0.4.0.32">
                <title id="title290">element:SWC1</title>
                <g id="g294" gorn="0.4.0.32.1">
                    <title id="title292">package:B1,27</title>
                </g>
            </g>
            <g id="g304" gorn="0.4.0.33">
                <title id="title298">element:SWC2</title>
                <g id="g302" gorn="0.4.0.33.1">
                    <title id="title300">package:B1,27</title>
                </g>
            </g>
            <g id="g312" gorn="0.4.0.34">
                <title id="title306">element:U$3</title>
                <g id="g310" gorn="0.4.0.34.1">
                    <title id="title308">package:QTPYS2_TOP</title>
                </g>
            </g>
            <g id="g320" gorn="0.4.0.35">
                <title id="title314">element:U$6</title>
                <g id="g318" gorn="0.4.0.35.1">
                    <title id="title316">package:FIDUCIAL_1MM</title>
                </g>
            </g>
            <g id="g328" gorn="0.4.0.36">
                <title id="title322">element:U$8</title>
                <g id="g326" gorn="0.4.0.36.1">
                    <title id="title324">package:FIDUCIAL_1MM</title>
                </g>
            </g>
            <g id="g336" gorn="0.4.0.37">
                <title id="title330">element:U$11</title>
                <g id="g334" gorn="0.4.0.37.1">
                    <title id="title332">package:ADAFRUIT_3.5MM</title>
                </g>
            </g>
            <g id="g344" gorn="0.4.0.38">
                <title id="title338">element:U$12</title>
                <g id="g342" gorn="0.4.0.38.1">
                    <title id="title340">package:PCBFEAT-REV-040</title>
                </g>
            </g>
            <g id="g358" gorn="0.4.0.39">
                <title id="title346">element:U1</title>
                <g id="g356" gorn="0.4.0.39.1">
                    <title id="title348">package:SOT23-5</title>
                    <line stroke-linecap="round" id="line350" stroke-width="0.576" x2="35.6012" stroke="#ffffff" x1="35.6012" y1="35.855701" y2="31.320299" gorn="0.4.0.39.1.1"/>
                    <line stroke-linecap="round" id="line352" stroke-width="0.576" x2="26.246799" stroke="#ffffff" x1="26.246799" y1="35.855701" y2="31.320299" gorn="0.4.0.39.1.2"/>
                    <line stroke-linecap="round" id="line354" stroke-width="0.576" x2="29.7901" stroke="#ffffff" x1="32.057899" y1="36.5644" y2="36.5644" gorn="0.4.0.39.1.3"/>
                </g>
            </g>
            <g id="g366" gorn="0.4.0.40">
                <title id="title360">element:VBAT</title>
                <g id="g364" gorn="0.4.0.40.1">
                    <title id="title362">package:TESTPOINT_RECT_1X3MM</title>
                </g>
            </g>
            <g id="g382" gorn="0.4.0.41">
                <title id="title368">element:X1</title>
                <g id="g380" gorn="0.4.0.41.1">
                    <title id="title370">package:ANT_2450AT18B100</title>
                    <line stroke-linecap="round" id="line372" stroke-width="0.576" x2="16.546101" stroke="#ffffff" x1="16.546101" y1="47.664902" y2="61.271099" gorn="0.4.0.41.1.1"/>
                    <line stroke-linecap="round" id="line374" stroke-width="0.576" x2="10.3099" stroke="#ffffff" x1="16.546101" y1="61.271099" y2="61.271099" gorn="0.4.0.41.1.2"/>
                    <line stroke-linecap="round" id="line376" stroke-width="0.576" x2="10.3099" stroke="#ffffff" x1="10.3099" y1="61.271099" y2="47.664902" gorn="0.4.0.41.1.3"/>
                    <line stroke-linecap="round" id="line378" stroke-width="0.576" x2="16.546101" stroke="#ffffff" x1="10.3099" y1="47.664902" y2="47.664902" gorn="0.4.0.41.1.4"/>
                </g>
            </g>
            <g id="g390" gorn="0.4.0.42">
                <title id="title384">element:X2</title>
                <g id="g388" gorn="0.4.0.42.1">
                    <title id="title386">package:QFN48_7X7</title>
                </g>
            </g>
            <g id="g408" gorn="0.4.0.43">
                <title id="title392">element:X6</title>
                <g id="g406" gorn="0.4.0.43.1">
                    <title id="title394">package:USB_C_CUSB31-CFM2AX-01-X</title>
                    <line stroke-linecap="round" id="line396" stroke-width="0.288" x2="37.8708" stroke="#ffffff" x1="37.8708" y1="11.3386" y2="15.1654" gorn="0.4.0.43.1.1"/>
                    <line stroke-linecap="round" id="line398" stroke-width="0.288" x2="12.5292" stroke="#ffffff" x1="12.5292" y1="15.1654" y2="11.3386" gorn="0.4.0.43.1.2"/>
                    <line stroke-linecap="round" id="line400" stroke-width="0.288" x2="37.8708" stroke="#ffffff" x1="12.5292" y1="0" y2="0" gorn="0.4.0.43.1.3"/>
                    <line stroke-linecap="round" id="line402" stroke-width="0.288" x2="37.8708" stroke="#ffffff" x1="37.8708" y1="0" y2="3.8267701" gorn="0.4.0.43.1.4"/>
                    <line stroke-linecap="round" id="line404" stroke-width="0.288" x2="12.5292" stroke="#ffffff" x1="12.5292" y1="3.8267701" y2="0" gorn="0.4.0.43.1.5"/>
                </g>
            </g>
        </g>
    </g>
    <g transform="rotate(180,36.5328,26.395013)">
        <g id="g413" gorn="0.5.0">
            <rect id="connector5pin" stroke-width="0" fill="#9a916c" stroke="none" width="3.5149601" gorn="0.5.0.0" y="23.326" height="4.2519698" x="34.775398"/>
        </g>
    </g>
    <g transform="rotate(180,31.1471,26.395013)">
        <g id="g416" gorn="0.6.0">
            <rect id="connector6pin" stroke-width="0" fill="#9a916c" stroke="none" width="3.5149601" gorn="0.6.0.0" y="23.326" height="4.2519698" x="29.389601"/>
        </g>
    </g>
    <g transform="rotate(-90,38.994953,37.403872)">
        <g id="g419" gorn="0.7.0">
            <rect id="connector7pin" stroke-width="0" fill="#9a916c" stroke="none" width="3.5149601" gorn="0.7.0.0" y="34.3349" height="4.2519698" x="36.294601"/>
        </g>
    </g>
    <g transform="rotate(-90,38.995023,32.018102)">
        <g id="g422" gorn="0.8.0">
            <rect id="connector8pin" stroke-width="0" fill="#9a916c" stroke="none" width="3.5149601" gorn="0.8.0.0" y="28.9491" height="4.2519698" x="36.294601"/>
        </g>
    </g>
    <g transform="rotate(180,32.3209,42.847013)">
        <g id="g425" gorn="0.9.0">
            <rect id="connector9pin" stroke-width="0" fill="#9a916c" stroke="none" width="3.5149601" gorn="0.9.0.0" y="39.778" height="4.2519698" x="30.5634"/>
        </g>
    </g>
    <g transform="rotate(180,26.9351,42.847013)">
        <g id="g428" gorn="0.10.0">
            <rect id="connector10pin" stroke-width="0" fill="#9a916c" stroke="none" width="3.5149601" gorn="0.10.0.0" y="39.778" height="4.2519698" x="25.177601"/>
        </g>
    </g>
    <g transform="rotate(-90,28.083063,48.068762)">
        <g id="g431" gorn="0.11.0">
            <rect stroke-width="0" fill="#9a916c" stroke="none" width="4.3937001" gorn="0.11.0.0" y="46.417" height="1.41732" x="24.943199"/>
        </g>
    </g>
    <g transform="rotate(-90,30.917763,48.068762)">
        <g id="g434" gorn="0.12.0">
            <rect stroke-width="0" fill="#9a916c" stroke="none" width="4.3937001" gorn="0.12.0.0" y="46.417" height="1.41732" x="27.7778"/>
        </g>
    </g>
    <g transform="rotate(-90,33.752363,48.068762)">
        <g id="g437" gorn="0.13.0">
            <rect stroke-width="0" fill="#9a916c" stroke="none" width="4.3937001" gorn="0.13.0.0" y="46.417" height="1.41732" x="30.612499"/>
        </g>
    </g>
    <g transform="rotate(-90,36.587013,48.068812)">
        <g id="g440" gorn="0.14.0">
            <rect stroke-width="0" fill="#9a916c" stroke="none" width="4.3937001" gorn="0.14.0.0" y="46.417" height="1.41732" x="33.447102"/>
        </g>
    </g>
    <g transform="rotate(-90,24.398013,59.123812)">
        <g id="g443" gorn="0.15.0">
            <rect id="connector15pin" stroke-width="0" fill="#9a916c" stroke="none" width="5.1023598" gorn="0.15.0.0" y="56.48" height="3.4015801" x="20.903799"/>
        </g>
    </g>
    <g transform="rotate(-90,40.271913,59.123712)">
        <g id="g446" gorn="0.16.0">
            <rect id="connector16pin" stroke-width="0" fill="#9a916c" stroke="none" width="5.1023598" gorn="0.16.0.0" y="56.48" height="3.4015801" x="36.777802"/>
        </g>
    </g>
    <g transform="rotate(180,19.439982,2.6829899)">
        <g id="g449" gorn="0.17.0">
            <rect id="connector17pin" stroke-width="0" fill="#9a916c" stroke="none" width="8.5039196" rx="0.53149599" ry="0.53149599" gorn="0.17.0.0" y="1.11401" height="4.2519698" x="15.188"/>
        </g>
    </g>
    <rect id="connector32pin" stroke-width="0" fill="#9a916c" stroke="none" width="1.41732" gorn="0.18" y="44.176926" height="1.41732" x="34.990002"/>
    <rect id="connector33pin" stroke-width="0" fill="#9a916c" stroke="none" width="1.41732" gorn="0.19" y="44.176926" height="1.41732" x="37.824699"/>
    <rect id="connector34pin" stroke-width="0" fill="#9a916c" stroke="none" width="1.41732" gorn="0.20" y="41.625824" height="1.41732" x="37.824699"/>
    <rect id="connector35pin" stroke-width="0" fill="#9a916c" stroke="none" width="1.41732" gorn="0.21" y="41.625824" height="1.41732" x="34.990002"/>
    <g transform="rotate(180,11.469,33.450713)">
        <g id="g470" gorn="0.22.0">
            <rect id="connector36pin" stroke-width="0" fill="#9a916c" stroke="none" width="2.5511799" gorn="0.22.0.0" y="31.232201" height="2.5511799" x="10.1934"/>
        </g>
    </g>
    <g transform="rotate(180,23.091,33.450713)">
        <g id="g473" gorn="0.23.0">
            <rect id="connector37pin" stroke-width="0" fill="#9a916c" stroke="none" width="2.5511799" gorn="0.23.0.0" y="31.232201" height="2.5511799" x="21.815399"/>
        </g>
    </g>
    <g transform="rotate(180,11.469,28.915313)">
        <g id="g476" gorn="0.24.0">
            <rect id="connector38pin" stroke-width="0" fill="#9a916c" stroke="none" width="2.5511799" gorn="0.24.0.0" y="26.696699" height="2.5511799" x="10.1934"/>
        </g>
    </g>
    <g transform="rotate(180,23.091,28.915313)">
        <g id="g479" gorn="0.25.0">
            <rect id="connector39pin" stroke-width="0" fill="#9a916c" stroke="none" width="2.5511799" gorn="0.25.0.0" y="26.696699" height="2.5511799" x="21.815399"/>
        </g>
    </g>
    <g transform="rotate(180,11.541,44.142663)">
        <g id="g482" gorn="0.26.0">
            <rect id="connector40pin" stroke-width="0" fill="#9a916c" stroke="none" width="2.5511799" gorn="0.26.0.0" y="41.924198" height="2.5511799" x="10.2654"/>
        </g>
    </g>
    <g transform="rotate(180,23.163,44.142663)">
        <g id="g485" gorn="0.27.0">
            <rect id="connector41pin" stroke-width="0" fill="#9a916c" stroke="none" width="2.5511799" gorn="0.27.0.0" y="41.924198" height="2.5511799" x="21.8874"/>
        </g>
    </g>
    <g transform="rotate(180,11.541,39.607363)">
        <g id="g488" gorn="0.28.0">
            <rect id="connector42pin" stroke-width="0" fill="#9a916c" stroke="none" width="2.5511799" gorn="0.28.0.0" y="37.388699" height="2.5511799" x="10.2654"/>
        </g>
    </g>
    <g transform="rotate(180,23.163,39.607363)">
        <g id="g491" gorn="0.29.0">
            <rect id="connector43pin" stroke-width="0" fill="#9a916c" stroke="none" width="2.5511799" gorn="0.29.0.0" y="37.388699" height="2.5511799" x="21.8874"/>
        </g>
    </g>
    <rect id="connector44pin" stroke-width="0" fill="#9a916c" stroke="none" width="1.70078" gorn="0.30" y="25.443624" height="1.70078" x="18.409599"/>
    <rect id="connector45pin" stroke-width="0" fill="#9a916c" stroke="none" width="1.70078" gorn="0.31" y="25.443624" height="1.70078" x="21.2896"/>
    <rect id="connector46pin" stroke-width="0" fill="#9a916c" stroke="none" width="1.70078" gorn="0.32" y="25.947624" height="1.70078" x="23.989599"/>
    <rect id="connector47pin" stroke-width="0" fill="#9a916c" stroke="none" width="1.70078" gorn="0.33" y="25.947624" height="1.70078" x="26.8696"/>
    <rect id="connector48pin" stroke-width="0" fill="#9a916c" stroke="none" width="2.83465" rx="1.41732" ry="1.41732" gorn="0.34" y="6.7687054" height="2.83465" x="16.1507"/>
    <rect id="connector49pin" stroke-width="0" fill="#9a916c" stroke="none" width="2.83465" rx="1.41732" ry="1.41732" gorn="0.35" y="59.220726" height="2.83465" x="26.662701"/>
    <g transform="rotate(180,33.6169,30.845713)">
        <g id="g500" gorn="0.36.0">
            <rect id="connector50pin" stroke-width="0" fill="#9a916c" stroke="none" width="1.55905" gorn="0.36.0.0" y="28.2019" height="3.4015801" x="32.837399"/>
        </g>
    </g>
    <g transform="rotate(180,30.924,30.845713)">
        <g id="g503" gorn="0.37.0">
            <rect id="connector51pin" stroke-width="0" fill="#9a916c" stroke="none" width="1.55905" gorn="0.37.0.0" y="28.2019" height="3.4015801" x="30.144501"/>
        </g>
    </g>
    <g transform="rotate(180,28.2311,30.845713)">
        <g id="g506" gorn="0.38.0">
            <rect id="connector52pin" stroke-width="0" fill="#9a916c" stroke="none" width="1.55905" gorn="0.38.0.0" y="28.2019" height="3.4015801" x="27.451599"/>
        </g>
    </g>
    <g transform="rotate(180,28.2311,38.216313)">
        <g id="g509" gorn="0.39.0">
            <rect id="connector53pin" stroke-width="0" fill="#9a916c" stroke="none" width="1.55905" gorn="0.39.0.0" y="35.572498" height="3.4015801" x="27.451599"/>
        </g>
    </g>
    <g transform="rotate(180,33.6169,38.216313)">
        <g id="g512" gorn="0.40.0">
            <rect id="connector54pin" stroke-width="0" fill="#9a916c" stroke="none" width="1.55905" gorn="0.40.0.0" y="35.572498" height="3.4015801" x="32.837399"/>
        </g>
    </g>
    <g transform="rotate(180,30.959983,2.6829901)">
        <g id="g515" gorn="0.41.0">
            <rect id="connector55pin" stroke-width="0" fill="#9a916c" stroke="none" width="8.5039196" rx="0.53149599" ry="0.53149599" gorn="0.41.0.0" y="1.11401" height="4.2519698" x="26.708"/>
        </g>
    </g>
    <g transform="rotate(90,12.484988,51.442513)">
        <g id="g518" gorn="0.42.0">
            <rect id="connector56pin" stroke-width="0" fill="#9a916c" stroke="none" width="4.53543" gorn="0.42.0.0" y="47.948299" height="5.1023598" x="11.1603"/>
        </g>
    </g>
    <g transform="rotate(90,12.484988,59.379513)">
        <g id="g521" gorn="0.43.0">
            <rect id="connector57pin" stroke-width="0" fill="#9a916c" stroke="none" width="4.53543" gorn="0.43.0.0" y="55.8853" height="5.1023598" x="11.1603"/>
        </g>
    </g>
    <g transform="rotate(180,34.2709,21.791813)">
        <g id="g524" gorn="0.44.0">
            <rect id="connector58pin" stroke-width="0" fill="#9a916c" stroke="none" width="1.62992" gorn="0.44.0.0" y="19.218901" height="3.25984" x="33.455898"/>
        </g>
    </g>
    <g transform="rotate(180,32.00315,21.791813)">
        <g id="g527" gorn="0.45.0">
            <rect id="connector59pin" stroke-width="0" fill="#9a916c" stroke="none" width="1.62992" gorn="0.45.0.0" y="19.218901" height="3.25984" x="31.1882"/>
        </g>
    </g>
    <g transform="rotate(180,28.7433,21.791813)">
        <g id="g530" gorn="0.46.0">
            <rect id="connector60pin" stroke-width="0" fill="#9a916c" stroke="none" width="0.77952999" gorn="0.46.0.0" y="19.218901" height="3.25984" x="28.3535"/>
        </g>
    </g>
    <g transform="rotate(180,25.90865,21.791813)">
        <g id="g533" gorn="0.47.0">
            <rect id="connector61pin" stroke-width="0" fill="#9a916c" stroke="none" width="0.77952999" gorn="0.47.0.0" y="19.218901" height="3.25984" x="25.5189"/>
        </g>
    </g>
    <g transform="rotate(180,24.49135,21.791813)">
        <g id="g536" gorn="0.48.0">
            <rect id="connector62pin" stroke-width="0" fill="#9a916c" stroke="none" width="0.77952999" gorn="0.48.0.0" y="19.218901" height="3.25984" x="24.101601"/>
        </g>
    </g>
    <g transform="rotate(180,21.6567,21.791813)">
        <g id="g539" gorn="0.49.0">
            <rect id="connector63pin" stroke-width="0" fill="#9a916c" stroke="none" width="0.77952999" gorn="0.49.0.0" y="19.218901" height="3.25984" x="21.266899"/>
        </g>
    </g>
    <g transform="rotate(180,16.1291,21.791813)">
        <g id="g542" gorn="0.50.0">
            <rect id="connector64pin" stroke-width="0" fill="#9a916c" stroke="none" width="1.62992" gorn="0.50.0.0" y="19.218901" height="3.25984" x="15.3142"/>
        </g>
    </g>
    <g transform="rotate(180,18.39685,21.791813)">
        <g id="g545" gorn="0.51.0">
            <rect id="connector65pin" stroke-width="0" fill="#9a916c" stroke="none" width="1.62992" gorn="0.51.0.0" y="19.218901" height="3.25984" x="17.5819"/>
        </g>
    </g>
    <g transform="rotate(180,20.2394,21.791813)">
        <g id="g548" gorn="0.52.0">
            <rect id="connector66pin" stroke-width="0" fill="#9a916c" stroke="none" width="0.77952999" gorn="0.52.0.0" y="19.218901" height="3.25984" x="19.8496"/>
        </g>
    </g>
    <g transform="rotate(180,23.074,21.791813)">
        <g id="g551" gorn="0.53.0">
            <rect id="connector67pin" stroke-width="0" fill="#9a916c" stroke="none" width="0.77952999" gorn="0.53.0.0" y="19.218901" height="3.25984" x="22.6842"/>
        </g>
    </g>
    <g transform="rotate(180,27.326,21.791813)">
        <g id="g554" gorn="0.54.0">
            <rect id="connector68pin" stroke-width="0" fill="#9a916c" stroke="none" width="0.77952999" gorn="0.54.0.0" y="19.218901" height="3.25984" x="26.936199"/>
        </g>
    </g>
    <g transform="rotate(180,30.1606,21.791813)">
        <g id="g557" gorn="0.55.0">
            <rect id="connector69pin" stroke-width="0" fill="#9a916c" stroke="none" width="0.77952999" gorn="0.55.0.0" y="19.218901" height="3.25984" x="29.7708"/>
        </g>
    </g>
    <circle id="connector70pin" stroke-width="0.72" fill="none" stroke="#9a916c" gorn="0.56" cy="21.104925" cx="37.445702" r="1.21039" connectorname="M1"/>
    <path id="path560" stroke-width="0" fill="#9a916c" stroke="none" gorn="0.57" d="m 36.2353,18.321025 h 2.42078 v 5.56781 H 36.2353 v -5.56781 m 0,2.7839 a 1.21039,1.21039 0 1 0 2.42078,0 1.21039,1.21039 0 1 0 -2.42078,0 z"/>
    <circle id="connector71pin" stroke-width="0.72" fill="none" stroke="#9a916c" gorn="0.58" cy="21.104925" cx="12.9543" r="1.21039" connectorname="M2"/>
    <path id="path563" stroke-width="0" fill="#9a916c" stroke="none" gorn="0.59" d="m 11.7439,18.321025 h 2.42078 v 5.56781 H 11.7439 v -5.56781 m 0,2.7839 a 1.21039,1.21039 0 1 0 2.42078,0 1.21039,1.21039 0 1 0 -2.42078,0 z"/>
    <circle id="connector72pin" stroke-width="0.72" fill="none" stroke="#9a916c" gorn="0.60" cy="9.2560854" cx="37.445702" r="1.21039" connectorname="M3"/>
    <path id="path566" stroke-width="0" fill="#9a916c" stroke="none" gorn="0.61" d="m 36.2353,6.4722054 h 2.42078 V 12.040015 H 36.2353 V 6.4722054 m 0,2.78388 a 1.21039,1.21039 0 1 0 2.42078,0 1.21039,1.21039 0 1 0 -2.42078,0 z"/>
    <circle id="connector73pin" stroke-width="0.72" fill="none" stroke="#9a916c" gorn="0.62" cy="9.2560854" cx="12.9543" r="1.21039" connectorname="M4"/>
    <path id="path569" stroke-width="0" fill="#9a916c" stroke="none" gorn="0.63" d="m 11.7439,6.4722054 h 2.42078 V 12.040015 H 11.7439 V 6.4722054 m 0,2.78388 a 1.21039,1.21039 0 1 0 2.42078,0 1.21039,1.21039 0 1 0 -2.42078,0 z"/>
    <g transform="translate(31.0055,25.566525)">
        <g id="0805-cap" gorn="0.64.0">
            <g transform="rotate(180,2.8345,1.7715)">
                <g id="g576" gorn="0.64.0.0.0">
                    <path id="path572" fill="#dcdcdc" gorn="0.64.0.0.0.0" d="M 5.386,3.543 H 0.283 C 0.127,3.543 0,3.416 0,3.26 V 0.283 C 0,0.127 0.127,0 0.283,0 H 5.385 C 5.542,0 5.668,0.127 5.668,0.283 V 3.26 C 5.669,3.416 5.542,3.543 5.386,3.543 Z"/>
                    <rect id="rect574" fill="#6e554b" width="3.543" gorn="0.64.0.0.0.1" y="0" height="3.543" x="1.063"/>
                </g>
            </g>
        </g>
    </g>
    <g transform="translate(35.2175,33.882525)">
        <g id="g585" gorn="0.65.0">
            <g transform="rotate(-90,2.8345,1.7715)">
                <g id="g583" gorn="0.65.0.0.0">
                    <path id="path579" fill="#dcdcdc" gorn="0.65.0.0.0.0" d="M 5.386,3.543 H 0.283 C 0.127,3.543 0,3.416 0,3.26 V 0.283 C 0,0.127 0.127,0 0.283,0 H 5.385 C 5.542,0 5.668,0.127 5.668,0.283 V 3.26 C 5.669,3.416 5.542,3.543 5.386,3.543 Z"/>
                    <rect id="rect581" fill="#6e554b" width="3.543" gorn="0.65.0.0.0.1" y="0" height="3.543" x="1.063"/>
                </g>
            </g>
        </g>
    </g>
    <g transform="translate(26.7935,42.018525)">
        <g id="g593" gorn="0.66.0">
            <g transform="rotate(180,2.8345,1.7715)">
                <g id="g591" gorn="0.66.0.0.0">
                    <path id="path587" fill="#dcdcdc" gorn="0.66.0.0.0.0" d="M 5.386,3.543 H 0.283 C 0.127,3.543 0,3.416 0,3.26 V 0.283 C 0,0.127 0.127,0 0.283,0 H 5.385 C 5.542,0 5.668,0.127 5.668,0.283 V 3.26 C 5.669,3.416 5.542,3.543 5.386,3.543 Z"/>
                    <rect id="rect589" fill="#6e554b" width="3.543" gorn="0.66.0.0.0.1" y="0" height="3.543" x="1.063"/>
                </g>
            </g>
        </g>
    </g>
    <g transform="translate(22.792,48.819409)">
        <g id="jst_sh4_skinny" gorn="0.67.0">
            <style id="style602" type="text/css">
	.st0{fill:#666666;}
	.st1{fill:#333333;}
	.st2{fill:#DCDCDC;}
	.st3{fill:#FF0000;}
	.st4{fill:#0000FF;}
	.st5{fill:#FFFF00;}
</style>
            <path id="polygon5" gorn="0.67.0.1" class="st0" d="m 1.6,2.4 h 14.2 v 1.4 h 1.4 v 10 h -17 v -10 h 1.4 z" nodetypes="ccccccccc"/>
            <g transform="matrix(1,-0.00679984,0.00679984,1,-0.049236,0.0977364)">
                <rect id="rect7" width="1.4" gorn="0.67.0.2.0" y="5.0999999" height="4.4000001" x="13.6"/>
            </g>
            <g transform="matrix(1,-0.00679984,0.00679984,1,-0.0500233,0.0204879)">
                <rect id="rect9" width="1.4" gorn="0.67.0.3.0" y="5.1999998" height="4.4000001" x="2.3"/>
            </g>
            <g transform="matrix(1,-0.00679984,0.00679984,1,-0.0293925,0.0975226)">
                <rect id="rect11" width="1.4" gorn="0.67.0.4.0" y="3.5999999" height="1.5" class="st1" x="13.6"/>
            </g>
            <g transform="matrix(1,-0.00679984,0.00679984,1,-0.0301805,0.0202746)">
                <rect id="rect13" width="1.4" gorn="0.67.0.5.0" y="3.7" height="1.5" class="st1" x="2.3"/>
            </g>
            <g transform="matrix(1,-0.00679984,0.00679984,1,-0.0121274,0.0876802)">
                <rect id="rect19" width="1" gorn="0.67.0.6.0" y="0" height="3.5999999" class="st2" x="12.4"/>
            </g>
            <g transform="matrix(1,-0.00679984,0.00679984,1,-0.0123244,0.0683693)">
                <rect id="rect21" width="1" gorn="0.67.0.7.0" y="0" height="3.5999999" class="st2" x="9.5999804"/>
            </g>
            <g transform="matrix(1,-0.00679984,0.00679984,1,-0.0123244,0.0683693)">
                <rect id="rect4164" width="1" gorn="0.67.0.8.0" y="0" height="3.5999999" class="st2" x="9.5999804"/>
            </g>
            <g transform="matrix(1,-0.00679984,0.00679984,1,-0.0125214,0.0490567)">
                <rect id="rect4188" width="1" gorn="0.67.0.9.0" y="0" height="3.5999999" class="st2" x="6.6999998"/>
            </g>
            <g transform="matrix(1,-0.00679984,0.00679984,1,-0.0127189,0.0297447)">
                <rect id="rect4143" width="1" gorn="0.67.0.10.0" y="0.1" height="3.5999999" class="st2" x="3.9000001"/>
            </g>
            <path id="path594" gorn="0.67.0.11" d="m 0.2,8.89999 c 0,-2.7 0,-4.9 0,-5 v -0.1 H 0.9 1.6 V 3.1 2.4 h 1.1 1.1 v 0.3 c 0,0.2 0,0.5 0,0.7 V 3.7 H 4 c 0.1,0 0.3,0 0.5,0 H 4.8 V 3 2.4 h 0.9 0.9 v 0.2 c 0,0.1 0,0.4 0,0.7 V 3.7 H 7.1 7.6 L 7.60003,3 V 2.4 h 0.9 0.9 v 0.1 c 0,0.1 0,0.1 0,0.1 0,0 0,0.3 0,0.5 v 0.5 h 0.5 0.5 V 2.9 2.2 h 0.9 c 0.799999,0 0.9,0 0.9,0 0,0 0,0.3 0,0.6 v 0.6 h 0.3 c 0.2,0 0.4,0 0.5,0 h 0.2 V 2.8 2.2 h 1.2 1.2 v 0.7 0.7 h 0.7 0.7 v 1.7 c 0,0.9 0,3.2 0,5 v 3.4 h -3.3 c -1.8,0 -5.6,0 -8.50003,0 h -5.3 z m 3.5,0.40003 c 0,-0.5 0,-4.3 0,-4.9 v -0.6 L 3,3.7 c -0.4,0 -0.7,0 -0.7,0 0,0 0,4.3 0,5.1 v 0.7 l 0.7,-3e-5 h 0.7 c 0,0.10001 0,-0.19995 0,-0.19995 z m 11.4,0.19995 c 0,0 0,-5.5 0,-5.7 v -0.1 h -0.7 c -0.4,0 -0.7,0 -0.7,0 0,0 0,1.9 0,4.6 v 1.2 h 0.7 c 0.3,0 0.7,0 0.7,0 z"/>
            <path id="path596" gorn="0.67.0.12" d="m 2.3,5.1 c 0,-0.1 0,-0.4 0,-0.7 V 3.8 h 0.1 c 0.1,0 0.5,0 1,0 h 0.4 v 0.5 c 0,0.3 0,0.6 0,0.7 V 5.2 H 3 Z"/>
            <path id="path598" gorn="0.67.0.13" d="m 13.6,4.9 c 0,-0.1 0,-0.4 0,-0.7 V 3.6 h 0.1 c 0.1,0 0.4,0 0.7,0 H 15 v 0.1 c 0,0.1 0,0.4 0,0.7 V 5 h -0.7 -0.7 z"/>
            <circle id="connector11pin" gorn="0.67.0.14" cy="16.200001" cx="2" r="2"/>
            <circle id="connector12pin" gorn="0.67.0.15" cy="16.200001" cx="6.5" class="st3" r="2"/>
            <circle id="connector13pin" gorn="0.67.0.16" cy="16.200001" cx="11.1" class="st4" r="2"/>
            <circle id="connector14pin" gorn="0.67.0.17" cy="16.200001" cx="15.6" class="st5" r="2"/>
        </g>
    </g>
    <g transform="translate(34.8484,41.342425)">
        <g id="sk6805_1515" gorn="0.68.0">
            <metadata id="metadata15">
                <rdf:RDF xmlns:rdf="http://www.w3.org/1999/02/22-rdf-syntax-ns#">
                    <cc:Work xmlns:cc="http://creativecommons.org/ns#" rdf:about="">
                        <dc:format xmlns:dc="http://purl.org/dc/elements/1.1/">image/svg+xml</dc:format>
                        <dc:type xmlns:dc="http://purl.org/dc/elements/1.1/" rdf:resource="http://purl.org/dc/dcmitype/StillImage"/>
                        <dc:title xmlns:dc="http://purl.org/dc/elements/1.1/"/>
                    </cc:Work>
                </rdf:RDF>
            </metadata>
            <defs id="defs13"/>
            <style id="style2" type="text/css">
	.st0{fill:#9C8F6D;}
	.st1{fill:#807C73;}
</style>
            <g id="g853" gorn="0.68.0.3">
                <g id="g8" gorn="0.68.0.3.0">
                    <rect id="rect4" width="4.5352001" gorn="0.68.0.3.0.0" y="0" height="4.5352001" class="st0" x="0"/>
                    <rect id="rect6" width="2.7216001" gorn="0.68.0.3.0.1" y="0.90719998" height="2.7216001" class="st1" x="0.34"/>
                </g>
                <circle id="path833" fill="#ff0000" gorn="0.68.0.3.1" cy="1.7581199" cx="1.36575" r="0.46782601"/>
                <circle id="circle835" fill="#00ff00" gorn="0.68.0.3.2" cy="2.7843201" cx="1.40347" r="0.46782601"/>
                <circle id="circle837" fill="#0000ff" gorn="0.68.0.3.3" cy="2.26367" cx="2.3391299" r="0.46782601"/>
            </g>
        </g>
    </g>
    <g transform="translate(10.902,27.874025)">
        <g id="btn_kmr2_4.6x2.8" gorn="0.69.0">
            <g transform="rotate(180,6.378,4.251995)">
                <g id="g645" gorn="0.69.0.0.0">
                    <g id="g643" gorn="0.69.0.0.0.0">
                        <polygon id="polygon635" fill="#dcdcdc" gorn="0.69.0.0.0.0.0" points="0,5.811 0,7.22801 1.417,7.22801 1.417,8.50399 11.339,8.50399 11.339,7.22801 12.756,7.22801 12.756,5.811 11.339,5.811 11.339,2.692 12.756,2.692 12.756,1.275 11.339,1.275 11.339,0 1.417,0 1.417,1.275 0,1.275 0,2.692 1.417,2.692 1.417,5.811 "/>
                        <circle id="circle637" fill="#1e1e1e" gorn="0.69.0.0.0.0.1" cy="4.2519999" cx="6.3779998" r="2.48"/>
                        <rect id="rect639" fill="#b4b4b4" width="0.56699997" gorn="0.69.0.0.0.0.2" y="0" height="8.5039902" x="0.99200201"/>
                        <rect id="rect641" fill="#b4b4b4" width="0.56699997" gorn="0.69.0.0.0.0.3" y="0" height="8.5039902" x="11.197"/>
                    </g>
                </g>
            </g>
        </g>
    </g>
    <g transform="translate(10.974,38.566025)">
        <g id="g660" gorn="0.70.0">
            <g transform="rotate(180,6.378,4.251995)">
                <g id="g658" gorn="0.70.0.0.0">
                    <g id="g656" gorn="0.70.0.0.0.0">
                        <polygon id="polygon648" fill="#dcdcdc" gorn="0.70.0.0.0.0.0" points="0,5.811 0,7.22801 1.417,7.22801 1.417,8.50399 11.339,8.50399 11.339,7.22801 12.756,7.22801 12.756,5.811 11.339,5.811 11.339,2.692 12.756,2.692 12.756,1.275 11.339,1.275 11.339,0 1.417,0 1.417,1.275 0,1.275 0,2.692 1.417,2.692 1.417,5.811 "/>
                        <circle id="circle650" fill="#1e1e1e" gorn="0.70.0.0.0.0.1" cy="4.2519999" cx="6.3779998" r="2.48"/>
                        <rect id="rect652" fill="#b4b4b4" width="0.56699997" gorn="0.70.0.0.0.0.2" y="0" height="8.5039902" x="0.99200201"/>
                        <rect id="rect654" fill="#b4b4b4" width="0.56699997" gorn="0.70.0.0.0.0.3" y="0" height="8.5039902" x="11.197"/>
                    </g>
                </g>
            </g>
        </g>
    </g>
    <g transform="translate(19.2825,25.585525)">
        <g id="_0402no" gorn="0.71.0">
            <path id="path662" fill="#dcdcdc" gorn="0.71.0.0" d="M 2.551,1.417 H 0.283 C 0.127,1.417 0,1.29 0,1.134 V 0.283997 C 0,0.127 0.127,0 0.283,0 H 2.551 C 2.708,0 2.834,0.127 2.834,0.283 V 1.133003 C 2.835,1.29 2.708,1.417 2.551,1.417 Z"/>
            <rect id="rect664" fill="#333333" width="1.4170001" gorn="0.71.0.1" y="0" height="1.4170001" x="0.70899999"/>
        </g>
    </g>
    <g transform="translate(24.8625,26.089525)">
        <g id="g671" gorn="0.72.0">
            <path id="path667" fill="#dcdcdc" gorn="0.72.0.0" d="M 2.551,1.417 H 0.283 C 0.127,1.417 0,1.29 0,1.134 V 0.283997 C 0,0.127 0.127,0 0.283,0 H 2.551 C 2.708,0 2.834,0.127 2.834,0.283 V 1.133003 C 2.835,1.29 2.708,1.417 2.551,1.417 Z"/>
            <rect id="rect669" fill="#333333" width="1.4170001" gorn="0.72.0.1" y="0" height="1.4170001" x="0.70899999"/>
        </g>
    </g>
    <g transform="translate(26.814,31.647025)">
        <g id="sot23-5" gorn="0.73.0">
            <g transform="rotate(180,4.11001,3.827015)">
                <g id="g683" gorn="0.73.0.0.0">
                    <g id="g681" gorn="0.73.0.0.0.0">
                        <rect id="rect673" fill="#dcdcdc" width="1.1339999" gorn="0.73.0.0.0.0.0" y="0" height="7.6540298" x="0.850003"/>
                        <rect id="rect675" fill="#dcdcdc" width="1.1339999" gorn="0.73.0.0.0.0.1" y="0" height="7.6540298" x="6.2360001"/>
                        <rect id="rect677" fill="#dcdcdc" width="1.1339999" gorn="0.73.0.0.0.0.2" y="4.5349998" height="3.118" x="3.543"/>
                        <rect id="rect679" fill="#303030" width="8.2200203" gorn="0.73.0.0.0.0.3" y="1.559" height="4.5349998" x="0"/>
                    </g>
                </g>
            </g>
        </g>
    </g>
    <g transform="translate(8.6091099,54.086325)">
        <g id="ant_2450at18b100" gorn="0.74.0">
            <g transform="rotate(90,4.81889,2.26771)">
                <g id="g694" gorn="0.74.0.0.0">
                    <defs id="defs4461"/>
                    <metadata id="metadata4464">
                        <rdf:RDF xmlns:rdf="http://www.w3.org/1999/02/22-rdf-syntax-ns#">
                            <cc:Work xmlns:cc="http://creativecommons.org/ns#" rdf:about="">
                                <dc:format xmlns:dc="http://purl.org/dc/elements/1.1/">image/svg+xml</dc:format>
                                <dc:type xmlns:dc="http://purl.org/dc/elements/1.1/" rdf:resource="http://purl.org/dc/dcmitype/StillImage"/>
                                <dc:title xmlns:dc="http://purl.org/dc/elements/1.1/"/>
                            </cc:Work>
                        </rdf:RDF>
                    </metadata>
                    <g transform="translate(0,-837.353)">
                        <g id="layer1" gorn="0.74.0.0.0.2.0">
                            <g transform="scale(-1,1)">
                                <rect fill-opacity="1" id="rect4523" fill="#f2f2f2" stroke-width="0" width="9.6377802" gorn="0.74.0.0.0.2.0.0.0" style="stroke-miterlimit:4;stroke-dasharray:none" y="837.35303" height="4.5352402" x="-9.6377802"/>
                            </g>
                            <g transform="scale(-1,1)">
                                <rect fill-opacity="1" id="rect4467" fill="#808080" stroke-width="0" width="1.20473" gorn="0.74.0.0.0.2.0.1.0" style="stroke-miterlimit:4;stroke-dasharray:none" y="837.35303" height="4.5352402" x="-9.6377802"/>
                            </g>
                            <g transform="scale(-1,1)">
                                <rect fill-opacity="1" id="rect4489" fill="#808080" stroke-width="0" width="1.20473" gorn="0.74.0.0.0.2.0.2.0" style="stroke-miterlimit:4;stroke-dasharray:none" y="837.35303" height="4.5352402" x="-1.20473"/>
                            </g>
                            <g transform="scale(-1,1)">
                                <rect fill-opacity="1" id="rect4521" fill="#aa4400" stroke-width="0" width="1.79965" gorn="0.74.0.0.0.2.0.3.0" style="stroke-miterlimit:4;stroke-dasharray:none" y="838.65601" height="1.88829" x="-3.95085"/>
                            </g>
                        </g>
                    </g>
                </g>
            </g>
        </g>
    </g>
    <g transform="translate(50.876284,12.038743)">
        <g id="g2865" gorn="0.75.0">
            <g transform="matrix(0.99999999,0,0,-0.99999999,-43.934284,39.506291)">
                <g id="g2316" gorn="0.75.0.0.0">
                    <path id="path2318" gorn="0.75.0.0.0.0" style="fill:#ffffff;fill-opacity:1;fill-rule:nonzero;stroke:none" d="M 0,0 H -0.592 V 1.544 H 2.24 V 0.831 H 0 Z m -0.558,3.009 c 0.074,0.147 0.176,0.274 0.308,0.38 0.132,0.106 0.29,0.188 0.472,0.247 0.183,0.058 0.383,0.088 0.602,0.088 0.221,0 0.424,-0.03 0.608,-0.088 C 1.616,3.577 1.773,3.495 1.904,3.389 2.035,3.283 2.136,3.156 2.208,3.009 2.28,2.86 2.316,2.695 2.316,2.514 2.316,2.306 2.282,2.132 2.214,1.992 2.146,1.853 2.062,1.74 1.96,1.655 L 1.496,2.034 C 1.56,2.087 1.611,2.146 1.648,2.212 1.686,2.278 1.704,2.361 1.704,2.461 1.704,2.555 1.682,2.636 1.636,2.705 1.591,2.773 1.529,2.832 1.45,2.881 1.372,2.93 1.278,2.965 1.17,2.988 1.062,3.012 0.947,3.023 0.824,3.023 0.702,3.023 0.587,3.012 0.48,2.988 0.374,2.965 0.28,2.93 0.2,2.881 0.12,2.832 0.058,2.773 0.012,2.703 -0.033,2.632 -0.056,2.55 -0.056,2.456 -0.056,2.362 -0.035,2.28 0.008,2.21 0.051,2.14 0.102,2.084 0.16,2.043 L -0.284,1.651 c -0.109,0.085 -0.2,0.197 -0.274,0.334 -0.073,0.138 -0.11,0.315 -0.11,0.529 0,0.181 0.037,0.346 0.11,0.495 m -2.784,5.714 c -0.783,0 -1.418,0.634 -1.418,1.418 0,0.782 0.635,1.417 1.418,1.417 0.782,0 1.417,-0.635 1.417,-1.417 0,-0.784 -0.635,-1.418 -1.417,-1.418 m 0,-7.2 c -0.783,0 -1.418,0.635 -1.418,1.417 0,0.784 0.635,1.417 1.418,1.417 0.782,0 1.417,-0.633 1.417,-1.417 0,-0.782 -0.635,-1.417 -1.417,-1.417 m 2.77,3.761 c 0.064,0.154 0.139,0.278 0.224,0.372 L 0.132,5.295 C 0.068,5.228 0.017,5.15 -0.022,5.062 -0.061,4.975 -0.08,4.885 -0.08,4.794 -0.08,4.709 -0.055,4.637 -0.004,4.578 0.047,4.52 0.118,4.49 0.208,4.49 c 0.094,0 0.167,0.035 0.222,0.106 0.055,0.07 0.113,0.173 0.174,0.307 0.038,0.086 0.079,0.165 0.124,0.241 0.045,0.075 0.1,0.14 0.164,0.198 0.064,0.056 0.139,0.101 0.224,0.134 0.086,0.032 0.187,0.048 0.304,0.048 0.158,0 0.293,-0.029 0.406,-0.086 C 1.939,5.381 2.032,5.307 2.104,5.214 2.176,5.122 2.229,5.019 2.264,4.906 2.299,4.793 2.316,4.68 2.316,4.565 2.316,4.395 2.291,4.242 2.241,4.107 2.19,3.973 2.122,3.859 2.034,3.769 L 1.564,4.134 C 1.62,4.187 1.664,4.248 1.694,4.318 1.725,4.389 1.74,4.462 1.74,4.539 1.74,4.618 1.717,4.688 1.672,4.752 1.626,4.815 1.552,4.847 1.448,4.847 1.359,4.847 1.291,4.814 1.241,4.75 1.192,4.686 1.138,4.59 1.079,4.464 1.047,4.393 1.009,4.318 0.965,4.24 0.921,4.162 0.867,4.09 0.803,4.025 0.738,3.96 0.662,3.906 0.572,3.863 0.483,3.821 0.376,3.8 0.254,3.8 c -0.152,0 -0.287,0.026 -0.403,0.079 -0.116,0.054 -0.212,0.125 -0.288,0.215 -0.077,0.09 -0.134,0.194 -0.173,0.312 -0.038,0.117 -0.058,0.24 -0.058,0.365 0,0.189 0.032,0.36 0.096,0.513 M 2.14,9.711 C 2.074,9.548 1.978,9.414 1.854,9.309 1.73,9.203 1.581,9.124 1.406,9.073 1.231,9.021 1.035,8.996 0.816,8.996 c -0.213,0 -0.406,0.025 -0.58,0.077 -0.173,0.051 -0.321,0.13 -0.444,0.236 -0.123,0.105 -0.217,0.239 -0.284,0.402 -0.067,0.163 -0.1,0.355 -0.1,0.579 v 0.875 H 2.24 V 10.29 C 2.24,10.066 2.207,9.874 2.14,9.711 M -0.592,8.481 V 9.186 L 2.24,8.429 V 7.544 L -0.592,6.792 v 0.734 l 0.516,0.128 v 0.7 z m 0.02,4.368 c 0.064,0.154 0.139,0.278 0.224,0.372 l 0.48,-0.362 C 0.068,12.792 0.017,12.715 -0.022,12.627 -0.061,12.539 -0.08,12.449 -0.08,12.358 c 0,-0.085 0.025,-0.157 0.076,-0.215 0.051,-0.059 0.122,-0.088 0.212,-0.088 0.094,0 0.167,0.035 0.222,0.105 0.055,0.07 0.113,0.173 0.174,0.308 0.038,0.086 0.079,0.165 0.124,0.24 0.045,0.075 0.1,0.141 0.164,0.198 0.064,0.057 0.139,0.102 0.224,0.134 0.086,0.032 0.187,0.049 0.304,0.049 0.158,0 0.293,-0.029 0.406,-0.086 0.113,-0.058 0.206,-0.132 0.278,-0.225 0.072,-0.091 0.125,-0.195 0.16,-0.307 0.035,-0.114 0.052,-0.227 0.052,-0.341 0,-0.171 -0.025,-0.323 -0.075,-0.458 C 2.19,11.537 2.122,11.424 2.034,11.333 l -0.47,0.365 c 0.056,0.053 0.1,0.115 0.13,0.185 0.031,0.07 0.046,0.143 0.046,0.221 0,0.079 -0.023,0.149 -0.068,0.212 -0.046,0.064 -0.12,0.095 -0.224,0.095 -0.089,0 -0.157,-0.032 -0.207,-0.097 C 1.192,12.25 1.138,12.154 1.079,12.028 1.047,11.957 1.009,11.883 0.965,11.805 0.921,11.727 0.867,11.654 0.803,11.59 0.738,11.524 0.662,11.471 0.572,11.428 0.483,11.386 0.376,11.364 0.254,11.364 c -0.152,0 -0.287,0.027 -0.403,0.079 -0.116,0.054 -0.212,0.125 -0.288,0.215 -0.077,0.09 -0.134,0.195 -0.173,0.313 -0.038,0.117 -0.058,0.239 -0.058,0.365 0,0.188 0.032,0.359 0.096,0.513 M 2.73,0.17 v 12.712 c 0,0.47 -0.38,0.85 -0.85,0.85 h -8.822 v -2.174 c 0.783,0 1.417,-0.635 1.417,-1.417 0,-0.784 -0.634,-1.418 -1.417,-1.418 V 4.357 c 0.783,0 1.417,-0.633 1.417,-1.417 0,-0.782 -0.634,-1.417 -1.417,-1.417 V -0.68 H 1.88 c 0.47,0 0.85,0.38 0.85,0.85"/>
                </g>
            </g>
            <g transform="matrix(0.99999999,0,0,-0.99999999,-43.362484,-0.75540848)">
                <g id="g2320" gorn="0.75.0.1.0">
                    <path id="path2322" gorn="0.75.0.1.0.0" style="fill:#ffffff;fill-opacity:1;fill-rule:nonzero;stroke:none" d="M 0,0 1.385,-0.276 V -0.295 L 0,-0.557 Z M -1.164,-0.782 V -1.55 l 3.257,0.786 V 0.161 L -1.164,0.952 V 0.216 L -0.57,0.083 v -0.731 z"/>
                </g>
            </g>
            <g transform="matrix(0.99999999,0,0,-0.99999999,-45.103684,-4.0991084)">
                <g id="g2324" gorn="0.75.0.2.0">
                    <path id="path2326" gorn="0.75.0.2.0.0" style="fill:#ffffff;fill-opacity:1;fill-rule:nonzero;stroke:none" d="m 0,0 c 0.064,-0.081 0.142,-0.144 0.232,-0.188 0.091,-0.045 0.189,-0.067 0.292,-0.067 0.105,0 0.202,0.022 0.29,0.067 C 0.903,-0.144 0.98,-0.081 1.047,0 1.113,0.082 1.164,0.178 1.201,0.29 1.237,0.402 1.256,0.526 1.256,0.661 1.256,0.793 1.237,0.914 1.201,1.024 1.164,1.134 1.113,1.227 1.047,1.302 0.98,1.377 0.903,1.437 0.814,1.479 0.726,1.521 0.629,1.543 0.524,1.543 0.421,1.543 0.323,1.521 0.232,1.479 0.142,1.437 0.064,1.377 0,1.302 -0.064,1.227 -0.114,1.134 -0.151,1.024 -0.187,0.914 -0.206,0.793 -0.206,0.661 -0.206,0.526 -0.187,0.402 -0.151,0.29 -0.114,0.178 -0.064,0.082 0,0"/>
                </g>
            </g>
            <g transform="matrix(0.99999999,0,0,-0.99999999,-46.473884,-5.6450084)">
                <g id="g2328" gorn="0.75.0.3.0">
                    <path id="path2330" gorn="0.75.0.3.0.0" style="fill:#ffffff;fill-opacity:1;fill-rule:nonzero;stroke:none" d="M 0,0 C 0.104,0.261 0.248,0.485 0.431,0.673 0.613,0.86 0.83,1.005 1.081,1.108 1.331,1.21 1.603,1.261 1.895,1.261 2.188,1.261 2.457,1.21 2.704,1.108 2.951,1.005 3.164,0.863 3.344,0.682 3.522,0.5 3.663,0.281 3.764,0.026 c 0.1,-0.255 0.151,-0.533 0.151,-0.835 0,-0.116 -0.012,-0.23 -0.034,-0.342 C 3.858,-1.264 3.829,-1.367 3.792,-1.461 3.756,-1.557 3.714,-1.642 3.667,-1.717 3.62,-1.792 3.574,-1.851 3.529,-1.894 v -0.023 l 0.584,0.041 V -2.961 H 1.827 c -0.292,0 -0.56,0.045 -0.804,0.136 -0.244,0.091 -0.453,0.225 -0.627,0.404 -0.173,0.177 -0.309,0.397 -0.407,0.658 -0.096,0.261 -0.145,0.561 -0.145,0.902 0,0.313 0.052,0.6 0.156,0.861 m 3.956,1.146 h 3.06 V -0.021 H 6.107 v -2.94 H 4.864 v 2.94 H 3.956 Z m 31.231,0 h 1.587 c 0.187,0 0.372,-0.023 0.553,-0.067 0.181,-0.045 0.342,-0.12 0.485,-0.226 0.144,-0.107 0.258,-0.248 0.345,-0.424 0.087,-0.176 0.131,-0.397 0.131,-0.664 0,-0.255 -0.043,-0.472 -0.128,-0.65 -0.085,-0.177 -0.199,-0.323 -0.34,-0.434 -0.141,-0.113 -0.303,-0.194 -0.486,-0.244 -0.182,-0.05 -0.369,-0.076 -0.56,-0.076 h -0.35 v -1.322 h -1.237 z m 4.357,-0.662 0.402,-1.148 0.402,1.148 h 1.336 l -1.18,-2.238 v -1.207 h -1.206 v 1.207 L 38.176,0.484 Z M -4.016,-3.37 H 7.821 c -0.07,0.123 -0.12,0.258 -0.12,0.409 0,0.47 0.381,0.851 0.851,0.851 0.469,0 0.85,-0.381 0.85,-0.851 0,-0.151 -0.05,-0.286 -0.119,-0.409 h 23.029 c -0.069,0.123 -0.119,0.258 -0.119,0.409 0,0.47 0.381,0.851 0.85,0.851 0.469,0 0.85,-0.381 0.85,-0.851 0,-0.151 -0.05,-0.286 -0.119,-0.409 h 11.837 c -0.96,2.847 -3.644,4.899 -6.814,4.899 h -36 c -3.17,0 -5.853,-2.052 -6.813,-4.899"/>
                </g>
            </g>
            <g transform="matrix(0.99999999,0,0,-0.99999999,-7.7516844,16.423291)">
                <g id="g2332" gorn="0.75.0.4.0">
                    <path id="path2334" gorn="0.75.0.4.0.0" style="fill:#ffffff;fill-opacity:1;fill-rule:nonzero;stroke:none" d="m 0,0 0.166,-0.649 c 0.279,0.061 0.487,0.187 0.623,0.378 0.137,0.189 0.205,0.417 0.205,0.685 0,0.144 -0.022,0.278 -0.066,0.402 C 0.883,0.94 0.817,1.049 0.729,1.141 0.643,1.232 0.535,1.306 0.41,1.359 0.284,1.412 0.139,1.439 -0.027,1.439 -0.205,1.439 -0.361,1.394 -0.496,1.302 -0.631,1.209 -0.72,1.085 -0.763,0.929 h -0.014 c -0.043,0.134 -0.129,0.243 -0.26,0.324 -0.13,0.081 -0.29,0.122 -0.481,0.122 -0.147,0 -0.276,-0.026 -0.386,-0.08 C -2.015,1.241 -2.106,1.17 -2.18,1.081 -2.254,0.991 -2.309,0.892 -2.346,0.779 -2.383,0.667 -2.4,0.552 -2.4,0.432 c 0,-0.108 0.014,-0.213 0.043,-0.318 0.029,-0.103 0.075,-0.2 0.138,-0.287 0.063,-0.088 0.144,-0.166 0.241,-0.234 0.099,-0.07 0.218,-0.122 0.359,-0.159 l 0.157,0.63 c -0.089,0.025 -0.163,0.061 -0.222,0.111 -0.057,0.049 -0.087,0.117 -0.087,0.207 0,0.103 0.038,0.18 0.111,0.227 0.073,0.047 0.151,0.072 0.234,0.072 0.129,0 0.23,-0.034 0.302,-0.099 0.072,-0.066 0.107,-0.161 0.107,-0.283 V 0.114 h 0.543 V 0.28 c 0,0.135 0.035,0.243 0.102,0.324 0.067,0.082 0.172,0.123 0.312,0.123 0.053,0 0.104,-0.007 0.155,-0.021 C 0.146,0.692 0.19,0.671 0.23,0.642 0.271,0.612 0.303,0.576 0.327,0.533 0.352,0.49 0.364,0.439 0.364,0.382 0.364,0.274 0.33,0.189 0.263,0.129 0.195,0.067 0.107,0.024 0,0"/>
                </g>
            </g>
            <g transform="matrix(0.99999999,0,0,-0.99999999,-9.5309844,-5.1348084)">
                <g id="g2336" gorn="0.75.0.5.0">
                    <path id="path2338" gorn="0.75.0.5.0.0" style="fill:#ffffff;fill-opacity:1;fill-rule:nonzero;stroke:none" d="M 0,0 C 0.079,0.052 0.118,0.14 0.118,0.264 0.118,0.33 0.107,0.383 0.087,0.423 0.065,0.464 0.037,0.496 0,0.519 c -0.036,0.023 -0.077,0.04 -0.122,0.049 -0.045,0.01 -0.091,0.015 -0.136,0.015 h -0.261 v -0.662 h 0.261 c 0.094,0 0.18,0.027 0.258,0.079"/>
                </g>
            </g>
            <g transform="matrix(0.99999999,0,0,-0.99999999,-42.310284,31.495591)">
                <g id="g2340" gorn="0.75.0.6.0">
                    <path id="path2342" gorn="0.75.0.6.0.0" style="fill:#ffffff;fill-opacity:1;fill-rule:nonzero;stroke:none" d="M 0,0 -1.204,0.264 V -0.269 L 0,-0.018 Z"/>
                </g>
            </g>
            <g transform="matrix(0.99999999,0,0,-0.99999999,-43.965984,29.225091)">
                <g id="g2344" gorn="0.75.0.7.0">
                    <path id="path2346" gorn="0.75.0.7.0.0" style="fill:#ffffff;fill-opacity:1;fill-rule:nonzero;stroke:none" d="m 0,0 c 0,-0.171 0.073,-0.31 0.218,-0.416 0.145,-0.107 0.355,-0.161 0.63,-0.161 0.285,0 0.501,0.054 0.646,0.161 C 1.639,-0.31 1.712,-0.171 1.712,0 V 0.171 H 0 Z"/>
                </g>
            </g>
            <g transform="matrix(0.99999999,0,0,-0.99999999,-8.6432844,44.722091)">
                <g id="g2348" gorn="0.75.0.8.0">
                    <path id="path2350" gorn="0.75.0.8.0.0" style="fill:#ffffff;fill-opacity:1;fill-rule:nonzero;stroke:none" d="m 0,0 h -0.824 v 0.23 c 0,0.043 0.006,0.086 0.016,0.131 0.011,0.044 0.032,0.085 0.063,0.122 0.03,0.037 0.071,0.067 0.124,0.09 0.052,0.023 0.119,0.034 0.202,0.034 0.148,0 0.254,-0.039 0.319,-0.117 C -0.033,0.412 0,0.32 0,0.217 Z M 0.271,1.031 C 0.229,1.087 0.173,1.136 0.105,1.181 0.038,1.225 -0.043,1.261 -0.139,1.288 -0.233,1.315 -0.341,1.329 -0.46,1.329 -0.785,1.329 -1.03,1.242 -1.194,1.068 -1.358,0.894 -1.44,0.648 -1.44,0.334 V -0.708 H 1.816 V 0 H 0.52 V 0.216 L 1.816,0.651 V 1.402 1.426 2.171 L 0.74,2.617 1.816,3.067 V 3.863 L 0.105,3.054 -1.44,3.795 V 3.04 L -0.451,2.636 -1.44,2.235 V 1.467 L 0.11,2.203 1.789,1.415 0.363,0.871 C 0.345,0.923 0.314,0.977 0.271,1.031"/>
                </g>
            </g>
            <path id="path2352" gorn="0.75.0.9" style="fill:#ffffff;fill-opacity:1;fill-rule:nonzero;stroke:none" d="m -32.532484,50.664891 h 2.974 v -0.676 h -2.974 z"/>
            <g transform="matrix(0.99999999,0,0,-0.99999999,-10.083684,14.242691)">
                <g id="g2354" gorn="0.75.0.10.0">
                    <path id="path2356" gorn="0.75.0.10.0.0" style="fill:#ffffff;fill-opacity:1;fill-rule:nonzero;stroke:none" d="m 0,0 v -0.833 l 3.257,0.787 V 0.888 L 0,1.688 v -0.8 L 2.383,0.45 V 0.441 Z"/>
                </g>
            </g>
            <g transform="matrix(0.99999999,0,0,-0.99999999,-6.8268844,9.4711914)">
                <g id="g2358" gorn="0.75.0.11.0">
                    <path id="path2360" gorn="0.75.0.11.0.0" style="fill:#ffffff;fill-opacity:1;fill-rule:nonzero;stroke:none" d="m 0,0 c -0.049,0.147 -0.113,0.273 -0.193,0.377 h -1.734 v -0.993 h 0.639 v 0.349 h 0.607 c 0.046,-0.061 0.07,-0.148 0.07,-0.258 0,-0.102 -0.028,-0.19 -0.083,-0.262 -0.056,-0.072 -0.129,-0.133 -0.221,-0.181 -0.092,-0.048 -0.199,-0.082 -0.322,-0.103 -0.122,-0.022 -0.253,-0.033 -0.391,-0.033 -0.139,0 -0.268,0.011 -0.392,0.035 -0.122,0.023 -0.229,0.059 -0.321,0.108 -0.093,0.05 -0.165,0.111 -0.219,0.186 -0.053,0.073 -0.081,0.161 -0.081,0.262 0,0.192 0.078,0.342 0.231,0.453 L -2.948,0.341 C -3.062,0.255 -3.156,0.138 -3.231,-0.012 -3.307,-0.16 -3.344,-0.345 -3.344,-0.565 c 0,-0.191 0.041,-0.364 0.124,-0.518 0.083,-0.155 0.2,-0.288 0.352,-0.398 0.152,-0.111 0.333,-0.196 0.543,-0.255 0.21,-0.06 0.442,-0.09 0.697,-0.09 0.254,0 0.486,0.03 0.694,0.09 0.209,0.059 0.388,0.145 0.537,0.257 0.148,0.112 0.264,0.249 0.346,0.41 0.083,0.161 0.125,0.343 0.125,0.549 0,0.2 -0.025,0.373 -0.074,0.52"/>
                </g>
            </g>
            <g transform="matrix(0.99999999,0,0,-0.99999999,-29.594884,46.258291)">
                <g id="g2362" gorn="0.75.0.12.0">
                    <path id="path2364" gorn="0.75.0.12.0.0" style="fill:#ffffff;fill-opacity:1;fill-rule:nonzero;stroke:none" d="m 0,0 c -0.077,0.132 -0.173,0.238 -0.288,0.319 l -0.466,-0.374 c 0.062,-0.039 0.115,-0.091 0.16,-0.159 0.045,-0.067 0.067,-0.145 0.067,-0.235 0,-0.09 -0.024,-0.168 -0.072,-0.236 C -0.646,-0.752 -0.712,-0.809 -0.796,-0.854 -0.88,-0.9 -0.978,-0.936 -1.09,-0.958 -1.202,-0.98 -1.322,-0.991 -1.451,-0.991 c -0.129,0 -0.25,0.011 -0.363,0.033 -0.114,0.022 -0.212,0.058 -0.294,0.104 -0.083,0.045 -0.148,0.101 -0.196,0.167 -0.048,0.066 -0.071,0.144 -0.071,0.234 0,0.095 0.02,0.174 0.059,0.237 0.039,0.063 0.092,0.119 0.159,0.17 L -2.644,0.315 C -2.75,0.233 -2.839,0.127 -2.911,-0.006 c -0.071,-0.134 -0.107,-0.3 -0.107,-0.498 0,-0.174 0.038,-0.331 0.114,-0.473 0.075,-0.141 0.182,-0.262 0.319,-0.363 0.137,-0.1 0.302,-0.179 0.496,-0.235 0.193,-0.056 0.405,-0.084 0.638,-0.084 0.229,0 0.44,0.028 0.632,0.084 0.192,0.056 0.357,0.135 0.496,0.235 0.138,0.101 0.246,0.222 0.323,0.363 0.077,0.142 0.115,0.299 0.115,0.473 C 0.115,-0.3 0.077,-0.132 0,0"/>
                </g>
            </g>
            <g transform="matrix(0.99999999,0,0,-0.99999999,-34.060784,13.012552)">
                <g id="g2366" gorn="0.75.0.13.0">
                    <path id="path2368" gorn="0.75.0.13.0.0" style="fill:#ffffff;fill-opacity:1;fill-rule:nonzero;stroke:none" d="M 0,0 H 0.491 V -2.402 H 1.085 V 0 H 1.576 V 0.571 H 0 Z"/>
                </g>
            </g>
            <g transform="matrix(0.99999999,0,0,-0.99999999,-29.559284,44.511191)">
                <g id="g2370" gorn="0.75.0.14.0">
                    <path id="path2372" gorn="0.75.0.14.0.0" style="fill:#ffffff;fill-opacity:1;fill-rule:nonzero;stroke:none" d="m 0,0 h -2.974 v -0.588 l 0.597,-0.814 0.521,0.298 -0.336,0.445 H 0 Z"/>
                </g>
            </g>
            <g transform="matrix(0.99999999,0,0,-0.99999999,-10.083684,8.0219914)">
                <g id="g2374" gorn="0.75.0.15.0">
                    <path id="path2376" gorn="0.75.0.15.0.0" style="fill:#ffffff;fill-opacity:1;fill-rule:nonzero;stroke:none" d="m 0,0 v -0.81 h 3.257 v 0.658 L 1.274,-0.17 v 0.014 L 3.257,0.598 V 1.385 H 0 V 0.75 L 2.011,0.764 V 0.75 Z"/>
                </g>
            </g>
            <g transform="matrix(0.99999999,0,0,-0.99999999,-34.701384,13.272852)">
                <g id="g2378" gorn="0.75.0.16.0">
                    <path id="path2380" gorn="0.75.0.16.0.0" style="fill:#ffffff;fill-opacity:1;fill-rule:nonzero;stroke:none" d="m 0,0 c 0.034,-0.082 0.06,-0.177 0.077,-0.288 0.018,-0.11 0.027,-0.23 0.027,-0.359 0,-0.129 -0.009,-0.249 -0.027,-0.361 C 0.06,-1.12 0.034,-1.217 0,-1.298 c -0.034,-0.081 -0.076,-0.145 -0.127,-0.193 -0.05,-0.048 -0.109,-0.071 -0.178,-0.071 -0.067,0 -0.128,0.023 -0.178,0.071 -0.052,0.048 -0.095,0.112 -0.129,0.193 -0.034,0.081 -0.06,0.178 -0.075,0.29 -0.017,0.112 -0.026,0.232 -0.026,0.361 0,0.129 0.009,0.249 0.026,0.359 0.015,0.111 0.041,0.206 0.075,0.288 0.034,0.081 0.077,0.145 0.129,0.191 0.05,0.046 0.111,0.069 0.178,0.069 0.069,0 0.128,-0.023 0.178,-0.069 C -0.076,0.145 -0.034,0.081 0,0 M -0.737,0.8 C -0.864,0.726 -0.972,0.621 -1.061,0.485 -1.148,0.349 -1.216,0.186 -1.263,-0.006 -1.31,-0.198 -1.332,-0.412 -1.332,-0.647 c 0,-0.235 0.023,-0.45 0.071,-0.645 0.048,-0.194 0.116,-0.36 0.204,-0.497 0.088,-0.137 0.197,-0.244 0.324,-0.319 0.127,-0.076 0.27,-0.114 0.428,-0.114 0.159,0 0.302,0.038 0.43,0.114 0.127,0.075 0.234,0.182 0.323,0.319 0.088,0.137 0.156,0.303 0.204,0.497 0.048,0.195 0.072,0.41 0.072,0.645 0,0.235 -0.024,0.449 -0.072,0.641 C 0.604,0.186 0.536,0.349 0.448,0.485 0.359,0.621 0.252,0.726 0.125,0.8 -0.003,0.874 -0.146,0.911 -0.305,0.911 -0.466,0.911 -0.609,0.874 -0.737,0.8"/>
                </g>
            </g>
            <g transform="matrix(0.99999999,0,0,-0.99999999,-8.8668844,20.775891)">
                <g id="g2382" gorn="0.75.0.17.0">
                    <path id="path2384" gorn="0.75.0.17.0.0" style="fill:#ffffff;fill-opacity:1;fill-rule:nonzero;stroke:none" d="m 0,0 c 0.078,-0.04 0.169,-0.069 0.274,-0.089 0.106,-0.018 0.22,-0.028 0.342,-0.028 0.123,0 0.238,0.01 0.344,0.028 C 1.067,-0.069 1.159,-0.04 1.236,0 1.313,0.039 1.375,0.089 1.42,0.149 1.466,0.209 1.488,0.279 1.488,0.358 1.488,0.437 1.466,0.506 1.42,0.564 1.375,0.624 1.313,0.673 1.236,0.712 1.159,0.752 1.067,0.782 0.96,0.803 0.854,0.823 0.739,0.833 0.616,0.833 0.494,0.833 0.38,0.823 0.274,0.803 0.169,0.782 0.078,0.752 0,0.712 -0.077,0.673 -0.138,0.624 -0.182,0.564 -0.226,0.506 -0.248,0.437 -0.248,0.358 -0.248,0.279 -0.226,0.209 -0.182,0.149 -0.138,0.089 -0.077,0.039 0,0"/>
                </g>
            </g>
            <g transform="matrix(0.99999999,0,0,-0.99999999,-10.083684,-0.26610848)">
                <g id="g2386" gorn="0.75.0.18.0">
                    <path id="path2388" gorn="0.75.0.18.0.0" style="fill:#ffffff;fill-opacity:1;fill-rule:nonzero;stroke:none" d="m 0,0 v -0.833 l 3.257,0.787 V 0.888 L 0,1.688 v -0.8 L 2.383,0.45 V 0.441 Z"/>
                </g>
            </g>
            <g transform="matrix(0.99999999,0,0,-0.99999999,-8.2506844,19.221191)">
                <g id="g2390" gorn="0.75.0.19.0">
                    <path id="path2392" gorn="0.75.0.19.0.0" style="fill:#ffffff;fill-opacity:1;fill-rule:nonzero;stroke:none" d="M 0,0 C 0.224,0 0.429,-0.027 0.614,-0.083 0.8,-0.139 0.957,-0.219 1.088,-0.321 1.219,-0.424 1.32,-0.549 1.392,-0.697 1.464,-0.846 1.5,-1.012 1.5,-1.196 1.5,-1.382 1.464,-1.548 1.392,-1.696 1.32,-1.844 1.219,-1.97 1.088,-2.072 0.957,-2.175 0.8,-2.254 0.614,-2.31 0.429,-2.365 0.224,-2.394 0,-2.394 c -0.224,0 -0.427,0.028 -0.61,0.082 -0.183,0.054 -0.338,0.132 -0.468,0.236 -0.129,0.102 -0.23,0.227 -0.3,0.376 -0.07,0.147 -0.106,0.315 -0.106,0.504 0,0.184 0.036,0.35 0.106,0.499 0.07,0.148 0.171,0.273 0.3,0.376 0.13,0.102 0.285,0.182 0.468,0.238 C -0.427,-0.027 -0.224,0 0,0 m 4.174,-15.928 c 0.783,0 1.418,-0.634 1.418,-1.417 0,-0.782 -0.635,-1.417 -1.418,-1.417 -0.782,0 -1.417,0.635 -1.417,1.417 0,0.783 0.635,1.417 1.417,1.417 m 0,7.2 c 0.783,0 1.418,-0.634 1.418,-1.417 0,-0.783 -0.635,-1.418 -1.418,-1.418 -0.782,0 -1.417,0.635 -1.417,1.418 0,0.783 0.635,1.417 1.417,1.417 m 0,7.201 c 0.783,0 1.418,-0.635 1.418,-1.417 0,-0.784 -0.635,-1.418 -1.418,-1.418 -0.782,0 -1.417,0.634 -1.417,1.418 0,0.782 0.635,1.417 1.417,1.417 m -2.75,-7.227 h -2.832 v 0.708 h 2.832 z m -2.832,5.193 v 0.942 H 1.424 V -3.31 L -0.52,-3.283 V -3.301 L 1.424,-3.825 V -4.322 L -0.52,-4.828 v -0.013 l 1.944,0.022 v -0.638 h -2.832 v 0.889 l 1.824,0.502 v 0.017 z m 0,-6.48 V -9.1 h 2.832 v -0.69 l -1.944,0.026 v -0.017 l 1.944,-0.525 v -0.497 l -1.944,-0.506 v -0.012 l 1.944,0.021 v -0.638 h -2.832 v 0.889 l 1.824,0.502 v 0.018 z m 0,-4.82 v 0.787 l 1.296,-0.801 1.536,0.85 v -0.815 l -1.316,-0.664 v -0.014 h 1.316 v -0.708 h -2.832 v 0.708 h 1.18 v 0.014 z m 2.798,-2.828 c -0.074,-0.148 -0.176,-0.275 -0.308,-0.38 -0.132,-0.107 -0.289,-0.189 -0.472,-0.247 -0.182,-0.059 -0.383,-0.088 -0.602,-0.088 -0.221,0 -0.424,0.029 -0.608,0.088 -0.184,0.058 -0.341,0.14 -0.472,0.247 -0.13,0.105 -0.232,0.232 -0.304,0.38 -0.072,0.148 -0.108,0.313 -0.108,0.495 0,0.208 0.034,0.382 0.102,0.521 0.069,0.14 0.153,0.252 0.254,0.337 l 0.464,-0.379 c -0.064,-0.053 -0.114,-0.112 -0.152,-0.178 -0.038,-0.066 -0.056,-0.149 -0.056,-0.249 0,-0.093 0.022,-0.174 0.068,-0.244 0.045,-0.068 0.108,-0.127 0.186,-0.176 0.079,-0.048 0.172,-0.084 0.28,-0.107 0.109,-0.023 0.224,-0.035 0.346,-0.035 0.123,0 0.237,0.012 0.345,0.035 0.106,0.023 0.199,0.059 0.279,0.107 0.08,0.049 0.142,0.108 0.188,0.178 0.045,0.072 0.068,0.154 0.068,0.247 0,0.094 -0.021,0.176 -0.064,0.246 -0.043,0.071 -0.094,0.126 -0.152,0.167 l 0.444,0.392 c 0.11,-0.085 0.2,-0.196 0.274,-0.334 0.074,-0.138 0.11,-0.314 0.11,-0.528 0,-0.182 -0.036,-0.347 -0.11,-0.495 m 0.014,-2.276 C 1.34,-20.119 1.266,-20.243 1.18,-20.337 l -0.48,0.361 c 0.064,0.068 0.115,0.145 0.154,0.233 0.039,0.088 0.058,0.178 0.058,0.268 0,0.085 -0.025,0.158 -0.076,0.216 -0.051,0.059 -0.121,0.088 -0.212,0.088 -0.094,0 -0.167,-0.035 -0.222,-0.105 -0.054,-0.071 -0.113,-0.173 -0.173,-0.308 -0.039,-0.086 -0.08,-0.165 -0.125,-0.24 -0.045,-0.075 -0.1,-0.141 -0.164,-0.198 -0.064,-0.057 -0.138,-0.102 -0.224,-0.134 -0.085,-0.032 -0.187,-0.049 -0.304,-0.049 -0.157,0 -0.293,0.029 -0.406,0.086 -0.113,0.057 -0.206,0.132 -0.277,0.224 -0.073,0.092 -0.126,0.196 -0.161,0.308 -0.035,0.113 -0.052,0.227 -0.052,0.341 0,0.171 0.025,0.323 0.076,0.458 0.05,0.135 0.119,0.248 0.206,0.339 l 0.471,-0.365 c -0.057,-0.053 -0.1,-0.115 -0.131,-0.185 -0.031,-0.07 -0.046,-0.144 -0.046,-0.221 0,-0.079 0.023,-0.149 0.068,-0.213 0.046,-0.063 0.12,-0.094 0.225,-0.094 0.088,0 0.157,0.032 0.206,0.096 0.05,0.065 0.103,0.16 0.162,0.286 0.032,0.072 0.07,0.146 0.114,0.224 0.044,0.078 0.099,0.15 0.162,0.215 0.065,0.065 0.142,0.119 0.231,0.162 0.09,0.042 0.196,0.064 0.318,0.064 0.152,0 0.287,-0.027 0.403,-0.08 0.117,-0.053 0.212,-0.125 0.289,-0.214 0.076,-0.09 0.133,-0.195 0.172,-0.313 0.038,-0.117 0.058,-0.239 0.058,-0.365 0,-0.189 -0.032,-0.36 -0.096,-0.513 m -3.302,19.791 v -19.941 c 0,-0.47 0.38,-0.85 0.85,-0.85 h 8.822 v 2.203 c -0.783,0 -1.418,0.635 -1.418,1.417 0,0.783 0.635,1.417 1.418,1.417 v 4.365 c -0.783,0 -1.418,0.635 -1.418,1.418 0,0.783 0.635,1.417 1.418,1.417 v 4.366 c -0.783,0 -1.418,0.634 -1.418,1.418 0,0.782 0.635,1.417 1.418,1.417 v 2.203 h -8.822 c -0.47,0 -0.85,-0.381 -0.85,-0.85"/>
                </g>
            </g>
            <g transform="matrix(0.99999999,0,0,-0.99999999,-9.4391844,5.3959915)">
                <g id="g2394" gorn="0.75.0.20.0">
                    <path id="path2396" gorn="0.75.0.20.0.0" style="fill:#ffffff;fill-opacity:1;fill-rule:nonzero;stroke:none" d="M 0,0 C 0,0.178 0.083,0.322 0.25,0.435 0.418,0.546 0.665,0.603 0.993,0.603 1.31,0.603 1.551,0.546 1.718,0.435 1.885,0.322 1.969,0.178 1.969,0 V -0.18 H 0 Z M -0.645,-0.925 H 2.612 V -0.01 C 2.612,0.224 2.574,0.425 2.497,0.596 2.421,0.766 2.313,0.905 2.171,1.017 2.03,1.127 1.859,1.209 1.66,1.263 1.461,1.315 1.238,1.343 0.993,1.343 0.742,1.343 0.516,1.315 0.314,1.263 0.114,1.209 -0.058,1.127 -0.2,1.017 -0.343,0.905 -0.452,0.766 -0.529,0.596 -0.605,0.425 -0.645,0.224 -0.645,-0.01 Z"/>
                </g>
            </g>
            <g transform="matrix(0.99999999,0,0,-0.99999999,-10.083684,2.2933915)">
                <g id="g2398" gorn="0.75.0.21.0">
                    <path id="path2400" gorn="0.75.0.21.0.0" style="fill:#ffffff;fill-opacity:1;fill-rule:nonzero;stroke:none" d="M 0,0 1.85,-0.068 C 1.812,0.021 1.779,0.127 1.751,0.251 1.722,0.375 1.707,0.484 1.707,0.58 c 0,0.132 0.04,0.244 0.119,0.338 0.08,0.094 0.204,0.141 0.373,0.141 0.138,0 0.254,-0.029 0.347,-0.085 C 2.64,0.916 2.687,0.831 2.687,0.718 2.687,0.62 2.648,0.541 2.571,0.481 2.495,0.421 2.403,0.379 2.296,0.354 l 0.197,-0.629 c 0.279,0.057 0.488,0.178 0.626,0.363 0.138,0.183 0.207,0.4 0.207,0.648 0,0.141 -0.023,0.275 -0.071,0.401 C 3.207,1.263 3.135,1.372 3.039,1.466 2.942,1.559 2.822,1.633 2.68,1.687 2.537,1.74 2.369,1.767 2.176,1.767 2.02,1.767 1.879,1.746 1.753,1.705 1.627,1.663 1.52,1.604 1.431,1.525 1.342,1.447 1.273,1.351 1.224,1.235 1.175,1.12 1.15,0.989 1.15,0.842 1.15,0.809 1.155,0.768 1.164,0.721 1.173,0.673 1.186,0.631 1.201,0.594 L 0.64,0.617 V 1.651 H 0 Z"/>
                </g>
            </g>
            <g transform="matrix(0.99999999,0,0,-0.99999999,-44.528484,23.877391)">
                <g id="g2402" gorn="0.75.0.22.0">
                    <path id="path2404" gorn="0.75.0.22.0.0" style="fill:#ffffff;fill-opacity:1;fill-rule:nonzero;stroke:none" d="m 0,0 c 0.044,-0.137 0.11,-0.256 0.198,-0.356 0.087,-0.102 0.194,-0.182 0.32,-0.241 0.126,-0.059 0.271,-0.089 0.437,-0.089 0.177,0 0.334,0.051 0.469,0.152 0.135,0.101 0.223,0.238 0.266,0.41 h 0.015 c 0.043,-0.148 0.129,-0.268 0.259,-0.356 0.131,-0.09 0.291,-0.135 0.481,-0.135 0.147,0 0.276,0.03 0.387,0.089 0.11,0.059 0.202,0.137 0.275,0.235 0.074,0.098 0.129,0.208 0.166,0.331 0.037,0.124 0.055,0.251 0.055,0.383 0,0.118 -0.015,0.234 -0.043,0.348 C 3.255,0.887 3.209,0.992 3.146,1.088 3.083,1.184 3.003,1.271 2.905,1.346 2.807,1.422 2.688,1.48 2.546,1.521 L 2.39,0.827 C 2.479,0.801 2.552,0.76 2.611,0.706 2.669,0.652 2.698,0.576 2.698,0.479 2.698,0.363 2.661,0.28 2.587,0.228 2.514,0.176 2.436,0.149 2.353,0.149 2.224,0.149 2.124,0.186 2.052,0.258 1.979,0.331 1.944,0.435 1.944,0.569 V 0.771 H 1.401 V 0.59 C 1.401,0.441 1.367,0.322 1.3,0.232 1.232,0.144 1.128,0.099 0.987,0.099 0.935,0.099 0.883,0.106 0.833,0.121 0.782,0.137 0.737,0.16 0.697,0.192 0.657,0.225 0.625,0.264 0.601,0.312 0.576,0.358 0.563,0.414 0.563,0.479 c 0,0.118 0.034,0.21 0.102,0.278 0.067,0.067 0.155,0.114 0.262,0.141 L 0.761,1.611 C 0.482,1.544 0.274,1.406 0.138,1.196 0.002,0.987 -0.066,0.736 -0.066,0.442 -0.066,0.284 -0.044,0.137 0,0"/>
                </g>
            </g>
            <g transform="matrix(0.99999999,0,0,-0.99999999,-43.362484,6.6849914)">
                <g id="g2406" gorn="0.75.0.23.0">
                    <path id="path2408" gorn="0.75.0.23.0.0" style="fill:#ffffff;fill-opacity:1;fill-rule:nonzero;stroke:none" d="M 0,0 1.385,-0.276 V -0.295 L 0,-0.557 Z M -1.164,-0.782 V -1.55 l 3.257,0.786 V 0.161 L -1.164,0.952 V 0.216 L -0.57,0.083 v -0.731 z"/>
                </g>
            </g>
            <g transform="matrix(0.99999999,0,0,-0.99999999,-43.362484,13.518991)">
                <g id="g2410" gorn="0.75.0.24.0">
                    <path id="path2412" gorn="0.75.0.24.0.0" style="fill:#ffffff;fill-opacity:1;fill-rule:nonzero;stroke:none" d="M 0,0 1.385,-0.276 V -0.295 L 0,-0.557 Z M -1.164,-0.782 V -1.55 l 3.257,0.786 V 0.161 L -1.164,0.952 V 0.216 L -0.57,0.083 v -0.731 z"/>
                </g>
            </g>
            <g transform="matrix(0.99999999,0,0,-0.99999999,-44.526084,9.5463914)">
                <g id="g2414" gorn="0.75.0.25.0">
                    <path id="path2416" gorn="0.75.0.25.0.0" style="fill:#ffffff;fill-opacity:1;fill-rule:nonzero;stroke:none" d="M 0,0 H 3.257 V 0.645 L 2.604,1.536 2.033,1.21 2.401,0.723 H 0 Z"/>
                </g>
            </g>
            <g transform="matrix(0.99999999,0,0,-0.99999999,-41.200384,16.114691)">
                <g id="g2418" gorn="0.75.0.26.0">
                    <path id="path2420" gorn="0.75.0.26.0.0" style="fill:#ffffff;fill-opacity:1;fill-rule:nonzero;stroke:none" d="M 0,0 C 0,0.279 -0.082,0.513 -0.246,0.702 -0.41,0.891 -0.658,1.003 -0.989,1.04 L -1.053,0.35 C -0.916,0.338 -0.81,0.303 -0.738,0.244 -0.666,0.186 -0.63,0.112 -0.63,0.023 c 0,-0.095 -0.034,-0.165 -0.101,-0.21 -0.068,-0.043 -0.149,-0.066 -0.244,-0.066 -0.089,0 -0.182,0.024 -0.278,0.069 -0.097,0.046 -0.191,0.109 -0.283,0.189 l -1.136,0.989 h -0.654 v -1.928 h 0.635 V 0.12 l 0.704,-0.607 c 0.07,-0.062 0.144,-0.121 0.221,-0.18 0.077,-0.058 0.156,-0.11 0.239,-0.156 0.083,-0.046 0.17,-0.083 0.262,-0.111 0.092,-0.027 0.192,-0.041 0.299,-0.041 0.147,0 0.281,0.023 0.4,0.069 0.12,0.046 0.221,0.111 0.304,0.195 0.083,0.085 0.147,0.187 0.193,0.307 C -0.023,-0.285 0,-0.15 0,0"/>
                </g>
            </g>
            <g transform="matrix(0.99999999,0,0,-0.99999999,-43.362484,20.641091)">
                <g id="g2422" gorn="0.75.0.27.0">
                    <path id="path2424" gorn="0.75.0.27.0.0" style="fill:#ffffff;fill-opacity:1;fill-rule:nonzero;stroke:none" d="m 0,0 1.385,-0.303 v -0.02 L 0,-0.612 Z m -1.164,-0.859 v -0.846 l 3.257,0.865 v 1.018 l -3.257,0.87 V 0.238 L -0.57,0.092 v -0.805 z"/>
                </g>
            </g>
            <g transform="matrix(0.99999999,0,0,-0.99999999,-38.755084,14.505752)">
                <g id="g2426" gorn="0.75.0.28.0">
                    <path id="path2428" gorn="0.75.0.28.0.0" style="fill:#ffffff;fill-opacity:1;fill-rule:nonzero;stroke:none" d="m 0,0 c 0,-0.118 -0.031,-0.207 -0.093,-0.266 -0.061,-0.059 -0.136,-0.089 -0.224,-0.089 h -0.227 v 0.727 h 0.219 c 0.038,0 0.076,-0.007 0.115,-0.021 0.039,-0.015 0.074,-0.036 0.106,-0.066 0.032,-0.03 0.057,-0.067 0.076,-0.114 C -0.01,0.125 0,0.068 0,0 m -0.544,1.51 h 0.204 c 0.078,0 0.146,-0.024 0.204,-0.072 0.058,-0.048 0.087,-0.129 0.087,-0.245 0,-0.118 -0.03,-0.203 -0.089,-0.254 -0.059,-0.05 -0.126,-0.076 -0.199,-0.076 h -0.207 z m 0.237,0.554 h -0.8 v -2.973 h 0.887 c 0.097,0 0.192,0.014 0.286,0.044 0.094,0.03 0.18,0.077 0.255,0.143 0.075,0.065 0.137,0.152 0.184,0.26 0.046,0.108 0.069,0.242 0.069,0.401 0,0.104 -0.012,0.196 -0.037,0.277 C 0.512,0.297 0.479,0.367 0.438,0.424 0.398,0.481 0.353,0.529 0.303,0.565 0.252,0.602 0.201,0.626 0.151,0.641 V 0.649 C 0.244,0.697 0.323,0.773 0.388,0.878 0.452,0.983 0.483,1.124 0.483,1.3 0.483,1.459 0.458,1.59 0.406,1.69 0.354,1.792 0.29,1.869 0.214,1.924 0.137,1.979 0.052,2.016 -0.042,2.035 -0.135,2.055 -0.223,2.064 -0.307,2.064"/>
                </g>
            </g>
            <g transform="matrix(0.99999999,0,0,-0.99999999,-29.559284,48.028791)">
                <g id="g2430" gorn="0.75.0.29.0">
                    <path id="path2432" gorn="0.75.0.29.0.0" style="fill:#ffffff;fill-opacity:1;fill-rule:nonzero;stroke:none" d="m 0,0 h -0.58 v -0.962 l -0.642,0.555 c -0.065,0.055 -0.132,0.11 -0.202,0.164 -0.07,0.053 -0.142,0.1 -0.218,0.142 -0.076,0.042 -0.155,0.076 -0.24,0.101 -0.084,0.025 -0.175,0.038 -0.273,0.038 -0.134,0 -0.256,-0.021 -0.365,-0.063 -0.109,-0.042 -0.202,-0.102 -0.277,-0.178 -0.076,-0.077 -0.135,-0.171 -0.177,-0.279 -0.042,-0.11 -0.063,-0.233 -0.063,-0.371 0,-0.254 0.076,-0.467 0.225,-0.64 0.15,-0.172 0.376,-0.275 0.678,-0.309 l 0.059,0.63 c -0.126,0.012 -0.222,0.044 -0.287,0.097 -0.066,0.054 -0.099,0.12 -0.099,0.202 0,0.086 0.031,0.15 0.092,0.19 0.062,0.041 0.136,0.062 0.223,0.062 0.081,0 0.166,-0.022 0.254,-0.064 0.088,-0.042 0.174,-0.099 0.258,-0.171 L -0.596,-1.76 H 0 Z"/>
                </g>
            </g>
            <g transform="matrix(0.99999999,0,0,-0.99999999,-32.423084,36.776791)">
                <g id="g2434" gorn="0.75.0.30.0">
                    <path id="path2436" gorn="0.75.0.30.0.0" style="fill:#ffffff;fill-opacity:1;fill-rule:nonzero;stroke:none" d="m 0,0 c -0.071,-0.061 -0.154,-0.09 -0.25,-0.09 h -0.197 v 0.751 h 0.21 c 0.039,0 0.079,-0.005 0.12,-0.015 C -0.077,0.637 -0.04,0.618 -0.006,0.59 0.027,0.562 0.055,0.524 0.076,0.477 0.097,0.429 0.107,0.367 0.107,0.292 0.107,0.157 0.071,0.061 0,0 m 0.631,-0.187 c 0.04,0.062 0.073,0.136 0.098,0.223 C 0.754,0.122 0.767,0.221 0.767,0.33 0.767,0.627 0.687,0.85 0.528,1 0.369,1.149 0.146,1.225 -0.143,1.225 h -0.951 v -2.974 h 0.647 v 1.185 h 0.197 l 0.397,-1.185 h 0.708 l -0.09,0.237 c 0.087,-0.081 0.192,-0.154 0.327,-0.217 0.147,-0.067 0.31,-0.1 0.489,-0.1 0.121,0 0.237,0.02 0.35,0.06 0.112,0.041 0.212,0.102 0.298,0.182 0.085,0.08 0.154,0.181 0.205,0.303 0.05,0.122 0.076,0.263 0.076,0.423 0,0.129 -0.021,0.24 -0.062,0.334 -0.041,0.094 -0.092,0.174 -0.154,0.242 -0.062,0.067 -0.13,0.124 -0.205,0.171 C 2.015,-0.068 1.943,-0.028 1.876,0.005 1.755,0.066 1.664,0.124 1.603,0.176 1.541,0.228 1.51,0.3 1.51,0.393 1.51,0.502 1.54,0.58 1.601,0.628 1.66,0.676 1.729,0.699 1.804,0.699 1.877,0.699 1.947,0.684 2.014,0.651 2.081,0.619 2.14,0.573 2.19,0.515 L 2.528,0.992 V 0.653 H 3.074 V -1.749 H 3.733 V 0.653 H 4.279 V 1.225 H 2.528 V 1.015 C 2.443,1.103 2.34,1.174 2.216,1.225 2.087,1.277 1.941,1.304 1.779,1.304 1.67,1.304 1.562,1.286 1.453,1.25 1.346,1.213 1.248,1.157 1.159,1.081 1.071,1.006 1,0.908 0.945,0.79 0.891,0.671 0.863,0.528 0.863,0.363 c 0,-0.123 0.016,-0.229 0.046,-0.319 0.031,-0.09 0.074,-0.168 0.129,-0.235 0.054,-0.067 0.117,-0.124 0.189,-0.172 0.071,-0.048 0.147,-0.091 0.228,-0.13 0.129,-0.065 0.228,-0.126 0.295,-0.183 0.066,-0.057 0.101,-0.136 0.101,-0.233 0,-0.096 -0.029,-0.17 -0.084,-0.223 -0.057,-0.054 -0.125,-0.08 -0.206,-0.08 -0.087,0 -0.172,0.021 -0.256,0.062 -0.084,0.04 -0.159,0.093 -0.223,0.161 L 0.75,-1.474 0.349,-0.422 c 0.047,0.017 0.095,0.045 0.146,0.084 0.05,0.039 0.095,0.09 0.136,0.151"/>
                </g>
            </g>
            <g transform="matrix(0.99999999,0,0,-0.99999999,-41.269284,45.743591)">
                <g id="g2438" gorn="0.75.0.31.0">
                    <path id="path2440" gorn="0.75.0.31.0.0" style="fill:#ffffff;fill-opacity:1;fill-rule:nonzero;stroke:none" d="M 0,0 V 0.755 L -0.989,1.159 0,1.56 V 2.303 2.328 4.222 H -0.625 V 3.623 H -3.257 V 2.901 h 2.632 V 2.303 h 0.571 L -1.55,1.592 -3.257,2.393 V 1.624 l 1.076,-0.446 -1.076,-0.45 v -0.796 l 1.712,0.809 z"/>
                </g>
            </g>
            <g transform="matrix(0.99999999,0,0,-0.99999999,-37.495284,13.560452)">
                <g id="g2442" gorn="0.75.0.32.0">
                    <path id="path2444" gorn="0.75.0.32.0.0" style="fill:#ffffff;fill-opacity:1;fill-rule:nonzero;stroke:none" d="M 0,0 C 0.016,0.11 0.041,0.206 0.075,0.288 0.109,0.369 0.152,0.433 0.204,0.479 0.255,0.525 0.315,0.548 0.383,0.548 0.451,0.548 0.511,0.525 0.561,0.479 0.611,0.433 0.653,0.369 0.687,0.288 0.722,0.206 0.747,0.11 0.765,0 0.782,-0.111 0.791,-0.23 0.791,-0.359 0.791,-0.488 0.782,-0.608 0.765,-0.721 0.747,-0.833 0.722,-0.929 0.687,-1.01 0.653,-1.091 0.611,-1.156 0.561,-1.204 0.511,-1.251 0.451,-1.275 0.383,-1.275 0.315,-1.275 0.255,-1.251 0.204,-1.204 0.152,-1.156 0.109,-1.091 0.075,-1.01 0.041,-0.929 0.016,-0.833 0,-0.721 c -0.017,0.113 -0.025,0.233 -0.025,0.362 0,0.129 0.008,0.248 0.025,0.359 m -0.369,-1.501 c 0.088,-0.138 0.196,-0.244 0.323,-0.32 0.127,-0.075 0.271,-0.113 0.429,-0.113 0.159,0 0.302,0.038 0.429,0.113 0.127,0.076 0.235,0.182 0.324,0.32 0.088,0.136 0.156,0.302 0.204,0.497 0.048,0.194 0.071,0.409 0.071,0.645 0,0.235 -0.023,0.448 -0.071,0.64 C 1.292,0.473 1.224,0.637 1.136,0.772 1.047,0.908 0.939,1.013 0.812,1.087 0.685,1.162 0.542,1.199 0.383,1.199 0.222,1.199 0.078,1.162 -0.05,1.087 -0.177,1.013 -0.284,0.908 -0.373,0.772 -0.461,0.637 -0.528,0.473 -0.575,0.281 c -0.047,-0.192 -0.07,-0.405 -0.07,-0.64 0,-0.236 0.024,-0.451 0.072,-0.645 0.048,-0.195 0.116,-0.361 0.204,-0.497"/>
                </g>
            </g>
            <g transform="matrix(0.99999999,0,0,-0.99999999,-43.842984,1.5922915)">
                <g id="g2446" gorn="0.75.0.33.0">
                    <path id="path2448" gorn="0.75.0.33.0.0" style="fill:#ffffff;fill-opacity:1;fill-rule:nonzero;stroke:none" d="M 0,0 C 0.069,0.043 0.155,0.076 0.258,0.101 0.36,0.126 0.473,0.142 0.596,0.149 0.718,0.157 0.835,0.161 0.945,0.161 1.053,0.161 1.167,0.157 1.291,0.149 1.413,0.142 1.526,0.126 1.631,0.101 1.735,0.076 1.822,0.043 1.891,0 1.959,-0.043 1.994,-0.102 1.994,-0.175 1.994,-0.248 1.959,-0.307 1.891,-0.35 1.822,-0.393 1.735,-0.427 1.631,-0.451 1.526,-0.476 1.413,-0.491 1.291,-0.499 1.167,-0.507 1.053,-0.511 0.945,-0.511 c -0.11,0 -0.227,0.004 -0.349,0.012 C 0.473,-0.491 0.36,-0.476 0.258,-0.451 0.155,-0.427 0.069,-0.393 0,-0.35 c -0.069,0.043 -0.104,0.102 -0.104,0.175 0,0.073 0.035,0.132 0.104,0.175 m -0.591,-0.716 c 0.107,-0.138 0.244,-0.248 0.412,-0.326 0.167,-0.078 0.35,-0.132 0.549,-0.161 0.2,-0.029 0.391,-0.044 0.575,-0.044 0.184,0 0.376,0.015 0.576,0.044 0.199,0.029 0.382,0.083 0.549,0.161 0.167,0.078 0.305,0.188 0.412,0.326 0.107,0.14 0.161,0.32 0.161,0.541 0,0.221 -0.054,0.401 -0.161,0.54 C 2.375,0.505 2.237,0.614 2.07,0.692 1.903,0.771 1.72,0.823 1.521,0.851 1.321,0.879 1.129,0.893 0.945,0.893 0.761,0.893 0.57,0.879 0.37,0.851 0.171,0.823 -0.012,0.771 -0.179,0.692 -0.347,0.614 -0.484,0.505 -0.591,0.365 -0.698,0.226 -0.752,0.046 -0.752,-0.175 c 0,-0.221 0.054,-0.401 0.161,-0.541"/>
                </g>
            </g>
        </g>
    </g>
    <g transform="translate(0,1.8860254)">
        <g id="g2948" gorn="0.76.0">
            <circle id="connector18pin" fill="none" stroke-width="1.10268" stroke="#9a916c" gorn="0.76.0.0" cy="10.62" cx="3.5999999" r="1.96866" connectorname="A0"/>
            <circle id="connector19pin" fill="none" stroke-width="1.10268" stroke="#9a916c" gorn="0.76.0.1" cy="17.82" cx="3.5999999" r="1.96866" connectorname="A1"/>
            <circle id="connector20pin" fill="none" stroke-width="1.10268" stroke="#9a916c" gorn="0.76.0.2" cy="25.02" cx="3.5999999" r="1.96866" connectorname="A2"/>
            <circle id="connector21pin" fill="none" stroke-width="1.10268" stroke="#9a916c" gorn="0.76.0.3" cy="32.220001" cx="3.5999999" r="1.96866" connectorname="A3"/>
            <circle id="connector22pin" fill="none" stroke-width="1.10268" stroke="#9a916c" gorn="0.76.0.4" cy="39.419998" cx="3.5999999" r="1.96866" connectorname="SDA"/>
            <circle id="connector23pin" fill="none" stroke-width="1.10268" stroke="#9a916c" gorn="0.76.0.5" cy="46.619999" cx="3.5999999" r="1.96866" connectorname="SCL"/>
            <circle id="connector24pin" fill="none" stroke-width="1.10268" stroke="#9a916c" gorn="0.76.0.6" cy="53.82" cx="3.5999999" r="1.96866" connectorname="TX"/>
            <circle id="connector25pin" fill="none" stroke-width="1.10268" stroke="#9a916c" gorn="0.76.0.7" cy="53.82" cx="46.799999" r="1.96866" connectorname="RX"/>
            <circle id="connector26pin" fill="none" stroke-width="1.10268" stroke="#9a916c" gorn="0.76.0.8" cy="46.619999" cx="46.799999" r="1.96866" connectorname="SCK"/>
            <circle id="connector27pin" fill="none" stroke-width="1.10268" stroke="#9a916c" gorn="0.76.0.9" cy="39.419998" cx="46.799999" r="1.96866" connectorname="MISO"/>
            <circle id="connector28pin" fill="none" stroke-width="1.10268" stroke="#9a916c" gorn="0.76.0.10" cy="32.220001" cx="46.799999" r="1.96866" connectorname="MOSI"/>
            <circle id="connector29pin" fill="none" stroke-width="1.10268" stroke="#9a916c" gorn="0.76.0.11" cy="25.02" cx="46.799999" r="1.96866" connectorname="3.3V"/>
            <circle id="connector30pin" fill="none" stroke-width="1.10268" stroke="#9a916c" gorn="0.76.0.12" cy="17.82" cx="46.799999" r="1.96866" connectorname="GND"/>
            <circle id="connector31pin" fill="none" stroke-width="1.10268" stroke="#9a916c" gorn="0.76.0.13" cy="10.62" cx="46.799999" r="1.96866" connectorname="+5V"/>
        </g>
    </g>
    <g transform="translate(12.529,2.3518714)">
        <g id="usb_c_cusb31-cfm2ax-01-x" gorn="0.77.0">
            <g transform="rotate(180,12.671,10.786)">
                <g id="g713" gorn="0.77.0.0.0">
                    <g id="g711" gorn="0.77.0.0.0.0">
                        <rect id="rect697" fill="#dcdcdc" width="25.341999" gorn="0.77.0.0.0.0.0" y="0.73699898" height="20.834999" x="0"/>
                        <path id="path699" fill="#dcdcdc" gorn="0.77.0.0.0.0.1" d="M 3.458,1.304 H 2.891 V 0 H 3.458 Z M 4.309,0 H 3.742 V 1.304 H 4.309 Z M 5.726,0 H 5.159 v 1.304 h 0.567 z m 0.85,0 H 6.009 v 1.304 h 0.567 z m 1.41802,0 h -0.567 v 1.304 h 0.567 z m 1.41696,0 h -0.567 v 1.304 h 0.567 z M 10.828,0 h -0.567 v 1.304 h 0.567 z m 1.418,0 h -0.567 v 1.304 h 0.567 z m 1.417,0 h -0.567 v 1.304 h 0.567 z m 1.417,0 h -0.567 v 1.304 h 0.567 z m 1.418,0 h -0.567 v 1.304 h 0.567 z m 1.417,0 h -0.567 v 1.304 h 0.567 z m 1.417,0 h -0.567 v 1.304 h 0.567 z m 0.851,0 h -0.567 v 1.304 h 0.567 z M 21.6,0 H 21.033 V 1.304 H 21.6 Z m 0.85,0 h -0.567 v 1.304 h 0.567 z"/>
                        <rect id="rect701" fill="#f0f0f0" width="1.2970001" gorn="0.77.0.0.0.0.2" y="0.73699898" height="20.834999" x="2.0439999"/>
                        <rect id="rect703" fill="#bebebe" width="1.2970001" gorn="0.77.0.0.0.0.3" y="0.73699898" height="20.834999" x="22"/>
                        <path id="path705" fill="#8c8c8c" gorn="0.77.0.0.0.0.4" d="m 25.342,0.736999 v 1.998 h -0.283 c -0.344,0 -0.624,-0.279 -0.624,-0.624 V 1.579 c 0,-0.344 -0.279,-0.624 -0.624,-0.624 H 20.98 c -0.344,0 -0.624,0.279 -0.624,0.624 V 3.6 c 0,0.344 -0.279,0.624 -0.624,0.624 H 16.319 C 15.975,4.224 15.695,3.945 15.695,3.6 V 3.553 c 0,-0.344 0.279,-0.624 0.624,-0.624 h 1.536 c 0.344,0 0.624,-0.279 0.624,-0.624 V 1.579 c 0,-0.344 -0.279,-0.624 -0.624,-0.624 l -10.37002,1e-6 c -0.344,0 -0.624,0.279 -0.624,0.624 v 0.726998 c 0,0.344 0.279,0.624 0.624,0.624 h 1.536 c 0.344,0 0.624,0.279 0.624,0.624 V 3.6 c 0,0.344 -0.279,0.624 -0.624,0.624 H 5.608 C 5.264,4.224 4.984,3.945 4.984,3.6 V 1.579 C 4.984,1.235 4.705,0.955 4.36,0.955 l -2.83,1e-6 c -0.344,0 -0.624,0.279 -0.624,0.624 v 0.533 c 0,0.344 -0.279,0.624 -0.624,0.624 L 0,2.736 V 0.736999 Z"/>
                        <rect id="rect707" fill="#8c8c8c" width="3.4630001" gorn="0.77.0.0.0.0.5" y="6.5539999" height="1.424" x="5.8899999"/>
                        <g transform="rotate(180,17.7198,7.26635)">
                            <rect id="rect709" fill="#8c8c8c" width="3.4630001" gorn="0.77.0.0.0.0.6.0" y="6.5539999" height="1.424" x="15.988"/>
                        </g>
                    </g>
                </g>
            </g>
        </g>
    </g>
</g>
</svg>
