<?xml version="1.0" encoding="utf-8" ?>
<svg baseProfile="tiny" height="100" version="1.2" width="100" xmlns="http://www.w3.org/2000/svg" xmlns:ev="http://www.w3.org/2001/xml-events" xmlns:xlink="http://www.w3.org/1999/xlink"><defs /><line stroke="#8C8C8C" stroke-linecap="round" stroke-width="0.7087" x1="-4" x2="10.8" y1="3.6" y2="3.6" /><line stroke="#8C8C8C" stroke-linecap="round" stroke-width="0.7087" x1="-4" x2="10.8" y1="10.8" y2="10.8" /><line stroke="#8C8C8C" stroke-linecap="round" stroke-width="0.7087" x1="-4" x2="10.8" y1="18.0" y2="18.0" /><line stroke="#8C8C8C" stroke-linecap="round" stroke-width="0.7087" x1="-4" x2="10.8" y1="25.2" y2="25.2" /><line stroke="#8C8C8C" stroke-linecap="round" stroke-width="0.7087" x1="-4" x2="10.8" y1="32.4" y2="32.4" /><line stroke="#8C8C8C" stroke-linecap="round" stroke-width="0.7087" x1="-4" x2="111.6" y1="39.6" y2="39.6" /><line stroke="#8C8C8C" stroke-linecap="round" stroke-width="0.7087" x1="-4" x2="111.6" y1="46.8" y2="46.8" /><line stroke="#8C8C8C" stroke-linecap="round" stroke-width="0.7087" x1="-4" x2="111.6" y1="54.0" y2="54.0" /><line stroke="#8C8C8C" stroke-linecap="round" stroke-width="0.7087" x1="-4" x2="111.6" y1="61.2" y2="61.2" /><line stroke="#8C8C8C" stroke-linecap="round" stroke-width="0.7087" x1="-4" x2="111.6" y1="68.4" y2="68.4" /><line stroke="#8C8C8C" stroke-linecap="round" stroke-width="0.7087" x1="-4" x2="111.6" y1="75.6" y2="75.6" /><line stroke="#8C8C8C" stroke-linecap="round" stroke-width="0.7087" x1="-4" x2="111.6" y1="82.8" y2="82.8" /><line stroke="#8C8C8C" stroke-linecap="round" stroke-width="0.7087" x1="-4" x2="111.6" y1="90.0" y2="90.0" /><line stroke="#8C8C8C" stroke-linecap="round" stroke-width="0.7087" x1="-4" x2="111.6" y1="97.2" y2="97.2" /><line stroke="#8C8C8C" stroke-linecap="round" stroke-width="0.7087" x1="25.6" x2="10.8" y1="111.6" y2="111.6" /><line stroke="#8C8C8C" stroke-linecap="round" stroke-width="0.7087" x1="25.6" x2="10.8" y1="118.8" y2="118.8" /><line stroke="#8C8C8C" stroke-linecap="round" stroke-width="0.7087" x1="25.6" x2="10.8" y1="126.0" y2="126.0" /><line stroke="#8C8C8C" stroke-linecap="round" stroke-width="0.7087" x1="25.6" x2="10.8" y1="133.2" y2="133.2" /><line stroke="#8C8C8C" stroke-linecap="round" stroke-width="0.7087" x1="25.6" x2="-109.8" y1="140.4" y2="140.4" /><line stroke="#8C8C8C" stroke-linecap="round" stroke-width="0.7087" x1="25.6" x2="-109.8" y1="147.6" y2="147.6" /><line stroke="#8C8C8C" stroke-linecap="round" stroke-width="0.7087" x1="25.6" x2="-109.8" y1="154.8" y2="154.8" /><line stroke="#8C8C8C" stroke-linecap="round" stroke-width="0.7087" x1="25.6" x2="-109.8" y1="162.0" y2="162.0" /><line stroke="#8C8C8C" stroke-linecap="round" stroke-width="0.7087" x1="25.6" x2="-90.0" y1="169.2" y2="169.2" /><line stroke="#8C8C8C" stroke-linecap="round" stroke-width="0.7087" x1="25.6" x2="-90.0" y1="176.4" y2="176.4" /><line stroke="#8C8C8C" stroke-linecap="round" stroke-width="0.7087" x1="25.6" x2="-90.0" y1="183.6" y2="183.6" /><line stroke="#8C8C8C" stroke-linecap="round" stroke-width="0.7087" x1="25.6" x2="-90.0" y1="190.8" y2="190.8" /><line stroke="#8C8C8C" stroke-linecap="round" stroke-width="0.7087" x1="25.6" x2="-90.0" y1="198.0" y2="198.0" /><line stroke="#8C8C8C" stroke-linecap="round" stroke-width="0.7087" x1="25.6" x2="-90.0" y1="205.2" y2="205.2" /><line stroke="#8C8C8C" stroke-linecap="round" stroke-width="0.7087" x1="25.6" x2="-90.0" y1="212.4" y2="212.4" /><line stroke="#8C8C8C" stroke-linecap="round" stroke-width="0.7087" x1="25.6" x2="-90.0" y1="219.6" y2="219.6" /><line stroke="#8C8C8C" stroke-linecap="round" stroke-width="0.7087" x1="-4" x2="10.8" y1="248.4" y2="248.4" /><line stroke="#8C8C8C" stroke-linecap="round" stroke-width="0.7087" x1="-4" x2="10.8" y1="255.6" y2="255.6" /><line stroke="#8C8C8C" stroke-linecap="round" stroke-width="0.7087" x1="-4" x2="10.8" y1="262.8" y2="262.8" /><line stroke="#8C8C8C" stroke-linecap="round" stroke-width="0.7087" x1="-4" x2="10.8" y1="270.0" y2="270.0" /><line stroke="#8C8C8C" stroke-linecap="round" stroke-width="0.7087" x1="-4" x2="111.6" y1="277.2" y2="277.2" /><rect fill="#000000" height="6.0661" rx="1.1339" ry="1.1339" width="20.4661" x="0.5669" y="0.5669" /><text fill="white" font-family="Courier New" font-size="6" font-weight="bold" text-anchor="middle" x="10.8" y="5.3500000000000005">GND</text><rect fill="#E60000" height="6.0661" rx="1.1339" ry="1.1339" width="20.4661" x="0.5669" y="7.7669" /><text fill="white" font-family="Courier New" font-size="6" font-weight="bold" text-anchor="middle" x="10.8" y="12.55">VBAT</text><rect fill="#E60000" height="6.0661" rx="1.1339" ry="1.1339" width="20.4661" x="0.5669" y="14.9669" /><text fill="white" font-family="Courier New" font-size="6" font-weight="bold" text-anchor="middle" x="10.8" y="19.750000000000004">VBAT</text><rect fill="#B0B0B0" height="5.7118" rx="1.1339" ry="1.1339" stroke="#585858" stroke-width="0.3543" width="20.1118" x="0.7441" y="22.3441" /><text fill="black" font-family="Courier New" font-size="6" font-weight="bold" text-anchor="middle" x="10.799999999999999" y="26.95">EN</text><rect fill="#E60000" height="6.0661" rx="1.1339" ry="1.1339" width="20.4661" x="0.5669" y="29.3669" /><text fill="white" font-family="Courier New" font-size="6" font-weight="bold" text-anchor="middle" x="10.8" y="34.150000000000006">VBUS</text><rect fill="#E6E6E6" height="5.7118" rx="1.1339" ry="1.1339" stroke="#737373" stroke-width="0.3543" width="20.1118" x="0.7441" y="36.7441" /><text fill="black" font-family="Courier New" font-size="6" font-weight="bold" text-anchor="middle" x="10.799999999999999" y="41.35000000000001">D13</text><rect fill="#F0E65A" height="6.0661" rx="1.1339" ry="1.1339" width="24.0661" x="22.1669" y="36.5669" /><text fill="black" font-family="Courier New" font-size="6" font-weight="normal" text-anchor="middle" x="34.2" y="41.35000000000001">GPIO13</text><rect fill="#78F07D" height="6.0661" rx="1.1339" ry="1.1339" width="16.8661" x="47.3669" y="36.5669" /><text fill="black" font-family="Courier New" font-size="6" font-weight="normal" text-anchor="middle" x="55.800000000000004" y="41.35000000000001">CSn1</text><rect fill="#96C8FA" height="6.0661" rx="1.1339" ry="1.1339" width="16.8661" x="65.3669" y="36.5669" /><text fill="black" font-family="Courier New" font-size="6" font-weight="normal" text-anchor="middle" x="73.80000000000001" y="41.35000000000001">RX0</text><rect fill="#D7C8FF" height="6.0661" rx="1.1339" ry="1.1339" width="16.8661" x="83.3669" y="36.5669" /><text fill="black" font-family="Courier New" font-size="6" font-weight="normal" text-anchor="middle" x="91.80000000000001" y="41.35000000000001">SCL0</text><rect fill="#FAB4BE" height="6.0661" rx="1.1339" ry="1.1339" width="20.4661" x="101.3669" y="36.5669" /><text fill="black" font-family="Courier New" font-size="6" font-weight="normal" text-anchor="middle" x="111.60000000000001" y="41.35000000000001">PWM6B</text><rect fill="#E6E6E6" height="5.7118" rx="1.1339" ry="1.1339" stroke="#737373" stroke-width="0.3543" width="20.1118" x="0.7441" y="43.9441" /><text fill="black" font-family="Courier New" font-size="6" font-weight="bold" text-anchor="middle" x="10.799999999999999" y="48.550000000000004">D12</text><rect fill="#F0E65A" height="6.0661" rx="1.1339" ry="1.1339" width="24.0661" x="22.1669" y="43.7669" /><text fill="black" font-family="Courier New" font-size="6" font-weight="normal" text-anchor="middle" x="34.2" y="48.550000000000004">GPIO12</text><rect fill="#78F07D" height="6.0661" rx="1.1339" ry="1.1339" width="16.8661" x="47.3669" y="43.7669" /><text fill="black" font-family="Courier New" font-size="6" font-weight="normal" text-anchor="middle" x="55.800000000000004" y="48.550000000000004">RX1</text><rect fill="#96C8FA" height="6.0661" rx="1.1339" ry="1.1339" width="16.8661" x="65.3669" y="43.7669" /><text fill="black" font-family="Courier New" font-size="6" font-weight="normal" text-anchor="middle" x="73.80000000000001" y="48.550000000000004">TX0</text><rect fill="#D7C8FF" height="6.0661" rx="1.1339" ry="1.1339" width="16.8661" x="83.3669" y="43.7669" /><text fill="black" font-family="Courier New" font-size="6" font-weight="normal" text-anchor="middle" x="91.80000000000001" y="48.550000000000004">SDA0</text><rect fill="#FAB4BE" height="6.0661" rx="1.1339" ry="1.1339" width="20.4661" x="101.3669" y="43.7669" /><text fill="black" font-family="Courier New" font-size="6" font-weight="normal" text-anchor="middle" x="111.60000000000001" y="48.550000000000004">PWM6A</text><rect fill="#E6E6E6" height="5.7118" rx="1.1339" ry="1.1339" stroke="#737373" stroke-width="0.3543" width="20.1118" x="0.7441" y="51.1441" /><text fill="black" font-family="Courier New" font-size="6" font-weight="bold" text-anchor="middle" x="10.799999999999999" y="55.75000000000001">D11</text><rect fill="#F0E65A" height="6.0661" rx="1.1339" ry="1.1339" width="24.0661" x="22.1669" y="50.9669" /><text fill="black" font-family="Courier New" font-size="6" font-weight="normal" text-anchor="middle" x="34.2" y="55.75000000000001">GPIO11</text><rect fill="#78F07D" height="6.0661" rx="1.1339" ry="1.1339" width="16.8661" x="47.3669" y="50.9669" /><text fill="black" font-family="Courier New" font-size="6" font-weight="normal" text-anchor="middle" x="55.800000000000004" y="55.75000000000001">TX1</text><rect fill="#96C8FA" height="6.0661" rx="1.1339" ry="1.1339" width="16.8661" x="65.3669" y="50.9669" /><text fill="black" font-family="Courier New" font-size="6" font-weight="normal" text-anchor="middle" x="73.80000000000001" y="55.75000000000001">RTS1</text><rect fill="#D7C8FF" height="6.0661" rx="1.1339" ry="1.1339" width="16.8661" x="83.3669" y="50.9669" /><text fill="black" font-family="Courier New" font-size="6" font-weight="normal" text-anchor="middle" x="91.80000000000001" y="55.75000000000001">SCL1</text><rect fill="#FAB4BE" height="6.0661" rx="1.1339" ry="1.1339" width="20.4661" x="101.3669" y="50.9669" /><text fill="black" font-family="Courier New" font-size="6" font-weight="normal" text-anchor="middle" x="111.60000000000001" y="55.75000000000001">PWM5B</text><rect fill="#E6E6E6" height="5.7118" rx="1.1339" ry="1.1339" stroke="#737373" stroke-width="0.3543" width="20.1118" x="0.7441" y="58.3441" /><text fill="black" font-family="Courier New" font-size="6" font-weight="bold" text-anchor="middle" x="10.799999999999999" y="62.95000000000001">D10</text><rect fill="#F0E65A" height="6.0661" rx="1.1339" ry="1.1339" width="24.0661" x="22.1669" y="58.1669" /><text fill="black" font-family="Courier New" font-size="6" font-weight="normal" text-anchor="middle" x="34.2" y="62.95000000000001">GPIO10</text><rect fill="#78F07D" height="6.0661" rx="1.1339" ry="1.1339" width="16.8661" x="47.3669" y="58.1669" /><text fill="black" font-family="Courier New" font-size="6" font-weight="normal" text-anchor="middle" x="55.800000000000004" y="62.95000000000001">SCK1</text><rect fill="#96C8FA" height="6.0661" rx="1.1339" ry="1.1339" width="16.8661" x="65.3669" y="58.1669" /><text fill="black" font-family="Courier New" font-size="6" font-weight="normal" text-anchor="middle" x="73.80000000000001" y="62.95000000000001">CTS1</text><rect fill="#D7C8FF" height="6.0661" rx="1.1339" ry="1.1339" width="16.8661" x="83.3669" y="58.1669" /><text fill="black" font-family="Courier New" font-size="6" font-weight="normal" text-anchor="middle" x="91.80000000000001" y="62.95000000000001">SDA1</text><rect fill="#FAB4BE" height="6.0661" rx="1.1339" ry="1.1339" width="20.4661" x="101.3669" y="58.1669" /><text fill="black" font-family="Courier New" font-size="6" font-weight="normal" text-anchor="middle" x="111.60000000000001" y="62.95000000000001">PWM5A</text><rect fill="#E6E6E6" height="5.7118" rx="1.1339" ry="1.1339" stroke="#737373" stroke-width="0.3543" width="20.1118" x="0.7441" y="65.5441" /><text fill="black" font-family="Courier New" font-size="6" font-weight="bold" text-anchor="middle" x="10.799999999999999" y="70.15000000000002">D9</text><rect fill="#F0E65A" height="6.0661" rx="1.1339" ry="1.1339" width="24.0661" x="22.1669" y="65.3669" /><text fill="black" font-family="Courier New" font-size="6" font-weight="normal" text-anchor="middle" x="34.2" y="70.15">GPIO9</text><rect fill="#78F07D" height="6.0661" rx="1.1339" ry="1.1339" width="16.8661" x="47.3669" y="65.3669" /><text fill="black" font-family="Courier New" font-size="6" font-weight="normal" text-anchor="middle" x="55.800000000000004" y="70.15">CSn1</text><rect fill="#96C8FA" height="6.0661" rx="1.1339" ry="1.1339" width="16.8661" x="65.3669" y="65.3669" /><text fill="black" font-family="Courier New" font-size="6" font-weight="normal" text-anchor="middle" x="73.80000000000001" y="70.15">RX1</text><rect fill="#D7C8FF" height="6.0661" rx="1.1339" ry="1.1339" width="16.8661" x="83.3669" y="65.3669" /><text fill="black" font-family="Courier New" font-size="6" font-weight="normal" text-anchor="middle" x="91.80000000000001" y="70.15">SCL0</text><rect fill="#FAB4BE" height="6.0661" rx="1.1339" ry="1.1339" width="20.4661" x="101.3669" y="65.3669" /><text fill="black" font-family="Courier New" font-size="6" font-weight="normal" text-anchor="middle" x="111.60000000000001" y="70.15">PWM4B</text><rect fill="#E6E6E6" height="5.7118" rx="1.1339" ry="1.1339" stroke="#737373" stroke-width="0.3543" width="20.1118" x="0.7441" y="72.7441" /><text fill="black" font-family="Courier New" font-size="6" font-weight="bold" text-anchor="middle" x="10.799999999999999" y="77.35000000000002">D6</text><rect fill="#F0E65A" height="6.0661" rx="1.1339" ry="1.1339" width="24.0661" x="22.1669" y="72.5669" /><text fill="black" font-family="Courier New" font-size="6" font-weight="normal" text-anchor="middle" x="34.2" y="77.35000000000001">GPIO8</text><rect fill="#78F07D" height="6.0661" rx="1.1339" ry="1.1339" width="16.8661" x="47.3669" y="72.5669" /><text fill="black" font-family="Courier New" font-size="6" font-weight="normal" text-anchor="middle" x="55.800000000000004" y="77.35000000000001">RX1</text><rect fill="#96C8FA" height="6.0661" rx="1.1339" ry="1.1339" width="16.8661" x="65.3669" y="72.5669" /><text fill="black" font-family="Courier New" font-size="6" font-weight="normal" text-anchor="middle" x="73.80000000000001" y="77.35000000000001">TX1</text><rect fill="#D7C8FF" height="6.0661" rx="1.1339" ry="1.1339" width="16.8661" x="83.3669" y="72.5669" /><text fill="black" font-family="Courier New" font-size="6" font-weight="normal" text-anchor="middle" x="91.80000000000001" y="77.35000000000001">SDA0</text><rect fill="#FAB4BE" height="6.0661" rx="1.1339" ry="1.1339" width="20.4661" x="101.3669" y="72.5669" /><text fill="black" font-family="Courier New" font-size="6" font-weight="normal" text-anchor="middle" x="111.60000000000001" y="77.35000000000001">PWM4A</text><rect fill="#E6E6E6" height="5.7118" rx="1.1339" ry="1.1339" stroke="#737373" stroke-width="0.3543" width="20.1118" x="0.7441" y="79.9441" /><text fill="black" font-family="Courier New" font-size="6" font-weight="bold" text-anchor="middle" x="10.799999999999999" y="84.55000000000003">D5</text><rect fill="#F0E65A" height="6.0661" rx="1.1339" ry="1.1339" width="24.0661" x="22.1669" y="79.7669" /><text fill="black" font-family="Courier New" font-size="6" font-weight="normal" text-anchor="middle" x="34.2" y="84.55000000000001">GPIO7</text><rect fill="#78F07D" height="6.0661" rx="1.1339" ry="1.1339" width="16.8661" x="47.3669" y="79.7669" /><text fill="black" font-family="Courier New" font-size="6" font-weight="normal" text-anchor="middle" x="55.800000000000004" y="84.55000000000001">TX0</text><rect fill="#96C8FA" height="6.0661" rx="1.1339" ry="1.1339" width="16.8661" x="65.3669" y="79.7669" /><text fill="black" font-family="Courier New" font-size="6" font-weight="normal" text-anchor="middle" x="73.80000000000001" y="84.55000000000001">RTS1</text><rect fill="#D7C8FF" height="6.0661" rx="1.1339" ry="1.1339" width="16.8661" x="83.3669" y="79.7669" /><text fill="black" font-family="Courier New" font-size="6" font-weight="normal" text-anchor="middle" x="91.80000000000001" y="84.55000000000001">SCL1</text><rect fill="#FAB4BE" height="6.0661" rx="1.1339" ry="1.1339" width="20.4661" x="101.3669" y="79.7669" /><text fill="black" font-family="Courier New" font-size="6" font-weight="normal" text-anchor="middle" x="111.60000000000001" y="84.55000000000001">PWM3B</text><rect fill="#E6E6E6" height="5.7118" rx="1.1339" ry="1.1339" stroke="#737373" stroke-width="0.3543" width="20.1118" x="0.7441" y="87.1441" /><text fill="black" font-family="Courier New" font-size="6" font-weight="bold" text-anchor="middle" x="10.799999999999999" y="91.75000000000001">SCL</text><rect fill="#F0E65A" height="6.0661" rx="1.1339" ry="1.1339" width="24.0661" x="22.1669" y="86.9669" /><text fill="black" font-family="Courier New" font-size="6" font-weight="normal" text-anchor="middle" x="34.2" y="91.75">GPIO3</text><rect fill="#78F07D" height="6.0661" rx="1.1339" ry="1.1339" width="16.8661" x="47.3669" y="86.9669" /><text fill="black" font-family="Courier New" font-size="6" font-weight="normal" text-anchor="middle" x="55.800000000000004" y="91.75">TX0</text><rect fill="#96C8FA" height="6.0661" rx="1.1339" ry="1.1339" width="16.8661" x="65.3669" y="86.9669" /><text fill="black" font-family="Courier New" font-size="6" font-weight="normal" text-anchor="middle" x="73.80000000000001" y="91.75">RTS0</text><rect fill="#D7C8FF" height="6.0661" rx="1.1339" ry="1.1339" width="16.8661" x="83.3669" y="86.9669" /><text fill="black" font-family="Courier New" font-size="6" font-weight="normal" text-anchor="middle" x="91.80000000000001" y="91.75">SCL1</text><rect fill="#FAB4BE" height="6.0661" rx="1.1339" ry="1.1339" width="20.4661" x="101.3669" y="86.9669" /><text fill="black" font-family="Courier New" font-size="6" font-weight="normal" text-anchor="middle" x="111.60000000000001" y="91.75">PWM1B</text><rect fill="#E6E6E6" height="5.7118" rx="1.1339" ry="1.1339" stroke="#737373" stroke-width="0.3543" width="20.1118" x="0.7441" y="94.3441" /><text fill="black" font-family="Courier New" font-size="6" font-weight="bold" text-anchor="middle" x="10.799999999999999" y="98.95000000000002">SDA</text><rect fill="#F0E65A" height="6.0661" rx="1.1339" ry="1.1339" width="24.0661" x="22.1669" y="94.1669" /><text fill="black" font-family="Courier New" font-size="6" font-weight="normal" text-anchor="middle" x="34.2" y="98.95">GPIO2</text><rect fill="#78F07D" height="6.0661" rx="1.1339" ry="1.1339" width="16.8661" x="47.3669" y="94.1669" /><text fill="black" font-family="Courier New" font-size="6" font-weight="normal" text-anchor="middle" x="55.800000000000004" y="98.95">SCK0</text><rect fill="#96C8FA" height="6.0661" rx="1.1339" ry="1.1339" width="16.8661" x="65.3669" y="94.1669" /><text fill="black" font-family="Courier New" font-size="6" font-weight="normal" text-anchor="middle" x="73.80000000000001" y="98.95">CTS0</text><rect fill="#D7C8FF" height="6.0661" rx="1.1339" ry="1.1339" width="16.8661" x="83.3669" y="94.1669" /><text fill="black" font-family="Courier New" font-size="6" font-weight="normal" text-anchor="middle" x="91.80000000000001" y="98.95">SDA1</text><rect fill="#FAB4BE" height="6.0661" rx="1.1339" ry="1.1339" width="20.4661" x="101.3669" y="94.1669" /><text fill="black" font-family="Courier New" font-size="6" font-weight="normal" text-anchor="middle" x="111.60000000000001" y="98.95">PWM1A</text><rect fill="#B0B0B0" height="5.7118" rx="1.1339" ry="1.1339" stroke="#585858" stroke-width="0.3543" width="20.1118" x="0.7441" y="108.7441" /><text fill="black" font-family="Courier New" font-size="6" font-weight="bold" text-anchor="middle" x="10.799999999999999" y="113.35000000000002">RESET</text><rect fill="#E60000" height="6.0661" rx="1.1339" ry="1.1339" width="20.4661" x="0.5669" y="115.7669" /><text fill="white" font-family="Courier New" font-size="6" font-weight="bold" text-anchor="middle" x="10.8" y="120.55000000000001">3.3V</text><rect fill="#E60000" height="6.0661" rx="1.1339" ry="1.1339" width="20.4661" x="0.5669" y="122.9669" /><text fill="white" font-family="Courier New" font-size="6" font-weight="bold" text-anchor="middle" x="10.8" y="127.75000000000001">3.3V</text><rect fill="#000000" height="6.0661" rx="1.1339" ry="1.1339" width="20.4661" x="0.5669" y="130.1669" /><text fill="white" font-family="Courier New" font-size="6" font-weight="bold" text-anchor="middle" x="10.8" y="134.95000000000005">GND</text><rect fill="#E6E6E6" height="5.7118" rx="1.1339" ry="1.1339" stroke="#737373" stroke-width="0.3543" width="20.1118" x="0.7441" y="137.5441" /><text fill="black" font-family="Courier New" font-size="6" font-weight="bold" text-anchor="middle" x="10.799999999999999" y="142.15">A0</text><rect fill="#F0E65A" height="6.0661" rx="1.1339" ry="1.1339" width="24.0661" x="-24.6331" y="137.3669" /><text fill="black" font-family="Courier New" font-size="6" font-weight="normal" text-anchor="middle" x="-12.600000000000003" y="142.15000000000003">GPIO26</text><rect fill="#78F07D" height="6.0661" rx="1.1339" ry="1.1339" width="16.8661" x="-42.6331" y="137.3669" /><text fill="black" font-family="Courier New" font-size="6" font-weight="normal" text-anchor="middle" x="-34.2" y="142.15000000000003">SCK1</text><rect fill="#96C8FA" height="6.0661" rx="1.1339" ry="1.1339" width="16.8661" x="-60.6331" y="137.3669" /><text fill="black" font-family="Courier New" font-size="6" font-weight="normal" text-anchor="middle" x="-52.2" y="142.15000000000003">CTS1</text><rect fill="#D7C8FF" height="6.0661" rx="1.1339" ry="1.1339" width="16.8661" x="-78.6331" y="137.3669" /><text fill="black" font-family="Courier New" font-size="6" font-weight="normal" text-anchor="middle" x="-70.2" y="142.15000000000003">SDA1</text><rect fill="#FAB4BE" height="6.0661" rx="1.1339" ry="1.1339" width="20.4661" x="-100.2331" y="137.3669" /><text fill="black" font-family="Courier New" font-size="6" font-weight="normal" text-anchor="middle" x="-90.00000000000001" y="142.15000000000003">PWM5A</text><rect fill="#FFB95A" height="6.0661" rx="1.1339" ry="1.1339" width="16.8661" x="-118.2331" y="137.3669" /><text fill="black" font-family="Courier New" font-size="6" font-weight="normal" text-anchor="middle" x="-109.80000000000001" y="142.15000000000003">ADC0</text><rect fill="#E6E6E6" height="5.7118" rx="1.1339" ry="1.1339" stroke="#737373" stroke-width="0.3543" width="20.1118" x="0.7441" y="144.7441" /><text fill="black" font-family="Courier New" font-size="6" font-weight="bold" text-anchor="middle" x="10.799999999999999" y="149.35000000000002">A1</text><rect fill="#F0E65A" height="6.0661" rx="1.1339" ry="1.1339" width="24.0661" x="-24.6331" y="144.5669" /><text fill="black" font-family="Courier New" font-size="6" font-weight="normal" text-anchor="middle" x="-12.600000000000003" y="149.35000000000005">GPIO27</text><rect fill="#78F07D" height="6.0661" rx="1.1339" ry="1.1339" width="16.8661" x="-42.6331" y="144.5669" /><text fill="black" font-family="Courier New" font-size="6" font-weight="normal" text-anchor="middle" x="-34.2" y="149.35000000000005">TX1</text><rect fill="#96C8FA" height="6.0661" rx="1.1339" ry="1.1339" width="16.8661" x="-60.6331" y="144.5669" /><text fill="black" font-family="Courier New" font-size="6" font-weight="normal" text-anchor="middle" x="-52.2" y="149.35000000000005">RTS1</text><rect fill="#D7C8FF" height="6.0661" rx="1.1339" ry="1.1339" width="16.8661" x="-78.6331" y="144.5669" /><text fill="black" font-family="Courier New" font-size="6" font-weight="normal" text-anchor="middle" x="-70.2" y="149.35000000000005">SCL1</text><rect fill="#FAB4BE" height="6.0661" rx="1.1339" ry="1.1339" width="20.4661" x="-100.2331" y="144.5669" /><text fill="black" font-family="Courier New" font-size="6" font-weight="normal" text-anchor="middle" x="-90.00000000000001" y="149.35000000000005">PWM5B</text><rect fill="#FFB95A" height="6.0661" rx="1.1339" ry="1.1339" width="16.8661" x="-118.2331" y="144.5669" /><text fill="black" font-family="Courier New" font-size="6" font-weight="normal" text-anchor="middle" x="-109.80000000000001" y="149.35000000000005">ADC1</text><rect fill="#E6E6E6" height="5.7118" rx="1.1339" ry="1.1339" stroke="#737373" stroke-width="0.3543" width="20.1118" x="0.7441" y="151.9441" /><text fill="black" font-family="Courier New" font-size="6" font-weight="bold" text-anchor="middle" x="10.799999999999999" y="156.55">A2</text><rect fill="#F0E65A" height="6.0661" rx="1.1339" ry="1.1339" width="24.0661" x="-24.6331" y="151.7669" /><text fill="black" font-family="Courier New" font-size="6" font-weight="normal" text-anchor="middle" x="-12.600000000000003" y="156.55000000000004">GPIO28</text><rect fill="#78F07D" height="6.0661" rx="1.1339" ry="1.1339" width="16.8661" x="-42.6331" y="151.7669" /><text fill="black" font-family="Courier New" font-size="6" font-weight="normal" text-anchor="middle" x="-34.2" y="156.55000000000004">RX1</text><rect fill="#96C8FA" height="6.0661" rx="1.1339" ry="1.1339" width="16.8661" x="-60.6331" y="151.7669" /><text fill="black" font-family="Courier New" font-size="6" font-weight="normal" text-anchor="middle" x="-52.2" y="156.55000000000004">TX0</text><rect fill="#D7C8FF" height="6.0661" rx="1.1339" ry="1.1339" width="16.8661" x="-78.6331" y="151.7669" /><text fill="black" font-family="Courier New" font-size="6" font-weight="normal" text-anchor="middle" x="-70.2" y="156.55000000000004">SDA0</text><rect fill="#FAB4BE" height="6.0661" rx="1.1339" ry="1.1339" width="20.4661" x="-100.2331" y="151.7669" /><text fill="black" font-family="Courier New" font-size="6" font-weight="normal" text-anchor="middle" x="-90.00000000000001" y="156.55000000000004">PWM6A</text><rect fill="#FFB95A" height="6.0661" rx="1.1339" ry="1.1339" width="16.8661" x="-118.2331" y="151.7669" /><text fill="black" font-family="Courier New" font-size="6" font-weight="normal" text-anchor="middle" x="-109.80000000000001" y="156.55000000000004">ADC2</text><rect fill="#E6E6E6" height="5.7118" rx="1.1339" ry="1.1339" stroke="#737373" stroke-width="0.3543" width="20.1118" x="0.7441" y="159.1441" /><text fill="black" font-family="Courier New" font-size="6" font-weight="bold" text-anchor="middle" x="10.799999999999999" y="163.75000000000003">A3</text><rect fill="#F0E65A" height="6.0661" rx="1.1339" ry="1.1339" width="24.0661" x="-24.6331" y="158.9669" /><text fill="black" font-family="Courier New" font-size="6" font-weight="normal" text-anchor="middle" x="-12.600000000000003" y="163.75000000000006">GPIO29</text><rect fill="#78F07D" height="6.0661" rx="1.1339" ry="1.1339" width="16.8661" x="-42.6331" y="158.9669" /><text fill="black" font-family="Courier New" font-size="6" font-weight="normal" text-anchor="middle" x="-34.2" y="163.75000000000006">CSn1</text><rect fill="#96C8FA" height="6.0661" rx="1.1339" ry="1.1339" width="16.8661" x="-60.6331" y="158.9669" /><text fill="black" font-family="Courier New" font-size="6" font-weight="normal" text-anchor="middle" x="-52.2" y="163.75000000000006">RX0</text><rect fill="#D7C8FF" height="6.0661" rx="1.1339" ry="1.1339" width="16.8661" x="-78.6331" y="158.9669" /><text fill="black" font-family="Courier New" font-size="6" font-weight="normal" text-anchor="middle" x="-70.2" y="163.75000000000006">SCL0</text><rect fill="#FAB4BE" height="6.0661" rx="1.1339" ry="1.1339" width="20.4661" x="-100.2331" y="158.9669" /><text fill="black" font-family="Courier New" font-size="6" font-weight="normal" text-anchor="middle" x="-90.00000000000001" y="163.75000000000006">PWM6B</text><rect fill="#FFB95A" height="6.0661" rx="1.1339" ry="1.1339" width="16.8661" x="-118.2331" y="158.9669" /><text fill="black" font-family="Courier New" font-size="6" font-weight="normal" text-anchor="middle" x="-109.80000000000001" y="163.75000000000006">ADC3</text><rect fill="#E6E6E6" height="5.7118" rx="1.1339" ry="1.1339" stroke="#737373" stroke-width="0.3543" width="20.1118" x="0.7441" y="166.3441" /><text fill="black" font-family="Courier New" font-size="6" font-weight="bold" text-anchor="middle" x="10.799999999999999" y="170.95000000000002">D24</text><rect fill="#F0E65A" height="6.0661" rx="1.1339" ry="1.1339" width="24.0661" x="-24.6331" y="166.1669" /><text fill="black" font-family="Courier New" font-size="6" font-weight="normal" text-anchor="middle" x="-12.600000000000003" y="170.95000000000005">GPIO24</text><rect fill="#78F07D" height="6.0661" rx="1.1339" ry="1.1339" width="16.8661" x="-42.6331" y="166.1669" /><text fill="black" font-family="Courier New" font-size="6" font-weight="normal" text-anchor="middle" x="-34.2" y="170.95000000000005">RX1</text><rect fill="#96C8FA" height="6.0661" rx="1.1339" ry="1.1339" width="16.8661" x="-60.6331" y="166.1669" /><text fill="black" font-family="Courier New" font-size="6" font-weight="normal" text-anchor="middle" x="-52.2" y="170.95000000000005">TX1</text><rect fill="#D7C8FF" height="6.0661" rx="1.1339" ry="1.1339" width="16.8661" x="-78.6331" y="166.1669" /><text fill="black" font-family="Courier New" font-size="6" font-weight="normal" text-anchor="middle" x="-70.2" y="170.95000000000005">SDA0</text><rect fill="#FAB4BE" height="6.0661" rx="1.1339" ry="1.1339" width="20.4661" x="-100.2331" y="166.1669" /><text fill="black" font-family="Courier New" font-size="6" font-weight="normal" text-anchor="middle" x="-90.00000000000001" y="170.95000000000005">PWM4A</text><rect fill="#E6E6E6" height="5.7118" rx="1.1339" ry="1.1339" stroke="#737373" stroke-width="0.3543" width="20.1118" x="0.7441" y="173.5441" /><text fill="black" font-family="Courier New" font-size="6" font-weight="bold" text-anchor="middle" x="10.799999999999999" y="178.15">D25</text><rect fill="#F0E65A" height="6.0661" rx="1.1339" ry="1.1339" width="24.0661" x="-24.6331" y="173.3669" /><text fill="black" font-family="Courier New" font-size="6" font-weight="normal" text-anchor="middle" x="-12.600000000000003" y="178.15000000000003">GPIO25</text><rect fill="#78F07D" height="6.0661" rx="1.1339" ry="1.1339" width="16.8661" x="-42.6331" y="173.3669" /><text fill="black" font-family="Courier New" font-size="6" font-weight="normal" text-anchor="middle" x="-34.2" y="178.15000000000003">CSn1</text><rect fill="#96C8FA" height="6.0661" rx="1.1339" ry="1.1339" width="16.8661" x="-60.6331" y="173.3669" /><text fill="black" font-family="Courier New" font-size="6" font-weight="normal" text-anchor="middle" x="-52.2" y="178.15000000000003">RX1</text><rect fill="#D7C8FF" height="6.0661" rx="1.1339" ry="1.1339" width="16.8661" x="-78.6331" y="173.3669" /><text fill="black" font-family="Courier New" font-size="6" font-weight="normal" text-anchor="middle" x="-70.2" y="178.15000000000003">SCL0</text><rect fill="#FAB4BE" height="6.0661" rx="1.1339" ry="1.1339" width="20.4661" x="-100.2331" y="173.3669" /><text fill="black" font-family="Courier New" font-size="6" font-weight="normal" text-anchor="middle" x="-90.00000000000001" y="178.15000000000003">PWM4B</text><rect fill="#E6E6E6" height="5.7118" rx="1.1339" ry="1.1339" stroke="#737373" stroke-width="0.3543" width="20.1118" x="0.7441" y="180.7441" /><text fill="black" font-family="Courier New" font-size="6" font-weight="bold" text-anchor="middle" x="10.799999999999999" y="185.35000000000002">SCK</text><rect fill="#F0E65A" height="6.0661" rx="1.1339" ry="1.1339" width="24.0661" x="-24.6331" y="180.5669" /><text fill="black" font-family="Courier New" font-size="6" font-weight="normal" text-anchor="middle" x="-12.600000000000003" y="185.35000000000005">GPIO18</text><rect fill="#78F07D" height="6.0661" rx="1.1339" ry="1.1339" width="16.8661" x="-42.6331" y="180.5669" /><text fill="black" font-family="Courier New" font-size="6" font-weight="normal" text-anchor="middle" x="-34.2" y="185.35000000000005">SCK0</text><rect fill="#96C8FA" height="6.0661" rx="1.1339" ry="1.1339" width="16.8661" x="-60.6331" y="180.5669" /><text fill="black" font-family="Courier New" font-size="6" font-weight="normal" text-anchor="middle" x="-52.2" y="185.35000000000005">CTS0</text><rect fill="#D7C8FF" height="6.0661" rx="1.1339" ry="1.1339" width="16.8661" x="-78.6331" y="180.5669" /><text fill="black" font-family="Courier New" font-size="6" font-weight="normal" text-anchor="middle" x="-70.2" y="185.35000000000005">SDA1</text><rect fill="#FAB4BE" height="6.0661" rx="1.1339" ry="1.1339" width="20.4661" x="-100.2331" y="180.5669" /><text fill="black" font-family="Courier New" font-size="6" font-weight="normal" text-anchor="middle" x="-90.00000000000001" y="185.35000000000005">PWM1A</text><rect fill="#E6E6E6" height="5.7118" rx="1.1339" ry="1.1339" stroke="#737373" stroke-width="0.3543" width="20.1118" x="0.7441" y="187.9441" /><text fill="black" font-family="Courier New" font-size="6" font-weight="bold" text-anchor="middle" x="10.799999999999999" y="192.55">MOSI</text><rect fill="#F0E65A" height="6.0661" rx="1.1339" ry="1.1339" width="24.0661" x="-24.6331" y="187.7669" /><text fill="black" font-family="Courier New" font-size="6" font-weight="normal" text-anchor="middle" x="-12.600000000000003" y="192.55000000000004">GPIO19</text><rect fill="#78F07D" height="6.0661" rx="1.1339" ry="1.1339" width="16.8661" x="-42.6331" y="187.7669" /><text fill="black" font-family="Courier New" font-size="6" font-weight="normal" text-anchor="middle" x="-34.2" y="192.55000000000004">TX0</text><rect fill="#96C8FA" height="6.0661" rx="1.1339" ry="1.1339" width="16.8661" x="-60.6331" y="187.7669" /><text fill="black" font-family="Courier New" font-size="6" font-weight="normal" text-anchor="middle" x="-52.2" y="192.55000000000004">RTS0</text><rect fill="#D7C8FF" height="6.0661" rx="1.1339" ry="1.1339" width="16.8661" x="-78.6331" y="187.7669" /><text fill="black" font-family="Courier New" font-size="6" font-weight="normal" text-anchor="middle" x="-70.2" y="192.55000000000004">SCL1</text><rect fill="#FAB4BE" height="6.0661" rx="1.1339" ry="1.1339" width="20.4661" x="-100.2331" y="187.7669" /><text fill="black" font-family="Courier New" font-size="6" font-weight="normal" text-anchor="middle" x="-90.00000000000001" y="192.55000000000004">PWM1B</text><rect fill="#E6E6E6" height="5.7118" rx="1.1339" ry="1.1339" stroke="#737373" stroke-width="0.3543" width="20.1118" x="0.7441" y="195.1441" /><text fill="black" font-family="Courier New" font-size="6" font-weight="bold" text-anchor="middle" x="10.799999999999999" y="199.75000000000003">MISO</text><rect fill="#F0E65A" height="6.0661" rx="1.1339" ry="1.1339" width="24.0661" x="-24.6331" y="194.9669" /><text fill="black" font-family="Courier New" font-size="6" font-weight="normal" text-anchor="middle" x="-12.600000000000003" y="199.75000000000006">GPIO20</text><rect fill="#78F07D" height="6.0661" rx="1.1339" ry="1.1339" width="16.8661" x="-42.6331" y="194.9669" /><text fill="black" font-family="Courier New" font-size="6" font-weight="normal" text-anchor="middle" x="-34.2" y="199.75000000000006">RX0</text><rect fill="#96C8FA" height="6.0661" rx="1.1339" ry="1.1339" width="16.8661" x="-60.6331" y="194.9669" /><text fill="black" font-family="Courier New" font-size="6" font-weight="normal" text-anchor="middle" x="-52.2" y="199.75000000000006">TX1</text><rect fill="#D7C8FF" height="6.0661" rx="1.1339" ry="1.1339" width="16.8661" x="-78.6331" y="194.9669" /><text fill="black" font-family="Courier New" font-size="6" font-weight="normal" text-anchor="middle" x="-70.2" y="199.75000000000006">SDA0</text><rect fill="#FAB4BE" height="6.0661" rx="1.1339" ry="1.1339" width="20.4661" x="-100.2331" y="194.9669" /><text fill="black" font-family="Courier New" font-size="6" font-weight="normal" text-anchor="middle" x="-90.00000000000001" y="199.75000000000006">PWM2A</text><rect fill="#E6E6E6" height="5.7118" rx="1.1339" ry="1.1339" stroke="#737373" stroke-width="0.3543" width="20.1118" x="0.7441" y="202.3441" /><text fill="black" font-family="Courier New" font-size="6" font-weight="bold" text-anchor="middle" x="10.799999999999999" y="206.95000000000002">RX</text><rect fill="#F0E65A" height="6.0661" rx="1.1339" ry="1.1339" width="24.0661" x="-24.6331" y="202.1669" /><text fill="black" font-family="Courier New" font-size="6" font-weight="normal" text-anchor="middle" x="-12.600000000000003" y="206.95000000000005">GPIO1</text><rect fill="#78F07D" height="6.0661" rx="1.1339" ry="1.1339" width="16.8661" x="-42.6331" y="202.1669" /><text fill="black" font-family="Courier New" font-size="6" font-weight="normal" text-anchor="middle" x="-34.2" y="206.95000000000005">CSn0</text><rect fill="#96C8FA" height="6.0661" rx="1.1339" ry="1.1339" width="16.8661" x="-60.6331" y="202.1669" /><text fill="black" font-family="Courier New" font-size="6" font-weight="normal" text-anchor="middle" x="-52.2" y="206.95000000000005">RX0</text><rect fill="#D7C8FF" height="6.0661" rx="1.1339" ry="1.1339" width="16.8661" x="-78.6331" y="202.1669" /><text fill="black" font-family="Courier New" font-size="6" font-weight="normal" text-anchor="middle" x="-70.2" y="206.95000000000005">SCL0</text><rect fill="#FAB4BE" height="6.0661" rx="1.1339" ry="1.1339" width="20.4661" x="-100.2331" y="202.1669" /><text fill="black" font-family="Courier New" font-size="6" font-weight="normal" text-anchor="middle" x="-90.00000000000001" y="206.95000000000005">PWM0B</text><rect fill="#E6E6E6" height="5.7118" rx="1.1339" ry="1.1339" stroke="#737373" stroke-width="0.3543" width="20.1118" x="0.7441" y="209.5441" /><text fill="black" font-family="Courier New" font-size="6" font-weight="bold" text-anchor="middle" x="10.799999999999999" y="214.15000000000003">TX</text><rect fill="#F0E65A" height="6.0661" rx="1.1339" ry="1.1339" width="24.0661" x="-24.6331" y="209.3669" /><text fill="black" font-family="Courier New" font-size="6" font-weight="normal" text-anchor="middle" x="-12.600000000000003" y="214.15000000000006">GPIO0</text><rect fill="#78F07D" height="6.0661" rx="1.1339" ry="1.1339" width="16.8661" x="-42.6331" y="209.3669" /><text fill="black" font-family="Courier New" font-size="6" font-weight="normal" text-anchor="middle" x="-34.2" y="214.15000000000006">RX0</text><rect fill="#96C8FA" height="6.0661" rx="1.1339" ry="1.1339" width="16.8661" x="-60.6331" y="209.3669" /><text fill="black" font-family="Courier New" font-size="6" font-weight="normal" text-anchor="middle" x="-52.2" y="214.15000000000006">TX0</text><rect fill="#D7C8FF" height="6.0661" rx="1.1339" ry="1.1339" width="16.8661" x="-78.6331" y="209.3669" /><text fill="black" font-family="Courier New" font-size="6" font-weight="normal" text-anchor="middle" x="-70.2" y="214.15000000000006">SDA0</text><rect fill="#FAB4BE" height="6.0661" rx="1.1339" ry="1.1339" width="20.4661" x="-100.2331" y="209.3669" /><text fill="black" font-family="Courier New" font-size="6" font-weight="normal" text-anchor="middle" x="-90.00000000000001" y="214.15000000000006">PWM0A</text><rect fill="#E6E6E6" height="5.7118" rx="1.1339" ry="1.1339" stroke="#737373" stroke-width="0.3543" width="20.1118" x="0.7441" y="216.7441" /><text fill="black" font-family="Courier New" font-size="6" font-weight="bold" text-anchor="middle" x="10.799999999999999" y="221.35000000000002">D4</text><rect fill="#F0E65A" height="6.0661" rx="1.1339" ry="1.1339" width="24.0661" x="-24.6331" y="216.5669" /><text fill="black" font-family="Courier New" font-size="6" font-weight="normal" text-anchor="middle" x="-12.600000000000003" y="221.35000000000005">GPIO6</text><rect fill="#78F07D" height="6.0661" rx="1.1339" ry="1.1339" width="16.8661" x="-42.6331" y="216.5669" /><text fill="black" font-family="Courier New" font-size="6" font-weight="normal" text-anchor="middle" x="-34.2" y="221.35000000000005">SCK0</text><rect fill="#96C8FA" height="6.0661" rx="1.1339" ry="1.1339" width="16.8661" x="-60.6331" y="216.5669" /><text fill="black" font-family="Courier New" font-size="6" font-weight="normal" text-anchor="middle" x="-52.2" y="221.35000000000005">CTS1</text><rect fill="#D7C8FF" height="6.0661" rx="1.1339" ry="1.1339" width="16.8661" x="-78.6331" y="216.5669" /><text fill="black" font-family="Courier New" font-size="6" font-weight="normal" text-anchor="middle" x="-70.2" y="221.35000000000005">SDA1</text><rect fill="#FAB4BE" height="6.0661" rx="1.1339" ry="1.1339" width="20.4661" x="-100.2331" y="216.5669" /><text fill="black" font-family="Courier New" font-size="6" font-weight="normal" text-anchor="middle" x="-90.00000000000001" y="221.35000000000005">PWM3A</text><rect fill="#E60000" height="6.0661" rx="1.1339" ry="1.1339" width="20.4661" x="0.5669" y="245.3669" /><text fill="white" font-family="Courier New" font-size="6" font-weight="bold" text-anchor="middle" x="10.8" y="250.15000000000006">3.3V</text><rect fill="#FFFF00" height="6.0661" rx="1.1339" ry="1.1339" width="20.4661" x="0.5669" y="252.5669" /><text fill="black" font-family="Courier New" font-size="6" font-weight="bold" text-anchor="middle" x="10.8" y="257.35">SCL</text><rect fill="#0000FF" height="6.0661" rx="1.1339" ry="1.1339" width="20.4661" x="0.5669" y="259.7669" /><text fill="white" font-family="Courier New" font-size="6" font-weight="bold" text-anchor="middle" x="10.8" y="264.55">SDA</text><rect fill="#000000" height="6.0661" rx="1.1339" ry="1.1339" width="20.4661" x="0.5669" y="266.9669" /><text fill="white" font-family="Courier New" font-size="6" font-weight="bold" text-anchor="middle" x="10.8" y="271.75">GND</text><rect fill="#E6E6E6" height="5.7118" rx="1.1339" ry="1.1339" stroke="#737373" stroke-width="0.3543" width="20.1118" x="0.7441" y="274.3441" /><text fill="black" font-family="Courier New" font-size="6" font-weight="bold" text-anchor="middle" x="10.799999999999999" y="278.95000000000005">NEOPIXEL</text><rect fill="#F0E65A" height="6.0661" rx="1.1339" ry="1.1339" width="24.0661" x="22.1669" y="274.1669" /><text fill="black" font-family="Courier New" font-size="6" font-weight="normal" text-anchor="middle" x="34.2" y="278.95">GPIO16</text><rect fill="#78F07D" height="6.0661" rx="1.1339" ry="1.1339" width="16.8661" x="47.3669" y="274.1669" /><text fill="black" font-family="Courier New" font-size="6" font-weight="normal" text-anchor="middle" x="55.800000000000004" y="278.95">RX0</text><rect fill="#96C8FA" height="6.0661" rx="1.1339" ry="1.1339" width="16.8661" x="65.3669" y="274.1669" /><text fill="black" font-family="Courier New" font-size="6" font-weight="normal" text-anchor="middle" x="73.80000000000001" y="278.95">TX0</text><rect fill="#D7C8FF" height="6.0661" rx="1.1339" ry="1.1339" width="16.8661" x="83.3669" y="274.1669" /><text fill="black" font-family="Courier New" font-size="6" font-weight="normal" text-anchor="middle" x="91.80000000000001" y="278.95">SDA0</text><rect fill="#FAB4BE" height="6.0661" rx="1.1339" ry="1.1339" width="20.4661" x="101.3669" y="274.1669" /><text fill="black" font-family="Courier New" font-size="6" font-weight="normal" text-anchor="middle" x="111.60000000000001" y="278.95">PWM0A</text><rect fill="#E60000" height="6.0661" rx="1.1339" ry="1.1339" width="6.0661" x="0.5669" y="302.9669" /><text fill="black" font-family="Courier New" font-size="6" font-weight="bold" text-anchor="start" x="8.64" y="307.75000000000006">Power</text><rect fill="#000000" height="6.0661" rx="1.1339" ry="1.1339" width="6.0661" x="0.5669" y="310.1669" /><text fill="black" font-family="Courier New" font-size="6" font-weight="bold" text-anchor="start" x="8.64" y="314.95000000000005">GND</text><rect fill="#B0B0B0" height="5.7118" rx="1.1339" ry="1.1339" stroke="#585858" stroke-width="0.3543" width="5.7118" x="0.7441" y="317.5441" /><text fill="black" font-family="Courier New" font-size="6" font-weight="bold" text-anchor="start" x="8.64" y="322.15000000000003">Control</text><rect fill="#F0E65A" height="6.0661" rx="1.1339" ry="1.1339" width="6.0661" x="0.5669" y="324.5669" /><text fill="black" font-family="Courier New" font-size="6" font-weight="bold" text-anchor="start" x="8.64" y="329.35">Port</text><rect fill="#FFB95A" height="6.0661" rx="1.1339" ry="1.1339" width="6.0661" x="0.5669" y="331.7669" /><text fill="black" font-family="Courier New" font-size="6" font-weight="bold" text-anchor="start" x="8.64" y="336.55">Analog</text><rect fill="#FAB4BE" height="6.0661" rx="1.1339" ry="1.1339" width="6.0661" x="0.5669" y="338.9669" /><text fill="black" font-family="Courier New" font-size="6" font-weight="bold" text-anchor="start" x="8.64" y="343.75">PWM</text><rect fill="#96C8FA" height="6.0661" rx="1.1339" ry="1.1339" width="6.0661" x="0.5669" y="346.1669" /><text fill="black" font-family="Courier New" font-size="6" font-weight="bold" text-anchor="start" x="8.64" y="350.95">UART</text><rect fill="#78F07D" height="6.0661" rx="1.1339" ry="1.1339" width="6.0661" x="0.5669" y="353.3669" /><text fill="black" font-family="Courier New" font-size="6" font-weight="bold" text-anchor="start" x="8.64" y="358.15">SPI</text><rect fill="#D7C8FF" height="6.0661" rx="1.1339" ry="1.1339" width="6.0661" x="0.5669" y="360.5669" /><text fill="black" font-family="Courier New" font-size="6" font-weight="bold" text-anchor="start" x="8.64" y="365.34999999999997">I2C</text><rect fill="#FFFF00" height="6.0661" rx="1.1339" ry="1.1339" width="6.0661" x="0.5669" y="367.7669" /><text fill="black" font-family="Courier New" font-size="6" font-weight="bold" text-anchor="start" x="8.64" y="372.54999999999995">QT_SCL</text><rect fill="#0000FF" height="6.0661" rx="1.1339" ry="1.1339" width="6.0661" x="0.5669" y="374.9669" /><text fill="black" font-family="Courier New" font-size="6" font-weight="bold" text-anchor="start" x="8.64" y="379.74999999999994">QT_SDA</text></svg>