<?xml version="1.0" encoding="utf-8" ?>
<svg baseProfile="tiny" height="100" version="1.2" width="100" xmlns="http://www.w3.org/2000/svg" xmlns:ev="http://www.w3.org/2001/xml-events" xmlns:xlink="http://www.w3.org/1999/xlink"><defs /><g><line stroke="#8C8C8C" stroke-linecap="round" stroke-width="0.7087" x1="-4" x2="149.4" y1="3.6" y2="3.6" /><rect fill="#E6E6E6" height="5.7118" rx="0.9567" ry="0.9567" stroke="#737373" stroke-width="0.3543" width="20.1118" x="0.7441" y="0.7441" /><text fill="black" font-family="Courier New" font-size="6" font-weight="bold" text-anchor="middle" x="10.799999999999999" y="5.3500000000000005">A0</text><rect fill="#004949" height="6.0661" rx="1.1339" ry="1.1339" width="24.0661" x="22.1669" y="0.5669" /><text fill="white" font-family="Courier New" font-size="6" font-weight="bold" text-anchor="middle" x="34.2" y="5.3500000000000005">0/A0</text><rect fill="#FFFF6D" height="6.0661" rx="1.1339" ry="1.1339" width="16.8661" x="76.1669" y="0.5669" /><text fill="black" font-family="Courier New" font-size="6" text-anchor="middle" x="84.60000000000001" y="5.3500000000000005">PA02</text><rect fill="#B6DBFF" height="6.0661" rx="1.1339" ry="1.1339" width="20.4661" x="94.1669" y="0.5669" /><text fill="black" font-family="Courier New" font-size="6" text-anchor="middle" x="104.4" y="5.3500000000000005">AIN0</text></g><g><line stroke="#8C8C8C" stroke-linecap="round" stroke-width="0.7087" x1="-4" x2="10.8" y1="10.8" y2="10.8" /><rect fill="#920000" height="6.0661" rx="1.1339" ry="1.1339" width="20.4661" x="0.5669" y="7.7669" /><text fill="white" font-family="Courier New" font-size="6" font-weight="bold" text-anchor="middle" x="10.8" y="12.55">5V</text></g><g><line stroke="#8C8C8C" stroke-linecap="round" stroke-width="0.7087" x1="25.6" x2="-183.6" y1="25.2" y2="25.2" /><rect fill="#E6E6E6" height="5.7118" rx="0.9567" ry="0.9567" stroke="#737373" stroke-width="0.3543" width="20.1118" x="0.7441" y="22.3441" /><text fill="black" font-family="Courier New" font-size="6" font-weight="bold" text-anchor="middle" x="10.799999999999999" y="26.95">TX</text><rect fill="#004949" height="6.0661" rx="1.1339" ry="1.1339" width="24.0661" x="-24.6331" y="22.1669" /><text fill="white" font-family="Courier New" font-size="6" font-weight="bold" text-anchor="middle" x="-12.600000000000003" y="26.950000000000003">6/A6</text><rect fill="#FFFF6D" height="6.0661" rx="1.1339" ry="1.1339" width="16.8661" x="-71.4331" y="22.1669" /><text fill="black" font-family="Courier New" font-size="6" text-anchor="middle" x="-63.000000000000014" y="26.950000000000003">PA06</text><rect fill="#B6DBFF" height="6.0661" rx="1.1339" ry="1.1339" width="20.4661" x="-114.6331" y="22.1669" /><text fill="black" font-family="Courier New" font-size="6" text-anchor="middle" x="-104.40000000000002" y="26.950000000000003">AIN6</text></g><g><line stroke="#8C8C8C" stroke-linecap="round" stroke-width="0.7087" x1="25.6" x2="-214.2" y1="32.4" y2="32.4" /><rect fill="#E6E6E6" height="5.7118" rx="0.9567" ry="0.9567" stroke="#737373" stroke-width="0.3543" width="20.1118" x="0.7441" y="29.5441" /><text fill="black" font-family="Courier New" font-size="6" font-weight="bold" text-anchor="middle" x="10.799999999999999" y="34.150000000000006">RX</text><rect fill="#004949" height="6.0661" rx="1.1339" ry="1.1339" width="24.0661" x="-24.6331" y="29.3669" /><text fill="white" font-family="Courier New" font-size="6" font-weight="bold" text-anchor="middle" x="-12.600000000000003" y="34.150000000000006">7/A7</text><rect fill="#FFFF6D" height="6.0661" rx="1.1339" ry="1.1339" width="16.8661" x="-71.4331" y="29.3669" /><text fill="black" font-family="Courier New" font-size="6" text-anchor="middle" x="-63.000000000000014" y="34.150000000000006">PA07</text><rect fill="#B6DBFF" height="6.0661" rx="1.1339" ry="1.1339" width="20.4661" x="-114.6331" y="29.3669" /><text fill="black" font-family="Courier New" font-size="6" text-anchor="middle" x="-104.40000000000002" y="34.150000000000006">AIN7</text></g><g><line stroke="#8C8C8C" stroke-linecap="round" stroke-width="0.7087" x1="-4" x2="10.8" y1="46.8" y2="46.8" /><rect fill="#000000" height="6.0661" rx="1.1339" ry="1.1339" width="20.4661" x="0.5669" y="43.7669" /><text fill="white" font-family="Courier New" font-size="6" font-weight="bold" text-anchor="middle" x="10.8" y="48.550000000000004">GND</text></g><g><line stroke="#8C8C8C" stroke-linecap="round" stroke-width="0.7087" x1="-4" x2="10.8" y1="54.0" y2="54.0" /><rect fill="#920000" height="6.0661" rx="1.1339" ry="1.1339" width="20.4661" x="0.5669" y="50.9669" /><text fill="white" font-family="Courier New" font-size="6" font-weight="bold" text-anchor="middle" x="10.8" y="55.75000000000001">3.3V</text></g><g><line stroke="#8C8C8C" stroke-linecap="round" stroke-width="0.7087" x1="-4" x2="235.8" y1="61.2" y2="61.2" /><rect fill="#E6E6E6" height="5.7118" rx="0.9567" ry="0.9567" stroke="#737373" stroke-width="0.3543" width="20.1118" x="0.7441" y="58.3441" /><text fill="black" font-family="Courier New" font-size="6" font-weight="bold" text-anchor="middle" x="10.799999999999999" y="62.95000000000001">MOSI</text><rect fill="#004949" height="6.0661" rx="1.1339" ry="1.1339" width="24.0661" x="22.1669" y="58.1669" /><text fill="white" font-family="Courier New" font-size="6" font-weight="bold" text-anchor="middle" x="34.2" y="62.95000000000001">10/A10</text><rect fill="#FFFF6D" height="6.0661" rx="1.1339" ry="1.1339" width="16.8661" x="47.3669" y="58.1669" /><text fill="black" font-family="Courier New" font-size="6" text-anchor="middle" x="55.800000000000004" y="62.95000000000001">PA10</text><rect fill="#B6DBFF" height="6.0661" rx="1.1339" ry="1.1339" width="20.4661" x="86.9669" y="58.1669" /><text fill="black" font-family="Courier New" font-size="6" text-anchor="middle" x="97.2" y="62.95000000000001">AIN18</text></g><g><line stroke="#8C8C8C" stroke-linecap="round" stroke-width="0.7087" x1="-4" x2="235.8" y1="68.4" y2="68.4" /><rect fill="#E6E6E6" height="5.7118" rx="0.9567" ry="0.9567" stroke="#737373" stroke-width="0.3543" width="20.1118" x="0.7441" y="65.5441" /><text fill="black" font-family="Courier New" font-size="6" font-weight="bold" text-anchor="middle" x="10.799999999999999" y="70.15000000000002">MISO</text><rect fill="#004949" height="6.0661" rx="1.1339" ry="1.1339" width="24.0661" x="22.1669" y="65.3669" /><text fill="white" font-family="Courier New" font-size="6" font-weight="bold" text-anchor="middle" x="34.2" y="70.15">9/A9</text><rect fill="#FFFF6D" height="6.0661" rx="1.1339" ry="1.1339" width="16.8661" x="47.3669" y="65.3669" /><text fill="black" font-family="Courier New" font-size="6" text-anchor="middle" x="55.800000000000004" y="70.15">PA09</text><rect fill="#B6DBFF" height="6.0661" rx="1.1339" ry="1.1339" width="20.4661" x="86.9669" y="65.3669" /><text fill="black" font-family="Courier New" font-size="6" text-anchor="middle" x="97.2" y="70.15">AIN17</text></g><g><line stroke="#8C8C8C" stroke-linecap="round" stroke-width="0.7087" x1="-4" x2="235.8" y1="75.6" y2="75.6" /><rect fill="#E6E6E6" height="5.7118" rx="0.9567" ry="0.9567" stroke="#737373" stroke-width="0.3543" width="20.1118" x="0.7441" y="72.7441" /><text fill="black" font-family="Courier New" font-size="6" font-weight="bold" text-anchor="middle" x="10.799999999999999" y="77.35000000000002">SCK</text><rect fill="#004949" height="6.0661" rx="1.1339" ry="1.1339" width="24.0661" x="22.1669" y="72.5669" /><text fill="white" font-family="Courier New" font-size="6" font-weight="bold" text-anchor="middle" x="34.2" y="77.35000000000001">8/A8</text><rect fill="#FFFF6D" height="6.0661" rx="1.1339" ry="1.1339" width="16.8661" x="47.3669" y="72.5669" /><text fill="black" font-family="Courier New" font-size="6" text-anchor="middle" x="55.800000000000004" y="77.35000000000001">PA11</text><rect fill="#B6DBFF" height="6.0661" rx="1.1339" ry="1.1339" width="20.4661" x="86.9669" y="72.5669" /><text fill="black" font-family="Courier New" font-size="6" text-anchor="middle" x="97.2" y="77.35000000000001">AIN19</text></g><g><line stroke="#8C8C8C" stroke-linecap="round" stroke-width="0.7087" x1="25.6" x2="-90.0" y1="90.0" y2="90.0" /><rect fill="#E6E6E6" height="5.7118" rx="0.9567" ry="0.9567" stroke="#737373" stroke-width="0.3543" width="20.1118" x="0.7441" y="87.1441" /><text fill="black" font-family="Courier New" font-size="6" font-weight="bold" text-anchor="middle" x="10.799999999999999" y="91.75000000000001">A1</text><rect fill="#004949" height="6.0661" rx="1.1339" ry="1.1339" width="24.0661" x="-24.6331" y="86.9669" /><text fill="white" font-family="Courier New" font-size="6" font-weight="bold" text-anchor="middle" x="-12.600000000000003" y="91.75">1/A1</text><rect fill="#FFFF6D" height="6.0661" rx="1.1339" ry="1.1339" width="16.8661" x="-71.4331" y="86.9669" /><text fill="black" font-family="Courier New" font-size="6" text-anchor="middle" x="-63.000000000000014" y="91.75">PA03</text></g><g><line stroke="#8C8C8C" stroke-linecap="round" stroke-width="0.7087" x1="25.6" x2="-183.6" y1="97.2" y2="97.2" /><rect fill="#E6E6E6" height="5.7118" rx="0.9567" ry="0.9567" stroke="#737373" stroke-width="0.3543" width="20.1118" x="0.7441" y="94.3441" /><text fill="black" font-family="Courier New" font-size="6" font-weight="bold" text-anchor="middle" x="10.799999999999999" y="98.95000000000002">A2</text><rect fill="#004949" height="6.0661" rx="1.1339" ry="1.1339" width="24.0661" x="-24.6331" y="94.1669" /><text fill="white" font-family="Courier New" font-size="6" font-weight="bold" text-anchor="middle" x="-12.600000000000003" y="98.95">2/A2</text><rect fill="#FFFF6D" height="6.0661" rx="1.1339" ry="1.1339" width="16.8661" x="-71.4331" y="94.1669" /><text fill="black" font-family="Courier New" font-size="6" text-anchor="middle" x="-63.000000000000014" y="98.95">PA04</text><rect fill="#B6DBFF" height="6.0661" rx="1.1339" ry="1.1339" width="20.4661" x="-93.0331" y="94.1669" /><text fill="black" font-family="Courier New" font-size="6" text-anchor="middle" x="-82.80000000000003" y="98.95">AIN4</text></g><g><line stroke="#8C8C8C" stroke-linecap="round" stroke-width="0.7087" x1="25.6" x2="-183.6" y1="104.4" y2="104.4" /><rect fill="#E6E6E6" height="5.7118" rx="0.9567" ry="0.9567" stroke="#737373" stroke-width="0.3543" width="20.1118" x="0.7441" y="101.5441" /><text fill="black" font-family="Courier New" font-size="6" font-weight="bold" text-anchor="middle" x="10.799999999999999" y="106.15000000000002">A3</text><rect fill="#004949" height="6.0661" rx="1.1339" ry="1.1339" width="24.0661" x="-24.6331" y="101.3669" /><text fill="white" font-family="Courier New" font-size="6" font-weight="bold" text-anchor="middle" x="-12.600000000000003" y="106.15">3/A3</text><rect fill="#FFFF6D" height="6.0661" rx="1.1339" ry="1.1339" width="16.8661" x="-71.4331" y="101.3669" /><text fill="black" font-family="Courier New" font-size="6" text-anchor="middle" x="-63.000000000000014" y="106.15">PA05</text><rect fill="#B6DBFF" height="6.0661" rx="1.1339" ry="1.1339" width="20.4661" x="-114.6331" y="101.3669" /><text fill="black" font-family="Courier New" font-size="6" text-anchor="middle" x="-104.40000000000002" y="106.15">AIN5</text></g><g><line stroke="#8C8C8C" stroke-linecap="round" stroke-width="0.7087" x1="25.6" x2="-183.6" y1="111.6" y2="111.6" /><rect fill="#E6E6E6" height="5.7118" rx="0.9567" ry="0.9567" stroke="#737373" stroke-width="0.3543" width="20.1118" x="0.7441" y="108.7441" /><text fill="black" font-family="Courier New" font-size="6" font-weight="bold" text-anchor="middle" x="10.799999999999999" y="113.35000000000002">SDA</text><rect fill="#004949" height="6.0661" rx="1.1339" ry="1.1339" width="24.0661" x="-24.6331" y="108.5669" /><text fill="white" font-family="Courier New" font-size="6" font-weight="bold" text-anchor="middle" x="-12.600000000000003" y="113.35000000000001">4</text><rect fill="#FFFF6D" height="6.0661" rx="1.1339" ry="1.1339" width="16.8661" x="-42.6331" y="108.5669" /><text fill="black" font-family="Courier New" font-size="6" text-anchor="middle" x="-34.2" y="113.35000000000001">PA16</text></g><g><line stroke="#8C8C8C" stroke-linecap="round" stroke-width="0.7087" x1="25.6" x2="-183.6" y1="118.8" y2="118.8" /><rect fill="#E6E6E6" height="5.7118" rx="0.9567" ry="0.9567" stroke="#737373" stroke-width="0.3543" width="20.1118" x="0.7441" y="115.9441" /><text fill="black" font-family="Courier New" font-size="6" font-weight="bold" text-anchor="middle" x="10.799999999999999" y="120.55000000000003">SCL</text><rect fill="#004949" height="6.0661" rx="1.1339" ry="1.1339" width="24.0661" x="-24.6331" y="115.7669" /><text fill="white" font-family="Courier New" font-size="6" font-weight="bold" text-anchor="middle" x="-12.600000000000003" y="120.55000000000001">5</text><rect fill="#FFFF6D" height="6.0661" rx="1.1339" ry="1.1339" width="16.8661" x="-42.6331" y="115.7669" /><text fill="black" font-family="Courier New" font-size="6" text-anchor="middle" x="-34.2" y="120.55000000000001">PA17</text></g><g><line stroke="#8C8C8C" stroke-linecap="round" stroke-width="0.7087" x1="-4" x2="10.8" y1="133.2" y2="133.2" /><rect fill="#920000" height="6.0661" rx="1.1339" ry="1.1339" width="20.4661" x="0.5669" y="130.1669" /><text fill="white" font-family="Courier New" font-size="6" font-weight="bold" text-anchor="middle" x="10.8" y="134.95000000000005">3.3V</text></g><g><line stroke="#8C8C8C" stroke-linecap="round" stroke-width="0.7087" x1="-4" x2="205.2" y1="140.4" y2="140.4" /><rect fill="#0000FF" height="6.0661" rx="1.1339" ry="1.1339" width="20.4661" x="0.5669" y="137.3669" /><text fill="white" font-family="Courier New" font-size="6" font-weight="bold" text-anchor="middle" x="10.8" y="142.15000000000003">SDA</text><rect fill="#004949" height="6.0661" rx="1.1339" ry="1.1339" width="24.0661" x="22.1669" y="137.3669" /><text fill="white" font-family="Courier New" font-size="6" font-weight="bold" text-anchor="middle" x="34.2" y="142.15000000000003">4</text><rect fill="#FFFF6D" height="6.0661" rx="1.1339" ry="1.1339" width="16.8661" x="47.3669" y="137.3669" /><text fill="black" font-family="Courier New" font-size="6" text-anchor="middle" x="55.800000000000004" y="142.15000000000003">PA16</text></g><g><line stroke="#8C8C8C" stroke-linecap="round" stroke-width="0.7087" x1="-4" x2="205.2" y1="147.6" y2="147.6" /><rect fill="#FFFF00" height="6.0661" rx="1.1339" ry="1.1339" width="20.4661" x="0.5669" y="144.5669" /><text fill="black" font-family="Courier New" font-size="6" font-weight="bold" text-anchor="middle" x="10.8" y="149.35000000000005">SCL</text><rect fill="#004949" height="6.0661" rx="1.1339" ry="1.1339" width="24.0661" x="22.1669" y="144.5669" /><text fill="white" font-family="Courier New" font-size="6" font-weight="bold" text-anchor="middle" x="34.2" y="149.35000000000005">5</text><rect fill="#FFFF6D" height="6.0661" rx="1.1339" ry="1.1339" width="16.8661" x="47.3669" y="144.5669" /><text fill="black" font-family="Courier New" font-size="6" text-anchor="middle" x="55.800000000000004" y="149.35000000000005">PA17</text></g><g><line stroke="#8C8C8C" stroke-linecap="round" stroke-width="0.7087" x1="-4" x2="10.8" y1="154.8" y2="154.8" /><rect fill="#000000" height="6.0661" rx="1.1339" ry="1.1339" width="20.4661" x="0.5669" y="151.7669" /><text fill="white" font-family="Courier New" font-size="6" font-weight="bold" text-anchor="middle" x="10.8" y="156.55000000000004">GND</text></g><g><line stroke="#8C8C8C" stroke-linecap="round" stroke-width="0.7087" x1="-4" x2="216.0" y1="162.0" y2="162.0" /><rect fill="#E6E6E6" height="5.7118" rx="0.9567" ry="0.9567" stroke="#737373" stroke-width="0.3543" width="30.9118" x="0.7441" y="159.1441" /><text fill="black" font-family="Courier New" font-size="6" font-weight="bold" text-anchor="middle" x="16.200000000000003" y="163.75000000000003">NEOPIXEL</text><rect fill="#004949" height="6.0661" rx="1.1339" ry="1.1339" width="24.0661" x="32.9669" y="158.9669" /><text fill="white" font-family="Courier New" font-size="6" font-weight="bold" text-anchor="middle" x="45.00000000000001" y="163.75000000000006">11/A11</text><rect fill="#FFFF6D" height="6.0661" rx="1.1339" ry="1.1339" width="16.8661" x="58.1669" y="158.9669" /><text fill="black" font-family="Courier New" font-size="6" text-anchor="middle" x="66.60000000000001" y="163.75000000000006">PA18</text></g><g><line stroke="#8C8C8C" stroke-linecap="round" stroke-width="0.7087" x1="-4" x2="237.6" y1="169.2" y2="169.2" /><rect fill="#E6E6E6" height="5.7118" rx="0.9567" ry="0.9567" stroke="#737373" stroke-width="0.3543" width="52.5118" x="0.7441" y="166.3441" /><text fill="black" font-family="Courier New" font-size="6" font-weight="bold" text-anchor="middle" x="27.000000000000007" y="170.95000000000002">NEOPIXEL_POWER</text><rect fill="#004949" height="6.0661" rx="1.1339" ry="1.1339" width="24.0661" x="54.5669" y="166.1669" /><text fill="white" font-family="Courier New" font-size="6" font-weight="bold" text-anchor="middle" x="66.60000000000001" y="170.95000000000005">12</text><rect fill="#FFFF6D" height="6.0661" rx="1.1339" ry="1.1339" width="16.8661" x="79.7669" y="166.1669" /><text fill="black" font-family="Courier New" font-size="6" text-anchor="middle" x="88.20000000000002" y="170.95000000000005">PA15</text></g><g><rect fill="#920000" height="6.0661" rx="1.1339" ry="1.1339" width="6.0661" x="0.5669" y="194.9669" /><text fill="black" font-family="Courier New" font-size="6" font-weight="bold" text-anchor="start" x="8.64" y="199.75000000000003">Power</text><rect fill="#000000" height="6.0661" rx="1.1339" ry="1.1339" width="6.0661" x="0.5669" y="202.1669" /><text fill="black" font-family="Courier New" font-size="6" font-weight="bold" text-anchor="start" x="8.64" y="206.95000000000002">GND</text><rect fill="#E6E6E6" height="5.7118" rx="0.9567" ry="0.9567" stroke="#737373" stroke-width="0.3543" width="5.7118" x="0.7441" y="209.5441" /><text fill="black" font-family="Courier New" font-size="6" font-weight="bold" text-anchor="start" x="8.64" y="214.15">CircuitPython Name</text><rect fill="#004949" height="6.0661" rx="1.1339" ry="1.1339" width="6.0661" x="0.5669" y="216.5669" /><text fill="black" font-family="Courier New" font-size="6" font-weight="bold" text-anchor="start" x="8.64" y="221.35">Arduino Name</text><rect fill="#FFFF6D" height="6.0661" rx="1.1339" ry="1.1339" width="6.0661" x="0.5669" y="223.7669" /><text fill="black" font-family="Courier New" font-size="6" font-weight="bold" text-anchor="start" x="8.64" y="228.54999999999998">GPIO</text><rect fill="#B6DBFF" height="6.0661" rx="1.1339" ry="1.1339" width="6.0661" x="0.5669" y="230.9669" /><text fill="black" font-family="Courier New" font-size="6" font-weight="bold" text-anchor="start" x="8.64" y="235.74999999999997">ADC</text></g><g><text fill="black" font-family="Courier New" font-size="16" font-weight="bold" text-anchor="end" x="0" y="-40">Adafruit QT Py</text><text fill="black" font-family="Courier New" font-size="12" font-weight="bold" text-anchor="end" x="0" y="-25">https://www.adafruit.com/product/4600</text></g><g><text fill="black" font-family="Courier New" font-size="6" font-weight="normal" text-anchor="start" x="0" y="267.59999999999997">The Raspberry Pi RP2040 is a dual ARM</text><text fill="black" font-family="Courier New" font-size="6" font-weight="normal" text-anchor="start" x="0" y="273.59999999999997">Cortex-M0+ running at up to 133MHz with</text><text fill="black" font-family="Courier New" font-size="6" font-weight="normal" text-anchor="start" x="0" y="279.59999999999997">264kB on-chip SRAM and built in USB.</text><text fill="black" font-family="Courier New" font-size="6" font-weight="normal" text-anchor="start" x="0" y="285.59999999999997">Flash memory is provided by external</text><text fill="black" font-family="Courier New" font-size="6" font-weight="normal" text-anchor="start" x="0" y="291.59999999999997">QSPI chip. All GPIO is 3.3V in/out max</text><text fill="black" font-family="Courier New" font-size="6" font-weight="normal" text-anchor="start" x="0" y="297.59999999999997">unless otherwise stated.</text></g></svg>