<?xml version="1.0" encoding="utf-8" ?>
<svg baseProfile="tiny" height="100" version="1.2" width="100" xmlns="http://www.w3.org/2000/svg" xmlns:ev="http://www.w3.org/2001/xml-events" xmlns:xlink="http://www.w3.org/1999/xlink"><defs /><g><line stroke="#8C8C8C" stroke-linecap="round" stroke-width="0.7087" x1="-4" x2="196.2" y1="3.6" y2="3.6" /><rect fill="#E6E6E6" height="5.7118" rx="0.9567" ry="0.9567" stroke="#737373" stroke-width="0.3543" width="20.1118" x="0.7441" y="0.7441" /><text fill="black" font-family="Courier New" font-size="6" font-weight="bold" text-anchor="middle" x="10.799999999999999" y="5.3500000000000005">A0</text><rect fill="#FFFF6D" height="6.0661" rx="1.1339" ry="1.1339" width="9.6661" x="22.1669" y="0.5669" /><text fill="black" font-family="Courier New" font-size="6" text-anchor="middle" x="27.0" y="5.3500000000000005">15</text><rect fill="#24FF24" height="6.0661" rx="1.1339" ry="1.1339" width="31.2661" x="32.9669" y="0.5669" /><text fill="black" font-family="Courier New" font-size="6" text-anchor="middle" x="48.60000000000001" y="5.3500000000000005">ADC2_CH3</text><rect fill="#009292" height="6.0661" rx="1.1339" ry="1.1339" width="27.6661" x="65.3669" y="0.5669" /><text fill="white" font-family="Courier New" font-size="6" text-anchor="middle" x="79.20000000000002" y="5.3500000000000005">HSPICS0</text><rect fill="#B6DBFF" height="6.0661" rx="1.1339" ry="1.1339" width="34.8661" x="94.1669" y="0.5669" /><text fill="black" font-family="Courier New" font-size="6" text-anchor="middle" x="111.60000000000002" y="5.3500000000000005">HS2_CMD</text><rect fill="#6DB6FF" height="6.0661" rx="1.1339" ry="1.1339" width="9.6661" x="130.1669" y="0.5669" /><text fill="black" font-family="Courier New" font-size="6" text-anchor="middle" x="135.00000000000003" y="5.3500000000000005">T3</text><rect fill="#B66DFF" height="6.0661" rx="1.1339" ry="1.1339" width="20.4661" x="140.9669" y="0.5669" /><text fill="black" font-family="Courier New" font-size="6" text-anchor="middle" x="151.20000000000005" y="5.3500000000000005">RTC13</text><rect fill="#924900" height="6.0661" rx="1.1339" ry="1.1339" width="24.0661" x="184.1669" y="0.5669" /><text fill="white" font-family="Courier New" font-size="6" text-anchor="middle" x="196.20000000000005" y="5.3500000000000005">MTDO</text></g><g><line stroke="#8C8C8C" stroke-linecap="round" stroke-width="0.7087" x1="-4" x2="10.8" y1="10.8" y2="10.8" /><rect fill="#920000" height="6.0661" rx="1.1339" ry="1.1339" width="20.4661" x="0.5669" y="7.7669" /><text fill="white" font-family="Courier New" font-size="6" font-weight="bold" text-anchor="middle" x="10.8" y="12.55">5V</text></g><g><line stroke="#8C8C8C" stroke-linecap="round" stroke-width="0.7087" x1="-4" x2="10.8" y1="32.4" y2="32.4" /><rect fill="#000000" height="6.0661" rx="1.1339" ry="1.1339" width="20.4661" x="0.5669" y="29.3669" /><text fill="white" font-family="Courier New" font-size="6" font-weight="bold" text-anchor="middle" x="10.8" y="34.150000000000006">GND</text></g><g><line stroke="#8C8C8C" stroke-linecap="round" stroke-width="0.7087" x1="-4" x2="10.8" y1="39.6" y2="39.6" /><rect fill="#920000" height="6.0661" rx="1.1339" ry="1.1339" width="20.4661" x="0.5669" y="36.5669" /><text fill="white" font-family="Courier New" font-size="6" font-weight="bold" text-anchor="middle" x="10.8" y="41.35000000000001">3.3V</text></g><g><line stroke="#8C8C8C" stroke-linecap="round" stroke-width="0.7087" x1="-4" x2="196.2" y1="46.8" y2="46.8" /><rect fill="#E6E6E6" height="5.7118" rx="0.9567" ry="0.9567" stroke="#737373" stroke-width="0.3543" width="20.1118" x="0.7441" y="43.9441" /><text fill="black" font-family="Courier New" font-size="6" font-weight="bold" text-anchor="middle" x="10.799999999999999" y="48.550000000000004">MOSI</text><rect fill="#FFFF6D" height="6.0661" rx="1.1339" ry="1.1339" width="9.6661" x="22.1669" y="43.7669" /><text fill="black" font-family="Courier New" font-size="6" text-anchor="middle" x="27.0" y="48.550000000000004">13</text><rect fill="#24FF24" height="6.0661" rx="1.1339" ry="1.1339" width="31.2661" x="32.9669" y="43.7669" /><text fill="black" font-family="Courier New" font-size="6" text-anchor="middle" x="48.60000000000001" y="48.550000000000004">ADC2_CH4</text><rect fill="#009292" height="6.0661" rx="1.1339" ry="1.1339" width="27.6661" x="65.3669" y="43.7669" /><text fill="white" font-family="Courier New" font-size="6" text-anchor="middle" x="79.20000000000002" y="48.550000000000004">HSPID</text><rect fill="#B6DBFF" height="6.0661" rx="1.1339" ry="1.1339" width="34.8661" x="94.1669" y="43.7669" /><text fill="black" font-family="Courier New" font-size="6" text-anchor="middle" x="111.60000000000002" y="48.550000000000004">HS2_DATA3</text><rect fill="#6DB6FF" height="6.0661" rx="1.1339" ry="1.1339" width="9.6661" x="130.1669" y="43.7669" /><text fill="black" font-family="Courier New" font-size="6" text-anchor="middle" x="135.00000000000003" y="48.550000000000004">T4</text><rect fill="#B66DFF" height="6.0661" rx="1.1339" ry="1.1339" width="20.4661" x="140.9669" y="43.7669" /><text fill="black" font-family="Courier New" font-size="6" text-anchor="middle" x="151.20000000000005" y="48.550000000000004">RTC14</text><rect fill="#924900" height="6.0661" rx="1.1339" ry="1.1339" width="24.0661" x="184.1669" y="43.7669" /><text fill="white" font-family="Courier New" font-size="6" text-anchor="middle" x="196.20000000000005" y="48.550000000000004">MTCK</text></g><g><line stroke="#8C8C8C" stroke-linecap="round" stroke-width="0.7087" x1="-4" x2="196.2" y1="54.0" y2="54.0" /><rect fill="#E6E6E6" height="5.7118" rx="0.9567" ry="0.9567" stroke="#737373" stroke-width="0.3543" width="20.1118" x="0.7441" y="51.1441" /><text fill="black" font-family="Courier New" font-size="6" font-weight="bold" text-anchor="middle" x="10.799999999999999" y="55.75000000000001">MISO</text><rect fill="#FFFF6D" height="6.0661" rx="1.1339" ry="1.1339" width="9.6661" x="22.1669" y="50.9669" /><text fill="black" font-family="Courier New" font-size="6" text-anchor="middle" x="27.0" y="55.75000000000001">12</text><rect fill="#24FF24" height="6.0661" rx="1.1339" ry="1.1339" width="31.2661" x="32.9669" y="50.9669" /><text fill="black" font-family="Courier New" font-size="6" text-anchor="middle" x="48.60000000000001" y="55.75000000000001">ADC2_CH5</text><rect fill="#009292" height="6.0661" rx="1.1339" ry="1.1339" width="27.6661" x="65.3669" y="50.9669" /><text fill="white" font-family="Courier New" font-size="6" text-anchor="middle" x="79.20000000000002" y="55.75000000000001">HSPIQ</text><rect fill="#B6DBFF" height="6.0661" rx="1.1339" ry="1.1339" width="34.8661" x="94.1669" y="50.9669" /><text fill="black" font-family="Courier New" font-size="6" text-anchor="middle" x="111.60000000000002" y="55.75000000000001">HS2_DATA2</text><rect fill="#6DB6FF" height="6.0661" rx="1.1339" ry="1.1339" width="9.6661" x="130.1669" y="50.9669" /><text fill="black" font-family="Courier New" font-size="6" text-anchor="middle" x="135.00000000000003" y="55.75000000000001">T5</text><rect fill="#B66DFF" height="6.0661" rx="1.1339" ry="1.1339" width="20.4661" x="140.9669" y="50.9669" /><text fill="black" font-family="Courier New" font-size="6" text-anchor="middle" x="151.20000000000005" y="55.75000000000001">RTC15</text><rect fill="#924900" height="6.0661" rx="1.1339" ry="1.1339" width="24.0661" x="184.1669" y="50.9669" /><text fill="white" font-family="Courier New" font-size="6" text-anchor="middle" x="196.20000000000005" y="55.75000000000001">MTDI</text></g><g><line stroke="#8C8C8C" stroke-linecap="round" stroke-width="0.7087" x1="-4" x2="196.2" y1="61.2" y2="61.2" /><rect fill="#E6E6E6" height="5.7118" rx="0.9567" ry="0.9567" stroke="#737373" stroke-width="0.3543" width="20.1118" x="0.7441" y="58.3441" /><text fill="black" font-family="Courier New" font-size="6" font-weight="bold" text-anchor="middle" x="10.799999999999999" y="62.95000000000001">SCK</text><rect fill="#FFFF6D" height="6.0661" rx="1.1339" ry="1.1339" width="9.6661" x="22.1669" y="58.1669" /><text fill="black" font-family="Courier New" font-size="6" text-anchor="middle" x="27.0" y="62.95000000000001">14</text><rect fill="#24FF24" height="6.0661" rx="1.1339" ry="1.1339" width="31.2661" x="32.9669" y="58.1669" /><text fill="black" font-family="Courier New" font-size="6" text-anchor="middle" x="48.60000000000001" y="62.95000000000001">ADC2_CH6</text><rect fill="#009292" height="6.0661" rx="1.1339" ry="1.1339" width="27.6661" x="65.3669" y="58.1669" /><text fill="white" font-family="Courier New" font-size="6" text-anchor="middle" x="79.20000000000002" y="62.95000000000001">HSPICLK</text><rect fill="#B6DBFF" height="6.0661" rx="1.1339" ry="1.1339" width="34.8661" x="94.1669" y="58.1669" /><text fill="black" font-family="Courier New" font-size="6" text-anchor="middle" x="111.60000000000002" y="62.95000000000001">HS2_CLK</text><rect fill="#6DB6FF" height="6.0661" rx="1.1339" ry="1.1339" width="9.6661" x="130.1669" y="58.1669" /><text fill="black" font-family="Courier New" font-size="6" text-anchor="middle" x="135.00000000000003" y="62.95000000000001">T6</text><rect fill="#B66DFF" height="6.0661" rx="1.1339" ry="1.1339" width="20.4661" x="140.9669" y="58.1669" /><text fill="black" font-family="Courier New" font-size="6" text-anchor="middle" x="151.20000000000005" y="62.95000000000001">RTC16</text><rect fill="#924900" height="6.0661" rx="1.1339" ry="1.1339" width="24.0661" x="184.1669" y="58.1669" /><text fill="white" font-family="Courier New" font-size="6" text-anchor="middle" x="196.20000000000005" y="62.95000000000001">MTMS</text></g><g><line stroke="#8C8C8C" stroke-linecap="round" stroke-width="0.7087" x1="-4" x2="172.8" y1="68.4" y2="68.4" /><rect fill="#E6E6E6" height="5.7118" rx="0.9567" ry="0.9567" stroke="#737373" stroke-width="0.3543" width="20.1118" x="0.7441" y="65.5441" /><text fill="black" font-family="Courier New" font-size="6" font-weight="bold" text-anchor="middle" x="10.799999999999999" y="70.15000000000002">RX</text><rect fill="#FFFF6D" height="6.0661" rx="1.1339" ry="1.1339" width="9.6661" x="22.1669" y="65.3669" /><text fill="black" font-family="Courier New" font-size="6" text-anchor="middle" x="27.0" y="70.15">7</text><rect fill="#009292" height="6.0661" rx="1.1339" ry="1.1339" width="27.6661" x="65.3669" y="65.3669" /><text fill="white" font-family="Courier New" font-size="6" text-anchor="middle" x="79.20000000000002" y="70.15">SPIQ</text><rect fill="#B6DBFF" height="6.0661" rx="1.1339" ry="1.1339" width="34.8661" x="94.1669" y="65.3669" /><text fill="black" font-family="Courier New" font-size="6" text-anchor="middle" x="111.60000000000002" y="70.15">HS1_DATA0</text><rect fill="#FFB6DB" height="6.0661" rx="1.1339" ry="1.1339" width="20.4661" x="162.5669" y="65.3669" /><text fill="black" font-family="Courier New" font-size="6" text-anchor="middle" x="172.80000000000004" y="70.15">U2RTS</text></g><g><line stroke="#8C8C8C" stroke-linecap="round" stroke-width="0.7087" x1="25.6" x2="10.8" y1="82.8" y2="82.8" /><rect fill="#000000" height="6.0661" rx="1.1339" ry="1.1339" width="20.4661" x="0.5669" y="79.7669" /><text fill="white" font-family="Courier New" font-size="6" font-weight="bold" text-anchor="middle" x="10.8" y="84.55000000000001">GND</text></g><g><line stroke="#8C8C8C" stroke-linecap="round" stroke-width="0.7087" x1="25.6" x2="10.8" y1="90.0" y2="90.0" /><rect fill="#920000" height="6.0661" rx="1.1339" ry="1.1339" width="20.4661" x="0.5669" y="86.9669" /><text fill="white" font-family="Courier New" font-size="6" font-weight="bold" text-anchor="middle" x="10.8" y="91.75">3.3V</text></g><g><line stroke="#8C8C8C" stroke-linecap="round" stroke-width="0.7087" x1="25.6" x2="-151.2" y1="97.2" y2="97.2" /><rect fill="#E6E6E6" height="5.7118" rx="0.9567" ry="0.9567" stroke="#737373" stroke-width="0.3543" width="20.1118" x="0.7441" y="94.3441" /><text fill="black" font-family="Courier New" font-size="6" font-weight="bold" text-anchor="middle" x="10.799999999999999" y="98.95000000000002">SDA1</text><rect fill="#FFFF6D" height="6.0661" rx="1.1339" ry="1.1339" width="9.6661" x="-10.2331" y="94.1669" /><text fill="black" font-family="Courier New" font-size="6" text-anchor="middle" x="-5.3999999999999995" y="98.95">22</text><rect fill="#009292" height="6.0661" rx="1.1339" ry="1.1339" width="27.6661" x="-71.4331" y="94.1669" /><text fill="white" font-family="Courier New" font-size="6" text-anchor="middle" x="-57.6" y="98.95">VSPIWP</text><rect fill="#FFB6DB" height="6.0661" rx="1.1339" ry="1.1339" width="20.4661" x="-161.4331" y="94.1669" /><text fill="black" font-family="Courier New" font-size="6" text-anchor="middle" x="-151.2" y="98.95">U0RTS</text></g><g><line stroke="#8C8C8C" stroke-linecap="round" stroke-width="0.7087" x1="25.6" x2="-129.6" y1="104.4" y2="104.4" /><rect fill="#E6E6E6" height="5.7118" rx="0.9567" ry="0.9567" stroke="#737373" stroke-width="0.3543" width="20.1118" x="0.7441" y="101.5441" /><text fill="black" font-family="Courier New" font-size="6" font-weight="bold" text-anchor="middle" x="10.799999999999999" y="106.15000000000002">A1</text><rect fill="#FFFF6D" height="6.0661" rx="1.1339" ry="1.1339" width="9.6661" x="-10.2331" y="101.3669" /><text fill="black" font-family="Courier New" font-size="6" text-anchor="middle" x="-5.3999999999999995" y="106.15">2</text><rect fill="#24FF24" height="6.0661" rx="1.1339" ry="1.1339" width="31.2661" x="-42.6331" y="101.3669" /><text fill="black" font-family="Courier New" font-size="6" text-anchor="middle" x="-27.0" y="106.15">ADC2_CH2</text><rect fill="#009292" height="6.0661" rx="1.1339" ry="1.1339" width="27.6661" x="-71.4331" y="101.3669" /><text fill="white" font-family="Courier New" font-size="6" text-anchor="middle" x="-57.6" y="106.15">HSPIWP</text><rect fill="#B6DBFF" height="6.0661" rx="1.1339" ry="1.1339" width="34.8661" x="-107.4331" y="101.3669" /><text fill="black" font-family="Courier New" font-size="6" text-anchor="middle" x="-90.0" y="106.15">HS2_DATA0</text><rect fill="#6DB6FF" height="6.0661" rx="1.1339" ry="1.1339" width="9.6661" x="-118.2331" y="101.3669" /><text fill="black" font-family="Courier New" font-size="6" text-anchor="middle" x="-113.39999999999999" y="106.15">T2</text><rect fill="#B66DFF" height="6.0661" rx="1.1339" ry="1.1339" width="20.4661" x="-139.8331" y="101.3669" /><text fill="black" font-family="Courier New" font-size="6" text-anchor="middle" x="-129.6" y="106.15">RTC12</text></g><g><line stroke="#8C8C8C" stroke-linecap="round" stroke-width="0.7087" x1="25.6" x2="-129.6" y1="111.6" y2="111.6" /><rect fill="#E6E6E6" height="5.7118" rx="0.9567" ry="0.9567" stroke="#737373" stroke-width="0.3543" width="20.1118" x="0.7441" y="108.7441" /><text fill="black" font-family="Courier New" font-size="6" font-weight="bold" text-anchor="middle" x="10.799999999999999" y="113.35000000000002">A2</text><rect fill="#FFFF6D" height="6.0661" rx="1.1339" ry="1.1339" width="9.6661" x="-10.2331" y="108.5669" /><text fill="black" font-family="Courier New" font-size="6" text-anchor="middle" x="-5.3999999999999995" y="113.35000000000001">27</text><rect fill="#24FF24" height="6.0661" rx="1.1339" ry="1.1339" width="31.2661" x="-42.6331" y="108.5669" /><text fill="black" font-family="Courier New" font-size="6" text-anchor="middle" x="-27.0" y="113.35000000000001">ADC2_CH7</text><rect fill="#6DB6FF" height="6.0661" rx="1.1339" ry="1.1339" width="9.6661" x="-118.2331" y="108.5669" /><text fill="black" font-family="Courier New" font-size="6" text-anchor="middle" x="-113.39999999999999" y="113.35000000000001">T7</text><rect fill="#B66DFF" height="6.0661" rx="1.1339" ry="1.1339" width="20.4661" x="-139.8331" y="108.5669" /><text fill="black" font-family="Courier New" font-size="6" text-anchor="middle" x="-129.6" y="113.35000000000001">RTC17</text></g><g><line stroke="#8C8C8C" stroke-linecap="round" stroke-width="0.7087" x1="25.6" x2="-174.6" y1="118.8" y2="118.8" /><rect fill="#E6E6E6" height="5.7118" rx="0.9567" ry="0.9567" stroke="#737373" stroke-width="0.3543" width="20.1118" x="0.7441" y="115.9441" /><text fill="black" font-family="Courier New" font-size="6" font-weight="bold" text-anchor="middle" x="10.799999999999999" y="120.55000000000003">A3</text><rect fill="#FFFF6D" height="6.0661" rx="1.1339" ry="1.1339" width="9.6661" x="-10.2331" y="115.7669" /><text fill="black" font-family="Courier New" font-size="6" text-anchor="middle" x="-5.3999999999999995" y="120.55000000000001">26</text><rect fill="#24FF24" height="6.0661" rx="1.1339" ry="1.1339" width="31.2661" x="-42.6331" y="115.7669" /><text fill="black" font-family="Courier New" font-size="6" text-anchor="middle" x="-27.0" y="120.55000000000001">ADC2_CH9</text><rect fill="#B66DFF" height="6.0661" rx="1.1339" ry="1.1339" width="20.4661" x="-139.8331" y="115.7669" /><text fill="black" font-family="Courier New" font-size="6" text-anchor="middle" x="-129.6" y="120.55000000000001">RTC7</text><rect fill="#924900" height="6.0661" rx="1.1339" ry="1.1339" width="24.0661" x="-186.6331" y="115.7669" /><text fill="white" font-family="Courier New" font-size="6" text-anchor="middle" x="-174.59999999999997" y="120.55000000000001">DAC2</text></g><g><line stroke="#8C8C8C" stroke-linecap="round" stroke-width="0.7087" x1="25.6" x2="-174.6" y1="126.0" y2="126.0" /><rect fill="#E6E6E6" height="5.7118" rx="0.9567" ry="0.9567" stroke="#737373" stroke-width="0.3543" width="20.1118" x="0.7441" y="123.1441" /><text fill="black" font-family="Courier New" font-size="6" font-weight="bold" text-anchor="middle" x="10.799999999999999" y="127.75000000000003">SDA</text><rect fill="#FFFF6D" height="6.0661" rx="1.1339" ry="1.1339" width="9.6661" x="-10.2331" y="122.9669" /><text fill="black" font-family="Courier New" font-size="6" text-anchor="middle" x="-5.3999999999999995" y="127.75000000000001">25</text><rect fill="#24FF24" height="6.0661" rx="1.1339" ry="1.1339" width="31.2661" x="-42.6331" y="122.9669" /><text fill="black" font-family="Courier New" font-size="6" text-anchor="middle" x="-27.0" y="127.75000000000001">ADC2_CH8</text><rect fill="#B66DFF" height="6.0661" rx="1.1339" ry="1.1339" width="20.4661" x="-139.8331" y="122.9669" /><text fill="black" font-family="Courier New" font-size="6" text-anchor="middle" x="-129.6" y="127.75000000000001">RTC6</text><rect fill="#924900" height="6.0661" rx="1.1339" ry="1.1339" width="24.0661" x="-186.6331" y="122.9669" /><text fill="white" font-family="Courier New" font-size="6" text-anchor="middle" x="-174.59999999999997" y="127.75000000000001">DAC1</text></g><g><line stroke="#8C8C8C" stroke-linecap="round" stroke-width="0.7087" x1="25.6" x2="-174.6" y1="133.2" y2="133.2" /><rect fill="#E6E6E6" height="5.7118" rx="0.9567" ry="0.9567" stroke="#737373" stroke-width="0.3543" width="20.1118" x="0.7441" y="130.3441" /><text fill="black" font-family="Courier New" font-size="6" font-weight="bold" text-anchor="middle" x="10.799999999999999" y="134.95000000000002">SCL</text><rect fill="#FFFF6D" height="6.0661" rx="1.1339" ry="1.1339" width="9.6661" x="-10.2331" y="130.1669" /><text fill="black" font-family="Courier New" font-size="6" text-anchor="middle" x="-5.3999999999999995" y="134.95000000000005">33</text><rect fill="#24FF24" height="6.0661" rx="1.1339" ry="1.1339" width="31.2661" x="-42.6331" y="130.1669" /><text fill="black" font-family="Courier New" font-size="6" text-anchor="middle" x="-27.0" y="134.95000000000005">ADC1_CH5</text><rect fill="#6DB6FF" height="6.0661" rx="1.1339" ry="1.1339" width="9.6661" x="-118.2331" y="130.1669" /><text fill="black" font-family="Courier New" font-size="6" text-anchor="middle" x="-113.39999999999999" y="134.95000000000005">T8</text><rect fill="#B66DFF" height="6.0661" rx="1.1339" ry="1.1339" width="20.4661" x="-139.8331" y="130.1669" /><text fill="black" font-family="Courier New" font-size="6" text-anchor="middle" x="-129.6" y="134.95000000000005">RTC8</text><rect fill="#924900" height="6.0661" rx="1.1339" ry="1.1339" width="24.0661" x="-186.6331" y="130.1669" /><text fill="white" font-family="Courier New" font-size="6" text-anchor="middle" x="-174.59999999999997" y="134.95000000000005">32K_XN</text></g><g><line stroke="#8C8C8C" stroke-linecap="round" stroke-width="0.7087" x1="25.6" x2="-174.6" y1="140.4" y2="140.4" /><rect fill="#E6E6E6" height="5.7118" rx="0.9567" ry="0.9567" stroke="#737373" stroke-width="0.3543" width="20.1118" x="0.7441" y="137.5441" /><text fill="black" font-family="Courier New" font-size="6" font-weight="bold" text-anchor="middle" x="10.799999999999999" y="142.15">TX</text><rect fill="#FFFF6D" height="6.0661" rx="1.1339" ry="1.1339" width="9.6661" x="-10.2331" y="137.3669" /><text fill="black" font-family="Courier New" font-size="6" text-anchor="middle" x="-5.3999999999999995" y="142.15000000000003">32</text><rect fill="#24FF24" height="6.0661" rx="1.1339" ry="1.1339" width="31.2661" x="-42.6331" y="137.3669" /><text fill="black" font-family="Courier New" font-size="6" text-anchor="middle" x="-27.0" y="142.15000000000003">ADC1_CH4</text><rect fill="#6DB6FF" height="6.0661" rx="1.1339" ry="1.1339" width="9.6661" x="-118.2331" y="137.3669" /><text fill="black" font-family="Courier New" font-size="6" text-anchor="middle" x="-113.39999999999999" y="142.15000000000003">T9</text><rect fill="#B66DFF" height="6.0661" rx="1.1339" ry="1.1339" width="20.4661" x="-139.8331" y="137.3669" /><text fill="black" font-family="Courier New" font-size="6" text-anchor="middle" x="-129.6" y="142.15000000000003">RTC9</text><rect fill="#924900" height="6.0661" rx="1.1339" ry="1.1339" width="24.0661" x="-186.6331" y="137.3669" /><text fill="white" font-family="Courier New" font-size="6" text-anchor="middle" x="-174.59999999999997" y="142.15000000000003">32K_XP</text></g><g><line stroke="#8C8C8C" stroke-linecap="round" stroke-width="0.7087" x1="-4" x2="10.8" y1="154.8" y2="154.8" /><rect fill="#920000" height="6.0661" rx="1.1339" ry="1.1339" width="20.4661" x="0.5669" y="151.7669" /><text fill="white" font-family="Courier New" font-size="6" font-weight="bold" text-anchor="middle" x="10.8" y="156.55000000000004">VBAT</text></g><g><line stroke="#8C8C8C" stroke-linecap="round" stroke-width="0.7087" x1="-4" x2="10.8" y1="162.0" y2="162.0" /><rect fill="#000000" height="6.0661" rx="1.1339" ry="1.1339" width="20.4661" x="0.5669" y="158.9669" /><text fill="white" font-family="Courier New" font-size="6" font-weight="bold" text-anchor="middle" x="10.8" y="163.75000000000006">GND</text></g><g><line stroke="#8C8C8C" stroke-linecap="round" stroke-width="0.7087" x1="-4" x2="172.8" y1="169.2" y2="169.2" /><rect fill="#E6E6E6" height="5.7118" rx="0.9567" ry="0.9567" stroke="#737373" stroke-width="0.3543" width="20.1118" x="0.7441" y="166.3441" /><text fill="black" font-family="Courier New" font-size="6" font-weight="bold" text-anchor="middle" x="10.799999999999999" y="170.95000000000002">SCL1</text><rect fill="#FFFF6D" height="6.0661" rx="1.1339" ry="1.1339" width="9.6661" x="22.1669" y="166.1669" /><text fill="black" font-family="Courier New" font-size="6" text-anchor="middle" x="27.0" y="170.95000000000005">19</text><rect fill="#009292" height="6.0661" rx="1.1339" ry="1.1339" width="27.6661" x="65.3669" y="166.1669" /><text fill="white" font-family="Courier New" font-size="6" text-anchor="middle" x="79.20000000000002" y="170.95000000000005">VSPIQ</text><rect fill="#FFB6DB" height="6.0661" rx="1.1339" ry="1.1339" width="20.4661" x="162.5669" y="166.1669" /><text fill="black" font-family="Courier New" font-size="6" text-anchor="middle" x="172.80000000000004" y="170.95000000000005">U0CTS</text></g><g><rect fill="#920000" height="6.0661" rx="1.1339" ry="1.1339" width="6.0661" x="0.5669" y="194.9669" /><text fill="black" font-family="Courier New" font-size="6" font-weight="bold" text-anchor="start" x="8.64" y="199.75000000000003">Power</text><rect fill="#000000" height="6.0661" rx="1.1339" ry="1.1339" width="6.0661" x="0.5669" y="202.1669" /><text fill="black" font-family="Courier New" font-size="6" font-weight="bold" text-anchor="start" x="8.64" y="206.95000000000002">GND</text><rect fill="#E6E6E6" height="5.7118" rx="0.9567" ry="0.9567" stroke="#737373" stroke-width="0.3543" width="5.7118" x="0.7441" y="209.5441" /><text fill="black" font-family="Courier New" font-size="6" font-weight="bold" text-anchor="start" x="8.64" y="214.15">CircuitPython Name</text><rect fill="#FFFF6D" height="6.0661" rx="1.1339" ry="1.1339" width="6.0661" x="0.5669" y="216.5669" /><text fill="black" font-family="Courier New" font-size="6" font-weight="bold" text-anchor="start" x="8.64" y="221.35">GPIO</text><rect fill="#24FF24" height="6.0661" rx="1.1339" ry="1.1339" width="6.0661" x="0.5669" y="223.7669" /><text fill="black" font-family="Courier New" font-size="6" font-weight="bold" text-anchor="start" x="8.64" y="228.54999999999998">ADC</text><rect fill="#009292" height="6.0661" rx="1.1339" ry="1.1339" width="6.0661" x="0.5669" y="230.9669" /><text fill="black" font-family="Courier New" font-size="6" font-weight="bold" text-anchor="start" x="8.64" y="235.74999999999997">HS/QSPI</text><rect fill="#B6DBFF" height="6.0661" rx="1.1339" ry="1.1339" width="6.0661" x="0.5669" y="238.1669" /><text fill="black" font-family="Courier New" font-size="6" font-weight="bold" text-anchor="start" x="8.64" y="242.94999999999996">SDMMC</text><rect fill="#6DB6FF" height="6.0661" rx="1.1339" ry="1.1339" width="6.0661" x="0.5669" y="245.3669" /><text fill="black" font-family="Courier New" font-size="6" font-weight="bold" text-anchor="start" x="8.64" y="250.14999999999995">Touch</text><rect fill="#B66DFF" height="6.0661" rx="1.1339" ry="1.1339" width="6.0661" x="0.5669" y="252.5669" /><text fill="black" font-family="Courier New" font-size="6" font-weight="bold" text-anchor="start" x="8.64" y="257.3499999999999">RTC</text><rect fill="#FFB6DB" height="6.0661" rx="1.1339" ry="1.1339" width="6.0661" x="0.5669" y="259.7669" /><text fill="black" font-family="Courier New" font-size="6" font-weight="bold" text-anchor="start" x="8.64" y="264.54999999999995">UART</text><rect fill="#924900" height="6.0661" rx="1.1339" ry="1.1339" width="6.0661" x="0.5669" y="266.9669" /><text fill="black" font-family="Courier New" font-size="6" font-weight="bold" text-anchor="start" x="8.64" y="271.74999999999994">Other</text></g><g><text fill="black" font-family="Courier New" font-size="16" font-weight="bold" text-anchor="end" x="0" y="-40">Adafruit QT Py ESP32 Pico</text><text fill="black" font-family="Courier New" font-size="12" font-weight="bold" text-anchor="end" x="0" y="-25">Missing product URL</text></g><g /></svg>