<?xml version="1.0" encoding="utf-8" ?>
<svg baseProfile="tiny" height="100" version="1.2" width="100" xmlns="http://www.w3.org/2000/svg" xmlns:ev="http://www.w3.org/2001/xml-events" xmlns:xlink="http://www.w3.org/1999/xlink"><defs /><g><line stroke="#8C8C8C" stroke-linecap="round" stroke-width="0.7087" x1="-4" x2="10.8" y1="18.0" y2="18.0" /><rect fill="#920000" height="6.0661" rx="1.1339" ry="1.1339" width="20.4661" x="0.5669" y="14.9669" /><text fill="white" font-family="Courier New" font-size="6" font-weight="bold" text-anchor="middle" x="10.8" y="19.750000000000004">VBUS</text></g><g><line stroke="#8C8C8C" stroke-linecap="round" stroke-width="0.7087" x1="-4" x2="145.8" y1="25.2" y2="25.2" /><rect fill="#E6E6E6" height="5.7118" rx="0.9567" ry="0.9567" stroke="#737373" stroke-width="0.3543" width="20.1118" x="0.7441" y="22.3441" /><text fill="black" font-family="Courier New" font-size="6" font-weight="bold" text-anchor="middle" x="10.799999999999999" y="26.95">D0</text><rect fill="#004949" height="6.0661" rx="1.1339" ry="1.1339" width="6.0661" x="22.1669" y="22.1669" /><text fill="white" font-family="Courier New" font-size="6" font-weight="bold" text-anchor="middle" x="25.200000000000003" y="26.950000000000003">0</text><rect fill="#FFFF6D" height="6.0661" rx="1.1339" ry="1.1339" width="13.2661" x="29.3669" y="22.1669" /><text fill="black" font-family="Courier New" font-size="6" text-anchor="middle" x="36.00000000000001" y="26.950000000000003">PB0</text><rect fill="#24FF24" height="6.0661" rx="1.1339" ry="1.1339" width="42.0661" x="43.7669" y="22.1669" /><text fill="black" font-family="Courier New" font-size="6" text-anchor="middle" x="64.80000000000001" y="26.950000000000003">PCINT0</text><rect fill="#009292" height="6.0661" rx="1.1339" ry="1.1339" width="38.4661" x="86.9669" y="22.1669" /><text fill="white" font-family="Courier New" font-size="6" text-anchor="middle" x="106.20000000000002" y="26.950000000000003">OC0A/!OC1A</text><rect fill="#6DB6FF" height="6.0661" rx="1.1339" ry="1.1339" width="16.8661" x="126.5669" y="22.1669" /><text fill="black" font-family="Courier New" font-size="6" text-anchor="middle" x="135.0" y="26.950000000000003">MOSI</text></g><g><line stroke="#8C8C8C" stroke-linecap="round" stroke-width="0.7087" x1="-4" x2="145.8" y1="32.4" y2="32.4" /><rect fill="#E6E6E6" height="5.7118" rx="0.9567" ry="0.9567" stroke="#737373" stroke-width="0.3543" width="20.1118" x="0.7441" y="29.5441" /><text fill="black" font-family="Courier New" font-size="6" font-weight="bold" text-anchor="middle" x="10.799999999999999" y="34.150000000000006">D1</text><rect fill="#004949" height="6.0661" rx="1.1339" ry="1.1339" width="6.0661" x="22.1669" y="29.3669" /><text fill="white" font-family="Courier New" font-size="6" font-weight="bold" text-anchor="middle" x="25.200000000000003" y="34.150000000000006">1</text><rect fill="#FFFF6D" height="6.0661" rx="1.1339" ry="1.1339" width="13.2661" x="29.3669" y="29.3669" /><text fill="black" font-family="Courier New" font-size="6" text-anchor="middle" x="36.00000000000001" y="34.150000000000006">PB1</text><rect fill="#24FF24" height="6.0661" rx="1.1339" ry="1.1339" width="42.0661" x="43.7669" y="29.3669" /><text fill="black" font-family="Courier New" font-size="6" text-anchor="middle" x="64.80000000000001" y="34.150000000000006">PCINT1</text><rect fill="#009292" height="6.0661" rx="1.1339" ry="1.1339" width="38.4661" x="86.9669" y="29.3669" /><text fill="white" font-family="Courier New" font-size="6" text-anchor="middle" x="106.20000000000002" y="34.150000000000006">OC0B/OC1A</text><rect fill="#6DB6FF" height="6.0661" rx="1.1339" ry="1.1339" width="16.8661" x="140.9669" y="29.3669" /><text fill="black" font-family="Courier New" font-size="6" text-anchor="middle" x="149.40000000000003" y="34.150000000000006">MISO</text></g><g><line stroke="#8C8C8C" stroke-linecap="round" stroke-width="0.7087" x1="-4" x2="160.2" y1="39.6" y2="39.6" /><rect fill="#E6E6E6" height="5.7118" rx="0.9567" ry="0.9567" stroke="#737373" stroke-width="0.3543" width="20.1118" x="0.7441" y="36.7441" /><text fill="black" font-family="Courier New" font-size="6" font-weight="bold" text-anchor="middle" x="10.799999999999999" y="41.35000000000001">D2</text><rect fill="#004949" height="6.0661" rx="1.1339" ry="1.1339" width="6.0661" x="22.1669" y="36.5669" /><text fill="white" font-family="Courier New" font-size="6" font-weight="bold" text-anchor="middle" x="25.200000000000003" y="41.35000000000001">2</text><rect fill="#FFFF6D" height="6.0661" rx="1.1339" ry="1.1339" width="13.2661" x="29.3669" y="36.5669" /><text fill="black" font-family="Courier New" font-size="6" text-anchor="middle" x="36.00000000000001" y="41.35000000000001">PB2</text><rect fill="#24FF24" height="6.0661" rx="1.1339" ry="1.1339" width="42.0661" x="43.7669" y="36.5669" /><text fill="black" font-family="Courier New" font-size="6" text-anchor="middle" x="64.80000000000001" y="41.35000000000001">INT0/PCINT2</text><rect fill="#6DB6FF" height="6.0661" rx="1.1339" ry="1.1339" width="16.8661" x="126.5669" y="36.5669" /><text fill="black" font-family="Courier New" font-size="6" text-anchor="middle" x="135.0" y="41.35000000000001">SCK</text><rect fill="#B66DFF" height="6.0661" rx="1.1339" ry="1.1339" width="9.6661" x="144.5669" y="36.5669" /><text fill="black" font-family="Courier New" font-size="6" text-anchor="middle" x="149.40000000000003" y="41.35000000000001">A1</text></g><g><line stroke="#8C8C8C" stroke-linecap="round" stroke-width="0.7087" x1="-4" x2="10.8" y1="46.8" y2="46.8" /><rect fill="#920000" height="6.0661" rx="1.1339" ry="1.1339" width="20.4661" x="0.5669" y="43.7669" /><text fill="white" font-family="Courier New" font-size="6" font-weight="bold" text-anchor="middle" x="10.8" y="48.550000000000004">5V</text></g><g><line stroke="#8C8C8C" stroke-linecap="round" stroke-width="0.7087" x1="25.6" x2="10.8" y1="61.2" y2="61.2" /><rect fill="#920000" height="6.0661" rx="1.1339" ry="1.1339" width="20.4661" x="0.5669" y="58.1669" /><text fill="white" font-family="Courier New" font-size="6" font-weight="bold" text-anchor="middle" x="10.8" y="62.95000000000001">VBAT</text></g><g><line stroke="#8C8C8C" stroke-linecap="round" stroke-width="0.7087" x1="25.6" x2="10.8" y1="68.4" y2="68.4" /><rect fill="#000000" height="6.0661" rx="1.1339" ry="1.1339" width="20.4661" x="0.5669" y="65.3669" /><text fill="white" font-family="Courier New" font-size="6" font-weight="bold" text-anchor="middle" x="10.8" y="70.15">GND</text></g><g><line stroke="#8C8C8C" stroke-linecap="round" stroke-width="0.7087" x1="25.6" x2="-151.2" y1="75.6" y2="75.6" /><rect fill="#E6E6E6" height="5.7118" rx="0.9567" ry="0.9567" stroke="#737373" stroke-width="0.3543" width="20.1118" x="0.7441" y="72.7441" /><text fill="black" font-family="Courier New" font-size="6" font-weight="bold" text-anchor="middle" x="10.799999999999999" y="77.35000000000002">D4</text><rect fill="#004949" height="6.0661" rx="1.1339" ry="1.1339" width="6.0661" x="-6.6331" y="72.5669" /><text fill="white" font-family="Courier New" font-size="6" font-weight="bold" text-anchor="middle" x="-3.6000000000000005" y="77.35000000000001">4</text><rect fill="#FFFF6D" height="6.0661" rx="1.1339" ry="1.1339" width="13.2661" x="-21.0331" y="72.5669" /><text fill="black" font-family="Courier New" font-size="6" text-anchor="middle" x="-14.400000000000002" y="77.35000000000001">PB4</text><rect fill="#24FF24" height="6.0661" rx="1.1339" ry="1.1339" width="42.0661" x="-64.2331" y="72.5669" /><text fill="black" font-family="Courier New" font-size="6" text-anchor="middle" x="-43.20000000000001" y="77.35000000000001">PCINT4</text><rect fill="#009292" height="6.0661" rx="1.1339" ry="1.1339" width="38.4661" x="-103.8331" y="72.5669" /><text fill="white" font-family="Courier New" font-size="6" text-anchor="middle" x="-84.60000000000002" y="77.35000000000001">OC1B</text><rect fill="#B66DFF" height="6.0661" rx="1.1339" ry="1.1339" width="9.6661" x="-147.0331" y="72.5669" /><text fill="black" font-family="Courier New" font-size="6" text-anchor="middle" x="-142.20000000000005" y="77.35000000000001">A2</text><rect fill="#FFB6DB" height="6.0661" rx="1.1339" ry="1.1339" width="13.2661" x="-161.4331" y="72.5669" /><text fill="black" font-family="Courier New" font-size="6" text-anchor="middle" x="-154.80000000000004" y="77.35000000000001">USB</text></g><g><line stroke="#8C8C8C" stroke-linecap="round" stroke-width="0.7087" x1="25.6" x2="-151.2" y1="82.8" y2="82.8" /><rect fill="#E6E6E6" height="5.7118" rx="0.9567" ry="0.9567" stroke="#737373" stroke-width="0.3543" width="20.1118" x="0.7441" y="79.9441" /><text fill="black" font-family="Courier New" font-size="6" font-weight="bold" text-anchor="middle" x="10.799999999999999" y="84.55000000000003">D3</text><rect fill="#004949" height="6.0661" rx="1.1339" ry="1.1339" width="6.0661" x="-6.6331" y="79.7669" /><text fill="white" font-family="Courier New" font-size="6" font-weight="bold" text-anchor="middle" x="-3.6000000000000005" y="84.55000000000001">3</text><rect fill="#FFFF6D" height="6.0661" rx="1.1339" ry="1.1339" width="13.2661" x="-21.0331" y="79.7669" /><text fill="black" font-family="Courier New" font-size="6" text-anchor="middle" x="-14.400000000000002" y="84.55000000000001">PB3</text><rect fill="#24FF24" height="6.0661" rx="1.1339" ry="1.1339" width="42.0661" x="-64.2331" y="79.7669" /><text fill="black" font-family="Courier New" font-size="6" text-anchor="middle" x="-43.20000000000001" y="84.55000000000001">PCINT3</text><rect fill="#009292" height="6.0661" rx="1.1339" ry="1.1339" width="38.4661" x="-103.8331" y="79.7669" /><text fill="white" font-family="Courier New" font-size="6" text-anchor="middle" x="-84.60000000000002" y="84.55000000000001">!OC1B</text><rect fill="#B66DFF" height="6.0661" rx="1.1339" ry="1.1339" width="9.6661" x="-147.0331" y="79.7669" /><text fill="black" font-family="Courier New" font-size="6" text-anchor="middle" x="-142.20000000000005" y="84.55000000000001">A3</text><rect fill="#FFB6DB" height="6.0661" rx="1.1339" ry="1.1339" width="13.2661" x="-161.4331" y="79.7669" /><text fill="black" font-family="Courier New" font-size="6" text-anchor="middle" x="-154.80000000000004" y="84.55000000000001">USB</text></g><g><line stroke="#8C8C8C" stroke-linecap="round" stroke-width="0.7087" x1="25.6" x2="10.8" y1="90.0" y2="90.0" /><rect fill="#490092" height="6.0661" rx="1.1339" ry="1.1339" width="20.4661" x="0.5669" y="86.9669" /><text fill="white" font-family="Courier New" font-size="6" font-weight="bold" text-anchor="middle" x="10.8" y="91.75">RESET</text></g><g><rect fill="#920000" height="6.0661" rx="1.1339" ry="1.1339" width="6.0661" x="0.5669" y="122.9669" /><text fill="black" font-family="Courier New" font-size="6" font-weight="bold" text-anchor="start" x="8.64" y="127.75000000000001">Power</text><rect fill="#000000" height="6.0661" rx="1.1339" ry="1.1339" width="6.0661" x="0.5669" y="130.1669" /><text fill="black" font-family="Courier New" font-size="6" font-weight="bold" text-anchor="start" x="8.64" y="134.95000000000002">GND</text><rect fill="#490092" height="6.0661" rx="1.1339" ry="1.1339" width="6.0661" x="0.5669" y="137.3669" /><text fill="black" font-family="Courier New" font-size="6" font-weight="bold" text-anchor="start" x="8.64" y="142.15">Control</text><rect fill="#E6E6E6" height="5.7118" rx="0.9567" ry="0.9567" stroke="#737373" stroke-width="0.3543" width="5.7118" x="0.7441" y="144.7441" /><text fill="black" font-family="Courier New" font-size="6" font-weight="bold" text-anchor="start" x="8.64" y="149.35">CircuitPython Name</text><rect fill="#004949" height="6.0661" rx="1.1339" ry="1.1339" width="6.0661" x="0.5669" y="151.7669" /><text fill="black" font-family="Courier New" font-size="6" font-weight="bold" text-anchor="start" x="8.64" y="156.54999999999998">Arduino Name</text><rect fill="#FFFF6D" height="6.0661" rx="1.1339" ry="1.1339" width="6.0661" x="0.5669" y="158.9669" /><text fill="black" font-family="Courier New" font-size="6" font-weight="bold" text-anchor="start" x="8.64" y="163.74999999999997">GPIO</text><rect fill="#24FF24" height="6.0661" rx="1.1339" ry="1.1339" width="6.0661" x="0.5669" y="166.1669" /><text fill="black" font-family="Courier New" font-size="6" font-weight="bold" text-anchor="start" x="8.64" y="170.94999999999996">INT</text><rect fill="#009292" height="6.0661" rx="1.1339" ry="1.1339" width="6.0661" x="0.5669" y="173.3669" /><text fill="black" font-family="Courier New" font-size="6" font-weight="bold" text-anchor="start" x="8.64" y="178.14999999999995">PWM</text><rect fill="#6DB6FF" height="6.0661" rx="1.1339" ry="1.1339" width="6.0661" x="0.5669" y="180.5669" /><text fill="black" font-family="Courier New" font-size="6" font-weight="bold" text-anchor="start" x="8.64" y="185.34999999999994">SPI</text><rect fill="#B66DFF" height="6.0661" rx="1.1339" ry="1.1339" width="6.0661" x="0.5669" y="187.7669" /><text fill="black" font-family="Courier New" font-size="6" font-weight="bold" text-anchor="start" x="8.64" y="192.54999999999993">ADC</text><rect fill="#FFB6DB" height="6.0661" rx="1.1339" ry="1.1339" width="6.0661" x="0.5669" y="194.9669" /><text fill="black" font-family="Courier New" font-size="6" font-weight="bold" text-anchor="start" x="8.64" y="199.74999999999991">Special</text></g><g><text fill="black" font-family="Courier New" font-size="16" font-weight="bold" text-anchor="end" x="0" y="-40">Adafruit Trinket 5V</text><text fill="black" font-family="Courier New" font-size="12" font-weight="bold" text-anchor="end" x="0" y="-25">https://www.adafruit.com/products/1501</text></g><g /></svg>