<?xml version="1.0" encoding="utf-8" ?>
<svg baseProfile="tiny" height="100" version="1.2" width="100" xmlns="http://www.w3.org/2000/svg" xmlns:ev="http://www.w3.org/2001/xml-events" xmlns:xlink="http://www.w3.org/1999/xlink"><defs /><g><line stroke="#8C8C8C" stroke-linecap="round" stroke-width="0.7087" x1="-4" x2="10.8" y1="3.6" y2="3.6" /><rect fill="#920000" height="6.0661" rx="1.1339" ry="1.1339" width="20.4661" x="0.5669" y="0.5669" /><text fill="white" font-family="Courier New" font-size="6" font-weight="bold" text-anchor="middle" x="10.8" y="5.3500000000000005">VBAT</text></g><g><line stroke="#8C8C8C" stroke-linecap="round" stroke-width="0.7087" x1="-4" x2="10.8" y1="10.8" y2="10.8" /><rect fill="#490092" height="6.0661" rx="1.1339" ry="1.1339" width="20.4661" x="0.5669" y="7.7669" /><text fill="white" font-family="Courier New" font-size="6" font-weight="bold" text-anchor="middle" x="10.8" y="12.55">EN</text></g><g><line stroke="#8C8C8C" stroke-linecap="round" stroke-width="0.7087" x1="-4" x2="10.8" y1="18.0" y2="18.0" /><rect fill="#920000" height="6.0661" rx="1.1339" ry="1.1339" width="20.4661" x="0.5669" y="14.9669" /><text fill="white" font-family="Courier New" font-size="6" font-weight="bold" text-anchor="middle" x="10.8" y="19.750000000000004">VBUS</text></g><g><line stroke="#8C8C8C" stroke-linecap="round" stroke-width="0.7087" x1="-4" x2="70.2" y1="25.2" y2="25.2" /><rect fill="#E6E6E6" height="5.7118" rx="0.9567" ry="0.9567" stroke="#737373" stroke-width="0.3543" width="20.1118" x="0.7441" y="22.3441" /><text fill="black" font-family="Courier New" font-size="6" font-weight="bold" text-anchor="middle" x="10.799999999999999" y="26.95">D13</text><rect fill="#004949" height="6.0661" rx="1.1339" ry="1.1339" width="20.4661" x="22.1669" y="22.1669" /><text fill="white" font-family="Courier New" font-size="6" font-weight="bold" text-anchor="middle" x="32.4" y="26.950000000000003">13</text><rect fill="#FFFF6D" height="6.0661" rx="1.1339" ry="1.1339" width="20.4661" x="43.7669" y="22.1669" /><text fill="black" font-family="Courier New" font-size="6" text-anchor="middle" x="54.0" y="26.950000000000003">P1.09</text><rect fill="#24FF24" height="6.0661" rx="1.1339" ry="1.1339" width="9.6661" x="65.3669" y="22.1669" /><text fill="black" font-family="Courier New" font-size="6" text-anchor="middle" x="70.20000000000002" y="26.950000000000003">HS</text></g><g><line stroke="#8C8C8C" stroke-linecap="round" stroke-width="0.7087" x1="-4" x2="70.2" y1="32.4" y2="32.4" /><rect fill="#E6E6E6" height="5.7118" rx="0.9567" ry="0.9567" stroke="#737373" stroke-width="0.3543" width="20.1118" x="0.7441" y="29.5441" /><text fill="black" font-family="Courier New" font-size="6" font-weight="bold" text-anchor="middle" x="10.799999999999999" y="34.150000000000006">D12</text><rect fill="#004949" height="6.0661" rx="1.1339" ry="1.1339" width="20.4661" x="22.1669" y="29.3669" /><text fill="white" font-family="Courier New" font-size="6" font-weight="bold" text-anchor="middle" x="32.4" y="34.150000000000006">12</text><rect fill="#FFFF6D" height="6.0661" rx="1.1339" ry="1.1339" width="20.4661" x="43.7669" y="29.3669" /><text fill="black" font-family="Courier New" font-size="6" text-anchor="middle" x="54.0" y="34.150000000000006">P0.08</text><rect fill="#24FF24" height="6.0661" rx="1.1339" ry="1.1339" width="9.6661" x="65.3669" y="29.3669" /><text fill="black" font-family="Courier New" font-size="6" text-anchor="middle" x="70.20000000000002" y="34.150000000000006">HS</text></g><g><line stroke="#8C8C8C" stroke-linecap="round" stroke-width="0.7087" x1="-4" x2="70.2" y1="39.6" y2="39.6" /><rect fill="#E6E6E6" height="5.7118" rx="0.9567" ry="0.9567" stroke="#737373" stroke-width="0.3543" width="20.1118" x="0.7441" y="36.7441" /><text fill="black" font-family="Courier New" font-size="6" font-weight="bold" text-anchor="middle" x="10.799999999999999" y="41.35000000000001">D11</text><rect fill="#004949" height="6.0661" rx="1.1339" ry="1.1339" width="20.4661" x="22.1669" y="36.5669" /><text fill="white" font-family="Courier New" font-size="6" font-weight="bold" text-anchor="middle" x="32.4" y="41.35000000000001">11</text><rect fill="#FFFF6D" height="6.0661" rx="1.1339" ry="1.1339" width="20.4661" x="43.7669" y="36.5669" /><text fill="black" font-family="Courier New" font-size="6" text-anchor="middle" x="54.0" y="41.35000000000001">P0.06</text><rect fill="#24FF24" height="6.0661" rx="1.1339" ry="1.1339" width="9.6661" x="65.3669" y="36.5669" /><text fill="black" font-family="Courier New" font-size="6" text-anchor="middle" x="70.20000000000002" y="41.35000000000001">HS</text></g><g><line stroke="#8C8C8C" stroke-linecap="round" stroke-width="0.7087" x1="-4" x2="70.2" y1="46.8" y2="46.8" /><rect fill="#E6E6E6" height="5.7118" rx="0.9567" ry="0.9567" stroke="#737373" stroke-width="0.3543" width="20.1118" x="0.7441" y="43.9441" /><text fill="black" font-family="Courier New" font-size="6" font-weight="bold" text-anchor="middle" x="10.799999999999999" y="48.550000000000004">D10</text><rect fill="#004949" height="6.0661" rx="1.1339" ry="1.1339" width="20.4661" x="22.1669" y="43.7669" /><text fill="white" font-family="Courier New" font-size="6" font-weight="bold" text-anchor="middle" x="32.4" y="48.550000000000004">10</text><rect fill="#FFFF6D" height="6.0661" rx="1.1339" ry="1.1339" width="20.4661" x="43.7669" y="43.7669" /><text fill="black" font-family="Courier New" font-size="6" text-anchor="middle" x="54.0" y="48.550000000000004">P0.27</text><rect fill="#24FF24" height="6.0661" rx="1.1339" ry="1.1339" width="9.6661" x="65.3669" y="43.7669" /><text fill="black" font-family="Courier New" font-size="6" text-anchor="middle" x="70.20000000000002" y="48.550000000000004">HS</text></g><g><line stroke="#8C8C8C" stroke-linecap="round" stroke-width="0.7087" x1="-4" x2="70.2" y1="54.0" y2="54.0" /><rect fill="#E6E6E6" height="5.7118" rx="0.9567" ry="0.9567" stroke="#737373" stroke-width="0.3543" width="20.1118" x="0.7441" y="51.1441" /><text fill="black" font-family="Courier New" font-size="6" font-weight="bold" text-anchor="middle" x="10.799999999999999" y="55.75000000000001">D9</text><rect fill="#004949" height="6.0661" rx="1.1339" ry="1.1339" width="20.4661" x="22.1669" y="50.9669" /><text fill="white" font-family="Courier New" font-size="6" font-weight="bold" text-anchor="middle" x="32.4" y="55.75000000000001">9</text><rect fill="#FFFF6D" height="6.0661" rx="1.1339" ry="1.1339" width="20.4661" x="43.7669" y="50.9669" /><text fill="black" font-family="Courier New" font-size="6" text-anchor="middle" x="54.0" y="55.75000000000001">P0.26</text><rect fill="#24FF24" height="6.0661" rx="1.1339" ry="1.1339" width="9.6661" x="65.3669" y="50.9669" /><text fill="black" font-family="Courier New" font-size="6" text-anchor="middle" x="70.20000000000002" y="55.75000000000001">HS</text></g><g><line stroke="#8C8C8C" stroke-linecap="round" stroke-width="0.7087" x1="-4" x2="70.2" y1="61.2" y2="61.2" /><rect fill="#E6E6E6" height="5.7118" rx="0.9567" ry="0.9567" stroke="#737373" stroke-width="0.3543" width="20.1118" x="0.7441" y="58.3441" /><text fill="black" font-family="Courier New" font-size="6" font-weight="bold" text-anchor="middle" x="10.799999999999999" y="62.95000000000001">D6</text><rect fill="#004949" height="6.0661" rx="1.1339" ry="1.1339" width="20.4661" x="22.1669" y="58.1669" /><text fill="white" font-family="Courier New" font-size="6" font-weight="bold" text-anchor="middle" x="32.4" y="62.95000000000001">6</text><rect fill="#FFFF6D" height="6.0661" rx="1.1339" ry="1.1339" width="20.4661" x="43.7669" y="58.1669" /><text fill="black" font-family="Courier New" font-size="6" text-anchor="middle" x="54.0" y="62.95000000000001">P0.07</text><rect fill="#24FF24" height="6.0661" rx="1.1339" ry="1.1339" width="9.6661" x="65.3669" y="58.1669" /><text fill="black" font-family="Courier New" font-size="6" text-anchor="middle" x="70.20000000000002" y="62.95000000000001">HS</text></g><g><line stroke="#8C8C8C" stroke-linecap="round" stroke-width="0.7087" x1="-4" x2="70.2" y1="68.4" y2="68.4" /><rect fill="#E6E6E6" height="5.7118" rx="0.9567" ry="0.9567" stroke="#737373" stroke-width="0.3543" width="20.1118" x="0.7441" y="65.5441" /><text fill="black" font-family="Courier New" font-size="6" font-weight="bold" text-anchor="middle" x="10.799999999999999" y="70.15000000000002">D5</text><rect fill="#004949" height="6.0661" rx="1.1339" ry="1.1339" width="20.4661" x="22.1669" y="65.3669" /><text fill="white" font-family="Courier New" font-size="6" font-weight="bold" text-anchor="middle" x="32.4" y="70.15">5</text><rect fill="#FFFF6D" height="6.0661" rx="1.1339" ry="1.1339" width="20.4661" x="43.7669" y="65.3669" /><text fill="black" font-family="Courier New" font-size="6" text-anchor="middle" x="54.0" y="70.15">P1.08</text><rect fill="#24FF24" height="6.0661" rx="1.1339" ry="1.1339" width="9.6661" x="65.3669" y="65.3669" /><text fill="black" font-family="Courier New" font-size="6" text-anchor="middle" x="70.20000000000002" y="70.15">HS</text></g><g><line stroke="#8C8C8C" stroke-linecap="round" stroke-width="0.7087" x1="-4" x2="70.2" y1="75.6" y2="75.6" /><rect fill="#E6E6E6" height="5.7118" rx="0.9567" ry="0.9567" stroke="#737373" stroke-width="0.3543" width="20.1118" x="0.7441" y="72.7441" /><text fill="black" font-family="Courier New" font-size="6" font-weight="bold" text-anchor="middle" x="10.799999999999999" y="77.35000000000002">SCL</text><rect fill="#004949" height="6.0661" rx="1.1339" ry="1.1339" width="20.4661" x="22.1669" y="72.5669" /><text fill="white" font-family="Courier New" font-size="6" font-weight="bold" text-anchor="middle" x="32.4" y="77.35000000000001">23</text><rect fill="#FFFF6D" height="6.0661" rx="1.1339" ry="1.1339" width="20.4661" x="43.7669" y="72.5669" /><text fill="black" font-family="Courier New" font-size="6" text-anchor="middle" x="54.0" y="77.35000000000001">P0.11</text><rect fill="#24FF24" height="6.0661" rx="1.1339" ry="1.1339" width="9.6661" x="65.3669" y="72.5669" /><text fill="black" font-family="Courier New" font-size="6" text-anchor="middle" x="70.20000000000002" y="77.35000000000001">HS</text></g><g><line stroke="#8C8C8C" stroke-linecap="round" stroke-width="0.7087" x1="-4" x2="70.2" y1="82.8" y2="82.8" /><rect fill="#E6E6E6" height="5.7118" rx="0.9567" ry="0.9567" stroke="#737373" stroke-width="0.3543" width="20.1118" x="0.7441" y="79.9441" /><text fill="black" font-family="Courier New" font-size="6" font-weight="bold" text-anchor="middle" x="10.799999999999999" y="84.55000000000003">SDA</text><rect fill="#004949" height="6.0661" rx="1.1339" ry="1.1339" width="20.4661" x="22.1669" y="79.7669" /><text fill="white" font-family="Courier New" font-size="6" font-weight="bold" text-anchor="middle" x="32.4" y="84.55000000000001">22</text><rect fill="#FFFF6D" height="6.0661" rx="1.1339" ry="1.1339" width="20.4661" x="43.7669" y="79.7669" /><text fill="black" font-family="Courier New" font-size="6" text-anchor="middle" x="54.0" y="84.55000000000001">P0.12</text><rect fill="#24FF24" height="6.0661" rx="1.1339" ry="1.1339" width="9.6661" x="65.3669" y="79.7669" /><text fill="black" font-family="Courier New" font-size="6" text-anchor="middle" x="70.20000000000002" y="84.55000000000001">HS</text></g><g><line stroke="#8C8C8C" stroke-linecap="round" stroke-width="0.7087" x1="25.6" x2="10.8" y1="97.2" y2="97.2" /><rect fill="#490092" height="6.0661" rx="1.1339" ry="1.1339" width="20.4661" x="0.5669" y="94.1669" /><text fill="white" font-family="Courier New" font-size="6" font-weight="bold" text-anchor="middle" x="10.8" y="98.95">RESET</text></g><g><line stroke="#8C8C8C" stroke-linecap="round" stroke-width="0.7087" x1="25.6" x2="10.8" y1="104.4" y2="104.4" /><rect fill="#920000" height="6.0661" rx="1.1339" ry="1.1339" width="20.4661" x="0.5669" y="101.3669" /><text fill="white" font-family="Courier New" font-size="6" font-weight="bold" text-anchor="middle" x="10.8" y="106.15">3.3V</text></g><g><line stroke="#8C8C8C" stroke-linecap="round" stroke-width="0.7087" x1="25.6" x2="-73.8" y1="111.6" y2="111.6" /><rect fill="#E6E6E6" height="5.7118" rx="0.9567" ry="0.9567" stroke="#737373" stroke-width="0.3543" width="20.1118" x="0.7441" y="108.7441" /><text fill="black" font-family="Courier New" font-size="6" font-weight="bold" text-anchor="middle" x="10.799999999999999" y="113.35000000000002">AREF</text><rect fill="#004949" height="6.0661" rx="1.1339" ry="1.1339" width="20.4661" x="-21.0331" y="108.5669" /><text fill="white" font-family="Courier New" font-size="6" font-weight="bold" text-anchor="middle" x="-10.800000000000002" y="113.35000000000001">21/A7</text><rect fill="#FFFF6D" height="6.0661" rx="1.1339" ry="1.1339" width="20.4661" x="-42.6331" y="108.5669" /><text fill="black" font-family="Courier New" font-size="6" text-anchor="middle" x="-32.400000000000006" y="113.35000000000001">P0.31</text><rect fill="#009292" height="6.0661" rx="1.1339" ry="1.1339" width="9.6661" x="-64.2331" y="108.5669" /><text fill="white" font-family="Courier New" font-size="6" text-anchor="middle" x="-59.4" y="113.35000000000001">LS</text><rect fill="#B6DBFF" height="6.0661" rx="1.1339" ry="1.1339" width="16.8661" x="-82.2331" y="108.5669" /><text fill="black" font-family="Courier New" font-size="6" text-anchor="middle" x="-73.8" y="113.35000000000001">AIN7</text></g><g><line stroke="#8C8C8C" stroke-linecap="round" stroke-width="0.7087" x1="25.6" x2="10.8" y1="118.8" y2="118.8" /><rect fill="#000000" height="6.0661" rx="1.1339" ry="1.1339" width="20.4661" x="0.5669" y="115.7669" /><text fill="white" font-family="Courier New" font-size="6" font-weight="bold" text-anchor="middle" x="10.8" y="120.55000000000001">GND</text></g><g><line stroke="#8C8C8C" stroke-linecap="round" stroke-width="0.7087" x1="25.6" x2="-73.8" y1="126.0" y2="126.0" /><rect fill="#E6E6E6" height="5.7118" rx="0.9567" ry="0.9567" stroke="#737373" stroke-width="0.3543" width="20.1118" x="0.7441" y="123.1441" /><text fill="black" font-family="Courier New" font-size="6" font-weight="bold" text-anchor="middle" x="10.799999999999999" y="127.75000000000003">A0</text><rect fill="#004949" height="6.0661" rx="1.1339" ry="1.1339" width="20.4661" x="-21.0331" y="122.9669" /><text fill="white" font-family="Courier New" font-size="6" font-weight="bold" text-anchor="middle" x="-10.800000000000002" y="127.75000000000001">14/A0</text><rect fill="#FFFF6D" height="6.0661" rx="1.1339" ry="1.1339" width="20.4661" x="-42.6331" y="122.9669" /><text fill="black" font-family="Courier New" font-size="6" text-anchor="middle" x="-32.400000000000006" y="127.75000000000001">P0.04</text><rect fill="#24FF24" height="6.0661" rx="1.1339" ry="1.1339" width="9.6661" x="-53.4331" y="122.9669" /><text fill="black" font-family="Courier New" font-size="6" text-anchor="middle" x="-48.6" y="127.75000000000001">HS</text><rect fill="#B6DBFF" height="6.0661" rx="1.1339" ry="1.1339" width="16.8661" x="-82.2331" y="122.9669" /><text fill="black" font-family="Courier New" font-size="6" text-anchor="middle" x="-73.8" y="127.75000000000001">AIN2</text></g><g><line stroke="#8C8C8C" stroke-linecap="round" stroke-width="0.7087" x1="25.6" x2="-73.8" y1="133.2" y2="133.2" /><rect fill="#E6E6E6" height="5.7118" rx="0.9567" ry="0.9567" stroke="#737373" stroke-width="0.3543" width="20.1118" x="0.7441" y="130.3441" /><text fill="black" font-family="Courier New" font-size="6" font-weight="bold" text-anchor="middle" x="10.799999999999999" y="134.95000000000002">A1</text><rect fill="#004949" height="6.0661" rx="1.1339" ry="1.1339" width="20.4661" x="-21.0331" y="130.1669" /><text fill="white" font-family="Courier New" font-size="6" font-weight="bold" text-anchor="middle" x="-10.800000000000002" y="134.95000000000005">15/A1</text><rect fill="#FFFF6D" height="6.0661" rx="1.1339" ry="1.1339" width="20.4661" x="-42.6331" y="130.1669" /><text fill="black" font-family="Courier New" font-size="6" text-anchor="middle" x="-32.400000000000006" y="134.95000000000005">P0.05</text><rect fill="#24FF24" height="6.0661" rx="1.1339" ry="1.1339" width="9.6661" x="-53.4331" y="130.1669" /><text fill="black" font-family="Courier New" font-size="6" text-anchor="middle" x="-48.6" y="134.95000000000005">HS</text><rect fill="#B6DBFF" height="6.0661" rx="1.1339" ry="1.1339" width="16.8661" x="-82.2331" y="130.1669" /><text fill="black" font-family="Courier New" font-size="6" text-anchor="middle" x="-73.8" y="134.95000000000005">AIN3</text></g><g><line stroke="#8C8C8C" stroke-linecap="round" stroke-width="0.7087" x1="25.6" x2="-73.8" y1="140.4" y2="140.4" /><rect fill="#E6E6E6" height="5.7118" rx="0.9567" ry="0.9567" stroke="#737373" stroke-width="0.3543" width="20.1118" x="0.7441" y="137.5441" /><text fill="black" font-family="Courier New" font-size="6" font-weight="bold" text-anchor="middle" x="10.799999999999999" y="142.15">A2</text><rect fill="#004949" height="6.0661" rx="1.1339" ry="1.1339" width="20.4661" x="-21.0331" y="137.3669" /><text fill="white" font-family="Courier New" font-size="6" font-weight="bold" text-anchor="middle" x="-10.800000000000002" y="142.15000000000003">16/A2</text><rect fill="#FFFF6D" height="6.0661" rx="1.1339" ry="1.1339" width="20.4661" x="-42.6331" y="137.3669" /><text fill="black" font-family="Courier New" font-size="6" text-anchor="middle" x="-32.400000000000006" y="142.15000000000003">P0.30</text><rect fill="#009292" height="6.0661" rx="1.1339" ry="1.1339" width="9.6661" x="-64.2331" y="137.3669" /><text fill="white" font-family="Courier New" font-size="6" text-anchor="middle" x="-59.4" y="142.15000000000003">LS</text><rect fill="#B6DBFF" height="6.0661" rx="1.1339" ry="1.1339" width="16.8661" x="-82.2331" y="137.3669" /><text fill="black" font-family="Courier New" font-size="6" text-anchor="middle" x="-73.8" y="142.15000000000003">AIN6</text></g><g><line stroke="#8C8C8C" stroke-linecap="round" stroke-width="0.7087" x1="25.6" x2="-73.8" y1="147.6" y2="147.6" /><rect fill="#E6E6E6" height="5.7118" rx="0.9567" ry="0.9567" stroke="#737373" stroke-width="0.3543" width="20.1118" x="0.7441" y="144.7441" /><text fill="black" font-family="Courier New" font-size="6" font-weight="bold" text-anchor="middle" x="10.799999999999999" y="149.35000000000002">A3</text><rect fill="#004949" height="6.0661" rx="1.1339" ry="1.1339" width="20.4661" x="-21.0331" y="144.5669" /><text fill="white" font-family="Courier New" font-size="6" font-weight="bold" text-anchor="middle" x="-10.800000000000002" y="149.35000000000005">17/A3</text><rect fill="#FFFF6D" height="6.0661" rx="1.1339" ry="1.1339" width="20.4661" x="-42.6331" y="144.5669" /><text fill="black" font-family="Courier New" font-size="6" text-anchor="middle" x="-32.400000000000006" y="149.35000000000005">P0.28</text><rect fill="#009292" height="6.0661" rx="1.1339" ry="1.1339" width="9.6661" x="-64.2331" y="144.5669" /><text fill="white" font-family="Courier New" font-size="6" text-anchor="middle" x="-59.4" y="149.35000000000005">LS</text><rect fill="#B6DBFF" height="6.0661" rx="1.1339" ry="1.1339" width="16.8661" x="-82.2331" y="144.5669" /><text fill="black" font-family="Courier New" font-size="6" text-anchor="middle" x="-73.8" y="149.35000000000005">AIN4</text></g><g><line stroke="#8C8C8C" stroke-linecap="round" stroke-width="0.7087" x1="25.6" x2="-73.8" y1="154.8" y2="154.8" /><rect fill="#E6E6E6" height="5.7118" rx="0.9567" ry="0.9567" stroke="#737373" stroke-width="0.3543" width="20.1118" x="0.7441" y="151.9441" /><text fill="black" font-family="Courier New" font-size="6" font-weight="bold" text-anchor="middle" x="10.799999999999999" y="156.55">A4</text><rect fill="#004949" height="6.0661" rx="1.1339" ry="1.1339" width="20.4661" x="-21.0331" y="151.7669" /><text fill="white" font-family="Courier New" font-size="6" font-weight="bold" text-anchor="middle" x="-10.800000000000002" y="156.55000000000004">18/A4</text><rect fill="#FFFF6D" height="6.0661" rx="1.1339" ry="1.1339" width="20.4661" x="-42.6331" y="151.7669" /><text fill="black" font-family="Courier New" font-size="6" text-anchor="middle" x="-32.400000000000006" y="156.55000000000004">P0.02</text><rect fill="#009292" height="6.0661" rx="1.1339" ry="1.1339" width="9.6661" x="-64.2331" y="151.7669" /><text fill="white" font-family="Courier New" font-size="6" text-anchor="middle" x="-59.4" y="156.55000000000004">LS</text><rect fill="#B6DBFF" height="6.0661" rx="1.1339" ry="1.1339" width="16.8661" x="-82.2331" y="151.7669" /><text fill="black" font-family="Courier New" font-size="6" text-anchor="middle" x="-73.8" y="156.55000000000004">AIN0</text></g><g><line stroke="#8C8C8C" stroke-linecap="round" stroke-width="0.7087" x1="25.6" x2="-73.8" y1="162.0" y2="162.0" /><rect fill="#E6E6E6" height="5.7118" rx="0.9567" ry="0.9567" stroke="#737373" stroke-width="0.3543" width="20.1118" x="0.7441" y="159.1441" /><text fill="black" font-family="Courier New" font-size="6" font-weight="bold" text-anchor="middle" x="10.799999999999999" y="163.75000000000003">A5</text><rect fill="#004949" height="6.0661" rx="1.1339" ry="1.1339" width="20.4661" x="-21.0331" y="158.9669" /><text fill="white" font-family="Courier New" font-size="6" font-weight="bold" text-anchor="middle" x="-10.800000000000002" y="163.75000000000006">19/A5</text><rect fill="#FFFF6D" height="6.0661" rx="1.1339" ry="1.1339" width="20.4661" x="-42.6331" y="158.9669" /><text fill="black" font-family="Courier New" font-size="6" text-anchor="middle" x="-32.400000000000006" y="163.75000000000006">P0.03</text><rect fill="#009292" height="6.0661" rx="1.1339" ry="1.1339" width="9.6661" x="-64.2331" y="158.9669" /><text fill="white" font-family="Courier New" font-size="6" text-anchor="middle" x="-59.4" y="163.75000000000006">LS</text><rect fill="#B6DBFF" height="6.0661" rx="1.1339" ry="1.1339" width="16.8661" x="-82.2331" y="158.9669" /><text fill="black" font-family="Courier New" font-size="6" text-anchor="middle" x="-73.8" y="163.75000000000006">AIN1</text></g><g><line stroke="#8C8C8C" stroke-linecap="round" stroke-width="0.7087" x1="25.6" x2="-48.6" y1="169.2" y2="169.2" /><rect fill="#E6E6E6" height="5.7118" rx="0.9567" ry="0.9567" stroke="#737373" stroke-width="0.3543" width="20.1118" x="0.7441" y="166.3441" /><text fill="black" font-family="Courier New" font-size="6" font-weight="bold" text-anchor="middle" x="10.799999999999999" y="170.95000000000002">SCK</text><rect fill="#004949" height="6.0661" rx="1.1339" ry="1.1339" width="20.4661" x="-21.0331" y="166.1669" /><text fill="white" font-family="Courier New" font-size="6" font-weight="bold" text-anchor="middle" x="-10.800000000000002" y="170.95000000000005">26</text><rect fill="#FFFF6D" height="6.0661" rx="1.1339" ry="1.1339" width="20.4661" x="-42.6331" y="166.1669" /><text fill="black" font-family="Courier New" font-size="6" text-anchor="middle" x="-32.400000000000006" y="170.95000000000005">P0.14</text><rect fill="#24FF24" height="6.0661" rx="1.1339" ry="1.1339" width="9.6661" x="-53.4331" y="166.1669" /><text fill="black" font-family="Courier New" font-size="6" text-anchor="middle" x="-48.6" y="170.95000000000005">HS</text></g><g><line stroke="#8C8C8C" stroke-linecap="round" stroke-width="0.7087" x1="25.6" x2="-48.6" y1="176.4" y2="176.4" /><rect fill="#E6E6E6" height="5.7118" rx="0.9567" ry="0.9567" stroke="#737373" stroke-width="0.3543" width="20.1118" x="0.7441" y="173.5441" /><text fill="black" font-family="Courier New" font-size="6" font-weight="bold" text-anchor="middle" x="10.799999999999999" y="178.15">MOSI</text><rect fill="#004949" height="6.0661" rx="1.1339" ry="1.1339" width="20.4661" x="-21.0331" y="173.3669" /><text fill="white" font-family="Courier New" font-size="6" font-weight="bold" text-anchor="middle" x="-10.800000000000002" y="178.15000000000003">25</text><rect fill="#FFFF6D" height="6.0661" rx="1.1339" ry="1.1339" width="20.4661" x="-42.6331" y="173.3669" /><text fill="black" font-family="Courier New" font-size="6" text-anchor="middle" x="-32.400000000000006" y="178.15000000000003">P0.13</text><rect fill="#24FF24" height="6.0661" rx="1.1339" ry="1.1339" width="9.6661" x="-53.4331" y="173.3669" /><text fill="black" font-family="Courier New" font-size="6" text-anchor="middle" x="-48.6" y="178.15000000000003">HS</text></g><g><line stroke="#8C8C8C" stroke-linecap="round" stroke-width="0.7087" x1="25.6" x2="-48.6" y1="183.6" y2="183.6" /><rect fill="#E6E6E6" height="5.7118" rx="0.9567" ry="0.9567" stroke="#737373" stroke-width="0.3543" width="20.1118" x="0.7441" y="180.7441" /><text fill="black" font-family="Courier New" font-size="6" font-weight="bold" text-anchor="middle" x="10.799999999999999" y="185.35000000000002">MISO</text><rect fill="#004949" height="6.0661" rx="1.1339" ry="1.1339" width="20.4661" x="-21.0331" y="180.5669" /><text fill="white" font-family="Courier New" font-size="6" font-weight="bold" text-anchor="middle" x="-10.800000000000002" y="185.35000000000005">24</text><rect fill="#FFFF6D" height="6.0661" rx="1.1339" ry="1.1339" width="20.4661" x="-42.6331" y="180.5669" /><text fill="black" font-family="Courier New" font-size="6" text-anchor="middle" x="-32.400000000000006" y="185.35000000000005">P0.15</text><rect fill="#24FF24" height="6.0661" rx="1.1339" ry="1.1339" width="9.6661" x="-53.4331" y="180.5669" /><text fill="black" font-family="Courier New" font-size="6" text-anchor="middle" x="-48.6" y="185.35000000000005">HS</text></g><g><line stroke="#8C8C8C" stroke-linecap="round" stroke-width="0.7087" x1="25.6" x2="-48.6" y1="190.8" y2="190.8" /><rect fill="#E6E6E6" height="5.7118" rx="0.9567" ry="0.9567" stroke="#737373" stroke-width="0.3543" width="20.1118" x="0.7441" y="187.9441" /><text fill="black" font-family="Courier New" font-size="6" font-weight="bold" text-anchor="middle" x="10.799999999999999" y="192.55">RX</text><rect fill="#004949" height="6.0661" rx="1.1339" ry="1.1339" width="20.4661" x="-21.0331" y="187.7669" /><text fill="white" font-family="Courier New" font-size="6" font-weight="bold" text-anchor="middle" x="-10.800000000000002" y="192.55000000000004">1</text><rect fill="#FFFF6D" height="6.0661" rx="1.1339" ry="1.1339" width="20.4661" x="-42.6331" y="187.7669" /><text fill="black" font-family="Courier New" font-size="6" text-anchor="middle" x="-32.400000000000006" y="192.55000000000004">P0.24</text><rect fill="#24FF24" height="6.0661" rx="1.1339" ry="1.1339" width="9.6661" x="-53.4331" y="187.7669" /><text fill="black" font-family="Courier New" font-size="6" text-anchor="middle" x="-48.6" y="192.55000000000004">HS</text></g><g><line stroke="#8C8C8C" stroke-linecap="round" stroke-width="0.7087" x1="25.6" x2="-48.6" y1="198.0" y2="198.0" /><rect fill="#E6E6E6" height="5.7118" rx="0.9567" ry="0.9567" stroke="#737373" stroke-width="0.3543" width="20.1118" x="0.7441" y="195.1441" /><text fill="black" font-family="Courier New" font-size="6" font-weight="bold" text-anchor="middle" x="10.799999999999999" y="199.75000000000003">TX</text><rect fill="#004949" height="6.0661" rx="1.1339" ry="1.1339" width="20.4661" x="-21.0331" y="194.9669" /><text fill="white" font-family="Courier New" font-size="6" font-weight="bold" text-anchor="middle" x="-10.800000000000002" y="199.75000000000006">0</text><rect fill="#FFFF6D" height="6.0661" rx="1.1339" ry="1.1339" width="20.4661" x="-42.6331" y="194.9669" /><text fill="black" font-family="Courier New" font-size="6" text-anchor="middle" x="-32.400000000000006" y="199.75000000000006">P0.25</text><rect fill="#24FF24" height="6.0661" rx="1.1339" ry="1.1339" width="9.6661" x="-53.4331" y="194.9669" /><text fill="black" font-family="Courier New" font-size="6" text-anchor="middle" x="-48.6" y="199.75000000000006">HS</text></g><g><line stroke="#8C8C8C" stroke-linecap="round" stroke-width="0.7087" x1="25.6" x2="-91.8" y1="205.2" y2="205.2" /><rect fill="#E6E6E6" height="5.7118" rx="0.9567" ry="0.9567" stroke="#737373" stroke-width="0.3543" width="20.1118" x="0.7441" y="202.3441" /><text fill="black" font-family="Courier New" font-size="6" font-weight="bold" text-anchor="middle" x="10.799999999999999" y="206.95000000000002">D2</text><rect fill="#004949" height="6.0661" rx="1.1339" ry="1.1339" width="20.4661" x="-21.0331" y="202.1669" /><text fill="white" font-family="Courier New" font-size="6" font-weight="bold" text-anchor="middle" x="-10.800000000000002" y="206.95000000000005">2</text><rect fill="#FFFF6D" height="6.0661" rx="1.1339" ry="1.1339" width="20.4661" x="-42.6331" y="202.1669" /><text fill="black" font-family="Courier New" font-size="6" text-anchor="middle" x="-32.400000000000006" y="206.95000000000005">P0.10</text><rect fill="#009292" height="6.0661" rx="1.1339" ry="1.1339" width="9.6661" x="-64.2331" y="202.1669" /><text fill="white" font-family="Courier New" font-size="6" text-anchor="middle" x="-59.4" y="206.95000000000005">LS</text><rect fill="#6DB6FF" height="6.0661" rx="1.1339" ry="1.1339" width="16.8661" x="-100.2331" y="202.1669" /><text fill="black" font-family="Courier New" font-size="6" text-anchor="middle" x="-91.8" y="206.95000000000005">NFC2</text></g><g><line stroke="#8C8C8C" stroke-linecap="round" stroke-width="0.7087" x1="-4" x2="131.4" y1="234.0" y2="234.0" /><rect fill="#E6E6E6" height="5.7118" rx="0.9567" ry="0.9567" stroke="#737373" stroke-width="0.3543" width="56.1118" x="0.7441" y="231.1441" /><text fill="black" font-family="Courier New" font-size="6" font-weight="bold" text-anchor="middle" x="28.800000000000008" y="235.75000000000003">VOLTAGE_MONITOR</text><rect fill="#004949" height="6.0661" rx="1.1339" ry="1.1339" width="20.4661" x="58.1669" y="230.9669" /><text fill="white" font-family="Courier New" font-size="6" font-weight="bold" text-anchor="middle" x="68.4" y="235.75000000000006">20/A6</text><rect fill="#FFFF6D" height="6.0661" rx="1.1339" ry="1.1339" width="20.4661" x="79.7669" y="230.9669" /><text fill="black" font-family="Courier New" font-size="6" text-anchor="middle" x="90.00000000000001" y="235.75000000000006">P0.29</text><rect fill="#009292" height="6.0661" rx="1.1339" ry="1.1339" width="9.6661" x="112.1669" y="230.9669" /><text fill="white" font-family="Courier New" font-size="6" text-anchor="middle" x="117.00000000000001" y="235.75000000000006">LS</text><rect fill="#B6DBFF" height="6.0661" rx="1.1339" ry="1.1339" width="16.8661" x="122.9669" y="230.9669" /><text fill="black" font-family="Courier New" font-size="6" text-anchor="middle" x="131.4" y="235.75000000000006">AIN5</text></g><g><line stroke="#8C8C8C" stroke-linecap="round" stroke-width="0.7087" x1="-4" x2="84.6" y1="241.2" y2="241.2" /><rect fill="#E6E6E6" height="5.7118" rx="0.9567" ry="0.9567" stroke="#737373" stroke-width="0.3543" width="23.7118" x="0.7441" y="238.3441" /><text fill="black" font-family="Courier New" font-size="6" font-weight="bold" text-anchor="middle" x="12.6" y="242.95000000000002">SWITCH</text><rect fill="#004949" height="6.0661" rx="1.1339" ry="1.1339" width="20.4661" x="25.7669" y="238.1669" /><text fill="white" font-family="Courier New" font-size="6" font-weight="bold" text-anchor="middle" x="36.0" y="242.95000000000005">7</text><rect fill="#FFFF6D" height="6.0661" rx="1.1339" ry="1.1339" width="20.4661" x="47.3669" y="238.1669" /><text fill="black" font-family="Courier New" font-size="6" text-anchor="middle" x="57.6" y="242.95000000000005">P1.02</text><rect fill="#009292" height="6.0661" rx="1.1339" ry="1.1339" width="9.6661" x="79.7669" y="238.1669" /><text fill="white" font-family="Courier New" font-size="6" text-anchor="middle" x="84.60000000000001" y="242.95000000000005">LS</text></g><g><line stroke="#8C8C8C" stroke-linecap="round" stroke-width="0.7087" x1="-4" x2="113.4" y1="248.4" y2="248.4" /><rect fill="#E6E6E6" height="5.7118" rx="0.9567" ry="0.9567" stroke="#737373" stroke-width="0.3543" width="20.1118" x="0.7441" y="245.5441" /><text fill="black" font-family="Courier New" font-size="6" font-weight="bold" text-anchor="middle" x="10.799999999999999" y="250.15000000000003">NFC1</text><rect fill="#004949" height="6.0661" rx="1.1339" ry="1.1339" width="20.4661" x="22.1669" y="245.3669" /><text fill="white" font-family="Courier New" font-size="6" font-weight="bold" text-anchor="middle" x="32.4" y="250.15000000000006">33</text><rect fill="#FFFF6D" height="6.0661" rx="1.1339" ry="1.1339" width="20.4661" x="43.7669" y="245.3669" /><text fill="black" font-family="Courier New" font-size="6" text-anchor="middle" x="54.0" y="250.15000000000006">P0.09</text><rect fill="#009292" height="6.0661" rx="1.1339" ry="1.1339" width="9.6661" x="76.1669" y="245.3669" /><text fill="white" font-family="Courier New" font-size="6" text-anchor="middle" x="81.00000000000001" y="250.15000000000006">LS</text><rect fill="#6DB6FF" height="6.0661" rx="1.1339" ry="1.1339" width="16.8661" x="104.9669" y="245.3669" /><text fill="black" font-family="Courier New" font-size="6" text-anchor="middle" x="113.4" y="250.15000000000006">NFC1</text></g><g><line stroke="#8C8C8C" stroke-linecap="round" stroke-width="0.7087" x1="-4" x2="81.0" y1="255.6" y2="255.6" /><rect fill="#E6E6E6" height="5.7118" rx="0.9567" ry="0.9567" stroke="#737373" stroke-width="0.3543" width="30.9118" x="0.7441" y="252.7441" /><text fill="black" font-family="Courier New" font-size="6" font-weight="bold" text-anchor="middle" x="16.200000000000003" y="257.35">NEOPIXEL</text><rect fill="#004949" height="6.0661" rx="1.1339" ry="1.1339" width="20.4661" x="32.9669" y="252.5669" /><text fill="white" font-family="Courier New" font-size="6" font-weight="bold" text-anchor="middle" x="43.2" y="257.35">8</text><rect fill="#FFFF6D" height="6.0661" rx="1.1339" ry="1.1339" width="20.4661" x="54.5669" y="252.5669" /><text fill="black" font-family="Courier New" font-size="6" text-anchor="middle" x="64.80000000000001" y="257.35">P0.16</text><rect fill="#24FF24" height="6.0661" rx="1.1339" ry="1.1339" width="9.6661" x="76.1669" y="252.5669" /><text fill="black" font-family="Courier New" font-size="6" text-anchor="middle" x="81.00000000000001" y="257.35">HS</text></g><g><line stroke="#8C8C8C" stroke-linecap="round" stroke-width="0.7087" x1="-4" x2="81.0" y1="262.8" y2="262.8" /><rect fill="#E6E6E6" height="5.7118" rx="0.9567" ry="0.9567" stroke="#737373" stroke-width="0.3543" width="20.1118" x="0.7441" y="259.9441" /><text fill="black" font-family="Courier New" font-size="6" font-weight="bold" text-anchor="middle" x="10.799999999999999" y="264.55000000000007">L</text><rect fill="#004949" height="6.0661" rx="1.1339" ry="1.1339" width="20.4661" x="22.1669" y="259.7669" /><text fill="white" font-family="Courier New" font-size="6" font-weight="bold" text-anchor="middle" x="32.4" y="264.55">3</text><rect fill="#FFFF6D" height="6.0661" rx="1.1339" ry="1.1339" width="20.4661" x="43.7669" y="259.7669" /><text fill="black" font-family="Courier New" font-size="6" text-anchor="middle" x="54.0" y="264.55">P1.15</text><rect fill="#009292" height="6.0661" rx="1.1339" ry="1.1339" width="9.6661" x="76.1669" y="259.7669" /><text fill="white" font-family="Courier New" font-size="6" text-anchor="middle" x="81.00000000000001" y="264.55">LS</text></g><g><line stroke="#8C8C8C" stroke-linecap="round" stroke-width="0.7087" x1="-4" x2="91.8" y1="270.0" y2="270.0" /><rect fill="#E6E6E6" height="5.7118" rx="0.9567" ry="0.9567" stroke="#737373" stroke-width="0.3543" width="30.9118" x="0.7441" y="267.1441" /><text fill="black" font-family="Courier New" font-size="6" font-weight="bold" text-anchor="middle" x="16.200000000000003" y="271.75000000000006">BLUE_LED</text><rect fill="#004949" height="6.0661" rx="1.1339" ry="1.1339" width="20.4661" x="32.9669" y="266.9669" /><text fill="white" font-family="Courier New" font-size="6" font-weight="bold" text-anchor="middle" x="43.2" y="271.75">4</text><rect fill="#FFFF6D" height="6.0661" rx="1.1339" ry="1.1339" width="20.4661" x="54.5669" y="266.9669" /><text fill="black" font-family="Courier New" font-size="6" text-anchor="middle" x="64.80000000000001" y="271.75">P1.10</text><rect fill="#009292" height="6.0661" rx="1.1339" ry="1.1339" width="9.6661" x="86.9669" y="266.9669" /><text fill="white" font-family="Courier New" font-size="6" text-anchor="middle" x="91.80000000000001" y="271.75">LS</text></g><g><rect fill="#920000" height="6.0661" rx="1.1339" ry="1.1339" width="6.0661" x="0.5669" y="295.7669" /><text fill="black" font-family="Courier New" font-size="6" font-weight="bold" text-anchor="start" x="8.64" y="300.55000000000007">Power</text><rect fill="#000000" height="6.0661" rx="1.1339" ry="1.1339" width="6.0661" x="0.5669" y="302.9669" /><text fill="black" font-family="Courier New" font-size="6" font-weight="bold" text-anchor="start" x="8.64" y="307.75000000000006">GND</text><rect fill="#490092" height="6.0661" rx="1.1339" ry="1.1339" width="6.0661" x="0.5669" y="310.1669" /><text fill="black" font-family="Courier New" font-size="6" font-weight="bold" text-anchor="start" x="8.64" y="314.95000000000005">Control</text><rect fill="#E6E6E6" height="5.7118" rx="0.9567" ry="0.9567" stroke="#737373" stroke-width="0.3543" width="5.7118" x="0.7441" y="317.5441" /><text fill="black" font-family="Courier New" font-size="6" font-weight="bold" text-anchor="start" x="8.64" y="322.15000000000003">CircuitPython Name</text><rect fill="#004949" height="6.0661" rx="1.1339" ry="1.1339" width="6.0661" x="0.5669" y="324.5669" /><text fill="black" font-family="Courier New" font-size="6" font-weight="bold" text-anchor="start" x="8.64" y="329.35">Arduino Name</text><rect fill="#FFFF6D" height="6.0661" rx="1.1339" ry="1.1339" width="6.0661" x="0.5669" y="331.7669" /><text fill="black" font-family="Courier New" font-size="6" font-weight="bold" text-anchor="start" x="8.64" y="336.55">GPIO</text><rect fill="#24FF24" height="6.0661" rx="1.1339" ry="1.1339" width="6.0661" x="0.5669" y="338.9669" /><text fill="black" font-family="Courier New" font-size="6" font-weight="bold" text-anchor="start" x="8.64" y="343.75">High Speed</text><rect fill="#009292" height="6.0661" rx="1.1339" ry="1.1339" width="6.0661" x="0.5669" y="346.1669" /><text fill="black" font-family="Courier New" font-size="6" font-weight="bold" text-anchor="start" x="8.64" y="350.95">Low Speed</text><rect fill="#B6DBFF" height="6.0661" rx="1.1339" ry="1.1339" width="6.0661" x="0.5669" y="353.3669" /><text fill="black" font-family="Courier New" font-size="6" font-weight="bold" text-anchor="start" x="8.64" y="358.15">ADC</text><rect fill="#6DB6FF" height="6.0661" rx="1.1339" ry="1.1339" width="6.0661" x="0.5669" y="360.5669" /><text fill="black" font-family="Courier New" font-size="6" font-weight="bold" text-anchor="start" x="8.64" y="365.34999999999997">Special</text></g><g><text fill="black" font-family="Courier New" font-size="16" font-weight="bold" text-anchor="end" x="0" y="-40">Adafruit Feather nRF52840</text><text fill="black" font-family="Courier New" font-size="12" font-weight="bold" text-anchor="end" x="0" y="-25">https://www.adafruit.com/product/4062</text></g><g><text fill="black" font-family="Courier New" font-size="6" font-weight="normal" text-anchor="start" x="0" y="397.19999999999993">The Nordic nRF52840 is an ARM Cortex-M4</text><text fill="black" font-family="Courier New" font-size="6" font-weight="normal" text-anchor="start" x="0" y="403.19999999999993">running at 64MHz with 256kB on-chip</text><text fill="black" font-family="Courier New" font-size="6" font-weight="normal" text-anchor="start" x="0" y="409.19999999999993">SRAM, 1MB of Flash memory and built-in</text><text fill="black" font-family="Courier New" font-size="6" font-weight="normal" text-anchor="start" x="0" y="415.19999999999993">Bluetooth Low Energy and native USB. Any</text><text fill="black" font-family="Courier New" font-size="6" font-weight="normal" text-anchor="start" x="0" y="421.19999999999993">pin can be used for</text><text fill="black" font-family="Courier New" font-size="6" font-weight="normal" text-anchor="start" x="0" y="427.19999999999993">I2C/SPI/UART/I2S/PDM/etc peripheral</text><text fill="black" font-family="Courier New" font-size="6" font-weight="normal" text-anchor="start" x="0" y="433.19999999999993">usage. LS pins can interfere with radio</text><text fill="black" font-family="Courier New" font-size="6" font-weight="normal" text-anchor="start" x="0" y="439.19999999999993">reception when over 10 Khz, however they</text><text fill="black" font-family="Courier New" font-size="6" font-weight="normal" text-anchor="start" x="0" y="445.19999999999993">are not restricted from going faster.</text><text fill="black" font-family="Courier New" font-size="6" font-weight="normal" text-anchor="start" x="0" y="451.19999999999993">All GPIO is 3.3V in/out max unless</text><text fill="black" font-family="Courier New" font-size="6" font-weight="normal" text-anchor="start" x="0" y="457.19999999999993">otherwise stated.</text></g></svg>