<?xml version="1.0" encoding="utf-8" ?>
<svg baseProfile="tiny" height="100" version="1.2" width="100" xmlns="http://www.w3.org/2000/svg" xmlns:ev="http://www.w3.org/2001/xml-events" xmlns:xlink="http://www.w3.org/1999/xlink"><defs /><g><line stroke="#8C8C8C" stroke-linecap="round" stroke-width="0.7087" x1="-4" x2="10.8" y1="3.6" y2="3.6" /><rect fill="#920000" height="6.0661" rx="1.1339" ry="1.1339" width="20.4661" x="0.5669" y="0.5669" /><text fill="white" font-family="Courier New" font-size="6" font-weight="bold" text-anchor="middle" x="10.8" y="5.3500000000000005">VBAT</text></g><g><line stroke="#8C8C8C" stroke-linecap="round" stroke-width="0.7087" x1="-4" x2="10.8" y1="10.8" y2="10.8" /><rect fill="#000000" height="6.0661" rx="1.1339" ry="1.1339" width="20.4661" x="0.5669" y="7.7669" /><text fill="white" font-family="Courier New" font-size="6" font-weight="bold" text-anchor="middle" x="10.8" y="12.55">GND</text></g><g><line stroke="#8C8C8C" stroke-linecap="round" stroke-width="0.7087" x1="-4" x2="10.8" y1="18.0" y2="18.0" /><rect fill="#920000" height="6.0661" rx="1.1339" ry="1.1339" width="20.4661" x="0.5669" y="14.9669" /><text fill="white" font-family="Courier New" font-size="6" font-weight="bold" text-anchor="middle" x="10.8" y="19.750000000000004">VBUS</text></g><g><line stroke="#8C8C8C" stroke-linecap="round" stroke-width="0.7087" x1="-4" x2="120.6" y1="25.2" y2="25.2" /><rect fill="#E6E6E6" height="5.7118" rx="0.9567" ry="0.9567" stroke="#737373" stroke-width="0.3543" width="20.1118" x="0.7441" y="22.3441" /><text fill="black" font-family="Courier New" font-size="6" font-weight="bold" text-anchor="middle" x="10.799999999999999" y="26.95">D13</text><rect fill="#004949" height="6.0661" rx="1.1339" ry="1.1339" width="9.6661" x="22.1669" y="22.1669" /><text fill="white" font-family="Courier New" font-size="6" font-weight="bold" text-anchor="middle" x="27.0" y="26.950000000000003">13</text><rect fill="#FFFF6D" height="6.0661" rx="1.1339" ry="1.1339" width="13.2661" x="32.9669" y="22.1669" /><text fill="black" font-family="Courier New" font-size="6" text-anchor="middle" x="39.60000000000001" y="26.950000000000003">PC7</text><rect fill="#6DB6FF" height="6.0661" rx="1.1339" ry="1.1339" width="38.4661" x="104.9669" y="22.1669" /><text fill="black" font-family="Courier New" font-size="6" text-anchor="middle" x="124.20000000000002" y="26.950000000000003">OC4A</text></g><g><line stroke="#8C8C8C" stroke-linecap="round" stroke-width="0.7087" x1="-4" x2="120.6" y1="32.4" y2="32.4" /><rect fill="#E6E6E6" height="5.7118" rx="0.9567" ry="0.9567" stroke="#737373" stroke-width="0.3543" width="20.1118" x="0.7441" y="29.5441" /><text fill="black" font-family="Courier New" font-size="6" font-weight="bold" text-anchor="middle" x="10.799999999999999" y="34.150000000000006">D12</text><rect fill="#004949" height="6.0661" rx="1.1339" ry="1.1339" width="9.6661" x="22.1669" y="29.3669" /><text fill="white" font-family="Courier New" font-size="6" font-weight="bold" text-anchor="middle" x="27.0" y="34.150000000000006">12</text><rect fill="#FFFF6D" height="6.0661" rx="1.1339" ry="1.1339" width="13.2661" x="32.9669" y="29.3669" /><text fill="black" font-family="Courier New" font-size="6" text-anchor="middle" x="39.60000000000001" y="34.150000000000006">PD6</text><rect fill="#24FF24" height="6.0661" rx="1.1339" ry="1.1339" width="13.2661" x="47.3669" y="29.3669" /><text fill="black" font-family="Courier New" font-size="6" text-anchor="middle" x="54.000000000000014" y="34.150000000000006">A11</text><rect fill="#6DB6FF" height="6.0661" rx="1.1339" ry="1.1339" width="38.4661" x="104.9669" y="29.3669" /><text fill="black" font-family="Courier New" font-size="6" text-anchor="middle" x="124.20000000000002" y="34.150000000000006">!OC4D</text></g><g><line stroke="#8C8C8C" stroke-linecap="round" stroke-width="0.7087" x1="-4" x2="120.6" y1="39.6" y2="39.6" /><rect fill="#E6E6E6" height="5.7118" rx="0.9567" ry="0.9567" stroke="#737373" stroke-width="0.3543" width="20.1118" x="0.7441" y="36.7441" /><text fill="black" font-family="Courier New" font-size="6" font-weight="bold" text-anchor="middle" x="10.799999999999999" y="41.35000000000001">D11</text><rect fill="#004949" height="6.0661" rx="1.1339" ry="1.1339" width="9.6661" x="22.1669" y="36.5669" /><text fill="white" font-family="Courier New" font-size="6" font-weight="bold" text-anchor="middle" x="27.0" y="41.35000000000001">11</text><rect fill="#FFFF6D" height="6.0661" rx="1.1339" ry="1.1339" width="13.2661" x="32.9669" y="36.5669" /><text fill="black" font-family="Courier New" font-size="6" text-anchor="middle" x="39.60000000000001" y="41.35000000000001">PB7</text><rect fill="#B6DBFF" height="6.0661" rx="1.1339" ry="1.1339" width="24.0661" x="79.7669" y="36.5669" /><text fill="black" font-family="Courier New" font-size="6" text-anchor="middle" x="91.80000000000001" y="41.35000000000001">PCINT7</text><rect fill="#6DB6FF" height="6.0661" rx="1.1339" ry="1.1339" width="38.4661" x="104.9669" y="36.5669" /><text fill="black" font-family="Courier New" font-size="6" text-anchor="middle" x="124.20000000000002" y="41.35000000000001">OC0A/OC1C</text></g><g><line stroke="#8C8C8C" stroke-linecap="round" stroke-width="0.7087" x1="-4" x2="120.6" y1="46.8" y2="46.8" /><rect fill="#E6E6E6" height="5.7118" rx="0.9567" ry="0.9567" stroke="#737373" stroke-width="0.3543" width="20.1118" x="0.7441" y="43.9441" /><text fill="black" font-family="Courier New" font-size="6" font-weight="bold" text-anchor="middle" x="10.799999999999999" y="48.550000000000004">D10</text><rect fill="#004949" height="6.0661" rx="1.1339" ry="1.1339" width="9.6661" x="22.1669" y="43.7669" /><text fill="white" font-family="Courier New" font-size="6" font-weight="bold" text-anchor="middle" x="27.0" y="48.550000000000004">10</text><rect fill="#FFFF6D" height="6.0661" rx="1.1339" ry="1.1339" width="13.2661" x="32.9669" y="43.7669" /><text fill="black" font-family="Courier New" font-size="6" text-anchor="middle" x="39.60000000000001" y="48.550000000000004">PB6</text><rect fill="#24FF24" height="6.0661" rx="1.1339" ry="1.1339" width="13.2661" x="47.3669" y="43.7669" /><text fill="black" font-family="Courier New" font-size="6" text-anchor="middle" x="54.000000000000014" y="48.550000000000004">A10</text><rect fill="#B6DBFF" height="6.0661" rx="1.1339" ry="1.1339" width="24.0661" x="79.7669" y="43.7669" /><text fill="black" font-family="Courier New" font-size="6" text-anchor="middle" x="91.80000000000001" y="48.550000000000004">PCINT6</text><rect fill="#6DB6FF" height="6.0661" rx="1.1339" ry="1.1339" width="38.4661" x="104.9669" y="43.7669" /><text fill="black" font-family="Courier New" font-size="6" text-anchor="middle" x="124.20000000000002" y="48.550000000000004">OC1B/OC4B</text></g><g><line stroke="#8C8C8C" stroke-linecap="round" stroke-width="0.7087" x1="-4" x2="120.6" y1="54.0" y2="54.0" /><rect fill="#E6E6E6" height="5.7118" rx="0.9567" ry="0.9567" stroke="#737373" stroke-width="0.3543" width="20.1118" x="0.7441" y="51.1441" /><text fill="black" font-family="Courier New" font-size="6" font-weight="bold" text-anchor="middle" x="10.799999999999999" y="55.75000000000001">D9</text><rect fill="#004949" height="6.0661" rx="1.1339" ry="1.1339" width="9.6661" x="22.1669" y="50.9669" /><text fill="white" font-family="Courier New" font-size="6" font-weight="bold" text-anchor="middle" x="27.0" y="55.75000000000001">9</text><rect fill="#FFFF6D" height="6.0661" rx="1.1339" ry="1.1339" width="13.2661" x="32.9669" y="50.9669" /><text fill="black" font-family="Courier New" font-size="6" text-anchor="middle" x="39.60000000000001" y="55.75000000000001">PB5</text><rect fill="#24FF24" height="6.0661" rx="1.1339" ry="1.1339" width="13.2661" x="47.3669" y="50.9669" /><text fill="black" font-family="Courier New" font-size="6" text-anchor="middle" x="54.000000000000014" y="55.75000000000001">A9</text><rect fill="#B6DBFF" height="6.0661" rx="1.1339" ry="1.1339" width="24.0661" x="79.7669" y="50.9669" /><text fill="black" font-family="Courier New" font-size="6" text-anchor="middle" x="91.80000000000001" y="55.75000000000001">PCINT5</text><rect fill="#6DB6FF" height="6.0661" rx="1.1339" ry="1.1339" width="38.4661" x="104.9669" y="50.9669" /><text fill="black" font-family="Courier New" font-size="6" text-anchor="middle" x="124.20000000000002" y="55.75000000000001">OC1A/!OC4B</text></g><g><line stroke="#8C8C8C" stroke-linecap="round" stroke-width="0.7087" x1="-4" x2="88.2" y1="61.2" y2="61.2" /><rect fill="#E6E6E6" height="5.7118" rx="0.9567" ry="0.9567" stroke="#737373" stroke-width="0.3543" width="20.1118" x="0.7441" y="58.3441" /><text fill="black" font-family="Courier New" font-size="6" font-weight="bold" text-anchor="middle" x="10.799999999999999" y="62.95000000000001">D7</text><rect fill="#004949" height="6.0661" rx="1.1339" ry="1.1339" width="9.6661" x="22.1669" y="58.1669" /><text fill="white" font-family="Courier New" font-size="6" font-weight="bold" text-anchor="middle" x="27.0" y="62.95000000000001">7</text><rect fill="#FFFF6D" height="6.0661" rx="1.1339" ry="1.1339" width="13.2661" x="32.9669" y="58.1669" /><text fill="black" font-family="Courier New" font-size="6" text-anchor="middle" x="39.60000000000001" y="62.95000000000001">PE6</text><rect fill="#B6DBFF" height="6.0661" rx="1.1339" ry="1.1339" width="24.0661" x="79.7669" y="58.1669" /><text fill="black" font-family="Courier New" font-size="6" text-anchor="middle" x="91.80000000000001" y="62.95000000000001">INT6</text></g><g><line stroke="#8C8C8C" stroke-linecap="round" stroke-width="0.7087" x1="-4" x2="120.6" y1="68.4" y2="68.4" /><rect fill="#E6E6E6" height="5.7118" rx="0.9567" ry="0.9567" stroke="#737373" stroke-width="0.3543" width="20.1118" x="0.7441" y="65.5441" /><text fill="black" font-family="Courier New" font-size="6" font-weight="bold" text-anchor="middle" x="10.799999999999999" y="70.15000000000002">D5</text><rect fill="#004949" height="6.0661" rx="1.1339" ry="1.1339" width="9.6661" x="22.1669" y="65.3669" /><text fill="white" font-family="Courier New" font-size="6" font-weight="bold" text-anchor="middle" x="27.0" y="70.15">5</text><rect fill="#FFFF6D" height="6.0661" rx="1.1339" ry="1.1339" width="13.2661" x="32.9669" y="65.3669" /><text fill="black" font-family="Courier New" font-size="6" text-anchor="middle" x="39.60000000000001" y="70.15">PC6</text><rect fill="#6DB6FF" height="6.0661" rx="1.1339" ry="1.1339" width="38.4661" x="104.9669" y="65.3669" /><text fill="black" font-family="Courier New" font-size="6" text-anchor="middle" x="124.20000000000002" y="70.15">OC3A/OC4A</text></g><g><line stroke="#8C8C8C" stroke-linecap="round" stroke-width="0.7087" x1="-4" x2="120.6" y1="75.6" y2="75.6" /><rect fill="#E6E6E6" height="5.7118" rx="0.9567" ry="0.9567" stroke="#737373" stroke-width="0.3543" width="20.1118" x="0.7441" y="72.7441" /><text fill="black" font-family="Courier New" font-size="6" font-weight="bold" text-anchor="middle" x="10.799999999999999" y="77.35000000000002">SCL</text><rect fill="#004949" height="6.0661" rx="1.1339" ry="1.1339" width="9.6661" x="22.1669" y="72.5669" /><text fill="white" font-family="Courier New" font-size="6" font-weight="bold" text-anchor="middle" x="27.0" y="77.35000000000001">3</text><rect fill="#FFFF6D" height="6.0661" rx="1.1339" ry="1.1339" width="13.2661" x="32.9669" y="72.5669" /><text fill="black" font-family="Courier New" font-size="6" text-anchor="middle" x="39.60000000000001" y="77.35000000000001">PD0</text><rect fill="#009292" height="6.0661" rx="1.1339" ry="1.1339" width="16.8661" x="61.7669" y="72.5669" /><text fill="white" font-family="Courier New" font-size="6" text-anchor="middle" x="70.20000000000002" y="77.35000000000001">SCL</text><rect fill="#B6DBFF" height="6.0661" rx="1.1339" ry="1.1339" width="24.0661" x="79.7669" y="72.5669" /><text fill="black" font-family="Courier New" font-size="6" text-anchor="middle" x="91.80000000000001" y="77.35000000000001">INT0</text><rect fill="#6DB6FF" height="6.0661" rx="1.1339" ry="1.1339" width="38.4661" x="104.9669" y="72.5669" /><text fill="black" font-family="Courier New" font-size="6" text-anchor="middle" x="124.20000000000002" y="77.35000000000001">OC0B</text></g><g><line stroke="#8C8C8C" stroke-linecap="round" stroke-width="0.7087" x1="-4" x2="88.2" y1="82.8" y2="82.8" /><rect fill="#E6E6E6" height="5.7118" rx="0.9567" ry="0.9567" stroke="#737373" stroke-width="0.3543" width="20.1118" x="0.7441" y="79.9441" /><text fill="black" font-family="Courier New" font-size="6" font-weight="bold" text-anchor="middle" x="10.799999999999999" y="84.55000000000003">SDA</text><rect fill="#004949" height="6.0661" rx="1.1339" ry="1.1339" width="9.6661" x="22.1669" y="79.7669" /><text fill="white" font-family="Courier New" font-size="6" font-weight="bold" text-anchor="middle" x="27.0" y="84.55000000000001">2</text><rect fill="#FFFF6D" height="6.0661" rx="1.1339" ry="1.1339" width="13.2661" x="32.9669" y="79.7669" /><text fill="black" font-family="Courier New" font-size="6" text-anchor="middle" x="39.60000000000001" y="84.55000000000001">PD1</text><rect fill="#009292" height="6.0661" rx="1.1339" ry="1.1339" width="16.8661" x="61.7669" y="79.7669" /><text fill="white" font-family="Courier New" font-size="6" text-anchor="middle" x="70.20000000000002" y="84.55000000000001">SDA</text><rect fill="#B6DBFF" height="6.0661" rx="1.1339" ry="1.1339" width="24.0661" x="79.7669" y="79.7669" /><text fill="black" font-family="Courier New" font-size="6" text-anchor="middle" x="91.80000000000001" y="84.55000000000001">INT1</text></g><g><line stroke="#8C8C8C" stroke-linecap="round" stroke-width="0.7087" x1="-4" x2="88.2" y1="90.0" y2="90.0" /><rect fill="#E6E6E6" height="5.7118" rx="0.9567" ry="0.9567" stroke="#737373" stroke-width="0.3543" width="20.1118" x="0.7441" y="87.1441" /><text fill="black" font-family="Courier New" font-size="6" font-weight="bold" text-anchor="middle" x="10.799999999999999" y="91.75000000000001">D1</text><rect fill="#004949" height="6.0661" rx="1.1339" ry="1.1339" width="9.6661" x="22.1669" y="86.9669" /><text fill="white" font-family="Courier New" font-size="6" font-weight="bold" text-anchor="middle" x="27.0" y="91.75">1</text><rect fill="#FFFF6D" height="6.0661" rx="1.1339" ry="1.1339" width="13.2661" x="32.9669" y="86.9669" /><text fill="black" font-family="Courier New" font-size="6" text-anchor="middle" x="39.60000000000001" y="91.75">PD3</text><rect fill="#009292" height="6.0661" rx="1.1339" ry="1.1339" width="16.8661" x="61.7669" y="86.9669" /><text fill="white" font-family="Courier New" font-size="6" text-anchor="middle" x="70.20000000000002" y="91.75">TX</text><rect fill="#B6DBFF" height="6.0661" rx="1.1339" ry="1.1339" width="24.0661" x="79.7669" y="86.9669" /><text fill="black" font-family="Courier New" font-size="6" text-anchor="middle" x="91.80000000000001" y="91.75">INT3</text></g><g><line stroke="#8C8C8C" stroke-linecap="round" stroke-width="0.7087" x1="-4" x2="88.2" y1="97.2" y2="97.2" /><rect fill="#E6E6E6" height="5.7118" rx="0.9567" ry="0.9567" stroke="#737373" stroke-width="0.3543" width="20.1118" x="0.7441" y="94.3441" /><text fill="black" font-family="Courier New" font-size="6" font-weight="bold" text-anchor="middle" x="10.799999999999999" y="98.95000000000002">D0</text><rect fill="#004949" height="6.0661" rx="1.1339" ry="1.1339" width="9.6661" x="22.1669" y="94.1669" /><text fill="white" font-family="Courier New" font-size="6" font-weight="bold" text-anchor="middle" x="27.0" y="98.95">0</text><rect fill="#FFFF6D" height="6.0661" rx="1.1339" ry="1.1339" width="13.2661" x="32.9669" y="94.1669" /><text fill="black" font-family="Courier New" font-size="6" text-anchor="middle" x="39.60000000000001" y="98.95">PD2</text><rect fill="#009292" height="6.0661" rx="1.1339" ry="1.1339" width="16.8661" x="61.7669" y="94.1669" /><text fill="white" font-family="Courier New" font-size="6" text-anchor="middle" x="70.20000000000002" y="98.95">RX</text><rect fill="#B6DBFF" height="6.0661" rx="1.1339" ry="1.1339" width="24.0661" x="79.7669" y="94.1669" /><text fill="black" font-family="Courier New" font-size="6" text-anchor="middle" x="91.80000000000001" y="98.95">INT2</text></g><g><line stroke="#8C8C8C" stroke-linecap="round" stroke-width="0.7087" x1="-4" x2="50.4" y1="104.4" y2="104.4" /><rect fill="#E6E6E6" height="5.7118" rx="0.9567" ry="0.9567" stroke="#737373" stroke-width="0.3543" width="20.1118" x="0.7441" y="101.5441" /><text fill="black" font-family="Courier New" font-size="6" font-weight="bold" text-anchor="middle" x="10.799999999999999" y="106.15000000000002">D4</text><rect fill="#004949" height="6.0661" rx="1.1339" ry="1.1339" width="9.6661" x="22.1669" y="101.3669" /><text fill="white" font-family="Courier New" font-size="6" font-weight="bold" text-anchor="middle" x="27.0" y="106.15">4</text><rect fill="#FFFF6D" height="6.0661" rx="1.1339" ry="1.1339" width="13.2661" x="32.9669" y="101.3669" /><text fill="black" font-family="Courier New" font-size="6" text-anchor="middle" x="39.60000000000001" y="106.15">PD4</text><rect fill="#24FF24" height="6.0661" rx="1.1339" ry="1.1339" width="13.2661" x="47.3669" y="101.3669" /><text fill="black" font-family="Courier New" font-size="6" text-anchor="middle" x="54.000000000000014" y="106.15">A6</text></g><g><line stroke="#8C8C8C" stroke-linecap="round" stroke-width="0.7087" x1="25.6" x2="10.8" y1="118.8" y2="118.8" /><rect fill="#490092" height="6.0661" rx="1.1339" ry="1.1339" width="20.4661" x="0.5669" y="115.7669" /><text fill="white" font-family="Courier New" font-size="6" font-weight="bold" text-anchor="middle" x="10.8" y="120.55000000000001">RST</text></g><g><line stroke="#8C8C8C" stroke-linecap="round" stroke-width="0.7087" x1="25.6" x2="10.8" y1="126.0" y2="126.0" /><rect fill="#920000" height="6.0661" rx="1.1339" ry="1.1339" width="20.4661" x="0.5669" y="122.9669" /><text fill="white" font-family="Courier New" font-size="6" font-weight="bold" text-anchor="middle" x="10.8" y="127.75000000000001">3.3V</text></g><g><line stroke="#8C8C8C" stroke-linecap="round" stroke-width="0.7087" x1="25.6" x2="10.8" y1="133.2" y2="133.2" /><rect fill="#E6E6E6" height="5.7118" rx="0.9567" ry="0.9567" stroke="#737373" stroke-width="0.3543" width="20.1118" x="0.7441" y="130.3441" /><text fill="black" font-family="Courier New" font-size="6" font-weight="bold" text-anchor="middle" x="10.799999999999999" y="134.95000000000002">AREF</text></g><g><line stroke="#8C8C8C" stroke-linecap="round" stroke-width="0.7087" x1="25.6" x2="10.8" y1="140.4" y2="140.4" /><rect fill="#920000" height="6.0661" rx="1.1339" ry="1.1339" width="20.4661" x="0.5669" y="137.3669" /><text fill="white" font-family="Courier New" font-size="6" font-weight="bold" text-anchor="middle" x="10.8" y="142.15000000000003">VMAX</text></g><g><line stroke="#8C8C8C" stroke-linecap="round" stroke-width="0.7087" x1="25.6" x2="-28.8" y1="147.6" y2="147.6" /><rect fill="#E6E6E6" height="5.7118" rx="0.9567" ry="0.9567" stroke="#737373" stroke-width="0.3543" width="20.1118" x="0.7441" y="144.7441" /><text fill="black" font-family="Courier New" font-size="6" font-weight="bold" text-anchor="middle" x="10.799999999999999" y="149.35000000000002">A0</text><rect fill="#004949" height="6.0661" rx="1.1339" ry="1.1339" width="9.6661" x="-10.2331" y="144.5669" /><text fill="white" font-family="Courier New" font-size="6" font-weight="bold" text-anchor="middle" x="-5.3999999999999995" y="149.35000000000005">18</text><rect fill="#FFFF6D" height="6.0661" rx="1.1339" ry="1.1339" width="13.2661" x="-24.6331" y="144.5669" /><text fill="black" font-family="Courier New" font-size="6" text-anchor="middle" x="-18.000000000000004" y="149.35000000000005">PF7</text><rect fill="#24FF24" height="6.0661" rx="1.1339" ry="1.1339" width="13.2661" x="-39.0331" y="144.5669" /><text fill="black" font-family="Courier New" font-size="6" text-anchor="middle" x="-32.400000000000006" y="149.35000000000005">A0</text></g><g><line stroke="#8C8C8C" stroke-linecap="round" stroke-width="0.7087" x1="25.6" x2="-28.8" y1="154.8" y2="154.8" /><rect fill="#E6E6E6" height="5.7118" rx="0.9567" ry="0.9567" stroke="#737373" stroke-width="0.3543" width="20.1118" x="0.7441" y="151.9441" /><text fill="black" font-family="Courier New" font-size="6" font-weight="bold" text-anchor="middle" x="10.799999999999999" y="156.55">A1</text><rect fill="#004949" height="6.0661" rx="1.1339" ry="1.1339" width="9.6661" x="-10.2331" y="151.7669" /><text fill="white" font-family="Courier New" font-size="6" font-weight="bold" text-anchor="middle" x="-5.3999999999999995" y="156.55000000000004">19</text><rect fill="#FFFF6D" height="6.0661" rx="1.1339" ry="1.1339" width="13.2661" x="-24.6331" y="151.7669" /><text fill="black" font-family="Courier New" font-size="6" text-anchor="middle" x="-18.000000000000004" y="156.55000000000004">PF6</text><rect fill="#24FF24" height="6.0661" rx="1.1339" ry="1.1339" width="13.2661" x="-39.0331" y="151.7669" /><text fill="black" font-family="Courier New" font-size="6" text-anchor="middle" x="-32.400000000000006" y="156.55000000000004">A1</text></g><g><line stroke="#8C8C8C" stroke-linecap="round" stroke-width="0.7087" x1="25.6" x2="-28.8" y1="162.0" y2="162.0" /><rect fill="#E6E6E6" height="5.7118" rx="0.9567" ry="0.9567" stroke="#737373" stroke-width="0.3543" width="20.1118" x="0.7441" y="159.1441" /><text fill="black" font-family="Courier New" font-size="6" font-weight="bold" text-anchor="middle" x="10.799999999999999" y="163.75000000000003">A2</text><rect fill="#004949" height="6.0661" rx="1.1339" ry="1.1339" width="9.6661" x="-10.2331" y="158.9669" /><text fill="white" font-family="Courier New" font-size="6" font-weight="bold" text-anchor="middle" x="-5.3999999999999995" y="163.75000000000006">20</text><rect fill="#FFFF6D" height="6.0661" rx="1.1339" ry="1.1339" width="13.2661" x="-24.6331" y="158.9669" /><text fill="black" font-family="Courier New" font-size="6" text-anchor="middle" x="-18.000000000000004" y="163.75000000000006">PF5</text><rect fill="#24FF24" height="6.0661" rx="1.1339" ry="1.1339" width="13.2661" x="-39.0331" y="158.9669" /><text fill="black" font-family="Courier New" font-size="6" text-anchor="middle" x="-32.400000000000006" y="163.75000000000006">A2</text></g><g><line stroke="#8C8C8C" stroke-linecap="round" stroke-width="0.7087" x1="25.6" x2="-28.8" y1="169.2" y2="169.2" /><rect fill="#E6E6E6" height="5.7118" rx="0.9567" ry="0.9567" stroke="#737373" stroke-width="0.3543" width="20.1118" x="0.7441" y="166.3441" /><text fill="black" font-family="Courier New" font-size="6" font-weight="bold" text-anchor="middle" x="10.799999999999999" y="170.95000000000002">A3</text><rect fill="#004949" height="6.0661" rx="1.1339" ry="1.1339" width="9.6661" x="-10.2331" y="166.1669" /><text fill="white" font-family="Courier New" font-size="6" font-weight="bold" text-anchor="middle" x="-5.3999999999999995" y="170.95000000000005">21</text><rect fill="#FFFF6D" height="6.0661" rx="1.1339" ry="1.1339" width="13.2661" x="-24.6331" y="166.1669" /><text fill="black" font-family="Courier New" font-size="6" text-anchor="middle" x="-18.000000000000004" y="170.95000000000005">PF4</text><rect fill="#24FF24" height="6.0661" rx="1.1339" ry="1.1339" width="13.2661" x="-39.0331" y="166.1669" /><text fill="black" font-family="Courier New" font-size="6" text-anchor="middle" x="-32.400000000000006" y="170.95000000000005">A3</text></g><g><line stroke="#8C8C8C" stroke-linecap="round" stroke-width="0.7087" x1="25.6" x2="-28.8" y1="176.4" y2="176.4" /><rect fill="#E6E6E6" height="5.7118" rx="0.9567" ry="0.9567" stroke="#737373" stroke-width="0.3543" width="20.1118" x="0.7441" y="173.5441" /><text fill="black" font-family="Courier New" font-size="6" font-weight="bold" text-anchor="middle" x="10.799999999999999" y="178.15">A4</text><rect fill="#004949" height="6.0661" rx="1.1339" ry="1.1339" width="9.6661" x="-10.2331" y="173.3669" /><text fill="white" font-family="Courier New" font-size="6" font-weight="bold" text-anchor="middle" x="-5.3999999999999995" y="178.15000000000003">22</text><rect fill="#FFFF6D" height="6.0661" rx="1.1339" ry="1.1339" width="13.2661" x="-24.6331" y="173.3669" /><text fill="black" font-family="Courier New" font-size="6" text-anchor="middle" x="-18.000000000000004" y="178.15000000000003">PF1</text><rect fill="#24FF24" height="6.0661" rx="1.1339" ry="1.1339" width="13.2661" x="-39.0331" y="173.3669" /><text fill="black" font-family="Courier New" font-size="6" text-anchor="middle" x="-32.400000000000006" y="178.15000000000003">A4</text></g><g><line stroke="#8C8C8C" stroke-linecap="round" stroke-width="0.7087" x1="25.6" x2="-28.8" y1="183.6" y2="183.6" /><rect fill="#E6E6E6" height="5.7118" rx="0.9567" ry="0.9567" stroke="#737373" stroke-width="0.3543" width="20.1118" x="0.7441" y="180.7441" /><text fill="black" font-family="Courier New" font-size="6" font-weight="bold" text-anchor="middle" x="10.799999999999999" y="185.35000000000002">A5</text><rect fill="#004949" height="6.0661" rx="1.1339" ry="1.1339" width="9.6661" x="-10.2331" y="180.5669" /><text fill="white" font-family="Courier New" font-size="6" font-weight="bold" text-anchor="middle" x="-5.3999999999999995" y="185.35000000000005">23</text><rect fill="#FFFF6D" height="6.0661" rx="1.1339" ry="1.1339" width="13.2661" x="-24.6331" y="180.5669" /><text fill="black" font-family="Courier New" font-size="6" text-anchor="middle" x="-18.000000000000004" y="185.35000000000005">PF0</text><rect fill="#24FF24" height="6.0661" rx="1.1339" ry="1.1339" width="13.2661" x="-39.0331" y="180.5669" /><text fill="black" font-family="Courier New" font-size="6" text-anchor="middle" x="-32.400000000000006" y="185.35000000000005">A5</text></g><g><line stroke="#8C8C8C" stroke-linecap="round" stroke-width="0.7087" x1="25.6" x2="-66.6" y1="190.8" y2="190.8" /><rect fill="#E6E6E6" height="5.7118" rx="0.9567" ry="0.9567" stroke="#737373" stroke-width="0.3543" width="20.1118" x="0.7441" y="187.9441" /><text fill="black" font-family="Courier New" font-size="6" font-weight="bold" text-anchor="middle" x="10.799999999999999" y="192.55">SCK</text><rect fill="#004949" height="6.0661" rx="1.1339" ry="1.1339" width="9.6661" x="-10.2331" y="187.7669" /><text fill="white" font-family="Courier New" font-size="6" font-weight="bold" text-anchor="middle" x="-5.3999999999999995" y="192.55000000000004">15</text><rect fill="#FFFF6D" height="6.0661" rx="1.1339" ry="1.1339" width="13.2661" x="-24.6331" y="187.7669" /><text fill="black" font-family="Courier New" font-size="6" text-anchor="middle" x="-18.000000000000004" y="192.55000000000004">PB1</text><rect fill="#009292" height="6.0661" rx="1.1339" ry="1.1339" width="16.8661" x="-57.0331" y="187.7669" /><text fill="white" font-family="Courier New" font-size="6" text-anchor="middle" x="-48.60000000000001" y="192.55000000000004">SCK</text><rect fill="#B6DBFF" height="6.0661" rx="1.1339" ry="1.1339" width="24.0661" x="-82.2331" y="187.7669" /><text fill="black" font-family="Courier New" font-size="6" text-anchor="middle" x="-70.20000000000002" y="192.55000000000004">PCINT1</text></g><g><line stroke="#8C8C8C" stroke-linecap="round" stroke-width="0.7087" x1="25.6" x2="-66.6" y1="198.0" y2="198.0" /><rect fill="#E6E6E6" height="5.7118" rx="0.9567" ry="0.9567" stroke="#737373" stroke-width="0.3543" width="20.1118" x="0.7441" y="195.1441" /><text fill="black" font-family="Courier New" font-size="6" font-weight="bold" text-anchor="middle" x="10.799999999999999" y="199.75000000000003">MOSI</text><rect fill="#004949" height="6.0661" rx="1.1339" ry="1.1339" width="9.6661" x="-10.2331" y="194.9669" /><text fill="white" font-family="Courier New" font-size="6" font-weight="bold" text-anchor="middle" x="-5.3999999999999995" y="199.75000000000006">16</text><rect fill="#FFFF6D" height="6.0661" rx="1.1339" ry="1.1339" width="13.2661" x="-24.6331" y="194.9669" /><text fill="black" font-family="Courier New" font-size="6" text-anchor="middle" x="-18.000000000000004" y="199.75000000000006">PB2</text><rect fill="#009292" height="6.0661" rx="1.1339" ry="1.1339" width="16.8661" x="-57.0331" y="194.9669" /><text fill="white" font-family="Courier New" font-size="6" text-anchor="middle" x="-48.60000000000001" y="199.75000000000006">MOSI</text><rect fill="#B6DBFF" height="6.0661" rx="1.1339" ry="1.1339" width="24.0661" x="-82.2331" y="194.9669" /><text fill="black" font-family="Courier New" font-size="6" text-anchor="middle" x="-70.20000000000002" y="199.75000000000006">PCINT2</text></g><g><line stroke="#8C8C8C" stroke-linecap="round" stroke-width="0.7087" x1="25.6" x2="-66.6" y1="205.2" y2="205.2" /><rect fill="#E6E6E6" height="5.7118" rx="0.9567" ry="0.9567" stroke="#737373" stroke-width="0.3543" width="20.1118" x="0.7441" y="202.3441" /><text fill="black" font-family="Courier New" font-size="6" font-weight="bold" text-anchor="middle" x="10.799999999999999" y="206.95000000000002">MISO</text><rect fill="#004949" height="6.0661" rx="1.1339" ry="1.1339" width="9.6661" x="-10.2331" y="202.1669" /><text fill="white" font-family="Courier New" font-size="6" font-weight="bold" text-anchor="middle" x="-5.3999999999999995" y="206.95000000000005">14</text><rect fill="#FFFF6D" height="6.0661" rx="1.1339" ry="1.1339" width="13.2661" x="-24.6331" y="202.1669" /><text fill="black" font-family="Courier New" font-size="6" text-anchor="middle" x="-18.000000000000004" y="206.95000000000005">PB3</text><rect fill="#009292" height="6.0661" rx="1.1339" ry="1.1339" width="16.8661" x="-57.0331" y="202.1669" /><text fill="white" font-family="Courier New" font-size="6" text-anchor="middle" x="-48.60000000000001" y="206.95000000000005">MISO</text><rect fill="#B6DBFF" height="6.0661" rx="1.1339" ry="1.1339" width="24.0661" x="-82.2331" y="202.1669" /><text fill="black" font-family="Courier New" font-size="6" text-anchor="middle" x="-70.20000000000002" y="206.95000000000005">PCINT3</text></g><g><line stroke="#8C8C8C" stroke-linecap="round" stroke-width="0.7087" x1="25.6" x2="10.8" y1="212.4" y2="212.4" /><rect fill="#000000" height="6.0661" rx="1.1339" ry="1.1339" width="20.4661" x="0.5669" y="209.3669" /><text fill="white" font-family="Courier New" font-size="6" font-weight="bold" text-anchor="middle" x="10.8" y="214.15000000000006">GND</text></g><g><line stroke="#8C8C8C" stroke-linecap="round" stroke-width="0.7087" x1="25.6" x2="10.8" y1="219.6" y2="219.6" /><rect fill="#490092" height="6.0661" rx="1.1339" ry="1.1339" width="20.4661" x="0.5669" y="216.5669" /><text fill="white" font-family="Courier New" font-size="6" font-weight="bold" text-anchor="middle" x="10.8" y="221.35000000000005">EN</text></g><g><line stroke="#8C8C8C" stroke-linecap="round" stroke-width="0.7087" x1="-4" x2="120.6" y1="234.0" y2="234.0" /><rect fill="#E6E6E6" height="5.7118" rx="0.9567" ry="0.9567" stroke="#737373" stroke-width="0.3543" width="20.1118" x="0.7441" y="231.1441" /><text fill="black" font-family="Courier New" font-size="6" font-weight="bold" text-anchor="middle" x="10.799999999999999" y="235.75000000000003">D6</text><rect fill="#004949" height="6.0661" rx="1.1339" ry="1.1339" width="9.6661" x="22.1669" y="230.9669" /><text fill="white" font-family="Courier New" font-size="6" font-weight="bold" text-anchor="middle" x="27.0" y="235.75000000000006">6</text><rect fill="#FFFF6D" height="6.0661" rx="1.1339" ry="1.1339" width="13.2661" x="32.9669" y="230.9669" /><text fill="black" font-family="Courier New" font-size="6" text-anchor="middle" x="39.60000000000001" y="235.75000000000006">PD7</text><rect fill="#24FF24" height="6.0661" rx="1.1339" ry="1.1339" width="13.2661" x="47.3669" y="230.9669" /><text fill="black" font-family="Courier New" font-size="6" text-anchor="middle" x="54.000000000000014" y="235.75000000000006">A7</text><rect fill="#6DB6FF" height="6.0661" rx="1.1339" ry="1.1339" width="38.4661" x="104.9669" y="230.9669" /><text fill="black" font-family="Courier New" font-size="6" text-anchor="middle" x="124.20000000000002" y="235.75000000000006">OC4D</text></g><g><line stroke="#8C8C8C" stroke-linecap="round" stroke-width="0.7087" x1="-4" x2="88.2" y1="241.2" y2="241.2" /><rect fill="#E6E6E6" height="5.7118" rx="0.9567" ry="0.9567" stroke="#737373" stroke-width="0.3543" width="20.1118" x="0.7441" y="238.3441" /><text fill="black" font-family="Courier New" font-size="6" font-weight="bold" text-anchor="middle" x="10.799999999999999" y="242.95000000000002">D8</text><rect fill="#004949" height="6.0661" rx="1.1339" ry="1.1339" width="9.6661" x="22.1669" y="238.1669" /><text fill="white" font-family="Courier New" font-size="6" font-weight="bold" text-anchor="middle" x="27.0" y="242.95000000000005">8</text><rect fill="#FFFF6D" height="6.0661" rx="1.1339" ry="1.1339" width="13.2661" x="32.9669" y="238.1669" /><text fill="black" font-family="Courier New" font-size="6" text-anchor="middle" x="39.60000000000001" y="242.95000000000005">PB4</text><rect fill="#24FF24" height="6.0661" rx="1.1339" ry="1.1339" width="13.2661" x="47.3669" y="238.1669" /><text fill="black" font-family="Courier New" font-size="6" text-anchor="middle" x="54.000000000000014" y="242.95000000000005">A8</text><rect fill="#B6DBFF" height="6.0661" rx="1.1339" ry="1.1339" width="24.0661" x="79.7669" y="238.1669" /><text fill="black" font-family="Courier New" font-size="6" text-anchor="middle" x="91.80000000000001" y="242.95000000000005">PCINT4</text></g><g><line stroke="#8C8C8C" stroke-linecap="round" stroke-width="0.7087" x1="-4" x2="10.8" y1="248.4" y2="248.4" /><rect fill="#000000" height="6.0661" rx="1.1339" ry="1.1339" width="20.4661" x="0.5669" y="245.3669" /><text fill="white" font-family="Courier New" font-size="6" font-weight="bold" text-anchor="middle" x="10.8" y="250.15000000000006">GND</text></g><g><rect fill="#920000" height="6.0661" rx="1.1339" ry="1.1339" width="6.0661" x="0.5669" y="288.5669" /><text fill="black" font-family="Courier New" font-size="6" font-weight="bold" text-anchor="start" x="8.64" y="293.3500000000001">Power</text><rect fill="#000000" height="6.0661" rx="1.1339" ry="1.1339" width="6.0661" x="0.5669" y="295.7669" /><text fill="black" font-family="Courier New" font-size="6" font-weight="bold" text-anchor="start" x="8.64" y="300.55000000000007">GND</text><rect fill="#490092" height="6.0661" rx="1.1339" ry="1.1339" width="6.0661" x="0.5669" y="302.9669" /><text fill="black" font-family="Courier New" font-size="6" font-weight="bold" text-anchor="start" x="8.64" y="307.75000000000006">Control</text><rect fill="#E6E6E6" height="5.7118" rx="0.9567" ry="0.9567" stroke="#737373" stroke-width="0.3543" width="5.7118" x="0.7441" y="310.3441" /><text fill="black" font-family="Courier New" font-size="6" font-weight="bold" text-anchor="start" x="8.64" y="314.95000000000005">CircuitPython Name</text><rect fill="#004949" height="6.0661" rx="1.1339" ry="1.1339" width="6.0661" x="0.5669" y="317.3669" /><text fill="black" font-family="Courier New" font-size="6" font-weight="bold" text-anchor="start" x="8.64" y="322.15000000000003">Arduino Name</text><rect fill="#FFFF6D" height="6.0661" rx="1.1339" ry="1.1339" width="6.0661" x="0.5669" y="324.5669" /><text fill="black" font-family="Courier New" font-size="6" font-weight="bold" text-anchor="start" x="8.64" y="329.35">GPIO</text><rect fill="#24FF24" height="6.0661" rx="1.1339" ry="1.1339" width="6.0661" x="0.5669" y="331.7669" /><text fill="black" font-family="Courier New" font-size="6" font-weight="bold" text-anchor="start" x="8.64" y="336.55">ADC</text><rect fill="#009292" height="6.0661" rx="1.1339" ry="1.1339" width="6.0661" x="0.5669" y="338.9669" /><text fill="black" font-family="Courier New" font-size="6" font-weight="bold" text-anchor="start" x="8.64" y="343.75">Other</text><rect fill="#B6DBFF" height="6.0661" rx="1.1339" ry="1.1339" width="6.0661" x="0.5669" y="346.1669" /><text fill="black" font-family="Courier New" font-size="6" font-weight="bold" text-anchor="start" x="8.64" y="350.95">INT</text><rect fill="#6DB6FF" height="6.0661" rx="1.1339" ry="1.1339" width="6.0661" x="0.5669" y="353.3669" /><text fill="black" font-family="Courier New" font-size="6" font-weight="bold" text-anchor="start" x="8.64" y="358.15">PWM</text></g><g><text fill="black" font-family="Courier New" font-size="16" font-weight="bold" text-anchor="end" x="0" y="-40">Itsy Bitsy 32u4 3V @ 8MHz</text><text fill="black" font-family="Courier New" font-size="12" font-weight="bold" text-anchor="end" x="0" y="-25">https://www.adafruit.com/product/3675</text></g><g /></svg>