<?xml version="1.0" encoding="utf-8" ?>
<svg baseProfile="tiny" height="100" version="1.2" width="100" xmlns="http://www.w3.org/2000/svg" xmlns:ev="http://www.w3.org/2001/xml-events" xmlns:xlink="http://www.w3.org/1999/xlink"><defs /><line stroke="#404040" stroke-linecap="round" stroke-width="1.0" x1="-4" x2="10.8" y1="3.6" y2="3.6" /><line stroke="#404040" stroke-linecap="round" stroke-width="1.0" x1="-4" x2="10.8" y1="10.8" y2="10.8" /><line stroke="#404040" stroke-linecap="round" stroke-width="1.0" x1="-4" x2="10.8" y1="18.0" y2="18.0" /><line stroke="#404040" stroke-linecap="round" stroke-width="1.0" x1="-4" x2="10.8" y1="25.2" y2="25.2" /><line stroke="#404040" stroke-linecap="round" stroke-width="1.0" x1="-4" x2="10.8" y1="32.4" y2="32.4" /><line stroke="#404040" stroke-linecap="round" stroke-width="1.0" x1="-4" x2="111.6" y1="39.6" y2="39.6" /><line stroke="#404040" stroke-linecap="round" stroke-width="1.0" x1="-4" x2="111.6" y1="46.8" y2="46.8" /><line stroke="#404040" stroke-linecap="round" stroke-width="1.0" x1="-4" x2="111.6" y1="54.0" y2="54.0" /><line stroke="#404040" stroke-linecap="round" stroke-width="1.0" x1="-4" x2="111.6" y1="61.2" y2="61.2" /><line stroke="#404040" stroke-linecap="round" stroke-width="1.0" x1="-4" x2="111.6" y1="68.4" y2="68.4" /><line stroke="#404040" stroke-linecap="round" stroke-width="1.0" x1="-4" x2="111.6" y1="75.6" y2="75.6" /><line stroke="#404040" stroke-linecap="round" stroke-width="1.0" x1="-4" x2="111.6" y1="82.8" y2="82.8" /><line stroke="#404040" stroke-linecap="round" stroke-width="1.0" x1="-4" x2="111.6" y1="90.0" y2="90.0" /><line stroke="#404040" stroke-linecap="round" stroke-width="1.0" x1="-4" x2="111.6" y1="97.2" y2="97.2" /><line stroke="#404040" stroke-linecap="round" stroke-width="1.0" x1="25.6" x2="10.8" y1="111.6" y2="111.6" /><line stroke="#404040" stroke-linecap="round" stroke-width="1.0" x1="25.6" x2="10.8" y1="118.8" y2="118.8" /><line stroke="#404040" stroke-linecap="round" stroke-width="1.0" x1="25.6" x2="10.8" y1="126.0" y2="126.0" /><line stroke="#404040" stroke-linecap="round" stroke-width="1.0" x1="25.6" x2="10.8" y1="133.2" y2="133.2" /><line stroke="#404040" stroke-linecap="round" stroke-width="1.0" x1="25.6" x2="-109.8" y1="140.4" y2="140.4" /><line stroke="#404040" stroke-linecap="round" stroke-width="1.0" x1="25.6" x2="-109.8" y1="147.6" y2="147.6" /><line stroke="#404040" stroke-linecap="round" stroke-width="1.0" x1="25.6" x2="-109.8" y1="154.8" y2="154.8" /><line stroke="#404040" stroke-linecap="round" stroke-width="1.0" x1="25.6" x2="-109.8" y1="162.0" y2="162.0" /><line stroke="#404040" stroke-linecap="round" stroke-width="1.0" x1="25.6" x2="-90.0" y1="169.2" y2="169.2" /><line stroke="#404040" stroke-linecap="round" stroke-width="1.0" x1="25.6" x2="-90.0" y1="176.4" y2="176.4" /><line stroke="#404040" stroke-linecap="round" stroke-width="1.0" x1="25.6" x2="-90.0" y1="183.6" y2="183.6" /><line stroke="#404040" stroke-linecap="round" stroke-width="1.0" x1="25.6" x2="-90.0" y1="190.8" y2="190.8" /><line stroke="#404040" stroke-linecap="round" stroke-width="1.0" x1="25.6" x2="-90.0" y1="198.0" y2="198.0" /><line stroke="#404040" stroke-linecap="round" stroke-width="1.0" x1="25.6" x2="-90.0" y1="205.2" y2="205.2" /><line stroke="#404040" stroke-linecap="round" stroke-width="1.0" x1="25.6" x2="-90.0" y1="212.4" y2="212.4" /><line stroke="#404040" stroke-linecap="round" stroke-width="1.0" x1="25.6" x2="-90.0" y1="219.6" y2="219.6" /><line stroke="#404040" stroke-linecap="round" stroke-width="1.0" x1="-4" x2="10.8" y1="248.4" y2="248.4" /><line stroke="#404040" stroke-linecap="round" stroke-width="1.0" x1="-4" x2="111.6" y1="255.6" y2="255.6" /><line stroke="#404040" stroke-linecap="round" stroke-width="1.0" x1="-4" x2="111.6" y1="262.8" y2="262.8" /><line stroke="#404040" stroke-linecap="round" stroke-width="1.0" x1="-4" x2="10.8" y1="270.0" y2="270.0" /><rect fill="#000000" height="6.6" opacity="1.0" rx="1.0" ry="1.0" stroke="none" stroke-width="0.5" width="21.0" x="0.3" y="0.3" /><text fill="white" font-family="Courier New" font-size="6" font-weight="bold" text-anchor="middle" x="10.8" y="5.3500000000000005">GND</text><rect fill="#FF0000" height="6.6" opacity="1.0" rx="1.0" ry="1.0" stroke="none" stroke-width="0.5" width="21.0" x="0.3" y="7.5" /><text fill="white" font-family="Courier New" font-size="6" font-weight="bold" text-anchor="middle" x="10.8" y="12.55">VBAT</text><rect fill="#FF0000" height="6.6" opacity="1.0" rx="1.0" ry="1.0" stroke="none" stroke-width="0.5" width="21.0" x="0.3" y="14.7" /><text fill="white" font-family="Courier New" font-size="6" font-weight="bold" text-anchor="middle" x="10.8" y="19.750000000000004">VBAT</text><rect fill="#A0A0A0" height="6.1" opacity="1.0" rx="1.0" ry="1.0" stroke="#404040" stroke-width="0.5" width="20.5" x="0.55" y="22.15" /><text fill="black" font-family="Courier New" font-size="6" font-weight="bold" text-anchor="middle" x="10.8" y="26.950000000000003">EN</text><rect fill="#FF0000" height="6.6" opacity="1.0" rx="1.0" ry="1.0" stroke="none" stroke-width="0.5" width="21.0" x="0.3" y="29.1" /><text fill="white" font-family="Courier New" font-size="6" font-weight="bold" text-anchor="middle" x="10.8" y="34.150000000000006">VBUS</text><rect fill="#E0E0E0" height="6.1" opacity="0.5" rx="1.0" ry="1.0" stroke="#808080" stroke-width="0.5" width="20.5" x="0.55" y="36.55" /><text fill="black" font-family="Courier New" font-size="6" font-weight="bold" text-anchor="middle" x="10.8" y="41.35000000000001">D13</text><rect fill="#FFFFCC" height="6.1" opacity="1.0" rx="1.0" ry="1.0" stroke="#C0C0A0" stroke-width="0.5" width="24.1" x="22.15" y="36.55" /><text fill="black" font-family="Courier New" font-size="6" font-weight="normal" text-anchor="middle" x="34.2" y="41.35000000000001">GPIO13</text><rect fill="#C0C0FF" height="6.6" opacity="1.0" rx="1.0" ry="1.0" stroke="none" stroke-width="0.5" width="17.4" x="47.1" y="36.3" /><text fill="black" font-family="Courier New" font-size="6" font-weight="normal" text-anchor="middle" x="55.800000000000004" y="41.35000000000001">CSn1</text><rect fill="#FFC0C0" height="6.6" opacity="1.0" rx="1.0" ry="1.0" stroke="none" stroke-width="0.5" width="17.4" x="65.1" y="36.3" /><text fill="black" font-family="Courier New" font-size="6" font-weight="normal" text-anchor="middle" x="73.80000000000001" y="41.35000000000001">RX0</text><rect fill="#FFA0FF" height="6.6" opacity="1.0" rx="1.0" ry="1.0" stroke="none" stroke-width="0.5" width="17.4" x="83.1" y="36.3" /><text fill="black" font-family="Courier New" font-size="6" font-weight="normal" text-anchor="middle" x="91.80000000000001" y="41.35000000000001">SCL0</text><rect fill="#C0FFC0" height="6.6" opacity="1.0" rx="1.0" ry="1.0" stroke="none" stroke-width="0.5" width="21.0" x="101.1" y="36.3" /><text fill="black" font-family="Courier New" font-size="6" font-weight="normal" text-anchor="middle" x="111.60000000000001" y="41.35000000000001">PWM6B</text><rect fill="#E0E0E0" height="6.1" opacity="0.5" rx="1.0" ry="1.0" stroke="#808080" stroke-width="0.5" width="20.5" x="0.55" y="43.75" /><text fill="black" font-family="Courier New" font-size="6" font-weight="bold" text-anchor="middle" x="10.8" y="48.55">D12</text><rect fill="#FFFFCC" height="6.1" opacity="1.0" rx="1.0" ry="1.0" stroke="#C0C0A0" stroke-width="0.5" width="24.1" x="22.15" y="43.75" /><text fill="black" font-family="Courier New" font-size="6" font-weight="normal" text-anchor="middle" x="34.2" y="48.55">GPIO12</text><rect fill="#C0C0FF" height="6.6" opacity="1.0" rx="1.0" ry="1.0" stroke="none" stroke-width="0.5" width="17.4" x="47.1" y="43.5" /><text fill="black" font-family="Courier New" font-size="6" font-weight="normal" text-anchor="middle" x="55.800000000000004" y="48.55">RX1</text><rect fill="#FFC0C0" height="6.6" opacity="1.0" rx="1.0" ry="1.0" stroke="none" stroke-width="0.5" width="17.4" x="65.1" y="43.5" /><text fill="black" font-family="Courier New" font-size="6" font-weight="normal" text-anchor="middle" x="73.80000000000001" y="48.55">TX0</text><rect fill="#FFA0FF" height="6.6" opacity="1.0" rx="1.0" ry="1.0" stroke="none" stroke-width="0.5" width="17.4" x="83.1" y="43.5" /><text fill="black" font-family="Courier New" font-size="6" font-weight="normal" text-anchor="middle" x="91.80000000000001" y="48.55">SDA0</text><rect fill="#C0FFC0" height="6.6" opacity="1.0" rx="1.0" ry="1.0" stroke="none" stroke-width="0.5" width="21.0" x="101.1" y="43.5" /><text fill="black" font-family="Courier New" font-size="6" font-weight="normal" text-anchor="middle" x="111.60000000000001" y="48.55">PWM6A</text><rect fill="#E0E0E0" height="6.1" opacity="0.5" rx="1.0" ry="1.0" stroke="#808080" stroke-width="0.5" width="20.5" x="0.55" y="50.95" /><text fill="black" font-family="Courier New" font-size="6" font-weight="bold" text-anchor="middle" x="10.8" y="55.75">D11</text><rect fill="#FFFFCC" height="6.1" opacity="1.0" rx="1.0" ry="1.0" stroke="#C0C0A0" stroke-width="0.5" width="24.1" x="22.15" y="50.95" /><text fill="black" font-family="Courier New" font-size="6" font-weight="normal" text-anchor="middle" x="34.2" y="55.75">GPIO11</text><rect fill="#C0C0FF" height="6.6" opacity="1.0" rx="1.0" ry="1.0" stroke="none" stroke-width="0.5" width="17.4" x="47.1" y="50.7" /><text fill="black" font-family="Courier New" font-size="6" font-weight="normal" text-anchor="middle" x="55.800000000000004" y="55.75">TX1</text><rect fill="#FFC0C0" height="6.6" opacity="1.0" rx="1.0" ry="1.0" stroke="none" stroke-width="0.5" width="17.4" x="65.1" y="50.7" /><text fill="black" font-family="Courier New" font-size="6" font-weight="normal" text-anchor="middle" x="73.80000000000001" y="55.75">RTS1</text><rect fill="#FFA0FF" height="6.6" opacity="1.0" rx="1.0" ry="1.0" stroke="none" stroke-width="0.5" width="17.4" x="83.1" y="50.7" /><text fill="black" font-family="Courier New" font-size="6" font-weight="normal" text-anchor="middle" x="91.80000000000001" y="55.75">SCL1</text><rect fill="#C0FFC0" height="6.6" opacity="1.0" rx="1.0" ry="1.0" stroke="none" stroke-width="0.5" width="21.0" x="101.1" y="50.7" /><text fill="black" font-family="Courier New" font-size="6" font-weight="normal" text-anchor="middle" x="111.60000000000001" y="55.75">PWM5B</text><rect fill="#E0E0E0" height="6.1" opacity="0.5" rx="1.0" ry="1.0" stroke="#808080" stroke-width="0.5" width="20.5" x="0.55" y="58.15" /><text fill="black" font-family="Courier New" font-size="6" font-weight="bold" text-anchor="middle" x="10.8" y="62.95">D10</text><rect fill="#FFFFCC" height="6.1" opacity="1.0" rx="1.0" ry="1.0" stroke="#C0C0A0" stroke-width="0.5" width="24.1" x="22.15" y="58.15" /><text fill="black" font-family="Courier New" font-size="6" font-weight="normal" text-anchor="middle" x="34.2" y="62.95">GPIO10</text><rect fill="#C0C0FF" height="6.6" opacity="1.0" rx="1.0" ry="1.0" stroke="none" stroke-width="0.5" width="17.4" x="47.1" y="57.9" /><text fill="black" font-family="Courier New" font-size="6" font-weight="normal" text-anchor="middle" x="55.800000000000004" y="62.95">SCK1</text><rect fill="#FFC0C0" height="6.6" opacity="1.0" rx="1.0" ry="1.0" stroke="none" stroke-width="0.5" width="17.4" x="65.1" y="57.9" /><text fill="black" font-family="Courier New" font-size="6" font-weight="normal" text-anchor="middle" x="73.80000000000001" y="62.95">CTS1</text><rect fill="#FFA0FF" height="6.6" opacity="1.0" rx="1.0" ry="1.0" stroke="none" stroke-width="0.5" width="17.4" x="83.1" y="57.9" /><text fill="black" font-family="Courier New" font-size="6" font-weight="normal" text-anchor="middle" x="91.80000000000001" y="62.95">SDA1</text><rect fill="#C0FFC0" height="6.6" opacity="1.0" rx="1.0" ry="1.0" stroke="none" stroke-width="0.5" width="21.0" x="101.1" y="57.9" /><text fill="black" font-family="Courier New" font-size="6" font-weight="normal" text-anchor="middle" x="111.60000000000001" y="62.95">PWM5A</text><rect fill="#E0E0E0" height="6.1" opacity="0.5" rx="1.0" ry="1.0" stroke="#808080" stroke-width="0.5" width="20.5" x="0.55" y="65.35" /><text fill="black" font-family="Courier New" font-size="6" font-weight="bold" text-anchor="middle" x="10.8" y="70.15">D9</text><rect fill="#FFFFCC" height="6.1" opacity="1.0" rx="1.0" ry="1.0" stroke="#C0C0A0" stroke-width="0.5" width="24.1" x="22.15" y="65.35" /><text fill="black" font-family="Courier New" font-size="6" font-weight="normal" text-anchor="middle" x="34.2" y="70.15">GPIO9</text><rect fill="#C0C0FF" height="6.6" opacity="1.0" rx="1.0" ry="1.0" stroke="none" stroke-width="0.5" width="17.4" x="47.1" y="65.1" /><text fill="black" font-family="Courier New" font-size="6" font-weight="normal" text-anchor="middle" x="55.800000000000004" y="70.15">CSn1</text><rect fill="#FFC0C0" height="6.6" opacity="1.0" rx="1.0" ry="1.0" stroke="none" stroke-width="0.5" width="17.4" x="65.1" y="65.1" /><text fill="black" font-family="Courier New" font-size="6" font-weight="normal" text-anchor="middle" x="73.80000000000001" y="70.15">RX1</text><rect fill="#FFA0FF" height="6.6" opacity="1.0" rx="1.0" ry="1.0" stroke="none" stroke-width="0.5" width="17.4" x="83.1" y="65.1" /><text fill="black" font-family="Courier New" font-size="6" font-weight="normal" text-anchor="middle" x="91.80000000000001" y="70.15">SCL0</text><rect fill="#C0FFC0" height="6.6" opacity="1.0" rx="1.0" ry="1.0" stroke="none" stroke-width="0.5" width="21.0" x="101.1" y="65.1" /><text fill="black" font-family="Courier New" font-size="6" font-weight="normal" text-anchor="middle" x="111.60000000000001" y="70.15">PWM4B</text><rect fill="#E0E0E0" height="6.1" opacity="0.5" rx="1.0" ry="1.0" stroke="#808080" stroke-width="0.5" width="20.5" x="0.55" y="72.55" /><text fill="black" font-family="Courier New" font-size="6" font-weight="bold" text-anchor="middle" x="10.8" y="77.35000000000001">D6</text><rect fill="#FFFFCC" height="6.1" opacity="1.0" rx="1.0" ry="1.0" stroke="#C0C0A0" stroke-width="0.5" width="24.1" x="22.15" y="72.55" /><text fill="black" font-family="Courier New" font-size="6" font-weight="normal" text-anchor="middle" x="34.2" y="77.35000000000001">GPIO8</text><rect fill="#C0C0FF" height="6.6" opacity="1.0" rx="1.0" ry="1.0" stroke="none" stroke-width="0.5" width="17.4" x="47.1" y="72.3" /><text fill="black" font-family="Courier New" font-size="6" font-weight="normal" text-anchor="middle" x="55.800000000000004" y="77.35000000000001">RX1</text><rect fill="#FFC0C0" height="6.6" opacity="1.0" rx="1.0" ry="1.0" stroke="none" stroke-width="0.5" width="17.4" x="65.1" y="72.3" /><text fill="black" font-family="Courier New" font-size="6" font-weight="normal" text-anchor="middle" x="73.80000000000001" y="77.35000000000001">TX1</text><rect fill="#FFA0FF" height="6.6" opacity="1.0" rx="1.0" ry="1.0" stroke="none" stroke-width="0.5" width="17.4" x="83.1" y="72.3" /><text fill="black" font-family="Courier New" font-size="6" font-weight="normal" text-anchor="middle" x="91.80000000000001" y="77.35000000000001">SDA0</text><rect fill="#C0FFC0" height="6.6" opacity="1.0" rx="1.0" ry="1.0" stroke="none" stroke-width="0.5" width="21.0" x="101.1" y="72.3" /><text fill="black" font-family="Courier New" font-size="6" font-weight="normal" text-anchor="middle" x="111.60000000000001" y="77.35000000000001">PWM4A</text><rect fill="#E0E0E0" height="6.1" opacity="0.5" rx="1.0" ry="1.0" stroke="#808080" stroke-width="0.5" width="20.5" x="0.55" y="79.75" /><text fill="black" font-family="Courier New" font-size="6" font-weight="bold" text-anchor="middle" x="10.8" y="84.55000000000001">D5</text><rect fill="#FFFFCC" height="6.1" opacity="1.0" rx="1.0" ry="1.0" stroke="#C0C0A0" stroke-width="0.5" width="24.1" x="22.15" y="79.75" /><text fill="black" font-family="Courier New" font-size="6" font-weight="normal" text-anchor="middle" x="34.2" y="84.55000000000001">GPIO7</text><rect fill="#C0C0FF" height="6.6" opacity="1.0" rx="1.0" ry="1.0" stroke="none" stroke-width="0.5" width="17.4" x="47.1" y="79.5" /><text fill="black" font-family="Courier New" font-size="6" font-weight="normal" text-anchor="middle" x="55.800000000000004" y="84.55000000000001">TX0</text><rect fill="#FFC0C0" height="6.6" opacity="1.0" rx="1.0" ry="1.0" stroke="none" stroke-width="0.5" width="17.4" x="65.1" y="79.5" /><text fill="black" font-family="Courier New" font-size="6" font-weight="normal" text-anchor="middle" x="73.80000000000001" y="84.55000000000001">RTS1</text><rect fill="#FFA0FF" height="6.6" opacity="1.0" rx="1.0" ry="1.0" stroke="none" stroke-width="0.5" width="17.4" x="83.1" y="79.5" /><text fill="black" font-family="Courier New" font-size="6" font-weight="normal" text-anchor="middle" x="91.80000000000001" y="84.55000000000001">SCL1</text><rect fill="#C0FFC0" height="6.6" opacity="1.0" rx="1.0" ry="1.0" stroke="none" stroke-width="0.5" width="21.0" x="101.1" y="79.5" /><text fill="black" font-family="Courier New" font-size="6" font-weight="normal" text-anchor="middle" x="111.60000000000001" y="84.55000000000001">PWM3B</text><rect fill="#E0E0E0" height="6.1" opacity="0.5" rx="1.0" ry="1.0" stroke="#808080" stroke-width="0.5" width="20.5" x="0.55" y="86.95" /><text fill="black" font-family="Courier New" font-size="6" font-weight="bold" text-anchor="middle" x="10.8" y="91.75">SCL</text><rect fill="#FFFFCC" height="6.1" opacity="1.0" rx="1.0" ry="1.0" stroke="#C0C0A0" stroke-width="0.5" width="24.1" x="22.15" y="86.95" /><text fill="black" font-family="Courier New" font-size="6" font-weight="normal" text-anchor="middle" x="34.2" y="91.75">GPIO3</text><rect fill="#C0C0FF" height="6.6" opacity="1.0" rx="1.0" ry="1.0" stroke="none" stroke-width="0.5" width="17.4" x="47.1" y="86.7" /><text fill="black" font-family="Courier New" font-size="6" font-weight="normal" text-anchor="middle" x="55.800000000000004" y="91.75">TX0</text><rect fill="#FFC0C0" height="6.6" opacity="1.0" rx="1.0" ry="1.0" stroke="none" stroke-width="0.5" width="17.4" x="65.1" y="86.7" /><text fill="black" font-family="Courier New" font-size="6" font-weight="normal" text-anchor="middle" x="73.80000000000001" y="91.75">RTS0</text><rect fill="#FFA0FF" height="6.6" opacity="1.0" rx="1.0" ry="1.0" stroke="none" stroke-width="0.5" width="17.4" x="83.1" y="86.7" /><text fill="black" font-family="Courier New" font-size="6" font-weight="normal" text-anchor="middle" x="91.80000000000001" y="91.75">SCL1</text><rect fill="#C0FFC0" height="6.6" opacity="1.0" rx="1.0" ry="1.0" stroke="none" stroke-width="0.5" width="21.0" x="101.1" y="86.7" /><text fill="black" font-family="Courier New" font-size="6" font-weight="normal" text-anchor="middle" x="111.60000000000001" y="91.75">PWM1B</text><rect fill="#E0E0E0" height="6.1" opacity="0.5" rx="1.0" ry="1.0" stroke="#808080" stroke-width="0.5" width="20.5" x="0.55" y="94.15" /><text fill="black" font-family="Courier New" font-size="6" font-weight="bold" text-anchor="middle" x="10.8" y="98.95">SDA</text><rect fill="#FFFFCC" height="6.1" opacity="1.0" rx="1.0" ry="1.0" stroke="#C0C0A0" stroke-width="0.5" width="24.1" x="22.15" y="94.15" /><text fill="black" font-family="Courier New" font-size="6" font-weight="normal" text-anchor="middle" x="34.2" y="98.95">GPIO2</text><rect fill="#C0C0FF" height="6.6" opacity="1.0" rx="1.0" ry="1.0" stroke="none" stroke-width="0.5" width="17.4" x="47.1" y="93.9" /><text fill="black" font-family="Courier New" font-size="6" font-weight="normal" text-anchor="middle" x="55.800000000000004" y="98.95">SCK0</text><rect fill="#FFC0C0" height="6.6" opacity="1.0" rx="1.0" ry="1.0" stroke="none" stroke-width="0.5" width="17.4" x="65.1" y="93.9" /><text fill="black" font-family="Courier New" font-size="6" font-weight="normal" text-anchor="middle" x="73.80000000000001" y="98.95">CTS0</text><rect fill="#FFA0FF" height="6.6" opacity="1.0" rx="1.0" ry="1.0" stroke="none" stroke-width="0.5" width="17.4" x="83.1" y="93.9" /><text fill="black" font-family="Courier New" font-size="6" font-weight="normal" text-anchor="middle" x="91.80000000000001" y="98.95">SDA1</text><rect fill="#C0FFC0" height="6.6" opacity="1.0" rx="1.0" ry="1.0" stroke="none" stroke-width="0.5" width="21.0" x="101.1" y="93.9" /><text fill="black" font-family="Courier New" font-size="6" font-weight="normal" text-anchor="middle" x="111.60000000000001" y="98.95">PWM1A</text><rect fill="#A0A0A0" height="6.1" opacity="1.0" rx="1.0" ry="1.0" stroke="#404040" stroke-width="0.5" width="20.5" x="0.55" y="108.55" /><text fill="black" font-family="Courier New" font-size="6" font-weight="bold" text-anchor="middle" x="10.8" y="113.35000000000001">RESET</text><rect fill="#FF0000" height="6.6" opacity="1.0" rx="1.0" ry="1.0" stroke="none" stroke-width="0.5" width="21.0" x="0.3" y="115.5" /><text fill="white" font-family="Courier New" font-size="6" font-weight="bold" text-anchor="middle" x="10.8" y="120.55000000000001">3.3V</text><rect fill="#FF0000" height="6.6" opacity="1.0" rx="1.0" ry="1.0" stroke="none" stroke-width="0.5" width="21.0" x="0.3" y="122.7" /><text fill="white" font-family="Courier New" font-size="6" font-weight="bold" text-anchor="middle" x="10.8" y="127.75000000000001">3.3V</text><rect fill="#000000" height="6.6" opacity="1.0" rx="1.0" ry="1.0" stroke="none" stroke-width="0.5" width="21.0" x="0.3" y="129.9" /><text fill="white" font-family="Courier New" font-size="6" font-weight="bold" text-anchor="middle" x="10.8" y="134.95000000000005">GND</text><rect fill="#E0E0E0" height="6.1" opacity="0.5" rx="1.0" ry="1.0" stroke="#808080" stroke-width="0.5" width="20.5" x="0.55" y="137.35" /><text fill="black" font-family="Courier New" font-size="6" font-weight="bold" text-anchor="middle" x="10.8" y="142.15000000000003">A0</text><rect fill="#FFFFCC" height="6.1" opacity="1.0" rx="1.0" ry="1.0" stroke="#C0C0A0" stroke-width="0.5" width="24.1" x="-24.65" y="137.35" /><text fill="black" font-family="Courier New" font-size="6" font-weight="normal" text-anchor="middle" x="-12.600000000000001" y="142.15000000000003">GPIO26</text><rect fill="#C0C0FF" height="6.6" opacity="1.0" rx="1.0" ry="1.0" stroke="none" stroke-width="0.5" width="17.4" x="-42.9" y="137.1" /><text fill="black" font-family="Courier New" font-size="6" font-weight="normal" text-anchor="middle" x="-34.2" y="142.15000000000003">SCK1</text><rect fill="#FFC0C0" height="6.6" opacity="1.0" rx="1.0" ry="1.0" stroke="none" stroke-width="0.5" width="17.4" x="-60.9" y="137.1" /><text fill="black" font-family="Courier New" font-size="6" font-weight="normal" text-anchor="middle" x="-52.2" y="142.15000000000003">CTS1</text><rect fill="#FFA0FF" height="6.6" opacity="1.0" rx="1.0" ry="1.0" stroke="none" stroke-width="0.5" width="17.4" x="-78.9" y="137.1" /><text fill="black" font-family="Courier New" font-size="6" font-weight="normal" text-anchor="middle" x="-70.2" y="142.15000000000003">SDA1</text><rect fill="#C0FFC0" height="6.6" opacity="1.0" rx="1.0" ry="1.0" stroke="none" stroke-width="0.5" width="21.0" x="-100.5" y="137.1" /><text fill="black" font-family="Courier New" font-size="6" font-weight="normal" text-anchor="middle" x="-90.00000000000001" y="142.15000000000003">PWM5A</text><rect fill="#FFA000" height="6.6" opacity="1.0" rx="1.0" ry="1.0" stroke="none" stroke-width="0.5" width="17.4" x="-118.5" y="137.1" /><text fill="black" font-family="Courier New" font-size="6" font-weight="normal" text-anchor="middle" x="-109.80000000000001" y="142.15000000000003">ADC0</text><rect fill="#E0E0E0" height="6.1" opacity="0.5" rx="1.0" ry="1.0" stroke="#808080" stroke-width="0.5" width="20.5" x="0.55" y="144.55" /><text fill="black" font-family="Courier New" font-size="6" font-weight="bold" text-anchor="middle" x="10.8" y="149.35000000000005">A1</text><rect fill="#FFFFCC" height="6.1" opacity="1.0" rx="1.0" ry="1.0" stroke="#C0C0A0" stroke-width="0.5" width="24.1" x="-24.65" y="144.55" /><text fill="black" font-family="Courier New" font-size="6" font-weight="normal" text-anchor="middle" x="-12.600000000000001" y="149.35000000000005">GPIO27</text><rect fill="#C0C0FF" height="6.6" opacity="1.0" rx="1.0" ry="1.0" stroke="none" stroke-width="0.5" width="17.4" x="-42.9" y="144.3" /><text fill="black" font-family="Courier New" font-size="6" font-weight="normal" text-anchor="middle" x="-34.2" y="149.35000000000005">TX1</text><rect fill="#FFC0C0" height="6.6" opacity="1.0" rx="1.0" ry="1.0" stroke="none" stroke-width="0.5" width="17.4" x="-60.9" y="144.3" /><text fill="black" font-family="Courier New" font-size="6" font-weight="normal" text-anchor="middle" x="-52.2" y="149.35000000000005">RTS1</text><rect fill="#FFA0FF" height="6.6" opacity="1.0" rx="1.0" ry="1.0" stroke="none" stroke-width="0.5" width="17.4" x="-78.9" y="144.3" /><text fill="black" font-family="Courier New" font-size="6" font-weight="normal" text-anchor="middle" x="-70.2" y="149.35000000000005">SCL1</text><rect fill="#C0FFC0" height="6.6" opacity="1.0" rx="1.0" ry="1.0" stroke="none" stroke-width="0.5" width="21.0" x="-100.5" y="144.3" /><text fill="black" font-family="Courier New" font-size="6" font-weight="normal" text-anchor="middle" x="-90.00000000000001" y="149.35000000000005">PWM5B</text><rect fill="#FFA000" height="6.6" opacity="1.0" rx="1.0" ry="1.0" stroke="none" stroke-width="0.5" width="17.4" x="-118.5" y="144.3" /><text fill="black" font-family="Courier New" font-size="6" font-weight="normal" text-anchor="middle" x="-109.80000000000001" y="149.35000000000005">ADC1</text><rect fill="#E0E0E0" height="6.1" opacity="0.5" rx="1.0" ry="1.0" stroke="#808080" stroke-width="0.5" width="20.5" x="0.55" y="151.75" /><text fill="black" font-family="Courier New" font-size="6" font-weight="bold" text-anchor="middle" x="10.8" y="156.55000000000004">A2</text><rect fill="#FFFFCC" height="6.1" opacity="1.0" rx="1.0" ry="1.0" stroke="#C0C0A0" stroke-width="0.5" width="24.1" x="-24.65" y="151.75" /><text fill="black" font-family="Courier New" font-size="6" font-weight="normal" text-anchor="middle" x="-12.600000000000001" y="156.55000000000004">GPIO28</text><rect fill="#C0C0FF" height="6.6" opacity="1.0" rx="1.0" ry="1.0" stroke="none" stroke-width="0.5" width="17.4" x="-42.9" y="151.5" /><text fill="black" font-family="Courier New" font-size="6" font-weight="normal" text-anchor="middle" x="-34.2" y="156.55000000000004">RX1</text><rect fill="#FFC0C0" height="6.6" opacity="1.0" rx="1.0" ry="1.0" stroke="none" stroke-width="0.5" width="17.4" x="-60.9" y="151.5" /><text fill="black" font-family="Courier New" font-size="6" font-weight="normal" text-anchor="middle" x="-52.2" y="156.55000000000004">TX0</text><rect fill="#FFA0FF" height="6.6" opacity="1.0" rx="1.0" ry="1.0" stroke="none" stroke-width="0.5" width="17.4" x="-78.9" y="151.5" /><text fill="black" font-family="Courier New" font-size="6" font-weight="normal" text-anchor="middle" x="-70.2" y="156.55000000000004">SDA0</text><rect fill="#C0FFC0" height="6.6" opacity="1.0" rx="1.0" ry="1.0" stroke="none" stroke-width="0.5" width="21.0" x="-100.5" y="151.5" /><text fill="black" font-family="Courier New" font-size="6" font-weight="normal" text-anchor="middle" x="-90.00000000000001" y="156.55000000000004">PWM6A</text><rect fill="#FFA000" height="6.6" opacity="1.0" rx="1.0" ry="1.0" stroke="none" stroke-width="0.5" width="17.4" x="-118.5" y="151.5" /><text fill="black" font-family="Courier New" font-size="6" font-weight="normal" text-anchor="middle" x="-109.80000000000001" y="156.55000000000004">ADC2</text><rect fill="#E0E0E0" height="6.1" opacity="0.5" rx="1.0" ry="1.0" stroke="#808080" stroke-width="0.5" width="20.5" x="0.55" y="158.95" /><text fill="black" font-family="Courier New" font-size="6" font-weight="bold" text-anchor="middle" x="10.8" y="163.75000000000006">A3</text><rect fill="#FFFFCC" height="6.1" opacity="1.0" rx="1.0" ry="1.0" stroke="#C0C0A0" stroke-width="0.5" width="24.1" x="-24.65" y="158.95" /><text fill="black" font-family="Courier New" font-size="6" font-weight="normal" text-anchor="middle" x="-12.600000000000001" y="163.75000000000006">GPIO29</text><rect fill="#C0C0FF" height="6.6" opacity="1.0" rx="1.0" ry="1.0" stroke="none" stroke-width="0.5" width="17.4" x="-42.9" y="158.7" /><text fill="black" font-family="Courier New" font-size="6" font-weight="normal" text-anchor="middle" x="-34.2" y="163.75000000000006">CSn1</text><rect fill="#FFC0C0" height="6.6" opacity="1.0" rx="1.0" ry="1.0" stroke="none" stroke-width="0.5" width="17.4" x="-60.9" y="158.7" /><text fill="black" font-family="Courier New" font-size="6" font-weight="normal" text-anchor="middle" x="-52.2" y="163.75000000000006">RX0</text><rect fill="#FFA0FF" height="6.6" opacity="1.0" rx="1.0" ry="1.0" stroke="none" stroke-width="0.5" width="17.4" x="-78.9" y="158.7" /><text fill="black" font-family="Courier New" font-size="6" font-weight="normal" text-anchor="middle" x="-70.2" y="163.75000000000006">SCL0</text><rect fill="#C0FFC0" height="6.6" opacity="1.0" rx="1.0" ry="1.0" stroke="none" stroke-width="0.5" width="21.0" x="-100.5" y="158.7" /><text fill="black" font-family="Courier New" font-size="6" font-weight="normal" text-anchor="middle" x="-90.00000000000001" y="163.75000000000006">PWM6B</text><rect fill="#FFA000" height="6.6" opacity="1.0" rx="1.0" ry="1.0" stroke="none" stroke-width="0.5" width="17.4" x="-118.5" y="158.7" /><text fill="black" font-family="Courier New" font-size="6" font-weight="normal" text-anchor="middle" x="-109.80000000000001" y="163.75000000000006">ADC3</text><rect fill="#E0E0E0" height="6.1" opacity="0.5" rx="1.0" ry="1.0" stroke="#808080" stroke-width="0.5" width="20.5" x="0.55" y="166.15" /><text fill="black" font-family="Courier New" font-size="6" font-weight="bold" text-anchor="middle" x="10.8" y="170.95000000000005">D24</text><rect fill="#FFFFCC" height="6.1" opacity="1.0" rx="1.0" ry="1.0" stroke="#C0C0A0" stroke-width="0.5" width="24.1" x="-24.65" y="166.15" /><text fill="black" font-family="Courier New" font-size="6" font-weight="normal" text-anchor="middle" x="-12.600000000000001" y="170.95000000000005">GPIO24</text><rect fill="#C0C0FF" height="6.6" opacity="1.0" rx="1.0" ry="1.0" stroke="none" stroke-width="0.5" width="17.4" x="-42.9" y="165.9" /><text fill="black" font-family="Courier New" font-size="6" font-weight="normal" text-anchor="middle" x="-34.2" y="170.95000000000005">RX1</text><rect fill="#FFC0C0" height="6.6" opacity="1.0" rx="1.0" ry="1.0" stroke="none" stroke-width="0.5" width="17.4" x="-60.9" y="165.9" /><text fill="black" font-family="Courier New" font-size="6" font-weight="normal" text-anchor="middle" x="-52.2" y="170.95000000000005">TX1</text><rect fill="#FFA0FF" height="6.6" opacity="1.0" rx="1.0" ry="1.0" stroke="none" stroke-width="0.5" width="17.4" x="-78.9" y="165.9" /><text fill="black" font-family="Courier New" font-size="6" font-weight="normal" text-anchor="middle" x="-70.2" y="170.95000000000005">SDA0</text><rect fill="#C0FFC0" height="6.6" opacity="1.0" rx="1.0" ry="1.0" stroke="none" stroke-width="0.5" width="21.0" x="-100.5" y="165.9" /><text fill="black" font-family="Courier New" font-size="6" font-weight="normal" text-anchor="middle" x="-90.00000000000001" y="170.95000000000005">PWM4A</text><rect fill="#E0E0E0" height="6.1" opacity="0.5" rx="1.0" ry="1.0" stroke="#808080" stroke-width="0.5" width="20.5" x="0.55" y="173.35" /><text fill="black" font-family="Courier New" font-size="6" font-weight="bold" text-anchor="middle" x="10.8" y="178.15000000000003">D25</text><rect fill="#FFFFCC" height="6.1" opacity="1.0" rx="1.0" ry="1.0" stroke="#C0C0A0" stroke-width="0.5" width="24.1" x="-24.65" y="173.35" /><text fill="black" font-family="Courier New" font-size="6" font-weight="normal" text-anchor="middle" x="-12.600000000000001" y="178.15000000000003">GPIO25</text><rect fill="#C0C0FF" height="6.6" opacity="1.0" rx="1.0" ry="1.0" stroke="none" stroke-width="0.5" width="17.4" x="-42.9" y="173.1" /><text fill="black" font-family="Courier New" font-size="6" font-weight="normal" text-anchor="middle" x="-34.2" y="178.15000000000003">CSn1</text><rect fill="#FFC0C0" height="6.6" opacity="1.0" rx="1.0" ry="1.0" stroke="none" stroke-width="0.5" width="17.4" x="-60.9" y="173.1" /><text fill="black" font-family="Courier New" font-size="6" font-weight="normal" text-anchor="middle" x="-52.2" y="178.15000000000003">RX1</text><rect fill="#FFA0FF" height="6.6" opacity="1.0" rx="1.0" ry="1.0" stroke="none" stroke-width="0.5" width="17.4" x="-78.9" y="173.1" /><text fill="black" font-family="Courier New" font-size="6" font-weight="normal" text-anchor="middle" x="-70.2" y="178.15000000000003">SCL0</text><rect fill="#C0FFC0" height="6.6" opacity="1.0" rx="1.0" ry="1.0" stroke="none" stroke-width="0.5" width="21.0" x="-100.5" y="173.1" /><text fill="black" font-family="Courier New" font-size="6" font-weight="normal" text-anchor="middle" x="-90.00000000000001" y="178.15000000000003">PWM4B</text><rect fill="#E0E0E0" height="6.1" opacity="0.5" rx="1.0" ry="1.0" stroke="#808080" stroke-width="0.5" width="20.5" x="0.55" y="180.55" /><text fill="black" font-family="Courier New" font-size="6" font-weight="bold" text-anchor="middle" x="10.8" y="185.35000000000005">SCK</text><rect fill="#FFFFCC" height="6.1" opacity="1.0" rx="1.0" ry="1.0" stroke="#C0C0A0" stroke-width="0.5" width="24.1" x="-24.65" y="180.55" /><text fill="black" font-family="Courier New" font-size="6" font-weight="normal" text-anchor="middle" x="-12.600000000000001" y="185.35000000000005">GPIO18</text><rect fill="#C0C0FF" height="6.6" opacity="1.0" rx="1.0" ry="1.0" stroke="none" stroke-width="0.5" width="17.4" x="-42.9" y="180.3" /><text fill="black" font-family="Courier New" font-size="6" font-weight="normal" text-anchor="middle" x="-34.2" y="185.35000000000005">SCK0</text><rect fill="#FFC0C0" height="6.6" opacity="1.0" rx="1.0" ry="1.0" stroke="none" stroke-width="0.5" width="17.4" x="-60.9" y="180.3" /><text fill="black" font-family="Courier New" font-size="6" font-weight="normal" text-anchor="middle" x="-52.2" y="185.35000000000005">CTS0</text><rect fill="#FFA0FF" height="6.6" opacity="1.0" rx="1.0" ry="1.0" stroke="none" stroke-width="0.5" width="17.4" x="-78.9" y="180.3" /><text fill="black" font-family="Courier New" font-size="6" font-weight="normal" text-anchor="middle" x="-70.2" y="185.35000000000005">SDA1</text><rect fill="#C0FFC0" height="6.6" opacity="1.0" rx="1.0" ry="1.0" stroke="none" stroke-width="0.5" width="21.0" x="-100.5" y="180.3" /><text fill="black" font-family="Courier New" font-size="6" font-weight="normal" text-anchor="middle" x="-90.00000000000001" y="185.35000000000005">PWM1A</text><rect fill="#E0E0E0" height="6.1" opacity="0.5" rx="1.0" ry="1.0" stroke="#808080" stroke-width="0.5" width="20.5" x="0.55" y="187.75" /><text fill="black" font-family="Courier New" font-size="6" font-weight="bold" text-anchor="middle" x="10.8" y="192.55000000000004">MOSI</text><rect fill="#FFFFCC" height="6.1" opacity="1.0" rx="1.0" ry="1.0" stroke="#C0C0A0" stroke-width="0.5" width="24.1" x="-24.65" y="187.75" /><text fill="black" font-family="Courier New" font-size="6" font-weight="normal" text-anchor="middle" x="-12.600000000000001" y="192.55000000000004">GPIO19</text><rect fill="#C0C0FF" height="6.6" opacity="1.0" rx="1.0" ry="1.0" stroke="none" stroke-width="0.5" width="17.4" x="-42.9" y="187.5" /><text fill="black" font-family="Courier New" font-size="6" font-weight="normal" text-anchor="middle" x="-34.2" y="192.55000000000004">TX0</text><rect fill="#FFC0C0" height="6.6" opacity="1.0" rx="1.0" ry="1.0" stroke="none" stroke-width="0.5" width="17.4" x="-60.9" y="187.5" /><text fill="black" font-family="Courier New" font-size="6" font-weight="normal" text-anchor="middle" x="-52.2" y="192.55000000000004">RTS0</text><rect fill="#FFA0FF" height="6.6" opacity="1.0" rx="1.0" ry="1.0" stroke="none" stroke-width="0.5" width="17.4" x="-78.9" y="187.5" /><text fill="black" font-family="Courier New" font-size="6" font-weight="normal" text-anchor="middle" x="-70.2" y="192.55000000000004">SCL1</text><rect fill="#C0FFC0" height="6.6" opacity="1.0" rx="1.0" ry="1.0" stroke="none" stroke-width="0.5" width="21.0" x="-100.5" y="187.5" /><text fill="black" font-family="Courier New" font-size="6" font-weight="normal" text-anchor="middle" x="-90.00000000000001" y="192.55000000000004">PWM1B</text><rect fill="#E0E0E0" height="6.1" opacity="0.5" rx="1.0" ry="1.0" stroke="#808080" stroke-width="0.5" width="20.5" x="0.55" y="194.95" /><text fill="black" font-family="Courier New" font-size="6" font-weight="bold" text-anchor="middle" x="10.8" y="199.75000000000006">MISO</text><rect fill="#FFFFCC" height="6.1" opacity="1.0" rx="1.0" ry="1.0" stroke="#C0C0A0" stroke-width="0.5" width="24.1" x="-24.65" y="194.95" /><text fill="black" font-family="Courier New" font-size="6" font-weight="normal" text-anchor="middle" x="-12.600000000000001" y="199.75000000000006">GPIO20</text><rect fill="#C0C0FF" height="6.6" opacity="1.0" rx="1.0" ry="1.0" stroke="none" stroke-width="0.5" width="17.4" x="-42.9" y="194.7" /><text fill="black" font-family="Courier New" font-size="6" font-weight="normal" text-anchor="middle" x="-34.2" y="199.75000000000006">RX0</text><rect fill="#FFC0C0" height="6.6" opacity="1.0" rx="1.0" ry="1.0" stroke="none" stroke-width="0.5" width="17.4" x="-60.9" y="194.7" /><text fill="black" font-family="Courier New" font-size="6" font-weight="normal" text-anchor="middle" x="-52.2" y="199.75000000000006">TX1</text><rect fill="#FFA0FF" height="6.6" opacity="1.0" rx="1.0" ry="1.0" stroke="none" stroke-width="0.5" width="17.4" x="-78.9" y="194.7" /><text fill="black" font-family="Courier New" font-size="6" font-weight="normal" text-anchor="middle" x="-70.2" y="199.75000000000006">SDA0</text><rect fill="#C0FFC0" height="6.6" opacity="1.0" rx="1.0" ry="1.0" stroke="none" stroke-width="0.5" width="21.0" x="-100.5" y="194.7" /><text fill="black" font-family="Courier New" font-size="6" font-weight="normal" text-anchor="middle" x="-90.00000000000001" y="199.75000000000006">PWM2A</text><rect fill="#E0E0E0" height="6.1" opacity="0.5" rx="1.0" ry="1.0" stroke="#808080" stroke-width="0.5" width="20.5" x="0.55" y="202.15" /><text fill="black" font-family="Courier New" font-size="6" font-weight="bold" text-anchor="middle" x="10.8" y="206.95000000000005">RX</text><rect fill="#FFFFCC" height="6.1" opacity="1.0" rx="1.0" ry="1.0" stroke="#C0C0A0" stroke-width="0.5" width="24.1" x="-24.65" y="202.15" /><text fill="black" font-family="Courier New" font-size="6" font-weight="normal" text-anchor="middle" x="-12.600000000000001" y="206.95000000000005">GPIO1</text><rect fill="#C0C0FF" height="6.6" opacity="1.0" rx="1.0" ry="1.0" stroke="none" stroke-width="0.5" width="17.4" x="-42.9" y="201.9" /><text fill="black" font-family="Courier New" font-size="6" font-weight="normal" text-anchor="middle" x="-34.2" y="206.95000000000005">CSn0</text><rect fill="#FFC0C0" height="6.6" opacity="1.0" rx="1.0" ry="1.0" stroke="none" stroke-width="0.5" width="17.4" x="-60.9" y="201.9" /><text fill="black" font-family="Courier New" font-size="6" font-weight="normal" text-anchor="middle" x="-52.2" y="206.95000000000005">RX0</text><rect fill="#FFA0FF" height="6.6" opacity="1.0" rx="1.0" ry="1.0" stroke="none" stroke-width="0.5" width="17.4" x="-78.9" y="201.9" /><text fill="black" font-family="Courier New" font-size="6" font-weight="normal" text-anchor="middle" x="-70.2" y="206.95000000000005">SCL0</text><rect fill="#C0FFC0" height="6.6" opacity="1.0" rx="1.0" ry="1.0" stroke="none" stroke-width="0.5" width="21.0" x="-100.5" y="201.9" /><text fill="black" font-family="Courier New" font-size="6" font-weight="normal" text-anchor="middle" x="-90.00000000000001" y="206.95000000000005">PWM0B</text><rect fill="#E0E0E0" height="6.1" opacity="0.5" rx="1.0" ry="1.0" stroke="#808080" stroke-width="0.5" width="20.5" x="0.55" y="209.35" /><text fill="black" font-family="Courier New" font-size="6" font-weight="bold" text-anchor="middle" x="10.8" y="214.15000000000006">TX</text><rect fill="#FFFFCC" height="6.1" opacity="1.0" rx="1.0" ry="1.0" stroke="#C0C0A0" stroke-width="0.5" width="24.1" x="-24.65" y="209.35" /><text fill="black" font-family="Courier New" font-size="6" font-weight="normal" text-anchor="middle" x="-12.600000000000001" y="214.15000000000006">GPIO0</text><rect fill="#C0C0FF" height="6.6" opacity="1.0" rx="1.0" ry="1.0" stroke="none" stroke-width="0.5" width="17.4" x="-42.9" y="209.1" /><text fill="black" font-family="Courier New" font-size="6" font-weight="normal" text-anchor="middle" x="-34.2" y="214.15000000000006">RX0</text><rect fill="#FFC0C0" height="6.6" opacity="1.0" rx="1.0" ry="1.0" stroke="none" stroke-width="0.5" width="17.4" x="-60.9" y="209.1" /><text fill="black" font-family="Courier New" font-size="6" font-weight="normal" text-anchor="middle" x="-52.2" y="214.15000000000006">TX0</text><rect fill="#FFA0FF" height="6.6" opacity="1.0" rx="1.0" ry="1.0" stroke="none" stroke-width="0.5" width="17.4" x="-78.9" y="209.1" /><text fill="black" font-family="Courier New" font-size="6" font-weight="normal" text-anchor="middle" x="-70.2" y="214.15000000000006">SDA0</text><rect fill="#C0FFC0" height="6.6" opacity="1.0" rx="1.0" ry="1.0" stroke="none" stroke-width="0.5" width="21.0" x="-100.5" y="209.1" /><text fill="black" font-family="Courier New" font-size="6" font-weight="normal" text-anchor="middle" x="-90.00000000000001" y="214.15000000000006">PWM0A</text><rect fill="#E0E0E0" height="6.1" opacity="0.5" rx="1.0" ry="1.0" stroke="#808080" stroke-width="0.5" width="20.5" x="0.55" y="216.55" /><text fill="black" font-family="Courier New" font-size="6" font-weight="bold" text-anchor="middle" x="10.8" y="221.35000000000005">D4</text><rect fill="#FFFFCC" height="6.1" opacity="1.0" rx="1.0" ry="1.0" stroke="#C0C0A0" stroke-width="0.5" width="24.1" x="-24.65" y="216.55" /><text fill="black" font-family="Courier New" font-size="6" font-weight="normal" text-anchor="middle" x="-12.600000000000001" y="221.35000000000005">GPIO6</text><rect fill="#C0C0FF" height="6.6" opacity="1.0" rx="1.0" ry="1.0" stroke="none" stroke-width="0.5" width="17.4" x="-42.9" y="216.3" /><text fill="black" font-family="Courier New" font-size="6" font-weight="normal" text-anchor="middle" x="-34.2" y="221.35000000000005">SCK0</text><rect fill="#FFC0C0" height="6.6" opacity="1.0" rx="1.0" ry="1.0" stroke="none" stroke-width="0.5" width="17.4" x="-60.9" y="216.3" /><text fill="black" font-family="Courier New" font-size="6" font-weight="normal" text-anchor="middle" x="-52.2" y="221.35000000000005">CTS1</text><rect fill="#FFA0FF" height="6.6" opacity="1.0" rx="1.0" ry="1.0" stroke="none" stroke-width="0.5" width="17.4" x="-78.9" y="216.3" /><text fill="black" font-family="Courier New" font-size="6" font-weight="normal" text-anchor="middle" x="-70.2" y="221.35000000000005">SDA1</text><rect fill="#C0FFC0" height="6.6" opacity="1.0" rx="1.0" ry="1.0" stroke="none" stroke-width="0.5" width="21.0" x="-100.5" y="216.3" /><text fill="black" font-family="Courier New" font-size="6" font-weight="normal" text-anchor="middle" x="-90.00000000000001" y="221.35000000000005">PWM3A</text><rect fill="#FF0000" height="6.6" opacity="1.0" rx="1.0" ry="1.0" stroke="none" stroke-width="0.5" width="21.0" x="0.3" y="245.1" /><text fill="white" font-family="Courier New" font-size="6" font-weight="bold" text-anchor="middle" x="10.8" y="250.15000000000006">3.3V</text><rect fill="#FFFF00" height="6.6" opacity="1.0" rx="1.0" ry="1.0" stroke="none" stroke-width="0.5" width="21.0" x="0.3" y="252.3" /><text fill="black" font-family="Courier New" font-size="6" font-weight="bold" text-anchor="middle" x="10.8" y="257.35">SCL</text><rect fill="#FFFFCC" height="6.1" opacity="1.0" rx="1.0" ry="1.0" stroke="#C0C0A0" stroke-width="0.5" width="24.1" x="22.15" y="252.55" /><text fill="black" font-family="Courier New" font-size="6" font-weight="normal" text-anchor="middle" x="34.2" y="257.35">GPIO3</text><rect fill="#C0C0FF" height="6.6" opacity="1.0" rx="1.0" ry="1.0" stroke="none" stroke-width="0.5" width="17.4" x="47.1" y="252.3" /><text fill="black" font-family="Courier New" font-size="6" font-weight="normal" text-anchor="middle" x="55.800000000000004" y="257.35">TX0</text><rect fill="#FFC0C0" height="6.6" opacity="1.0" rx="1.0" ry="1.0" stroke="none" stroke-width="0.5" width="17.4" x="65.1" y="252.3" /><text fill="black" font-family="Courier New" font-size="6" font-weight="normal" text-anchor="middle" x="73.80000000000001" y="257.35">RTS0</text><rect fill="#FFA0FF" height="6.6" opacity="1.0" rx="1.0" ry="1.0" stroke="none" stroke-width="0.5" width="17.4" x="83.1" y="252.3" /><text fill="black" font-family="Courier New" font-size="6" font-weight="normal" text-anchor="middle" x="91.80000000000001" y="257.35">SCL1</text><rect fill="#C0FFC0" height="6.6" opacity="1.0" rx="1.0" ry="1.0" stroke="none" stroke-width="0.5" width="21.0" x="101.1" y="252.3" /><text fill="black" font-family="Courier New" font-size="6" font-weight="normal" text-anchor="middle" x="111.60000000000001" y="257.35">PWM1B</text><rect fill="#0000FF" height="6.6" opacity="1.0" rx="1.0" ry="1.0" stroke="none" stroke-width="0.5" width="21.0" x="0.3" y="259.5" /><text fill="white" font-family="Courier New" font-size="6" font-weight="bold" text-anchor="middle" x="10.8" y="264.55000000000007">SDA</text><rect fill="#FFFFCC" height="6.1" opacity="1.0" rx="1.0" ry="1.0" stroke="#C0C0A0" stroke-width="0.5" width="24.1" x="22.15" y="259.75" /><text fill="black" font-family="Courier New" font-size="6" font-weight="normal" text-anchor="middle" x="34.2" y="264.55000000000007">GPIO2</text><rect fill="#C0C0FF" height="6.6" opacity="1.0" rx="1.0" ry="1.0" stroke="none" stroke-width="0.5" width="17.4" x="47.1" y="259.5" /><text fill="black" font-family="Courier New" font-size="6" font-weight="normal" text-anchor="middle" x="55.800000000000004" y="264.55000000000007">SCK0</text><rect fill="#FFC0C0" height="6.6" opacity="1.0" rx="1.0" ry="1.0" stroke="none" stroke-width="0.5" width="17.4" x="65.1" y="259.5" /><text fill="black" font-family="Courier New" font-size="6" font-weight="normal" text-anchor="middle" x="73.80000000000001" y="264.55000000000007">CTS0</text><rect fill="#FFA0FF" height="6.6" opacity="1.0" rx="1.0" ry="1.0" stroke="none" stroke-width="0.5" width="17.4" x="83.1" y="259.5" /><text fill="black" font-family="Courier New" font-size="6" font-weight="normal" text-anchor="middle" x="91.80000000000001" y="264.55000000000007">SDA1</text><rect fill="#C0FFC0" height="6.6" opacity="1.0" rx="1.0" ry="1.0" stroke="none" stroke-width="0.5" width="21.0" x="101.1" y="259.5" /><text fill="black" font-family="Courier New" font-size="6" font-weight="normal" text-anchor="middle" x="111.60000000000001" y="264.55000000000007">PWM1A</text><rect fill="#000000" height="6.6" opacity="1.0" rx="1.0" ry="1.0" stroke="none" stroke-width="0.5" width="21.0" x="0.3" y="266.7" /><text fill="white" font-family="Courier New" font-size="6" font-weight="bold" text-anchor="middle" x="10.8" y="271.75000000000006">GND</text></svg>