<?xml version="1.0" encoding="utf-8" ?>
<svg baseProfile="tiny" height="100" version="1.2" width="100" xmlns="http://www.w3.org/2000/svg" xmlns:ev="http://www.w3.org/2001/xml-events" xmlns:xlink="http://www.w3.org/1999/xlink"><defs /><g><line stroke="#8C8C8C" stroke-linecap="round" stroke-width="0.7087" x1="-4" x2="63.0" y1="3.6" y2="3.6" /><rect fill="#E6E6E6" height="5.7118" rx="0.9567" ry="0.9567" stroke="#737373" stroke-width="0.3543" width="20.1118" x="0.7441" y="0.7441" /><text fill="black" font-family="Courier New" font-size="6" font-weight="bold" text-anchor="middle" x="10.799999999999999" y="5.3500000000000005">D13</text><rect fill="#004949" height="6.0661" rx="1.1339" ry="1.1339" width="9.6661" x="22.1669" y="0.5669" /><text fill="white" font-family="Courier New" font-size="6" font-weight="bold" text-anchor="middle" x="27.0" y="5.3500000000000005">13</text><rect fill="#FFFF6D" height="6.0661" rx="1.1339" ry="1.1339" width="13.2661" x="32.9669" y="0.5669" /><text fill="black" font-family="Courier New" font-size="6" text-anchor="middle" x="39.60000000000001" y="5.3500000000000005">PB5</text><rect fill="#009292" height="6.0661" rx="1.1339" ry="1.1339" width="16.8661" x="58.1669" y="0.5669" /><text fill="white" font-family="Courier New" font-size="6" text-anchor="middle" x="66.60000000000001" y="5.3500000000000005">SCK</text></g><g><line stroke="#8C8C8C" stroke-linecap="round" stroke-width="0.7087" x1="-4" x2="63.0" y1="10.8" y2="10.8" /><rect fill="#E6E6E6" height="5.7118" rx="0.9567" ry="0.9567" stroke="#737373" stroke-width="0.3543" width="20.1118" x="0.7441" y="7.9441" /><text fill="black" font-family="Courier New" font-size="6" font-weight="bold" text-anchor="middle" x="10.799999999999999" y="12.55">D12</text><rect fill="#004949" height="6.0661" rx="1.1339" ry="1.1339" width="9.6661" x="22.1669" y="7.7669" /><text fill="white" font-family="Courier New" font-size="6" font-weight="bold" text-anchor="middle" x="27.0" y="12.55">12</text><rect fill="#FFFF6D" height="6.0661" rx="1.1339" ry="1.1339" width="13.2661" x="32.9669" y="7.7669" /><text fill="black" font-family="Courier New" font-size="6" text-anchor="middle" x="39.60000000000001" y="12.55">PB4</text><rect fill="#009292" height="6.0661" rx="1.1339" ry="1.1339" width="16.8661" x="58.1669" y="7.7669" /><text fill="white" font-family="Courier New" font-size="6" text-anchor="middle" x="66.60000000000001" y="12.55">MISO</text></g><g><line stroke="#8C8C8C" stroke-linecap="round" stroke-width="0.7087" x1="-4" x2="81.0" y1="18.0" y2="18.0" /><rect fill="#E6E6E6" height="5.7118" rx="0.9567" ry="0.9567" stroke="#737373" stroke-width="0.3543" width="20.1118" x="0.7441" y="15.1441" /><text fill="black" font-family="Courier New" font-size="6" font-weight="bold" text-anchor="middle" x="10.799999999999999" y="19.750000000000004">D11</text><rect fill="#004949" height="6.0661" rx="1.1339" ry="1.1339" width="9.6661" x="22.1669" y="14.9669" /><text fill="white" font-family="Courier New" font-size="6" font-weight="bold" text-anchor="middle" x="27.0" y="19.750000000000004">11</text><rect fill="#FFFF6D" height="6.0661" rx="1.1339" ry="1.1339" width="13.2661" x="32.9669" y="14.9669" /><text fill="black" font-family="Courier New" font-size="6" text-anchor="middle" x="39.60000000000001" y="19.750000000000004">PB3</text><rect fill="#009292" height="6.0661" rx="1.1339" ry="1.1339" width="16.8661" x="58.1669" y="14.9669" /><text fill="white" font-family="Courier New" font-size="6" text-anchor="middle" x="66.60000000000001" y="19.750000000000004">MOSI</text><rect fill="#B6DBFF" height="6.0661" rx="1.1339" ry="1.1339" width="16.8661" x="76.1669" y="14.9669" /><text fill="black" font-family="Courier New" font-size="6" text-anchor="middle" x="84.60000000000001" y="19.750000000000004">OC2A</text></g><g><line stroke="#8C8C8C" stroke-linecap="round" stroke-width="0.7087" x1="-4" x2="81.0" y1="25.2" y2="25.2" /><rect fill="#E6E6E6" height="5.7118" rx="0.9567" ry="0.9567" stroke="#737373" stroke-width="0.3543" width="20.1118" x="0.7441" y="22.3441" /><text fill="black" font-family="Courier New" font-size="6" font-weight="bold" text-anchor="middle" x="10.799999999999999" y="26.95">D10</text><rect fill="#004949" height="6.0661" rx="1.1339" ry="1.1339" width="9.6661" x="22.1669" y="22.1669" /><text fill="white" font-family="Courier New" font-size="6" font-weight="bold" text-anchor="middle" x="27.0" y="26.950000000000003">10</text><rect fill="#FFFF6D" height="6.0661" rx="1.1339" ry="1.1339" width="13.2661" x="32.9669" y="22.1669" /><text fill="black" font-family="Courier New" font-size="6" text-anchor="middle" x="39.60000000000001" y="26.950000000000003">PB2</text><rect fill="#009292" height="6.0661" rx="1.1339" ry="1.1339" width="16.8661" x="58.1669" y="22.1669" /><text fill="white" font-family="Courier New" font-size="6" text-anchor="middle" x="66.60000000000001" y="26.950000000000003">SS</text><rect fill="#B6DBFF" height="6.0661" rx="1.1339" ry="1.1339" width="16.8661" x="76.1669" y="22.1669" /><text fill="black" font-family="Courier New" font-size="6" text-anchor="middle" x="84.60000000000001" y="26.950000000000003">OC1B</text></g><g><line stroke="#8C8C8C" stroke-linecap="round" stroke-width="0.7087" x1="-4" x2="81.0" y1="32.4" y2="32.4" /><rect fill="#E6E6E6" height="5.7118" rx="0.9567" ry="0.9567" stroke="#737373" stroke-width="0.3543" width="20.1118" x="0.7441" y="29.5441" /><text fill="black" font-family="Courier New" font-size="6" font-weight="bold" text-anchor="middle" x="10.799999999999999" y="34.150000000000006">D9</text><rect fill="#004949" height="6.0661" rx="1.1339" ry="1.1339" width="9.6661" x="22.1669" y="29.3669" /><text fill="white" font-family="Courier New" font-size="6" font-weight="bold" text-anchor="middle" x="27.0" y="34.150000000000006">9</text><rect fill="#FFFF6D" height="6.0661" rx="1.1339" ry="1.1339" width="13.2661" x="32.9669" y="29.3669" /><text fill="black" font-family="Courier New" font-size="6" text-anchor="middle" x="39.60000000000001" y="34.150000000000006">PB1</text><rect fill="#B6DBFF" height="6.0661" rx="1.1339" ry="1.1339" width="16.8661" x="76.1669" y="29.3669" /><text fill="black" font-family="Courier New" font-size="6" text-anchor="middle" x="84.60000000000001" y="34.150000000000006">OC1A</text></g><g><line stroke="#8C8C8C" stroke-linecap="round" stroke-width="0.7087" x1="-4" x2="36.0" y1="39.6" y2="39.6" /><rect fill="#E6E6E6" height="5.7118" rx="0.9567" ry="0.9567" stroke="#737373" stroke-width="0.3543" width="20.1118" x="0.7441" y="36.7441" /><text fill="black" font-family="Courier New" font-size="6" font-weight="bold" text-anchor="middle" x="10.799999999999999" y="41.35000000000001">D8</text><rect fill="#004949" height="6.0661" rx="1.1339" ry="1.1339" width="9.6661" x="22.1669" y="36.5669" /><text fill="white" font-family="Courier New" font-size="6" font-weight="bold" text-anchor="middle" x="27.0" y="41.35000000000001">8</text><rect fill="#FFFF6D" height="6.0661" rx="1.1339" ry="1.1339" width="13.2661" x="32.9669" y="36.5669" /><text fill="black" font-family="Courier New" font-size="6" text-anchor="middle" x="39.60000000000001" y="41.35000000000001">PB0</text></g><g><line stroke="#8C8C8C" stroke-linecap="round" stroke-width="0.7087" x1="-4" x2="36.0" y1="46.8" y2="46.8" /><rect fill="#E6E6E6" height="5.7118" rx="0.9567" ry="0.9567" stroke="#737373" stroke-width="0.3543" width="20.1118" x="0.7441" y="43.9441" /><text fill="black" font-family="Courier New" font-size="6" font-weight="bold" text-anchor="middle" x="10.799999999999999" y="48.550000000000004">D7</text><rect fill="#004949" height="6.0661" rx="1.1339" ry="1.1339" width="9.6661" x="22.1669" y="43.7669" /><text fill="white" font-family="Courier New" font-size="6" font-weight="bold" text-anchor="middle" x="27.0" y="48.550000000000004">7</text><rect fill="#FFFF6D" height="6.0661" rx="1.1339" ry="1.1339" width="13.2661" x="32.9669" y="43.7669" /><text fill="black" font-family="Courier New" font-size="6" text-anchor="middle" x="39.60000000000001" y="48.550000000000004">PD7</text></g><g><line stroke="#8C8C8C" stroke-linecap="round" stroke-width="0.7087" x1="-4" x2="81.0" y1="54.0" y2="54.0" /><rect fill="#E6E6E6" height="5.7118" rx="0.9567" ry="0.9567" stroke="#737373" stroke-width="0.3543" width="20.1118" x="0.7441" y="51.1441" /><text fill="black" font-family="Courier New" font-size="6" font-weight="bold" text-anchor="middle" x="10.799999999999999" y="55.75000000000001">D6</text><rect fill="#004949" height="6.0661" rx="1.1339" ry="1.1339" width="9.6661" x="22.1669" y="50.9669" /><text fill="white" font-family="Courier New" font-size="6" font-weight="bold" text-anchor="middle" x="27.0" y="55.75000000000001">6</text><rect fill="#FFFF6D" height="6.0661" rx="1.1339" ry="1.1339" width="13.2661" x="32.9669" y="50.9669" /><text fill="black" font-family="Courier New" font-size="6" text-anchor="middle" x="39.60000000000001" y="55.75000000000001">PD6</text><rect fill="#B6DBFF" height="6.0661" rx="1.1339" ry="1.1339" width="16.8661" x="76.1669" y="50.9669" /><text fill="black" font-family="Courier New" font-size="6" text-anchor="middle" x="84.60000000000001" y="55.75000000000001">OC0A</text></g><g><line stroke="#8C8C8C" stroke-linecap="round" stroke-width="0.7087" x1="-4" x2="81.0" y1="61.2" y2="61.2" /><rect fill="#E6E6E6" height="5.7118" rx="0.9567" ry="0.9567" stroke="#737373" stroke-width="0.3543" width="20.1118" x="0.7441" y="58.3441" /><text fill="black" font-family="Courier New" font-size="6" font-weight="bold" text-anchor="middle" x="10.799999999999999" y="62.95000000000001">D5</text><rect fill="#004949" height="6.0661" rx="1.1339" ry="1.1339" width="9.6661" x="22.1669" y="58.1669" /><text fill="white" font-family="Courier New" font-size="6" font-weight="bold" text-anchor="middle" x="27.0" y="62.95000000000001">5</text><rect fill="#FFFF6D" height="6.0661" rx="1.1339" ry="1.1339" width="13.2661" x="32.9669" y="58.1669" /><text fill="black" font-family="Courier New" font-size="6" text-anchor="middle" x="39.60000000000001" y="62.95000000000001">PD5</text><rect fill="#B6DBFF" height="6.0661" rx="1.1339" ry="1.1339" width="16.8661" x="76.1669" y="58.1669" /><text fill="black" font-family="Courier New" font-size="6" text-anchor="middle" x="84.60000000000001" y="62.95000000000001">OC0B</text></g><g><line stroke="#8C8C8C" stroke-linecap="round" stroke-width="0.7087" x1="-4" x2="36.0" y1="68.4" y2="68.4" /><rect fill="#E6E6E6" height="5.7118" rx="0.9567" ry="0.9567" stroke="#737373" stroke-width="0.3543" width="20.1118" x="0.7441" y="65.5441" /><text fill="black" font-family="Courier New" font-size="6" font-weight="bold" text-anchor="middle" x="10.799999999999999" y="70.15000000000002">D4</text><rect fill="#004949" height="6.0661" rx="1.1339" ry="1.1339" width="9.6661" x="22.1669" y="65.3669" /><text fill="white" font-family="Courier New" font-size="6" font-weight="bold" text-anchor="middle" x="27.0" y="70.15">4</text><rect fill="#FFFF6D" height="6.0661" rx="1.1339" ry="1.1339" width="13.2661" x="32.9669" y="65.3669" /><text fill="black" font-family="Courier New" font-size="6" text-anchor="middle" x="39.60000000000001" y="70.15">PD4</text></g><g><line stroke="#8C8C8C" stroke-linecap="round" stroke-width="0.7087" x1="-4" x2="81.0" y1="75.6" y2="75.6" /><rect fill="#E6E6E6" height="5.7118" rx="0.9567" ry="0.9567" stroke="#737373" stroke-width="0.3543" width="20.1118" x="0.7441" y="72.7441" /><text fill="black" font-family="Courier New" font-size="6" font-weight="bold" text-anchor="middle" x="10.799999999999999" y="77.35000000000002">D3</text><rect fill="#004949" height="6.0661" rx="1.1339" ry="1.1339" width="9.6661" x="22.1669" y="72.5669" /><text fill="white" font-family="Courier New" font-size="6" font-weight="bold" text-anchor="middle" x="27.0" y="77.35000000000001">3</text><rect fill="#FFFF6D" height="6.0661" rx="1.1339" ry="1.1339" width="13.2661" x="32.9669" y="72.5669" /><text fill="black" font-family="Courier New" font-size="6" text-anchor="middle" x="39.60000000000001" y="77.35000000000001">PD3</text><rect fill="#009292" height="6.0661" rx="1.1339" ry="1.1339" width="16.8661" x="58.1669" y="72.5669" /><text fill="white" font-family="Courier New" font-size="6" text-anchor="middle" x="66.60000000000001" y="77.35000000000001">INT1</text><rect fill="#B6DBFF" height="6.0661" rx="1.1339" ry="1.1339" width="16.8661" x="76.1669" y="72.5669" /><text fill="black" font-family="Courier New" font-size="6" text-anchor="middle" x="84.60000000000001" y="77.35000000000001">OC2B</text></g><g><line stroke="#8C8C8C" stroke-linecap="round" stroke-width="0.7087" x1="-4" x2="63.0" y1="82.8" y2="82.8" /><rect fill="#E6E6E6" height="5.7118" rx="0.9567" ry="0.9567" stroke="#737373" stroke-width="0.3543" width="20.1118" x="0.7441" y="79.9441" /><text fill="black" font-family="Courier New" font-size="6" font-weight="bold" text-anchor="middle" x="10.799999999999999" y="84.55000000000003">D2</text><rect fill="#004949" height="6.0661" rx="1.1339" ry="1.1339" width="9.6661" x="22.1669" y="79.7669" /><text fill="white" font-family="Courier New" font-size="6" font-weight="bold" text-anchor="middle" x="27.0" y="84.55000000000001">2</text><rect fill="#FFFF6D" height="6.0661" rx="1.1339" ry="1.1339" width="13.2661" x="32.9669" y="79.7669" /><text fill="black" font-family="Courier New" font-size="6" text-anchor="middle" x="39.60000000000001" y="84.55000000000001">PD2</text><rect fill="#009292" height="6.0661" rx="1.1339" ry="1.1339" width="16.8661" x="58.1669" y="79.7669" /><text fill="white" font-family="Courier New" font-size="6" text-anchor="middle" x="66.60000000000001" y="84.55000000000001">INT0</text></g><g><line stroke="#8C8C8C" stroke-linecap="round" stroke-width="0.7087" x1="-4" x2="63.0" y1="90.0" y2="90.0" /><rect fill="#E6E6E6" height="5.7118" rx="0.9567" ry="0.9567" stroke="#737373" stroke-width="0.3543" width="20.1118" x="0.7441" y="87.1441" /><text fill="black" font-family="Courier New" font-size="6" font-weight="bold" text-anchor="middle" x="10.799999999999999" y="91.75000000000001">D1</text><rect fill="#004949" height="6.0661" rx="1.1339" ry="1.1339" width="9.6661" x="22.1669" y="86.9669" /><text fill="white" font-family="Courier New" font-size="6" font-weight="bold" text-anchor="middle" x="27.0" y="91.75">1</text><rect fill="#FFFF6D" height="6.0661" rx="1.1339" ry="1.1339" width="13.2661" x="32.9669" y="86.9669" /><text fill="black" font-family="Courier New" font-size="6" text-anchor="middle" x="39.60000000000001" y="91.75">PD1</text><rect fill="#009292" height="6.0661" rx="1.1339" ry="1.1339" width="16.8661" x="58.1669" y="86.9669" /><text fill="white" font-family="Courier New" font-size="6" text-anchor="middle" x="66.60000000000001" y="91.75">TX</text></g><g><line stroke="#8C8C8C" stroke-linecap="round" stroke-width="0.7087" x1="-4" x2="63.0" y1="97.2" y2="97.2" /><rect fill="#E6E6E6" height="5.7118" rx="0.9567" ry="0.9567" stroke="#737373" stroke-width="0.3543" width="20.1118" x="0.7441" y="94.3441" /><text fill="black" font-family="Courier New" font-size="6" font-weight="bold" text-anchor="middle" x="10.799999999999999" y="98.95000000000002">D0</text><rect fill="#004949" height="6.0661" rx="1.1339" ry="1.1339" width="9.6661" x="22.1669" y="94.1669" /><text fill="white" font-family="Courier New" font-size="6" font-weight="bold" text-anchor="middle" x="27.0" y="98.95">0</text><rect fill="#FFFF6D" height="6.0661" rx="1.1339" ry="1.1339" width="13.2661" x="32.9669" y="94.1669" /><text fill="black" font-family="Courier New" font-size="6" text-anchor="middle" x="39.60000000000001" y="98.95">PD0</text><rect fill="#009292" height="6.0661" rx="1.1339" ry="1.1339" width="16.8661" x="58.1669" y="94.1669" /><text fill="white" font-family="Courier New" font-size="6" text-anchor="middle" x="66.60000000000001" y="98.95">RX</text></g><g><line stroke="#8C8C8C" stroke-linecap="round" stroke-width="0.7087" x1="25.6" x2="10.8" y1="111.6" y2="111.6" /><rect fill="#920000" height="6.0661" rx="1.1339" ry="1.1339" width="20.4661" x="0.5669" y="108.5669" /><text fill="white" font-family="Courier New" font-size="6" font-weight="bold" text-anchor="middle" x="10.8" y="113.35000000000001">VBUS</text></g><g><line stroke="#8C8C8C" stroke-linecap="round" stroke-width="0.7087" x1="25.6" x2="10.8" y1="118.8" y2="118.8" /><rect fill="#490092" height="6.0661" rx="1.1339" ry="1.1339" width="20.4661" x="0.5669" y="115.7669" /><text fill="white" font-family="Courier New" font-size="6" font-weight="bold" text-anchor="middle" x="10.8" y="120.55000000000001">RESET</text></g><g><line stroke="#8C8C8C" stroke-linecap="round" stroke-width="0.7087" x1="25.6" x2="10.8" y1="126.0" y2="126.0" /><rect fill="#920000" height="6.0661" rx="1.1339" ry="1.1339" width="20.4661" x="0.5669" y="122.9669" /><text fill="white" font-family="Courier New" font-size="6" font-weight="bold" text-anchor="middle" x="10.8" y="127.75000000000001">3.3V</text></g><g><line stroke="#8C8C8C" stroke-linecap="round" stroke-width="0.7087" x1="25.6" x2="10.8" y1="133.2" y2="133.2" /><rect fill="#920000" height="6.0661" rx="1.1339" ry="1.1339" width="20.4661" x="0.5669" y="130.1669" /><text fill="white" font-family="Courier New" font-size="6" font-weight="bold" text-anchor="middle" x="10.8" y="134.95000000000005">5V</text></g><g><line stroke="#8C8C8C" stroke-linecap="round" stroke-width="0.7087" x1="25.6" x2="10.8" y1="140.4" y2="140.4" /><rect fill="#000000" height="6.0661" rx="1.1339" ry="1.1339" width="20.4661" x="0.5669" y="137.3669" /><text fill="white" font-family="Courier New" font-size="6" font-weight="bold" text-anchor="middle" x="10.8" y="142.15000000000003">GND</text></g><g><line stroke="#8C8C8C" stroke-linecap="round" stroke-width="0.7087" x1="25.6" x2="10.8" y1="147.6" y2="147.6" /><rect fill="#000000" height="6.0661" rx="1.1339" ry="1.1339" width="20.4661" x="0.5669" y="144.5669" /><text fill="white" font-family="Courier New" font-size="6" font-weight="bold" text-anchor="middle" x="10.8" y="149.35000000000005">GND</text></g><g><line stroke="#8C8C8C" stroke-linecap="round" stroke-width="0.7087" x1="25.6" x2="10.8" y1="154.8" y2="154.8" /><rect fill="#920000" height="6.0661" rx="1.1339" ry="1.1339" width="20.4661" x="0.5669" y="151.7669" /><text fill="white" font-family="Courier New" font-size="6" font-weight="bold" text-anchor="middle" x="10.8" y="156.55000000000004">VIN</text></g><g><line stroke="#8C8C8C" stroke-linecap="round" stroke-width="0.7087" x1="25.6" x2="10.8" y1="162.0" y2="162.0" /><rect fill="#E6E6E6" height="5.7118" rx="0.9567" ry="0.9567" stroke="#737373" stroke-width="0.3543" width="20.1118" x="0.7441" y="159.1441" /><text fill="black" font-family="Courier New" font-size="6" font-weight="bold" text-anchor="middle" x="10.799999999999999" y="163.75000000000003">AREF</text></g><g><line stroke="#8C8C8C" stroke-linecap="round" stroke-width="0.7087" x1="25.6" x2="-27.0" y1="169.2" y2="169.2" /><rect fill="#E6E6E6" height="5.7118" rx="0.9567" ry="0.9567" stroke="#737373" stroke-width="0.3543" width="20.1118" x="0.7441" y="166.3441" /><text fill="black" font-family="Courier New" font-size="6" font-weight="bold" text-anchor="middle" x="10.799999999999999" y="170.95000000000002">AD0</text><rect fill="#004949" height="6.0661" rx="1.1339" ry="1.1339" width="9.6661" x="-10.2331" y="166.1669" /><text fill="white" font-family="Courier New" font-size="6" font-weight="bold" text-anchor="middle" x="-5.3999999999999995" y="170.95000000000005">14</text><rect fill="#FFFF6D" height="6.0661" rx="1.1339" ry="1.1339" width="13.2661" x="-24.6331" y="166.1669" /><text fill="black" font-family="Courier New" font-size="6" text-anchor="middle" x="-18.000000000000004" y="170.95000000000005">PC0</text><rect fill="#24FF24" height="6.0661" rx="1.1339" ry="1.1339" width="9.6661" x="-35.4331" y="166.1669" /><text fill="black" font-family="Courier New" font-size="6" text-anchor="middle" x="-30.6" y="170.95000000000005">A0</text></g><g><line stroke="#8C8C8C" stroke-linecap="round" stroke-width="0.7087" x1="25.6" x2="-27.0" y1="176.4" y2="176.4" /><rect fill="#E6E6E6" height="5.7118" rx="0.9567" ry="0.9567" stroke="#737373" stroke-width="0.3543" width="20.1118" x="0.7441" y="173.5441" /><text fill="black" font-family="Courier New" font-size="6" font-weight="bold" text-anchor="middle" x="10.799999999999999" y="178.15">AD1</text><rect fill="#004949" height="6.0661" rx="1.1339" ry="1.1339" width="9.6661" x="-10.2331" y="173.3669" /><text fill="white" font-family="Courier New" font-size="6" font-weight="bold" text-anchor="middle" x="-5.3999999999999995" y="178.15000000000003">15</text><rect fill="#FFFF6D" height="6.0661" rx="1.1339" ry="1.1339" width="13.2661" x="-24.6331" y="173.3669" /><text fill="black" font-family="Courier New" font-size="6" text-anchor="middle" x="-18.000000000000004" y="178.15000000000003">PC1</text><rect fill="#24FF24" height="6.0661" rx="1.1339" ry="1.1339" width="9.6661" x="-35.4331" y="173.3669" /><text fill="black" font-family="Courier New" font-size="6" text-anchor="middle" x="-30.6" y="178.15000000000003">A1</text></g><g><line stroke="#8C8C8C" stroke-linecap="round" stroke-width="0.7087" x1="25.6" x2="-27.0" y1="183.6" y2="183.6" /><rect fill="#E6E6E6" height="5.7118" rx="0.9567" ry="0.9567" stroke="#737373" stroke-width="0.3543" width="20.1118" x="0.7441" y="180.7441" /><text fill="black" font-family="Courier New" font-size="6" font-weight="bold" text-anchor="middle" x="10.799999999999999" y="185.35000000000002">AD2</text><rect fill="#004949" height="6.0661" rx="1.1339" ry="1.1339" width="9.6661" x="-10.2331" y="180.5669" /><text fill="white" font-family="Courier New" font-size="6" font-weight="bold" text-anchor="middle" x="-5.3999999999999995" y="185.35000000000005">16</text><rect fill="#FFFF6D" height="6.0661" rx="1.1339" ry="1.1339" width="13.2661" x="-24.6331" y="180.5669" /><text fill="black" font-family="Courier New" font-size="6" text-anchor="middle" x="-18.000000000000004" y="185.35000000000005">PC2</text><rect fill="#24FF24" height="6.0661" rx="1.1339" ry="1.1339" width="9.6661" x="-35.4331" y="180.5669" /><text fill="black" font-family="Courier New" font-size="6" text-anchor="middle" x="-30.6" y="185.35000000000005">A2</text></g><g><line stroke="#8C8C8C" stroke-linecap="round" stroke-width="0.7087" x1="25.6" x2="-27.0" y1="190.8" y2="190.8" /><rect fill="#E6E6E6" height="5.7118" rx="0.9567" ry="0.9567" stroke="#737373" stroke-width="0.3543" width="20.1118" x="0.7441" y="187.9441" /><text fill="black" font-family="Courier New" font-size="6" font-weight="bold" text-anchor="middle" x="10.799999999999999" y="192.55">AD3</text><rect fill="#004949" height="6.0661" rx="1.1339" ry="1.1339" width="9.6661" x="-10.2331" y="187.7669" /><text fill="white" font-family="Courier New" font-size="6" font-weight="bold" text-anchor="middle" x="-5.3999999999999995" y="192.55000000000004">17</text><rect fill="#FFFF6D" height="6.0661" rx="1.1339" ry="1.1339" width="13.2661" x="-24.6331" y="187.7669" /><text fill="black" font-family="Courier New" font-size="6" text-anchor="middle" x="-18.000000000000004" y="192.55000000000004">PC3</text><rect fill="#24FF24" height="6.0661" rx="1.1339" ry="1.1339" width="9.6661" x="-35.4331" y="187.7669" /><text fill="black" font-family="Courier New" font-size="6" text-anchor="middle" x="-30.6" y="192.55000000000004">A3</text></g><g><line stroke="#8C8C8C" stroke-linecap="round" stroke-width="0.7087" x1="25.6" x2="-48.6" y1="198.0" y2="198.0" /><rect fill="#E6E6E6" height="5.7118" rx="0.9567" ry="0.9567" stroke="#737373" stroke-width="0.3543" width="27.3118" x="-6.4559" y="195.1441" /><text fill="black" font-family="Courier New" font-size="6" font-weight="bold" text-anchor="middle" x="7.1999999999999975" y="199.75000000000003">AD4/SDA</text><rect fill="#004949" height="6.0661" rx="1.1339" ry="1.1339" width="9.6661" x="-17.4331" y="194.9669" /><text fill="white" font-family="Courier New" font-size="6" font-weight="bold" text-anchor="middle" x="-12.600000000000005" y="199.75000000000006">18</text><rect fill="#FFFF6D" height="6.0661" rx="1.1339" ry="1.1339" width="13.2661" x="-31.8331" y="194.9669" /><text fill="black" font-family="Courier New" font-size="6" text-anchor="middle" x="-25.200000000000006" y="199.75000000000006">PC4</text><rect fill="#24FF24" height="6.0661" rx="1.1339" ry="1.1339" width="9.6661" x="-42.6331" y="194.9669" /><text fill="black" font-family="Courier New" font-size="6" text-anchor="middle" x="-37.800000000000004" y="199.75000000000006">A4</text><rect fill="#009292" height="6.0661" rx="1.1339" ry="1.1339" width="16.8661" x="-60.6331" y="194.9669" /><text fill="white" font-family="Courier New" font-size="6" text-anchor="middle" x="-52.2" y="199.75000000000006">SDA</text></g><g><line stroke="#8C8C8C" stroke-linecap="round" stroke-width="0.7087" x1="25.6" x2="-48.6" y1="205.2" y2="205.2" /><rect fill="#E6E6E6" height="5.7118" rx="0.9567" ry="0.9567" stroke="#737373" stroke-width="0.3543" width="27.3118" x="-6.4559" y="202.3441" /><text fill="black" font-family="Courier New" font-size="6" font-weight="bold" text-anchor="middle" x="7.1999999999999975" y="206.95000000000002">AD5/SCL</text><rect fill="#004949" height="6.0661" rx="1.1339" ry="1.1339" width="9.6661" x="-17.4331" y="202.1669" /><text fill="white" font-family="Courier New" font-size="6" font-weight="bold" text-anchor="middle" x="-12.600000000000005" y="206.95000000000005">19</text><rect fill="#FFFF6D" height="6.0661" rx="1.1339" ry="1.1339" width="13.2661" x="-31.8331" y="202.1669" /><text fill="black" font-family="Courier New" font-size="6" text-anchor="middle" x="-25.200000000000006" y="206.95000000000005">PC5</text><rect fill="#24FF24" height="6.0661" rx="1.1339" ry="1.1339" width="9.6661" x="-42.6331" y="202.1669" /><text fill="black" font-family="Courier New" font-size="6" text-anchor="middle" x="-37.800000000000004" y="206.95000000000005">A5</text><rect fill="#009292" height="6.0661" rx="1.1339" ry="1.1339" width="16.8661" x="-60.6331" y="202.1669" /><text fill="white" font-family="Courier New" font-size="6" text-anchor="middle" x="-52.2" y="206.95000000000005">SCL</text></g><g><rect fill="#920000" height="6.0661" rx="1.1339" ry="1.1339" width="6.0661" x="0.5669" y="252.5669" /><text fill="black" font-family="Courier New" font-size="6" font-weight="bold" text-anchor="start" x="8.64" y="257.35">Power</text><rect fill="#000000" height="6.0661" rx="1.1339" ry="1.1339" width="6.0661" x="0.5669" y="259.7669" /><text fill="black" font-family="Courier New" font-size="6" font-weight="bold" text-anchor="start" x="8.64" y="264.55000000000007">GND</text><rect fill="#490092" height="6.0661" rx="1.1339" ry="1.1339" width="6.0661" x="0.5669" y="266.9669" /><text fill="black" font-family="Courier New" font-size="6" font-weight="bold" text-anchor="start" x="8.64" y="271.75000000000006">Control</text><rect fill="#E6E6E6" height="5.7118" rx="0.9567" ry="0.9567" stroke="#737373" stroke-width="0.3543" width="5.7118" x="0.7441" y="274.3441" /><text fill="black" font-family="Courier New" font-size="6" font-weight="bold" text-anchor="start" x="8.64" y="278.95000000000005">CircuitPython Name</text><rect fill="#004949" height="6.0661" rx="1.1339" ry="1.1339" width="6.0661" x="0.5669" y="281.3669" /><text fill="black" font-family="Courier New" font-size="6" font-weight="bold" text-anchor="start" x="8.64" y="286.15000000000003">Arduino Name</text><rect fill="#FFFF6D" height="6.0661" rx="1.1339" ry="1.1339" width="6.0661" x="0.5669" y="288.5669" /><text fill="black" font-family="Courier New" font-size="6" font-weight="bold" text-anchor="start" x="8.64" y="293.35">GPIO</text><rect fill="#24FF24" height="6.0661" rx="1.1339" ry="1.1339" width="6.0661" x="0.5669" y="295.7669" /><text fill="black" font-family="Courier New" font-size="6" font-weight="bold" text-anchor="start" x="8.64" y="300.55">ADC</text><rect fill="#009292" height="6.0661" rx="1.1339" ry="1.1339" width="6.0661" x="0.5669" y="302.9669" /><text fill="black" font-family="Courier New" font-size="6" font-weight="bold" text-anchor="start" x="8.64" y="307.75">Other</text><rect fill="#B6DBFF" height="6.0661" rx="1.1339" ry="1.1339" width="6.0661" x="0.5669" y="310.1669" /><text fill="black" font-family="Courier New" font-size="6" font-weight="bold" text-anchor="start" x="8.64" y="314.95">PWM</text></g><g><text fill="black" font-family="Courier New" font-size="16" font-weight="bold" text-anchor="end" x="0" y="-40">Adafruit Metro Mini</text><text fill="black" font-family="Courier New" font-size="12" font-weight="bold" text-anchor="end" x="0" y="-25">https://www.adafruit.com/products/2590</text></g><g /></svg>