<?xml version="1.0" encoding="utf-8" ?>
<svg baseProfile="tiny" height="100" version="1.2" width="100" xmlns="http://www.w3.org/2000/svg" xmlns:ev="http://www.w3.org/2001/xml-events" xmlns:xlink="http://www.w3.org/1999/xlink"><defs /><g><line stroke="#8C8C8C" stroke-linecap="round" stroke-width="0.7087" x1="-4" x2="10.8" y1="3.6" y2="3.6" /><rect fill="#000000" height="6.0661" rx="1.1339" ry="1.1339" width="20.4661" x="0.5669" y="0.5669" /><text fill="white" font-family="Courier New" font-size="6" font-weight="bold" text-anchor="middle" x="10.8" y="5.3500000000000005">GND</text></g><g><line stroke="#8C8C8C" stroke-linecap="round" stroke-width="0.7087" x1="-4" x2="10.8" y1="10.8" y2="10.8" /><rect fill="#920000" height="6.0661" rx="1.1339" ry="1.1339" width="20.4661" x="0.5669" y="7.7669" /><text fill="white" font-family="Courier New" font-size="6" font-weight="bold" text-anchor="middle" x="10.8" y="12.55">3.3V</text></g><g><line stroke="#8C8C8C" stroke-linecap="round" stroke-width="0.7087" x1="-4" x2="73.8" y1="18.0" y2="18.0" /><rect fill="#E6E6E6" height="5.7118" rx="0.9567" ry="0.9567" stroke="#737373" stroke-width="0.3543" width="20.1118" x="0.7441" y="15.1441" /><text fill="black" font-family="Courier New" font-size="6" font-weight="bold" text-anchor="middle" x="10.799999999999999" y="19.750000000000004">SDA</text><rect fill="#004949" height="6.0661" rx="1.1339" ry="1.1339" width="20.4661" x="22.1669" y="14.9669" /><text fill="white" font-family="Courier New" font-size="6" font-weight="bold" text-anchor="middle" x="32.4" y="19.750000000000004">20</text><rect fill="#FFFF6D" height="6.0661" rx="1.1339" ry="1.1339" width="20.4661" x="43.7669" y="14.9669" /><text fill="black" font-family="Courier New" font-size="6" text-anchor="middle" x="54.0" y="19.750000000000004">P0.24</text><rect fill="#24FF24" height="6.0661" rx="1.1339" ry="1.1339" width="16.8661" x="65.3669" y="14.9669" /><text fill="black" font-family="Courier New" font-size="6" text-anchor="middle" x="73.80000000000001" y="19.750000000000004">HS</text></g><g><line stroke="#8C8C8C" stroke-linecap="round" stroke-width="0.7087" x1="-4" x2="73.8" y1="25.2" y2="25.2" /><rect fill="#E6E6E6" height="5.7118" rx="0.9567" ry="0.9567" stroke="#737373" stroke-width="0.3543" width="20.1118" x="0.7441" y="22.3441" /><text fill="black" font-family="Courier New" font-size="6" font-weight="bold" text-anchor="middle" x="10.799999999999999" y="26.95">SCL</text><rect fill="#004949" height="6.0661" rx="1.1339" ry="1.1339" width="20.4661" x="22.1669" y="22.1669" /><text fill="white" font-family="Courier New" font-size="6" font-weight="bold" text-anchor="middle" x="32.4" y="26.950000000000003">19</text><rect fill="#FFFF6D" height="6.0661" rx="1.1339" ry="1.1339" width="20.4661" x="43.7669" y="22.1669" /><text fill="black" font-family="Courier New" font-size="6" text-anchor="middle" x="54.0" y="26.950000000000003">P0.25</text><rect fill="#24FF24" height="6.0661" rx="1.1339" ry="1.1339" width="16.8661" x="65.3669" y="22.1669" /><text fill="black" font-family="Courier New" font-size="6" text-anchor="middle" x="73.80000000000001" y="26.950000000000003">HS</text></g><g><line stroke="#8C8C8C" stroke-linecap="round" stroke-width="0.7087" x1="-4" x2="10.8" y1="61.2" y2="61.2" /><rect fill="#920000" height="6.0661" rx="1.1339" ry="1.1339" width="20.4661" x="0.5669" y="58.1669" /><text fill="white" font-family="Courier New" font-size="6" font-weight="bold" text-anchor="middle" x="10.8" y="62.95000000000001">VBAT</text></g><g><line stroke="#8C8C8C" stroke-linecap="round" stroke-width="0.7087" x1="-4" x2="10.8" y1="68.4" y2="68.4" /><rect fill="#000000" height="6.0661" rx="1.1339" ry="1.1339" width="20.4661" x="0.5669" y="65.3669" /><text fill="white" font-family="Courier New" font-size="6" font-weight="bold" text-anchor="middle" x="10.8" y="70.15">GND</text></g><g><line stroke="#8C8C8C" stroke-linecap="round" stroke-width="0.7087" x1="-4" x2="10.8" y1="75.6" y2="75.6" /><rect fill="#000000" height="6.0661" rx="1.1339" ry="1.1339" width="20.4661" x="0.5669" y="72.5669" /><text fill="white" font-family="Courier New" font-size="6" font-weight="bold" text-anchor="middle" x="10.8" y="77.35000000000001">GND</text></g><g><line stroke="#8C8C8C" stroke-linecap="round" stroke-width="0.7087" x1="-4" x2="10.8" y1="82.8" y2="82.8" /><rect fill="#000000" height="6.0661" rx="1.1339" ry="1.1339" width="20.4661" x="0.5669" y="79.7669" /><text fill="white" font-family="Courier New" font-size="6" font-weight="bold" text-anchor="middle" x="10.8" y="84.55000000000001">GND</text></g><g><line stroke="#8C8C8C" stroke-linecap="round" stroke-width="0.7087" x1="-4" x2="10.8" y1="90.0" y2="90.0" /><rect fill="#000000" height="6.0661" rx="1.1339" ry="1.1339" width="20.4661" x="0.5669" y="86.9669" /><text fill="white" font-family="Courier New" font-size="6" font-weight="bold" text-anchor="middle" x="10.8" y="91.75">GND</text></g><g><line stroke="#8C8C8C" stroke-linecap="round" stroke-width="0.7087" x1="-4" x2="73.8" y1="97.2" y2="97.2" /><rect fill="#E6E6E6" height="5.7118" rx="0.9567" ry="0.9567" stroke="#737373" stroke-width="0.3543" width="20.1118" x="0.7441" y="94.3441" /><text fill="black" font-family="Courier New" font-size="6" font-weight="bold" text-anchor="middle" x="10.799999999999999" y="98.95000000000002">SDA</text><rect fill="#004949" height="6.0661" rx="1.1339" ry="1.1339" width="20.4661" x="22.1669" y="94.1669" /><text fill="white" font-family="Courier New" font-size="6" font-weight="bold" text-anchor="middle" x="32.4" y="98.95">20</text><rect fill="#FFFF6D" height="6.0661" rx="1.1339" ry="1.1339" width="20.4661" x="43.7669" y="94.1669" /><text fill="black" font-family="Courier New" font-size="6" text-anchor="middle" x="54.0" y="98.95">P0.24</text><rect fill="#24FF24" height="6.0661" rx="1.1339" ry="1.1339" width="16.8661" x="65.3669" y="94.1669" /><text fill="black" font-family="Courier New" font-size="6" text-anchor="middle" x="73.80000000000001" y="98.95">HS</text></g><g><line stroke="#8C8C8C" stroke-linecap="round" stroke-width="0.7087" x1="-4" x2="73.8" y1="104.4" y2="104.4" /><rect fill="#E6E6E6" height="5.7118" rx="0.9567" ry="0.9567" stroke="#737373" stroke-width="0.3543" width="20.1118" x="0.7441" y="101.5441" /><text fill="black" font-family="Courier New" font-size="6" font-weight="bold" text-anchor="middle" x="10.799999999999999" y="106.15000000000002">SCL</text><rect fill="#004949" height="6.0661" rx="1.1339" ry="1.1339" width="20.4661" x="22.1669" y="101.3669" /><text fill="white" font-family="Courier New" font-size="6" font-weight="bold" text-anchor="middle" x="32.4" y="106.15">19</text><rect fill="#FFFF6D" height="6.0661" rx="1.1339" ry="1.1339" width="20.4661" x="43.7669" y="101.3669" /><text fill="black" font-family="Courier New" font-size="6" text-anchor="middle" x="54.0" y="106.15">P0.25</text><rect fill="#24FF24" height="6.0661" rx="1.1339" ry="1.1339" width="16.8661" x="65.3669" y="101.3669" /><text fill="black" font-family="Courier New" font-size="6" text-anchor="middle" x="73.80000000000001" y="106.15">HS</text></g><g><line stroke="#8C8C8C" stroke-linecap="round" stroke-width="0.7087" x1="-4" x2="10.8" y1="111.6" y2="111.6" /><rect fill="#920000" height="6.0661" rx="1.1339" ry="1.1339" width="20.4661" x="0.5669" y="108.5669" /><text fill="white" font-family="Courier New" font-size="6" font-weight="bold" text-anchor="middle" x="10.8" y="113.35000000000001">3.3V</text></g><g><line stroke="#8C8C8C" stroke-linecap="round" stroke-width="0.7087" x1="-4" x2="10.8" y1="118.8" y2="118.8" /><rect fill="#920000" height="6.0661" rx="1.1339" ry="1.1339" width="20.4661" x="0.5669" y="115.7669" /><text fill="white" font-family="Courier New" font-size="6" font-weight="bold" text-anchor="middle" x="10.8" y="120.55000000000001">3.3V</text></g><g><line stroke="#8C8C8C" stroke-linecap="round" stroke-width="0.7087" x1="-4" x2="10.8" y1="126.0" y2="126.0" /><rect fill="#920000" height="6.0661" rx="1.1339" ry="1.1339" width="20.4661" x="0.5669" y="122.9669" /><text fill="white" font-family="Courier New" font-size="6" font-weight="bold" text-anchor="middle" x="10.8" y="127.75000000000001">3.3V</text></g><g><line stroke="#8C8C8C" stroke-linecap="round" stroke-width="0.7087" x1="-4" x2="102.6" y1="133.2" y2="133.2" /><rect fill="#E6E6E6" height="5.7118" rx="0.9567" ry="0.9567" stroke="#737373" stroke-width="0.3543" width="20.1118" x="0.7441" y="130.3441" /><text fill="black" font-family="Courier New" font-size="6" font-weight="bold" text-anchor="middle" x="10.799999999999999" y="134.95000000000002">A1</text><rect fill="#004949" height="6.0661" rx="1.1339" ry="1.1339" width="20.4661" x="22.1669" y="130.1669" /><text fill="white" font-family="Courier New" font-size="6" font-weight="bold" text-anchor="middle" x="32.4" y="134.95000000000005">16</text><rect fill="#FFFF6D" height="6.0661" rx="1.1339" ry="1.1339" width="20.4661" x="43.7669" y="130.1669" /><text fill="black" font-family="Courier New" font-size="6" text-anchor="middle" x="54.0" y="134.95000000000005">P0.29</text><rect fill="#009292" height="6.0661" rx="1.1339" ry="1.1339" width="9.6661" x="83.3669" y="130.1669" /><text fill="white" font-family="Courier New" font-size="6" text-anchor="middle" x="88.20000000000002" y="134.95000000000005">LS</text><rect fill="#B6DBFF" height="6.0661" rx="1.1339" ry="1.1339" width="16.8661" x="94.1669" y="130.1669" /><text fill="black" font-family="Courier New" font-size="6" text-anchor="middle" x="102.60000000000001" y="134.95000000000005">AIN5</text></g><g><line stroke="#8C8C8C" stroke-linecap="round" stroke-width="0.7087" x1="-4" x2="73.8" y1="140.4" y2="140.4" /><rect fill="#E6E6E6" height="5.7118" rx="0.9567" ry="0.9567" stroke="#737373" stroke-width="0.3543" width="20.1118" x="0.7441" y="137.5441" /><text fill="black" font-family="Courier New" font-size="6" font-weight="bold" text-anchor="middle" x="10.799999999999999" y="142.15">MOSI</text><rect fill="#004949" height="6.0661" rx="1.1339" ry="1.1339" width="20.4661" x="22.1669" y="137.3669" /><text fill="white" font-family="Courier New" font-size="6" font-weight="bold" text-anchor="middle" x="32.4" y="142.15000000000003">15</text><rect fill="#FFFF6D" height="6.0661" rx="1.1339" ry="1.1339" width="20.4661" x="43.7669" y="137.3669" /><text fill="black" font-family="Courier New" font-size="6" text-anchor="middle" x="54.0" y="142.15000000000003">P0.26</text><rect fill="#24FF24" height="6.0661" rx="1.1339" ry="1.1339" width="16.8661" x="65.3669" y="137.3669" /><text fill="black" font-family="Courier New" font-size="6" text-anchor="middle" x="73.80000000000001" y="142.15000000000003">HS</text></g><g><line stroke="#8C8C8C" stroke-linecap="round" stroke-width="0.7087" x1="-4" x2="73.8" y1="147.6" y2="147.6" /><rect fill="#E6E6E6" height="5.7118" rx="0.9567" ry="0.9567" stroke="#737373" stroke-width="0.3543" width="20.1118" x="0.7441" y="144.7441" /><text fill="black" font-family="Courier New" font-size="6" font-weight="bold" text-anchor="middle" x="10.799999999999999" y="149.35000000000002">MISO</text><rect fill="#004949" height="6.0661" rx="1.1339" ry="1.1339" width="20.4661" x="22.1669" y="144.5669" /><text fill="white" font-family="Courier New" font-size="6" font-weight="bold" text-anchor="middle" x="32.4" y="149.35000000000005">14</text><rect fill="#FFFF6D" height="6.0661" rx="1.1339" ry="1.1339" width="20.4661" x="43.7669" y="144.5669" /><text fill="black" font-family="Courier New" font-size="6" text-anchor="middle" x="54.0" y="149.35000000000005">P0.06</text><rect fill="#24FF24" height="6.0661" rx="1.1339" ry="1.1339" width="16.8661" x="65.3669" y="144.5669" /><text fill="black" font-family="Courier New" font-size="6" text-anchor="middle" x="73.80000000000001" y="149.35000000000005">HS</text></g><g><line stroke="#8C8C8C" stroke-linecap="round" stroke-width="0.7087" x1="-4" x2="73.8" y1="154.8" y2="154.8" /><rect fill="#E6E6E6" height="5.7118" rx="0.9567" ry="0.9567" stroke="#737373" stroke-width="0.3543" width="20.1118" x="0.7441" y="151.9441" /><text fill="black" font-family="Courier New" font-size="6" font-weight="bold" text-anchor="middle" x="10.799999999999999" y="156.55">SCK</text><rect fill="#004949" height="6.0661" rx="1.1339" ry="1.1339" width="20.4661" x="22.1669" y="151.7669" /><text fill="white" font-family="Courier New" font-size="6" font-weight="bold" text-anchor="middle" x="32.4" y="156.55000000000004">13</text><rect fill="#FFFF6D" height="6.0661" rx="1.1339" ry="1.1339" width="20.4661" x="43.7669" y="151.7669" /><text fill="black" font-family="Courier New" font-size="6" text-anchor="middle" x="54.0" y="156.55000000000004">P0.08</text><rect fill="#24FF24" height="6.0661" rx="1.1339" ry="1.1339" width="16.8661" x="65.3669" y="151.7669" /><text fill="black" font-family="Courier New" font-size="6" text-anchor="middle" x="73.80000000000001" y="156.55000000000004">HS</text></g><g><line stroke="#8C8C8C" stroke-linecap="round" stroke-width="0.7087" x1="-4" x2="102.6" y1="162.0" y2="162.0" /><rect fill="#E6E6E6" height="5.7118" rx="0.9567" ry="0.9567" stroke="#737373" stroke-width="0.3543" width="20.1118" x="0.7441" y="159.1441" /><text fill="black" font-family="Courier New" font-size="6" font-weight="bold" text-anchor="middle" x="10.799999999999999" y="163.75000000000003">A4</text><rect fill="#004949" height="6.0661" rx="1.1339" ry="1.1339" width="20.4661" x="22.1669" y="158.9669" /><text fill="white" font-family="Courier New" font-size="6" font-weight="bold" text-anchor="middle" x="32.4" y="163.75000000000006">2</text><rect fill="#FFFF6D" height="6.0661" rx="1.1339" ry="1.1339" width="20.4661" x="43.7669" y="158.9669" /><text fill="black" font-family="Courier New" font-size="6" text-anchor="middle" x="54.0" y="163.75000000000006">P0.03</text><rect fill="#009292" height="6.0661" rx="1.1339" ry="1.1339" width="9.6661" x="83.3669" y="158.9669" /><text fill="white" font-family="Courier New" font-size="6" text-anchor="middle" x="88.20000000000002" y="163.75000000000006">LS</text><rect fill="#B6DBFF" height="6.0661" rx="1.1339" ry="1.1339" width="16.8661" x="94.1669" y="158.9669" /><text fill="black" font-family="Courier New" font-size="6" text-anchor="middle" x="102.60000000000001" y="163.75000000000006">AIN1</text></g><g><line stroke="#8C8C8C" stroke-linecap="round" stroke-width="0.7087" x1="-4" x2="102.6" y1="169.2" y2="169.2" /><rect fill="#E6E6E6" height="5.7118" rx="0.9567" ry="0.9567" stroke="#737373" stroke-width="0.3543" width="20.1118" x="0.7441" y="166.3441" /><text fill="black" font-family="Courier New" font-size="6" font-weight="bold" text-anchor="middle" x="10.799999999999999" y="170.95000000000002">A0</text><rect fill="#004949" height="6.0661" rx="1.1339" ry="1.1339" width="20.4661" x="22.1669" y="166.1669" /><text fill="white" font-family="Courier New" font-size="6" font-weight="bold" text-anchor="middle" x="32.4" y="170.95000000000005">12</text><rect fill="#FFFF6D" height="6.0661" rx="1.1339" ry="1.1339" width="20.4661" x="43.7669" y="166.1669" /><text fill="black" font-family="Courier New" font-size="6" text-anchor="middle" x="54.0" y="170.95000000000005">P0.31</text><rect fill="#009292" height="6.0661" rx="1.1339" ry="1.1339" width="9.6661" x="83.3669" y="166.1669" /><text fill="white" font-family="Courier New" font-size="6" text-anchor="middle" x="88.20000000000002" y="170.95000000000005">LS</text><rect fill="#B6DBFF" height="6.0661" rx="1.1339" ry="1.1339" width="16.8661" x="94.1669" y="166.1669" /><text fill="black" font-family="Courier New" font-size="6" text-anchor="middle" x="102.60000000000001" y="170.95000000000005">AIN7</text></g><g><line stroke="#8C8C8C" stroke-linecap="round" stroke-width="0.7087" x1="-4" x2="99.0" y1="176.4" y2="176.4" /><rect fill="#E6E6E6" height="5.7118" rx="0.9567" ry="0.9567" stroke="#737373" stroke-width="0.3543" width="30.9118" x="0.7441" y="173.5441" /><text fill="black" font-family="Courier New" font-size="6" font-weight="bold" text-anchor="middle" x="16.200000000000003" y="178.15">BUTTON_B</text><rect fill="#004949" height="6.0661" rx="1.1339" ry="1.1339" width="20.4661" x="32.9669" y="173.3669" /><text fill="white" font-family="Courier New" font-size="6" font-weight="bold" text-anchor="middle" x="43.2" y="178.15000000000003">11</text><rect fill="#FFFF6D" height="6.0661" rx="1.1339" ry="1.1339" width="20.4661" x="54.5669" y="173.3669" /><text fill="black" font-family="Courier New" font-size="6" text-anchor="middle" x="64.80000000000001" y="178.15000000000003">P1.10</text><rect fill="#009292" height="6.0661" rx="1.1339" ry="1.1339" width="9.6661" x="94.1669" y="173.3669" /><text fill="white" font-family="Courier New" font-size="6" text-anchor="middle" x="99.00000000000001" y="178.15000000000003">LS</text></g><g><line stroke="#8C8C8C" stroke-linecap="round" stroke-width="0.7087" x1="-4" x2="102.6" y1="183.6" y2="183.6" /><rect fill="#E6E6E6" height="5.7118" rx="0.9567" ry="0.9567" stroke="#737373" stroke-width="0.3543" width="20.1118" x="0.7441" y="180.7441" /><text fill="black" font-family="Courier New" font-size="6" font-weight="bold" text-anchor="middle" x="10.799999999999999" y="185.35000000000002">A7</text><rect fill="#004949" height="6.0661" rx="1.1339" ry="1.1339" width="20.4661" x="22.1669" y="180.5669" /><text fill="white" font-family="Courier New" font-size="6" font-weight="bold" text-anchor="middle" x="32.4" y="185.35000000000005">10</text><rect fill="#FFFF6D" height="6.0661" rx="1.1339" ry="1.1339" width="20.4661" x="43.7669" y="180.5669" /><text fill="black" font-family="Courier New" font-size="6" text-anchor="middle" x="54.0" y="185.35000000000005">P0.30</text><rect fill="#009292" height="6.0661" rx="1.1339" ry="1.1339" width="9.6661" x="83.3669" y="180.5669" /><text fill="white" font-family="Courier New" font-size="6" text-anchor="middle" x="88.20000000000002" y="185.35000000000005">LS</text><rect fill="#B6DBFF" height="6.0661" rx="1.1339" ry="1.1339" width="16.8661" x="94.1669" y="180.5669" /><text fill="black" font-family="Courier New" font-size="6" text-anchor="middle" x="102.60000000000001" y="185.35000000000005">AIN6</text></g><g><line stroke="#8C8C8C" stroke-linecap="round" stroke-width="0.7087" x1="-4" x2="73.8" y1="190.8" y2="190.8" /><rect fill="#E6E6E6" height="5.7118" rx="0.9567" ry="0.9567" stroke="#737373" stroke-width="0.3543" width="20.1118" x="0.7441" y="187.9441" /><text fill="black" font-family="Courier New" font-size="6" font-weight="bold" text-anchor="middle" x="10.799999999999999" y="192.55">D9</text><rect fill="#004949" height="6.0661" rx="1.1339" ry="1.1339" width="20.4661" x="22.1669" y="187.7669" /><text fill="white" font-family="Courier New" font-size="6" font-weight="bold" text-anchor="middle" x="32.4" y="192.55000000000004">9</text><rect fill="#FFFF6D" height="6.0661" rx="1.1339" ry="1.1339" width="20.4661" x="43.7669" y="187.7669" /><text fill="black" font-family="Courier New" font-size="6" text-anchor="middle" x="54.0" y="192.55000000000004">P0.27</text><rect fill="#24FF24" height="6.0661" rx="1.1339" ry="1.1339" width="16.8661" x="65.3669" y="187.7669" /><text fill="black" font-family="Courier New" font-size="6" text-anchor="middle" x="73.80000000000001" y="192.55000000000004">HS</text></g><g><line stroke="#8C8C8C" stroke-linecap="round" stroke-width="0.7087" x1="-4" x2="88.2" y1="198.0" y2="198.0" /><rect fill="#E6E6E6" height="5.7118" rx="0.9567" ry="0.9567" stroke="#737373" stroke-width="0.3543" width="20.1118" x="0.7441" y="195.1441" /><text fill="black" font-family="Courier New" font-size="6" font-weight="bold" text-anchor="middle" x="10.799999999999999" y="199.75000000000003">D8</text><rect fill="#004949" height="6.0661" rx="1.1339" ry="1.1339" width="20.4661" x="22.1669" y="194.9669" /><text fill="white" font-family="Courier New" font-size="6" font-weight="bold" text-anchor="middle" x="32.4" y="199.75000000000006">8</text><rect fill="#FFFF6D" height="6.0661" rx="1.1339" ry="1.1339" width="20.4661" x="43.7669" y="194.9669" /><text fill="black" font-family="Courier New" font-size="6" text-anchor="middle" x="54.0" y="199.75000000000006">P1.07</text><rect fill="#009292" height="6.0661" rx="1.1339" ry="1.1339" width="9.6661" x="83.3669" y="194.9669" /><text fill="white" font-family="Courier New" font-size="6" text-anchor="middle" x="88.20000000000002" y="199.75000000000006">LS</text></g><g><line stroke="#8C8C8C" stroke-linecap="round" stroke-width="0.7087" x1="-4" x2="102.6" y1="205.2" y2="205.2" /><rect fill="#E6E6E6" height="5.7118" rx="0.9567" ry="0.9567" stroke="#737373" stroke-width="0.3543" width="20.1118" x="0.7441" y="202.3441" /><text fill="black" font-family="Courier New" font-size="6" font-weight="bold" text-anchor="middle" x="10.799999999999999" y="206.95000000000002">A3</text><rect fill="#004949" height="6.0661" rx="1.1339" ry="1.1339" width="20.4661" x="22.1669" y="202.1669" /><text fill="white" font-family="Courier New" font-size="6" font-weight="bold" text-anchor="middle" x="32.4" y="206.95000000000005">1</text><rect fill="#FFFF6D" height="6.0661" rx="1.1339" ry="1.1339" width="20.4661" x="43.7669" y="202.1669" /><text fill="black" font-family="Courier New" font-size="6" text-anchor="middle" x="54.0" y="206.95000000000005">P0.05</text><rect fill="#24FF24" height="6.0661" rx="1.1339" ry="1.1339" width="16.8661" x="65.3669" y="202.1669" /><text fill="black" font-family="Courier New" font-size="6" text-anchor="middle" x="73.80000000000001" y="206.95000000000005">HS</text><rect fill="#B6DBFF" height="6.0661" rx="1.1339" ry="1.1339" width="16.8661" x="94.1669" y="202.1669" /><text fill="black" font-family="Courier New" font-size="6" text-anchor="middle" x="102.60000000000001" y="206.95000000000005">AIN3</text></g><g><line stroke="#8C8C8C" stroke-linecap="round" stroke-width="0.7087" x1="-4" x2="73.8" y1="212.4" y2="212.4" /><rect fill="#E6E6E6" height="5.7118" rx="0.9567" ry="0.9567" stroke="#737373" stroke-width="0.3543" width="20.1118" x="0.7441" y="209.5441" /><text fill="black" font-family="Courier New" font-size="6" font-weight="bold" text-anchor="middle" x="10.799999999999999" y="214.15000000000003">D7</text><rect fill="#004949" height="6.0661" rx="1.1339" ry="1.1339" width="20.4661" x="22.1669" y="209.3669" /><text fill="white" font-family="Courier New" font-size="6" font-weight="bold" text-anchor="middle" x="32.4" y="214.15000000000006">7</text><rect fill="#FFFF6D" height="6.0661" rx="1.1339" ry="1.1339" width="20.4661" x="43.7669" y="209.3669" /><text fill="black" font-family="Courier New" font-size="6" text-anchor="middle" x="54.0" y="214.15000000000006">P0.07</text><rect fill="#24FF24" height="6.0661" rx="1.1339" ry="1.1339" width="16.8661" x="65.3669" y="209.3669" /><text fill="black" font-family="Courier New" font-size="6" text-anchor="middle" x="73.80000000000001" y="214.15000000000006">HS</text></g><g><line stroke="#8C8C8C" stroke-linecap="round" stroke-width="0.7087" x1="-4" x2="73.8" y1="219.6" y2="219.6" /><rect fill="#E6E6E6" height="5.7118" rx="0.9567" ry="0.9567" stroke="#737373" stroke-width="0.3543" width="20.1118" x="0.7441" y="216.7441" /><text fill="black" font-family="Courier New" font-size="6" font-weight="bold" text-anchor="middle" x="10.799999999999999" y="221.35000000000002">D6</text><rect fill="#004949" height="6.0661" rx="1.1339" ry="1.1339" width="20.4661" x="22.1669" y="216.5669" /><text fill="white" font-family="Courier New" font-size="6" font-weight="bold" text-anchor="middle" x="32.4" y="221.35000000000005">6</text><rect fill="#FFFF6D" height="6.0661" rx="1.1339" ry="1.1339" width="20.4661" x="43.7669" y="216.5669" /><text fill="black" font-family="Courier New" font-size="6" text-anchor="middle" x="54.0" y="221.35000000000005">P1.09</text><rect fill="#24FF24" height="6.0661" rx="1.1339" ry="1.1339" width="16.8661" x="65.3669" y="216.5669" /><text fill="black" font-family="Courier New" font-size="6" text-anchor="middle" x="73.80000000000001" y="221.35000000000005">HS</text></g><g><line stroke="#8C8C8C" stroke-linecap="round" stroke-width="0.7087" x1="-4" x2="99.0" y1="226.8" y2="226.8" /><rect fill="#E6E6E6" height="5.7118" rx="0.9567" ry="0.9567" stroke="#737373" stroke-width="0.3543" width="30.9118" x="0.7441" y="223.9441" /><text fill="black" font-family="Courier New" font-size="6" font-weight="bold" text-anchor="middle" x="16.200000000000003" y="228.55000000000004">BUTTON_A</text><rect fill="#004949" height="6.0661" rx="1.1339" ry="1.1339" width="20.4661" x="32.9669" y="223.7669" /><text fill="white" font-family="Courier New" font-size="6" font-weight="bold" text-anchor="middle" x="43.2" y="228.55000000000007">5</text><rect fill="#FFFF6D" height="6.0661" rx="1.1339" ry="1.1339" width="20.4661" x="54.5669" y="223.7669" /><text fill="black" font-family="Courier New" font-size="6" text-anchor="middle" x="64.80000000000001" y="228.55000000000007">P1.02</text><rect fill="#009292" height="6.0661" rx="1.1339" ry="1.1339" width="9.6661" x="94.1669" y="223.7669" /><text fill="white" font-family="Courier New" font-size="6" text-anchor="middle" x="99.00000000000001" y="228.55000000000007">LS</text></g><g><line stroke="#8C8C8C" stroke-linecap="round" stroke-width="0.7087" x1="-4" x2="102.6" y1="234.0" y2="234.0" /><rect fill="#E6E6E6" height="5.7118" rx="0.9567" ry="0.9567" stroke="#737373" stroke-width="0.3543" width="20.1118" x="0.7441" y="231.1441" /><text fill="black" font-family="Courier New" font-size="6" font-weight="bold" text-anchor="middle" x="10.799999999999999" y="235.75000000000003">A6</text><rect fill="#004949" height="6.0661" rx="1.1339" ry="1.1339" width="20.4661" x="22.1669" y="230.9669" /><text fill="white" font-family="Courier New" font-size="6" font-weight="bold" text-anchor="middle" x="32.4" y="235.75000000000006">4</text><rect fill="#FFFF6D" height="6.0661" rx="1.1339" ry="1.1339" width="20.4661" x="43.7669" y="230.9669" /><text fill="black" font-family="Courier New" font-size="6" text-anchor="middle" x="54.0" y="235.75000000000006">P0.02</text><rect fill="#009292" height="6.0661" rx="1.1339" ry="1.1339" width="9.6661" x="83.3669" y="230.9669" /><text fill="white" font-family="Courier New" font-size="6" text-anchor="middle" x="88.20000000000002" y="235.75000000000006">LS</text><rect fill="#B6DBFF" height="6.0661" rx="1.1339" ry="1.1339" width="16.8661" x="94.1669" y="230.9669" /><text fill="black" font-family="Courier New" font-size="6" text-anchor="middle" x="102.60000000000001" y="235.75000000000006">AIN0</text></g><g><line stroke="#8C8C8C" stroke-linecap="round" stroke-width="0.7087" x1="-4" x2="102.6" y1="241.2" y2="241.2" /><rect fill="#E6E6E6" height="5.7118" rx="0.9567" ry="0.9567" stroke="#737373" stroke-width="0.3543" width="20.1118" x="0.7441" y="238.3441" /><text fill="black" font-family="Courier New" font-size="6" font-weight="bold" text-anchor="middle" x="10.799999999999999" y="242.95000000000002">A2</text><rect fill="#004949" height="6.0661" rx="1.1339" ry="1.1339" width="20.4661" x="22.1669" y="238.1669" /><text fill="white" font-family="Courier New" font-size="6" font-weight="bold" text-anchor="middle" x="32.4" y="242.95000000000005">0</text><rect fill="#FFFF6D" height="6.0661" rx="1.1339" ry="1.1339" width="20.4661" x="43.7669" y="238.1669" /><text fill="black" font-family="Courier New" font-size="6" text-anchor="middle" x="54.0" y="242.95000000000005">P0.04</text><rect fill="#24FF24" height="6.0661" rx="1.1339" ry="1.1339" width="16.8661" x="65.3669" y="238.1669" /><text fill="black" font-family="Courier New" font-size="6" text-anchor="middle" x="73.80000000000001" y="242.95000000000005">HS</text><rect fill="#B6DBFF" height="6.0661" rx="1.1339" ry="1.1339" width="16.8661" x="94.1669" y="238.1669" /><text fill="black" font-family="Courier New" font-size="6" text-anchor="middle" x="102.60000000000001" y="242.95000000000005">AIN2</text></g><g><line stroke="#8C8C8C" stroke-linecap="round" stroke-width="0.7087" x1="-4" x2="102.6" y1="248.4" y2="248.4" /><rect fill="#E6E6E6" height="5.7118" rx="0.9567" ry="0.9567" stroke="#737373" stroke-width="0.3543" width="20.1118" x="0.7441" y="245.5441" /><text fill="black" font-family="Courier New" font-size="6" font-weight="bold" text-anchor="middle" x="10.799999999999999" y="250.15000000000003">A5</text><rect fill="#004949" height="6.0661" rx="1.1339" ry="1.1339" width="20.4661" x="22.1669" y="245.3669" /><text fill="white" font-family="Courier New" font-size="6" font-weight="bold" text-anchor="middle" x="32.4" y="250.15000000000006">3</text><rect fill="#FFFF6D" height="6.0661" rx="1.1339" ry="1.1339" width="20.4661" x="43.7669" y="245.3669" /><text fill="black" font-family="Courier New" font-size="6" text-anchor="middle" x="54.0" y="250.15000000000006">P0.28</text><rect fill="#009292" height="6.0661" rx="1.1339" ry="1.1339" width="9.6661" x="83.3669" y="245.3669" /><text fill="white" font-family="Courier New" font-size="6" text-anchor="middle" x="88.20000000000002" y="250.15000000000006">LS</text><rect fill="#B6DBFF" height="6.0661" rx="1.1339" ry="1.1339" width="16.8661" x="94.1669" y="245.3669" /><text fill="black" font-family="Courier New" font-size="6" text-anchor="middle" x="102.60000000000001" y="250.15000000000006">AIN4</text></g><g><line stroke="#8C8C8C" stroke-linecap="round" stroke-width="0.7087" x1="-4" x2="88.2" y1="255.6" y2="255.6" /><rect fill="#E6E6E6" height="5.7118" rx="0.9567" ry="0.9567" stroke="#737373" stroke-width="0.3543" width="20.1118" x="0.7441" y="252.7441" /><text fill="black" font-family="Courier New" font-size="6" font-weight="bold" text-anchor="middle" x="10.799999999999999" y="257.35">P17</text><rect fill="#004949" height="6.0661" rx="1.1339" ry="1.1339" width="20.4661" x="22.1669" y="252.5669" /><text fill="white" font-family="Courier New" font-size="6" font-weight="bold" text-anchor="middle" x="32.4" y="257.35">17</text><rect fill="#FFFF6D" height="6.0661" rx="1.1339" ry="1.1339" width="20.4661" x="43.7669" y="252.5669" /><text fill="black" font-family="Courier New" font-size="6" text-anchor="middle" x="54.0" y="257.35">P1.01</text><rect fill="#009292" height="6.0661" rx="1.1339" ry="1.1339" width="9.6661" x="83.3669" y="252.5669" /><text fill="white" font-family="Courier New" font-size="6" text-anchor="middle" x="88.20000000000002" y="257.35">LS</text></g><g><line stroke="#8C8C8C" stroke-linecap="round" stroke-width="0.7087" x1="-4" x2="73.8" y1="262.8" y2="262.8" /><rect fill="#E6E6E6" height="5.7118" rx="0.9567" ry="0.9567" stroke="#737373" stroke-width="0.3543" width="20.1118" x="0.7441" y="259.9441" /><text fill="black" font-family="Courier New" font-size="6" font-weight="bold" text-anchor="middle" x="10.799999999999999" y="264.55000000000007">P18</text><rect fill="#004949" height="6.0661" rx="1.1339" ry="1.1339" width="20.4661" x="22.1669" y="259.7669" /><text fill="white" font-family="Courier New" font-size="6" font-weight="bold" text-anchor="middle" x="32.4" y="264.55">18</text><rect fill="#FFFF6D" height="6.0661" rx="1.1339" ry="1.1339" width="20.4661" x="43.7669" y="259.7669" /><text fill="black" font-family="Courier New" font-size="6" text-anchor="middle" x="54.0" y="264.55">P0.16</text><rect fill="#24FF24" height="6.0661" rx="1.1339" ry="1.1339" width="16.8661" x="65.3669" y="259.7669" /><text fill="black" font-family="Courier New" font-size="6" text-anchor="middle" x="73.80000000000001" y="264.55">HS</text></g><g><line stroke="#8C8C8C" stroke-linecap="round" stroke-width="0.7087" x1="-4" x2="160.2" y1="270.0" y2="270.0" /><rect fill="#E6E6E6" height="5.7118" rx="0.9567" ry="0.9567" stroke="#737373" stroke-width="0.3543" width="59.7118" x="0.7441" y="267.1441" /><text fill="black" font-family="Courier New" font-size="6" font-weight="bold" text-anchor="middle" x="30.60000000000001" y="271.75000000000006">MICROPHONE_CLOCK</text><rect fill="#004949" height="6.0661" rx="1.1339" ry="1.1339" width="20.4661" x="61.7669" y="266.9669" /><text fill="white" font-family="Courier New" font-size="6" font-weight="bold" text-anchor="middle" x="72.00000000000001" y="271.75">36</text><rect fill="#FFFF6D" height="6.0661" rx="1.1339" ry="1.1339" width="20.4661" x="83.3669" y="266.9669" /><text fill="black" font-family="Courier New" font-size="6" text-anchor="middle" x="93.60000000000001" y="271.75">P0.01</text><rect fill="#24FF24" height="6.0661" rx="1.1339" ry="1.1339" width="16.8661" x="104.9669" y="266.9669" /><text fill="black" font-family="Courier New" font-size="6" text-anchor="middle" x="113.4" y="271.75">HS</text><rect fill="#6DB6FF" height="6.0661" rx="1.1339" ry="1.1339" width="16.8661" x="151.7669" y="266.9669" /><text fill="black" font-family="Courier New" font-size="6" text-anchor="middle" x="160.20000000000005" y="271.75">XL2</text></g><g><line stroke="#8C8C8C" stroke-linecap="round" stroke-width="0.7087" x1="-4" x2="156.6" y1="277.2" y2="277.2" /><rect fill="#E6E6E6" height="5.7118" rx="0.9567" ry="0.9567" stroke="#737373" stroke-width="0.3543" width="56.1118" x="0.7441" y="274.3441" /><text fill="black" font-family="Courier New" font-size="6" font-weight="bold" text-anchor="middle" x="28.800000000000008" y="278.95000000000005">MICROPHONE_DATA</text><rect fill="#004949" height="6.0661" rx="1.1339" ry="1.1339" width="20.4661" x="58.1669" y="274.1669" /><text fill="white" font-family="Courier New" font-size="6" font-weight="bold" text-anchor="middle" x="68.4" y="278.95">35</text><rect fill="#FFFF6D" height="6.0661" rx="1.1339" ry="1.1339" width="20.4661" x="79.7669" y="274.1669" /><text fill="black" font-family="Courier New" font-size="6" text-anchor="middle" x="90.00000000000001" y="278.95">P0.00</text><rect fill="#24FF24" height="6.0661" rx="1.1339" ry="1.1339" width="16.8661" x="101.3669" y="274.1669" /><text fill="black" font-family="Courier New" font-size="6" text-anchor="middle" x="109.80000000000001" y="278.95">HS</text><rect fill="#6DB6FF" height="6.0661" rx="1.1339" ry="1.1339" width="16.8661" x="148.1669" y="274.1669" /><text fill="black" font-family="Courier New" font-size="6" text-anchor="middle" x="156.60000000000002" y="278.95">XL1</text></g><g><line stroke="#8C8C8C" stroke-linecap="round" stroke-width="0.7087" x1="-4" x2="81.0" y1="284.4" y2="284.4" /><rect fill="#E6E6E6" height="5.7118" rx="0.9567" ry="0.9567" stroke="#737373" stroke-width="0.3543" width="27.3118" x="0.7441" y="281.5441" /><text fill="black" font-family="Courier New" font-size="6" font-weight="bold" text-anchor="middle" x="14.4" y="286.1500000000001">SPEAKER</text><rect fill="#004949" height="6.0661" rx="1.1339" ry="1.1339" width="20.4661" x="29.3669" y="281.3669" /><text fill="white" font-family="Courier New" font-size="6" font-weight="bold" text-anchor="middle" x="39.6" y="286.15000000000003">46</text><rect fill="#FFFF6D" height="6.0661" rx="1.1339" ry="1.1339" width="20.4661" x="50.9669" y="281.3669" /><text fill="black" font-family="Courier New" font-size="6" text-anchor="middle" x="61.2" y="286.15000000000003">P1.00</text><rect fill="#24FF24" height="6.0661" rx="1.1339" ry="1.1339" width="16.8661" x="72.5669" y="281.3669" /><text fill="black" font-family="Courier New" font-size="6" text-anchor="middle" x="81.0" y="286.15000000000003">QSPI</text></g><g><line stroke="#8C8C8C" stroke-linecap="round" stroke-width="0.7087" x1="-4" x2="192.6" y1="291.6" y2="291.6" /><rect fill="#E6E6E6" height="5.7118" rx="0.9567" ry="0.9567" stroke="#737373" stroke-width="0.3543" width="92.1118" x="0.7441" y="288.7441" /><text fill="black" font-family="Courier New" font-size="6" font-weight="bold" text-anchor="middle" x="46.800000000000004" y="293.3500000000001">PROXIMITY_LIGHT_INTERRUPT</text><rect fill="#004949" height="6.0661" rx="1.1339" ry="1.1339" width="20.4661" x="94.1669" y="288.5669" /><text fill="white" font-family="Courier New" font-size="6" font-weight="bold" text-anchor="middle" x="104.4" y="293.35">44</text><rect fill="#FFFF6D" height="6.0661" rx="1.1339" ry="1.1339" width="20.4661" x="115.7669" y="288.5669" /><text fill="black" font-family="Courier New" font-size="6" text-anchor="middle" x="126.00000000000001" y="293.35">P0.09</text><rect fill="#009292" height="6.0661" rx="1.1339" ry="1.1339" width="9.6661" x="155.3669" y="288.5669" /><text fill="white" font-family="Courier New" font-size="6" text-anchor="middle" x="160.20000000000002" y="293.35">LS</text><rect fill="#6DB6FF" height="6.0661" rx="1.1339" ry="1.1339" width="16.8661" x="184.1669" y="288.5669" /><text fill="black" font-family="Courier New" font-size="6" text-anchor="middle" x="192.60000000000002" y="293.35">NFC1</text></g><g><line stroke="#8C8C8C" stroke-linecap="round" stroke-width="0.7087" x1="-4" x2="171.0" y1="298.8" y2="298.8" /><rect fill="#E6E6E6" height="5.7118" rx="0.9567" ry="0.9567" stroke="#737373" stroke-width="0.3543" width="102.9118" x="0.7441" y="295.9441" /><text fill="black" font-family="Courier New" font-size="6" font-weight="bold" text-anchor="middle" x="52.20000000000001" y="300.55000000000007">ACCELEROMETER_GYRO_INTERRUPT</text><rect fill="#004949" height="6.0661" rx="1.1339" ry="1.1339" width="20.4661" x="104.9669" y="295.7669" /><text fill="white" font-family="Courier New" font-size="6" font-weight="bold" text-anchor="middle" x="115.20000000000002" y="300.55">45</text><rect fill="#FFFF6D" height="6.0661" rx="1.1339" ry="1.1339" width="20.4661" x="126.5669" y="295.7669" /><text fill="black" font-family="Courier New" font-size="6" text-anchor="middle" x="136.80000000000004" y="300.55">P1.06</text><rect fill="#009292" height="6.0661" rx="1.1339" ry="1.1339" width="9.6661" x="166.1669" y="295.7669" /><text fill="white" font-family="Courier New" font-size="6" text-anchor="middle" x="171.00000000000003" y="300.55">LS</text></g><g><line stroke="#8C8C8C" stroke-linecap="round" stroke-width="0.7087" x1="-4" x2="138.6" y1="306.0" y2="306.0" /><rect fill="#E6E6E6" height="5.7118" rx="0.9567" ry="0.9567" stroke="#737373" stroke-width="0.3543" width="38.1118" x="0.7441" y="303.1441" /><text fill="black" font-family="Courier New" font-size="6" font-weight="bold" text-anchor="middle" x="19.800000000000008" y="307.75000000000006">WHITE_LEDS</text><rect fill="#004949" height="6.0661" rx="1.1339" ry="1.1339" width="20.4661" x="40.1669" y="302.9669" /><text fill="white" font-family="Courier New" font-size="6" font-weight="bold" text-anchor="middle" x="50.400000000000006" y="307.75">43</text><rect fill="#FFFF6D" height="6.0661" rx="1.1339" ry="1.1339" width="20.4661" x="61.7669" y="302.9669" /><text fill="black" font-family="Courier New" font-size="6" text-anchor="middle" x="72.00000000000001" y="307.75">P0.10</text><rect fill="#009292" height="6.0661" rx="1.1339" ry="1.1339" width="9.6661" x="101.3669" y="302.9669" /><text fill="white" font-family="Courier New" font-size="6" text-anchor="middle" x="106.20000000000002" y="307.75">LS</text><rect fill="#6DB6FF" height="6.0661" rx="1.1339" ry="1.1339" width="16.8661" x="130.1669" y="302.9669" /><text fill="black" font-family="Courier New" font-size="6" text-anchor="middle" x="138.60000000000002" y="307.75">NFC2</text></g><g><line stroke="#8C8C8C" stroke-linecap="round" stroke-width="0.7087" x1="-4" x2="102.6" y1="313.2" y2="313.2" /><rect fill="#E6E6E6" height="5.7118" rx="0.9567" ry="0.9567" stroke="#737373" stroke-width="0.3543" width="34.5118" x="0.7441" y="310.3441" /><text fill="black" font-family="Courier New" font-size="6" font-weight="bold" text-anchor="middle" x="18.000000000000007" y="314.95000000000005">TFT_RESET</text><rect fill="#004949" height="6.0661" rx="1.1339" ry="1.1339" width="20.4661" x="36.5669" y="310.1669" /><text fill="white" font-family="Courier New" font-size="6" font-weight="bold" text-anchor="middle" x="46.800000000000004" y="314.95">33</text><rect fill="#FFFF6D" height="6.0661" rx="1.1339" ry="1.1339" width="20.4661" x="58.1669" y="310.1669" /><text fill="black" font-family="Courier New" font-size="6" text-anchor="middle" x="68.4" y="314.95">P1.03</text><rect fill="#009292" height="6.0661" rx="1.1339" ry="1.1339" width="9.6661" x="97.7669" y="310.1669" /><text fill="white" font-family="Courier New" font-size="6" text-anchor="middle" x="102.60000000000002" y="314.95">LS</text></g><g><line stroke="#8C8C8C" stroke-linecap="round" stroke-width="0.7087" x1="-4" x2="117.0" y1="320.4" y2="320.4" /><rect fill="#E6E6E6" height="5.7118" rx="0.9567" ry="0.9567" stroke="#737373" stroke-width="0.3543" width="48.9118" x="0.7441" y="317.5441" /><text fill="black" font-family="Courier New" font-size="6" font-weight="bold" text-anchor="middle" x="25.200000000000006" y="322.1500000000001">TFT_BACKLIGHT</text><rect fill="#004949" height="6.0661" rx="1.1339" ry="1.1339" width="20.4661" x="50.9669" y="317.3669" /><text fill="white" font-family="Courier New" font-size="6" font-weight="bold" text-anchor="middle" x="61.2" y="322.15000000000003">34</text><rect fill="#FFFF6D" height="6.0661" rx="1.1339" ry="1.1339" width="20.4661" x="72.5669" y="317.3669" /><text fill="black" font-family="Courier New" font-size="6" text-anchor="middle" x="82.8" y="322.15000000000003">P1.05</text><rect fill="#009292" height="6.0661" rx="1.1339" ry="1.1339" width="9.6661" x="112.1669" y="317.3669" /><text fill="white" font-family="Courier New" font-size="6" text-anchor="middle" x="117.0" y="322.15000000000003">LS</text></g><g><line stroke="#8C8C8C" stroke-linecap="round" stroke-width="0.7087" x1="-4" x2="77.4" y1="327.6" y2="327.6" /><rect fill="#E6E6E6" height="5.7118" rx="0.9567" ry="0.9567" stroke="#737373" stroke-width="0.3543" width="23.7118" x="0.7441" y="324.7441" /><text fill="black" font-family="Courier New" font-size="6" font-weight="bold" text-anchor="middle" x="12.6" y="329.3500000000001">TFT_CS</text><rect fill="#004949" height="6.0661" rx="1.1339" ry="1.1339" width="20.4661" x="25.7669" y="324.5669" /><text fill="white" font-family="Courier New" font-size="6" font-weight="bold" text-anchor="middle" x="36.0" y="329.35">31</text><rect fill="#FFFF6D" height="6.0661" rx="1.1339" ry="1.1339" width="20.4661" x="47.3669" y="324.5669" /><text fill="black" font-family="Courier New" font-size="6" text-anchor="middle" x="57.6" y="329.35">P0.12</text><rect fill="#24FF24" height="6.0661" rx="1.1339" ry="1.1339" width="16.8661" x="68.9669" y="324.5669" /><text fill="black" font-family="Courier New" font-size="6" text-anchor="middle" x="77.4" y="329.35">HS</text></g><g><line stroke="#8C8C8C" stroke-linecap="round" stroke-width="0.7087" x1="-4" x2="77.4" y1="334.8" y2="334.8" /><rect fill="#E6E6E6" height="5.7118" rx="0.9567" ry="0.9567" stroke="#737373" stroke-width="0.3543" width="23.7118" x="0.7441" y="331.9441" /><text fill="black" font-family="Courier New" font-size="6" font-weight="bold" text-anchor="middle" x="12.6" y="336.55000000000007">TFT_DC</text><rect fill="#004949" height="6.0661" rx="1.1339" ry="1.1339" width="20.4661" x="25.7669" y="331.7669" /><text fill="white" font-family="Courier New" font-size="6" font-weight="bold" text-anchor="middle" x="36.0" y="336.55">32</text><rect fill="#FFFF6D" height="6.0661" rx="1.1339" ry="1.1339" width="20.4661" x="47.3669" y="331.7669" /><text fill="black" font-family="Courier New" font-size="6" text-anchor="middle" x="57.6" y="336.55">P0.13</text><rect fill="#24FF24" height="6.0661" rx="1.1339" ry="1.1339" width="16.8661" x="68.9669" y="331.7669" /><text fill="black" font-family="Courier New" font-size="6" text-anchor="middle" x="77.4" y="336.55">HS</text></g><g><line stroke="#8C8C8C" stroke-linecap="round" stroke-width="0.7087" x1="-4" x2="81.0" y1="342.0" y2="342.0" /><rect fill="#E6E6E6" height="5.7118" rx="0.9567" ry="0.9567" stroke="#737373" stroke-width="0.3543" width="27.3118" x="0.7441" y="339.1441" /><text fill="black" font-family="Courier New" font-size="6" font-weight="bold" text-anchor="middle" x="14.4" y="343.75000000000006">TFT_SCK</text><rect fill="#004949" height="6.0661" rx="1.1339" ry="1.1339" width="20.4661" x="29.3669" y="338.9669" /><text fill="white" font-family="Courier New" font-size="6" font-weight="bold" text-anchor="middle" x="39.6" y="343.75">29</text><rect fill="#FFFF6D" height="6.0661" rx="1.1339" ry="1.1339" width="20.4661" x="50.9669" y="338.9669" /><text fill="black" font-family="Courier New" font-size="6" text-anchor="middle" x="61.2" y="343.75">P0.14</text><rect fill="#24FF24" height="6.0661" rx="1.1339" ry="1.1339" width="16.8661" x="72.5669" y="338.9669" /><text fill="black" font-family="Courier New" font-size="6" text-anchor="middle" x="81.0" y="343.75">HS</text></g><g><line stroke="#8C8C8C" stroke-linecap="round" stroke-width="0.7087" x1="-4" x2="84.6" y1="349.2" y2="349.2" /><rect fill="#E6E6E6" height="5.7118" rx="0.9567" ry="0.9567" stroke="#737373" stroke-width="0.3543" width="30.9118" x="0.7441" y="346.3441" /><text fill="black" font-family="Courier New" font-size="6" font-weight="bold" text-anchor="middle" x="16.200000000000003" y="350.95000000000005">TFT_MOSI</text><rect fill="#004949" height="6.0661" rx="1.1339" ry="1.1339" width="20.4661" x="32.9669" y="346.1669" /><text fill="white" font-family="Courier New" font-size="6" font-weight="bold" text-anchor="middle" x="43.2" y="350.95">30</text><rect fill="#FFFF6D" height="6.0661" rx="1.1339" ry="1.1339" width="20.4661" x="54.5669" y="346.1669" /><text fill="black" font-family="Courier New" font-size="6" text-anchor="middle" x="64.80000000000001" y="350.95">P0.15</text><rect fill="#24FF24" height="6.0661" rx="1.1339" ry="1.1339" width="16.8661" x="76.1669" y="346.1669" /><text fill="black" font-family="Courier New" font-size="6" text-anchor="middle" x="84.60000000000001" y="350.95">HS</text></g><g><rect fill="#920000" height="6.0661" rx="1.1339" ry="1.1339" width="6.0661" x="0.5669" y="374.9669" /><text fill="black" font-family="Courier New" font-size="6" font-weight="bold" text-anchor="start" x="8.64" y="379.75000000000006">Power</text><rect fill="#000000" height="6.0661" rx="1.1339" ry="1.1339" width="6.0661" x="0.5669" y="382.1669" /><text fill="black" font-family="Courier New" font-size="6" font-weight="bold" text-anchor="start" x="8.64" y="386.95000000000005">GND</text><rect fill="#E6E6E6" height="5.7118" rx="0.9567" ry="0.9567" stroke="#737373" stroke-width="0.3543" width="5.7118" x="0.7441" y="389.5441" /><text fill="black" font-family="Courier New" font-size="6" font-weight="bold" text-anchor="start" x="8.64" y="394.15000000000003">CircuitPython Name</text><rect fill="#004949" height="6.0661" rx="1.1339" ry="1.1339" width="6.0661" x="0.5669" y="396.5669" /><text fill="black" font-family="Courier New" font-size="6" font-weight="bold" text-anchor="start" x="8.64" y="401.35">Arduino Name</text><rect fill="#FFFF6D" height="6.0661" rx="1.1339" ry="1.1339" width="6.0661" x="0.5669" y="403.7669" /><text fill="black" font-family="Courier New" font-size="6" font-weight="bold" text-anchor="start" x="8.64" y="408.55">GPIO</text><rect fill="#24FF24" height="6.0661" rx="1.1339" ry="1.1339" width="6.0661" x="0.5669" y="410.9669" /><text fill="black" font-family="Courier New" font-size="6" font-weight="bold" text-anchor="start" x="8.64" y="415.75">High Speed</text><rect fill="#009292" height="6.0661" rx="1.1339" ry="1.1339" width="6.0661" x="0.5669" y="418.1669" /><text fill="black" font-family="Courier New" font-size="6" font-weight="bold" text-anchor="start" x="8.64" y="422.95">Low Speed</text><rect fill="#B6DBFF" height="6.0661" rx="1.1339" ry="1.1339" width="6.0661" x="0.5669" y="425.3669" /><text fill="black" font-family="Courier New" font-size="6" font-weight="bold" text-anchor="start" x="8.64" y="430.15">ADC</text><rect fill="#6DB6FF" height="6.0661" rx="1.1339" ry="1.1339" width="6.0661" x="0.5669" y="432.5669" /><text fill="black" font-family="Courier New" font-size="6" font-weight="bold" text-anchor="start" x="8.64" y="437.34999999999997">Special</text></g><g><text fill="black" font-family="Courier New" font-size="16" font-weight="bold" text-anchor="end" x="0" y="-40">Adafruit nRF52840 CLUE</text><text fill="black" font-family="Courier New" font-size="12" font-weight="bold" text-anchor="end" x="0" y="-25">Missing product URL</text></g><g><text fill="black" font-family="Courier New" font-size="6" font-weight="normal" text-anchor="start" x="0" y="469.19999999999993">The Nordic nRF52840 is a ARM Cortex-M4</text><text fill="black" font-family="Courier New" font-size="6" font-weight="normal" text-anchor="start" x="0" y="475.19999999999993">running at 64MHz with 256kB on-chip</text><text fill="black" font-family="Courier New" font-size="6" font-weight="normal" text-anchor="start" x="0" y="481.19999999999993">SRAM, 1MB of Flash memory and built in</text><text fill="black" font-family="Courier New" font-size="6" font-weight="normal" text-anchor="start" x="0" y="487.19999999999993">Bluetooth Low Energy and native USB. Any</text><text fill="black" font-family="Courier New" font-size="6" font-weight="normal" text-anchor="start" x="0" y="493.19999999999993">pin can be used for</text><text fill="black" font-family="Courier New" font-size="6" font-weight="normal" text-anchor="start" x="0" y="499.19999999999993">I2C/SPI/UART/I2S/PDM/etc peripheral</text><text fill="black" font-family="Courier New" font-size="6" font-weight="normal" text-anchor="start" x="0" y="505.19999999999993">usage. LS pins can interfere with radio</text><text fill="black" font-family="Courier New" font-size="6" font-weight="normal" text-anchor="start" x="0" y="511.19999999999993">reception when over 10 Khz, however they</text><text fill="black" font-family="Courier New" font-size="6" font-weight="normal" text-anchor="start" x="0" y="517.1999999999999">are not restricted from going faster.</text><text fill="black" font-family="Courier New" font-size="6" font-weight="normal" text-anchor="start" x="0" y="523.1999999999999">All GPIO is 3.3V in/out max unless</text><text fill="black" font-family="Courier New" font-size="6" font-weight="normal" text-anchor="start" x="0" y="529.1999999999999">otherwise stated.</text></g></svg>