<?xml version="1.0" encoding="utf-8"?>
<!-- Generator: Adobe Illustrator 25.2.1, SVG Export Plug-In . SVG Version: 6.00 Build 0)  -->
<svg version="1.1" id="Layer_1" xmlns="http://www.w3.org/2000/svg" xmlns:xlink="http://www.w3.org/1999/xlink" x="0px" y="0px"
	 width="1280px" height="1024px" viewBox="0 0 1280 1024" style="enable-background:new 0 0 1280 1024;" xml:space="preserve">
<style type="text/css">
	.st0{fill:none;stroke:#8C8C8C;stroke-width:0.7087;stroke-linecap:round;}
	.st1{fill:#920000;}
	.st2{fill:#FFFFFF;}
	.st3{font-family:'CourierNewPS-BoldMT';}
	.st4{font-size:6px;}
	.st5{fill:#FFFF6D;}
	.st6{fill:#006DDB;}
	.st7{fill:none;stroke:#0000FF;stroke-width:0.7087;stroke-linecap:round;}
	.st8{fill:#FFFF00;stroke:#FFFF00;stroke-width:0.7087;stroke-linecap:round;}
	.st9{fill:none;stroke:#000000;stroke-width:0.7087;stroke-linecap:round;}
	.st10{fill:none;stroke:#FF0000;stroke-width:0.7087;stroke-linecap:round;}
	.st11{fill:none;stroke:#FFFF00;stroke-width:0.7087;stroke-linecap:round;}
	.st12{fill:#FFFF00;}
	.st13{fill:#0000FF;}
	.st14{fill:#333333;stroke:#333333;stroke-width:0.2877;stroke-miterlimit:3.8362;}
	.st15{fill:#666666;}
</style>
<g>
	<line class="st0" x1="35" y1="46.9" x2="59" y2="46.9"/>
	<path class="st1" d="M49.9,43.8h18.2c0.6,0,1.1,0.5,1.1,1.1v3.8c0,0.6-0.5,1.1-1.1,1.1H49.9c-0.6,0-1.1-0.5-1.1-1.1V45
		C48.8,44.3,49.3,43.8,49.9,43.8z"/>
	<text transform="matrix(1 0 0 1 51.8051 48.6211)" class="st2 st3 st4">3.3V</text>
	<line class="st0" x1="44.2" y1="32.5" x2="59" y2="32.5"/>
	<path class="st5" d="M49.9,29.5h18.2c0.6,0,1.1,0.5,1.1,1.1v3.8c0,0.6-0.5,1.1-1.1,1.1H49.9c-0.6,0-1.1-0.5-1.1-1.1v-3.8
		C48.7,30,49.2,29.5,49.9,29.5z"/>
	<text transform="matrix(1 0 0 1 53.5721 34.2982)" class="st3 st4">SCL</text>
	<line class="st0" x1="39.6" y1="39.7" x2="59" y2="39.7"/>
	<path class="st6" d="M49.9,36.7h18.2c0.6,0,1.1,0.5,1.1,1.1v3.8c0,0.6-0.5,1.1-1.1,1.1H49.9c-0.6,0-1.1-0.5-1.1-1.1v-3.8
		C48.7,37.2,49.2,36.7,49.9,36.7z"/>
	<text transform="matrix(1 0 0 1 53.5721 41.4981)" class="st2 st3 st4">SDA</text>
	<line class="st0" x1="30.5" y1="54" x2="59" y2="54"/>
	<path d="M49.9,51h18.2c0.6,0,1.1,0.5,1.1,1.1v3.8c0,0.6-0.5,1.1-1.1,1.1H49.9c-0.6,0-1.1-0.5-1.1-1.1v-3.8
		C48.8,51.5,49.3,51,49.9,51z"/>
	<text transform="matrix(1 0 0 1 53.6053 55.744)" class="st2 st3 st4">GND</text>
	<line class="st0" x1="35" y1="46.9" x2="35.1" y2="26.4"/>
	<line class="st0" x1="30.5" y1="53.8" x2="30.5" y2="26.4"/>
	<line class="st0" x1="39.6" y1="39.7" x2="39.6" y2="26.4"/>
	<line class="st0" x1="44.1" y1="32.5" x2="44.1" y2="26.4"/>
</g>
<g id="g18467" transform="translate(4.4999716,-4.9999826)">
</g>
<g>
	<line class="st7" x1="104.7" y1="54.3" x2="104.7" y2="41"/>
	<line class="st8" x1="108" y1="47.1" x2="108" y2="41"/>
	<line class="st9" x1="98" y1="68.4" x2="98" y2="41"/>
	<line class="st10" x1="101.4" y1="61.5" x2="101.5" y2="41"/>
	<line class="st10" x1="101.4" y1="61.5" x2="122.9" y2="61.5"/>
	<line class="st11" x1="108.1" y1="47.1" x2="122.9" y2="47.1"/>
	<line class="st7" x1="104.7" y1="54.3" x2="122.9" y2="54.3"/>
	<line class="st9" x1="98" y1="68.6" x2="122.9" y2="68.6"/>
	<path class="st1" d="M124.1,58.4h18.2c0.6,0,1.1,0.5,1.1,1.1v3.8c0,0.6-0.5,1.1-1.1,1.1h-18.2c-0.6,0-1.1-0.5-1.1-1.1v-3.8
		C122.9,58.9,123.4,58.4,124.1,58.4z"/>
	<text transform="matrix(1 0 0 1 125.9662 63.1797)" class="st2 st3 st4">3.3V</text>
	<path class="st5" d="M124,44.1h18.2c0.6,0,1.1,0.5,1.1,1.1V49c0,0.6-0.5,1.1-1.1,1.1H124c-0.6,0-1.1-0.5-1.1-1.1v-3.8
		C122.9,44.6,123.4,44.1,124,44.1z"/>
	<text transform="matrix(1 0 0 1 127.7333 48.8568)" class="st3 st4">SCL</text>
	<path class="st6" d="M124,51.3h18.2c0.6,0,1.1,0.5,1.1,1.1v3.8c0,0.6-0.5,1.1-1.1,1.1H124c-0.6,0-1.1-0.5-1.1-1.1v-3.8
		C122.9,51.8,123.4,51.3,124,51.3z"/>
	<text transform="matrix(1 0 0 1 127.7333 56.0568)" class="st2 st3 st4">SDA</text>
	<path d="M124.1,65.5h18.2c0.6,0,1.1,0.5,1.1,1.1v3.8c0,0.6-0.5,1.1-1.1,1.1h-18.2c-0.6,0-1.1-0.5-1.1-1.1v-3.8
		C122.9,66,123.4,65.5,124.1,65.5z"/>
	<text transform="matrix(1 0 0 1 127.7665 70.3026)" class="st2 st3 st4">GND</text>
	<path class="st12" d="M124,44.1h18.2c0.6,0,1.1,0.5,1.1,1.1V49c0,0.6-0.5,1.1-1.1,1.1H124c-0.6,0-1.1-0.5-1.1-1.1v-3.8
		C122.9,44.6,123.4,44.1,124,44.1z"/>
	<text transform="matrix(1 0 0 1 127.7332 48.8568)" class="st3 st4">SCL</text>
	<path class="st13" d="M124,51.3h18.2c0.6,0,1.1,0.5,1.1,1.1v3.8c0,0.6-0.5,1.1-1.1,1.1H124c-0.6,0-1.1-0.5-1.1-1.1v-3.8
		C122.9,51.8,123.4,51.3,124,51.3z"/>
	<text transform="matrix(1 0 0 1 127.7332 56.0568)" class="st2 st3 st4">SDA</text>
	<g>
		<rect id="rect18427" x="95.4" y="25.8" class="st14" width="15.5" height="12.6"/>
		<rect id="rect18429" x="92.7" y="38.3" class="st15" width="20.8" height="3.3"/>
		<g>
			<rect id="rect18431" x="95.1" y="34.7" class="st15" width="2.8" height="3.9"/>
			<rect id="rect18433" x="99.1" y="34.7" class="st15" width="1.5" height="3.9"/>
			<rect id="rect18435" x="102.6" y="34.7" class="st15" width="1.1" height="3.9"/>
			<rect id="rect18437" x="105.8" y="34.7" class="st15" width="1.5" height="3.9"/>
			<rect id="rect18439" x="108.5" y="34.7" class="st15" width="2.6" height="3.9"/>
		</g>
	</g>
</g>
<desc>
	<referenceFile>ItsyBitsy RP2040 rev C1_breadboard.svg</referenceFile>
</desc>
<desc>Fritzing breadboard generated by brd2svg</desc>
</svg>
