<?xml version="1.0" encoding="UTF-8"?>
<svg id="Layer_1" xmlns="http://www.w3.org/2000/svg" width="17.7778in" height="14.2222in" version="1.1" viewBox="0 0 1280 1024">
  <!-- Generator: Adobe Illustrator 29.7.1, SVG Export Plug-In . SVG Version: 2.1.1 Build 8)  -->
  <g>
    <line x1="35" y1="46.9" x2="59" y2="46.9" fill="none" stroke="#8c8c8c" stroke-linecap="round" stroke-width=".7087"/>
    <path d="M49.9,43.8h18.2c.6,0,1.1.5,1.1,1.1v3.8c0,.6-.5,1.1-1.1,1.1h-18.2c-.6,0-1.1-.5-1.1-1.1v-3.7c0-.7.5-1.2,1.1-1.2Z" fill="#920000"/>
    <text transform="translate(51.8051 48.6211)" fill="#fff" font-family="CourierNewPS-BoldMT, &apos;Courier New&apos;" font-size="6" font-weight="700" isolation="isolate"><tspan x="0" y="0">3.3V</tspan></text>
    <line x1="44.2" y1="32.5" x2="59" y2="32.5" fill="none" stroke="#8c8c8c" stroke-linecap="round" stroke-width=".7087"/>
    <path d="M49.9,29.5h18.2c.6,0,1.1.5,1.1,1.1v3.8c0,.6-.5,1.1-1.1,1.1h-18.2c-.6,0-1.1-.5-1.1-1.1v-3.8c-.1-.6.4-1.1,1.1-1.1Z" fill="#ffff6d"/>
    <text transform="translate(53.5721 34.2982)" font-family="CourierNewPS-BoldMT, &apos;Courier New&apos;" font-size="6" font-weight="700" isolation="isolate"><tspan x="0" y="0">SCL</tspan></text>
    <line x1="39.6" y1="39.7" x2="59" y2="39.7" fill="none" stroke="#8c8c8c" stroke-linecap="round" stroke-width=".7087"/>
    <path d="M49.9,36.7h18.2c.6,0,1.1.5,1.1,1.1v3.8c0,.6-.5,1.1-1.1,1.1h-18.2c-.6,0-1.1-.5-1.1-1.1v-3.8c-.1-.6.4-1.1,1.1-1.1Z" fill="#006ddb"/>
    <text transform="translate(53.5721 41.4981)" fill="#fff" font-family="CourierNewPS-BoldMT, &apos;Courier New&apos;" font-size="6" font-weight="700" isolation="isolate"><tspan x="0" y="0">SDA</tspan></text>
    <line x1="30.5" y1="54" x2="59" y2="54" fill="none" stroke="#8c8c8c" stroke-linecap="round" stroke-width=".7087"/>
    <path d="M49.9,51h18.2c.6,0,1.1.5,1.1,1.1v3.8c0,.6-.5,1.1-1.1,1.1h-18.2c-.6,0-1.1-.5-1.1-1.1v-3.8c0-.6.5-1.1,1.1-1.1Z"/>
    <text transform="translate(53.6053 55.744)" fill="#fff" font-family="CourierNewPS-BoldMT, &apos;Courier New&apos;" font-size="6" font-weight="700" isolation="isolate"><tspan x="0" y="0">GND</tspan></text>
    <line x1="35" y1="46.9" x2="35.1" y2="26.4" fill="none" stroke="#8c8c8c" stroke-linecap="round" stroke-width=".7087"/>
    <line x1="30.5" y1="53.8" x2="30.5" y2="26.4" fill="none" stroke="#8c8c8c" stroke-linecap="round" stroke-width=".7087"/>
    <line x1="39.6" y1="39.7" x2="39.6" y2="26.4" fill="none" stroke="#8c8c8c" stroke-linecap="round" stroke-width=".7087"/>
    <line x1="44.1" y1="32.5" x2="44.1" y2="26.4" fill="none" stroke="#8c8c8c" stroke-linecap="round" stroke-width=".7087"/>
  </g>
  <g>
    <path d="M184.9,27.1v-.2h-.6c-.3,0-.5,0-.8-.1v.3h-3.1v-.3h-.6c-.3,0-.6,0-.8-.1v.3h-1.3v9.9h1.3v.2h.5c.3,0,.6,0,.9.1v-.2h3.1v.3h.5c.3,0,.6,0,.9.1v-.4h1.3v-9.9h-1.3Z" fill="#dcdcdc"/>
    <circle cx="181.9" cy="32.1" r="2.5" fill="#1e1e1e"/>
    <rect x="177.7" y="36.9" width="8.5" height=".6" fill="#b4b4b4"/>
    <rect x="177.7" y="26.7" width="8.5" height=".6" fill="#b4b4b4"/>
  </g>
  <g>
    <line x1="234.5" y1="42.4" x2="245.1" y2="40.6" fill="none" stroke="blue" stroke-linecap="round" stroke-width=".7087"/>
    <line x1="234.6" y1="38.1" x2="245.1" y2="33.4" fill="none" stroke="#ff0" stroke-linecap="round" stroke-width=".7087"/>
    <line x1="245.1" y1="54.9" x2="234.5" y2="50.2" fill="none" stroke="#000" stroke-linecap="round" stroke-width=".7087"/>
    <line x1="245" y1="47.8" x2="234.5" y2="46.1" fill="none" stroke="red" stroke-linecap="round" stroke-width=".7087"/>
    <line x1="245.1" y1="47.8" x2="255.7" y2="47.8" fill="none" stroke="red" stroke-linecap="round" stroke-width=".7087"/>
    <line x1="245.1" y1="33.4" x2="255.7" y2="33.4" fill="none" stroke="#ff0" stroke-linecap="round" stroke-width=".7087"/>
    <line x1="245.1" y1="40.6" x2="255.7" y2="40.6" fill="none" stroke="blue" stroke-linecap="round" stroke-width=".7087"/>
    <line x1="245.1" y1="54.9" x2="255.7" y2="54.9" fill="none" stroke="#000" stroke-linecap="round" stroke-width=".7087"/>
    <path d="M256.9,44.7h18.2c.6,0,1.1.5,1.1,1.1v3.8c0,.6-.5,1.1-1.1,1.1h-18.2c-.6,0-1.1-.5-1.1-1.1v-3.8c-.1-.6.4-1.1,1.1-1.1Z" fill="#920000"/>
    <text transform="translate(258.7333 49.4797)" fill="#fff" font-family="CourierNewPS-BoldMT, &apos;Courier New&apos;" font-size="6" font-weight="700" isolation="isolate"><tspan x="0" y="0">3.3V</tspan></text>
    <path d="M256.8,30.4h18.2c.6,0,1.1.5,1.1,1.1v3.8c0,.6-.5,1.1-1.1,1.1h-18.2c-.6,0-1.1-.5-1.1-1.1v-3.8c0-.6.5-1.1,1.1-1.1Z" fill="#ffff6d"/>
    <text transform="translate(260.5004 35.1569)" font-family="CourierNewPS-BoldMT, &apos;Courier New&apos;" font-size="6" font-weight="700" isolation="isolate"><tspan x="0" y="0">SCL</tspan></text>
    <path d="M256.8,37.6h18.2c.6,0,1.1.5,1.1,1.1v3.8c0,.6-.5,1.1-1.1,1.1h-18.2c-.6,0-1.1-.5-1.1-1.1v-3.8c0-.6.5-1.1,1.1-1.1Z" fill="#006ddb"/>
    <text transform="translate(260.5004 42.3569)" fill="#fff" font-family="CourierNewPS-BoldMT, &apos;Courier New&apos;" font-size="6" font-weight="700" isolation="isolate"><tspan x="0" y="0">SDA</tspan></text>
    <path d="M256.9,51.8h18.2c.6,0,1.1.5,1.1,1.1v3.8c0,.6-.5,1.1-1.1,1.1h-18.2c-.6,0-1.1-.5-1.1-1.1v-3.8c-.1-.6.4-1.1,1.1-1.1Z"/>
    <text transform="translate(260.5336 56.6027)" fill="#fff" font-family="CourierNewPS-BoldMT, &apos;Courier New&apos;" font-size="6" font-weight="700" isolation="isolate"><tspan x="0" y="0">GND</tspan></text>
    <path d="M256.8,30.4h18.2c.6,0,1.1.5,1.1,1.1v3.8c0,.6-.5,1.1-1.1,1.1h-18.2c-.6,0-1.1-.5-1.1-1.1v-3.8c0-.6.5-1.1,1.1-1.1Z" fill="#ff0"/>
    <text transform="translate(260.5002 35.1569)" font-family="CourierNewPS-BoldMT, &apos;Courier New&apos;" font-size="6" font-weight="700" isolation="isolate"><tspan x="0" y="0">SCL</tspan></text>
    <path d="M256.8,37.6h18.2c.6,0,1.1.5,1.1,1.1v3.8c0,.6-.5,1.1-1.1,1.1h-18.2c-.6,0-1.1-.5-1.1-1.1v-3.8c0-.6.5-1.1,1.1-1.1Z" fill="blue"/>
    <text transform="translate(260.5002 42.3569)" fill="#fff" font-family="CourierNewPS-BoldMT, &apos;Courier New&apos;" font-size="6" font-weight="700" isolation="isolate"><tspan x="0" y="0">SDA</tspan></text>
    <line x1="223.8" y1="38.1" x2="234.5" y2="38.1" fill="none" stroke="#ff0" stroke-linecap="round" stroke-width=".7087"/>
    <line x1="223.8" y1="42.4" x2="234.5" y2="42.4" fill="none" stroke="blue" stroke-linecap="round" stroke-width=".7087"/>
    <line x1="223.8" y1="46.1" x2="234.4" y2="46.1" fill="none" stroke="red" stroke-linecap="round" stroke-width=".7087"/>
    <line x1="223.8" y1="50.2" x2="234.5" y2="50.2" fill="none" stroke="#000" stroke-linecap="round" stroke-width=".7087"/>
    <g>
      <rect id="rect18427" x="209.9" y="36.2" width="12.6" height="15.5" fill="#333" stroke="#333" stroke-miterlimit="3.8362" stroke-width=".2877"/>
      <rect id="rect18429" x="222.4" y="33.6" width="3.3" height="20.8" fill="#666"/>
      <g>
        <rect id="rect18431" x="218.8" y="49.2" width="3.9" height="2.8" fill="#666"/>
        <rect id="rect18433" x="218.8" y="46.5" width="3.9" height="1.5" fill="#666"/>
        <rect id="rect18435" x="218.8" y="43.4" width="3.9" height="1.1" fill="#666"/>
        <rect id="rect18437" x="218.8" y="39.8" width="3.9" height="1.5" fill="#666"/>
        <rect id="rect18439" x="218.8" y="36" width="3.9" height="2.6" fill="#666"/>
      </g>
    </g>
  </g>
  <g>
    <path d="M145.5,55.5h-43.7c-1,0-1.9-.9-1.9-1.9v-18.9" fill="none" stroke="red" stroke-linecap="round" stroke-linejoin="round" stroke-width=".7087"/>
    <path d="M145.5,62.7h-47c-1,0-1.9-.9-1.9-1.9v-26.1" fill="none" stroke="#000" stroke-linecap="round" stroke-linejoin="round" stroke-width=".7087"/>
    <path d="M145.5,41.1h-37c-1,0-1.9-.9-1.9-1.9v-4.5" fill="none" stroke="#ff0" stroke-linecap="round" stroke-linejoin="round" stroke-width=".7087"/>
    <path d="M145.5,48.3h-40.4c-1,0-1.9-.9-1.9-1.9v-11.7" fill="none" stroke="blue" stroke-linecap="round" stroke-linejoin="round" stroke-width=".7087"/>
    <g>
      <rect id="rect184271" data-name="rect18427" x="93.8" y="19.6" width="15.5" height="12.6" fill="#333" stroke="#333" stroke-miterlimit="3.8362" stroke-width=".2877"/>
      <rect id="rect184291" data-name="rect18429" x="91.1" y="32" width="20.8" height="3.3" fill="#666"/>
      <g>
        <rect id="rect184311" data-name="rect18431" x="106.8" y="28.4" width="2.8" height="3.9" fill="#666"/>
        <rect id="rect184331" data-name="rect18433" x="104.1" y="28.4" width="1.5" height="3.9" fill="#666"/>
        <rect id="rect184351" data-name="rect18435" x="100.9" y="28.4" width="1.1" height="3.9" fill="#666"/>
        <rect id="rect184371" data-name="rect18437" x="97.4" y="28.4" width="1.5" height="3.9" fill="#666"/>
        <rect id="rect184391" data-name="rect18439" x="93.5" y="28.4" width="2.6" height="3.9" fill="#666"/>
      </g>
    </g>
    <path d="M136.4,52.5h18.2c.6,0,1.1.5,1.1,1.1v3.8c0,.6-.5,1.1-1.1,1.1h-18.2c-.6,0-1.1-.5-1.1-1.1v-3.8c0-.6.5-1.1,1.1-1.1Z" fill="#920000"/>
    <text transform="translate(138.337 57.2971)" fill="#fff" font-family="CourierNewPS-BoldMT, &apos;Courier New&apos;" font-size="6" font-weight="700" isolation="isolate"><tspan x="0" y="0">3.3V</tspan></text>
    <path d="M136.4,45.3h18.2c.6,0,1.1.5,1.1,1.1v3.8c0,.6-.5,1.1-1.1,1.1h-18.2c-.6,0-1.1-.5-1.1-1.1v-3.8c0-.6.5-1.1,1.1-1.1Z" fill="blue"/>
    <text transform="translate(140.1373 50.097)" fill="#fff" font-family="CourierNewPS-BoldMT, &apos;Courier New&apos;" font-size="6" font-weight="700" isolation="isolate"><tspan x="0" y="0">SDA</tspan></text>
    <path d="M136.4,38.1h18.2c.6,0,1.1.5,1.1,1.1v3.8c0,.6-.5,1.1-1.1,1.1h-18.2c-.6,0-1.1-.5-1.1-1.1v-3.8c0-.6.5-1.1,1.1-1.1Z" fill="#ff0"/>
    <text transform="translate(140.1373 42.897)" font-family="CourierNewPS-BoldMT, &apos;Courier New&apos;" font-size="6" font-weight="700" isolation="isolate"><tspan x="0" y="0">SCL</tspan></text>
    <path d="M136.4,59.7h18.2c.6,0,1.1.5,1.1,1.1v3.8c0,.6-.5,1.1-1.1,1.1h-18.2c-.6,0-1.1-.5-1.1-1.1v-3.8c0-.6.5-1.1,1.1-1.1Z"/>
    <text transform="translate(140.1373 64.497)" fill="#fff" font-family="CourierNewPS-BoldMT, &apos;Courier New&apos;" font-size="6" font-weight="700" isolation="isolate"><tspan x="0" y="0">GND</tspan></text>
  </g>
  <g>
    <line x1="343.1" y1="46.4" x2="332.5" y2="48.2" fill="none" stroke="blue" stroke-linecap="round" stroke-width=".7087"/>
    <line x1="343" y1="50.7" x2="332.5" y2="55.4" fill="none" stroke="#ff0" stroke-linecap="round" stroke-width=".7087"/>
    <line x1="332.5" y1="33.9" x2="343.1" y2="38.6" fill="none" stroke="#000" stroke-linecap="round" stroke-width=".7087"/>
    <line x1="332.6" y1="41" x2="343.1" y2="42.7" fill="none" stroke="red" stroke-linecap="round" stroke-width=".7087"/>
    <line x1="332.5" y1="41" x2="321.9" y2="41" fill="none" stroke="red" stroke-linecap="round" stroke-width=".7087"/>
    <line x1="332.5" y1="55.4" x2="321.9" y2="55.4" fill="none" stroke="#ff0" stroke-linecap="round" stroke-width=".7087"/>
    <line x1="332.5" y1="48.2" x2="321.9" y2="48.2" fill="none" stroke="blue" stroke-linecap="round" stroke-width=".7087"/>
    <line x1="332.5" y1="33.9" x2="321.9" y2="33.9" fill="none" stroke="#000" stroke-linecap="round" stroke-width=".7087"/>
    <line x1="353.8" y1="50.7" x2="343.1" y2="50.7" fill="none" stroke="#ff0" stroke-linecap="round" stroke-width=".7087"/>
    <line x1="353.8" y1="46.4" x2="343.1" y2="46.4" fill="none" stroke="blue" stroke-linecap="round" stroke-width=".7087"/>
    <line x1="353.8" y1="42.7" x2="343.2" y2="42.7" fill="none" stroke="red" stroke-linecap="round" stroke-width=".7087"/>
    <line x1="353.8" y1="38.6" x2="343.1" y2="38.6" fill="none" stroke="#000" stroke-linecap="round" stroke-width=".7087"/>
    <g>
      <rect id="rect184272" data-name="rect18427" x="355.8" y="37" width="12.6" height="15.5" fill="#333" stroke="#333" stroke-miterlimit="3.8362" stroke-width=".2877"/>
      <rect id="rect184292" data-name="rect18429" x="352.6" y="34.3" width="3.3" height="20.8" fill="#666"/>
      <g>
        <rect id="rect184312" data-name="rect18431" x="355.6" y="36.7" width="3.9" height="2.8" fill="#666"/>
        <rect id="rect184332" data-name="rect18433" x="355.6" y="40.7" width="3.9" height="1.5" fill="#666"/>
        <rect id="rect184352" data-name="rect18435" x="355.6" y="44.2" width="3.9" height="1.1" fill="#666"/>
        <rect id="rect184372" data-name="rect18437" x="355.6" y="47.4" width="3.9" height="1.5" fill="#666"/>
        <rect id="rect184392" data-name="rect18439" x="355.6" y="50.1" width="3.9" height="2.6" fill="#666"/>
      </g>
    </g>
    <path d="M304.1,38.2h18.2c.6,0,1.1.5,1.1,1.1v3.7c0,.6-.5,1.1-1.1,1.1h-18.2c-.6,0-1.1-.5-1.1-1.1v-3.8c-.1-.5.4-1,1.1-1Z" fill="#920000"/>
    <text transform="translate(305.9028 42.9297)" fill="#fff" font-family="CourierNewPS-BoldMT, &apos;Courier New&apos;" font-size="6" font-weight="700" isolation="isolate"><tspan x="0" y="0">3.3V</tspan></text>
    <path d="M304.1,31h18.2c.6,0,1.1.5,1.1,1.1v3.8c0,.6-.5,1.1-1.1,1.1h-18.2c-.6,0-1.1-.5-1.1-1.1v-3.8c-.1-.6.4-1.1,1.1-1.1Z"/>
    <text transform="translate(307.7031 35.8027)" fill="#fff" font-family="CourierNewPS-BoldMT, &apos;Courier New&apos;" font-size="6" font-weight="700" isolation="isolate"><tspan x="0" y="0">GND</tspan></text>
    <path d="M304.2,52.4h18.2c.6,0,1.1.5,1.1,1.1v3.8c0,.6-.5,1.1-1.1,1.1h-18.2c-.6,0-1.1-.5-1.1-1.1v-3.8c0-.6.5-1.1,1.1-1.1Z" fill="#ff0"/>
    <text transform="translate(307.857 57.1569)" font-family="CourierNewPS-BoldMT, &apos;Courier New&apos;" font-size="6" font-weight="700" isolation="isolate"><tspan x="0" y="0">SCL</tspan></text>
    <path d="M304.2,45.3h18.2c.6,0,1.1.5,1.1,1.1v3.8c0,.6-.5,1.1-1.1,1.1h-18.2c-.6,0-1.1-.5-1.1-1.1v-3.8c0-.6.5-1.1,1.1-1.1Z" fill="blue"/>
    <text transform="translate(307.857 50.0569)" fill="#fff" font-family="CourierNewPS-BoldMT, &apos;Courier New&apos;" font-size="6" font-weight="700" isolation="isolate"><tspan x="0" y="0">SDA</tspan></text>
  </g>
  <g>
    <g>
      <path d="M456.4,39.2v18.9c0,1-.9,1.9-1.9,1.9h-43.7" fill="none" stroke="red" stroke-linecap="round" stroke-linejoin="round" stroke-width=".7087"/>
      <path d="M459.7,39.2v26.1c0,1-.9,1.9-1.9,1.9h-47" fill="none" stroke="#000" stroke-linecap="round" stroke-linejoin="round" stroke-width=".7087"/>
      <path d="M449.7,39.2v4.5c0,1-.9,1.9-1.9,1.9h-37" fill="none" stroke="#ff0" stroke-linecap="round" stroke-linejoin="round" stroke-width=".7087"/>
      <path d="M453.1,39.2v11.7c0,1-.9,1.9-1.9,1.9h-40.4" fill="none" stroke="blue" stroke-linecap="round" stroke-linejoin="round" stroke-width=".7087"/>
    </g>
    <g>
      <rect id="rect184273" data-name="rect18427" x="447.2" y="23.9" width="15.5" height="12.6" fill="#333" stroke="#333" stroke-miterlimit="3.8362" stroke-width=".2877"/>
      <rect id="rect184293" data-name="rect18429" x="444.5" y="36.3" width="20.8" height="3.3" fill="#666"/>
      <g>
        <rect id="rect184313" data-name="rect18431" x="460.2" y="32.7" width="2.8" height="3.9" fill="#666"/>
        <rect id="rect184333" data-name="rect18433" x="457.5" y="32.7" width="1.5" height="3.9" fill="#666"/>
        <rect id="rect184353" data-name="rect18435" x="454.3" y="32.7" width="1.1" height="3.9" fill="#666"/>
        <rect id="rect184373" data-name="rect18437" x="450.8" y="32.7" width="1.5" height="3.9" fill="#666"/>
        <rect id="rect184393" data-name="rect18439" x="446.9" y="32.7" width="2.6" height="3.9" fill="#666"/>
      </g>
    </g>
    <g>
      <path d="M409.6,56.8h18.2c.6,0,1.1.5,1.1,1.1v3.8c0,.6-.5,1.1-1.1,1.1h-18.2c-.6,0-1.1-.5-1.1-1.1v-3.8c0-.6.5-1.1,1.1-1.1Z" fill="#920000"/>
      <text transform="translate(411.4896 61.5797)" fill="#fff" font-family="CourierNewPS-BoldMT, &apos;Courier New&apos;" font-size="6" font-weight="700" isolation="isolate"><tspan x="0" y="0">3.3V</tspan></text>
      <path d="M409.6,49.6h18.2c.6,0,1.1.5,1.1,1.1v3.8c0,.6-.5,1.1-1.1,1.1h-18.2c-.6,0-1.1-.5-1.1-1.1v-3.8c0-.6.5-1.1,1.1-1.1Z" fill="blue"/>
      <text transform="translate(413.2899 54.3796)" fill="#fff" font-family="CourierNewPS-BoldMT, &apos;Courier New&apos;" font-size="6" font-weight="700" isolation="isolate"><tspan x="0" y="0">SDA</tspan></text>
      <path d="M409.6,42.4h18.2c.6,0,1.1.5,1.1,1.1v3.8c0,.6-.5,1.1-1.1,1.1h-18.2c-.6,0-1.1-.5-1.1-1.1v-3.8c0-.6.5-1.1,1.1-1.1Z" fill="#ff0"/>
      <text transform="translate(413.2899 47.1795)" font-family="CourierNewPS-BoldMT, &apos;Courier New&apos;" font-size="6" font-weight="700" isolation="isolate"><tspan x="0" y="0">SCL</tspan></text>
      <path d="M409.6,64h18.2c.6,0,1.1.5,1.1,1.1v3.8c0,.6-.5,1.1-1.1,1.1h-18.2c-.6,0-1.1-.5-1.1-1.1v-3.8c0-.6.5-1.1,1.1-1.1Z"/>
      <text transform="translate(413.2899 68.7795)" fill="#fff" font-family="CourierNewPS-BoldMT, &apos;Courier New&apos;" font-size="6" font-weight="700" isolation="isolate"><tspan x="0" y="0">GND</tspan></text>
    </g>
  </g>
  <g>
    <path d="M529.4,45.5c-.1,0-.1.1-.1.1v2.3c0,.1.1.1.1.1h25.6c.1,0,.1-.1.1-.1v-2.3c0-.1-.1-.1-.1-.1h-25.6Z" fill="#e91e32"/>
    <path d="M529.4,45.5c-.1,0-.1.1-.1.1v2.3c0,.1.1.1.1.1h25.6c.1,0,.1-.1.1-.1v-2.3c0-.1-.1-.1-.1-.1h-25.6Z" fill="none" stroke="#000" stroke-linecap="round" stroke-linejoin="round" stroke-width=".2"/>
    <path d="M529.4,38.9c-.1,0-.1.1-.1.1v2.3c0,.1.1.1.1.1h25.6c.1,0,.1-.1.1-.1v-2.3c0-.1-.1-.1-.1-.1h-25.6Z" fill="#231f20"/>
    <path d="M529.4,38.9c-.1,0-.1.1-.1.1v2.3c0,.1.1.1.1.1h25.6c.1,0,.1-.1.1-.1v-2.3c0-.1-.1-.1-.1-.1h-25.6Z" fill="none" stroke="#000" stroke-linecap="round" stroke-linejoin="round" stroke-width=".2"/>
    <polygon points="529.9 45 529.9 48.6 531.6 49.4 531.6 53.1 528.9 53.1 525.4 51.1 508.6 51.1 508.6 44.2 508.6 35.7 525.4 35.7 528.9 33.7 531.6 33.7 531.6 37.5 529.9 38.2 529.9 42 531.6 42.7 531.6 44.2 529.9 45" fill="#f4f4f4"/>
    <polygon points="529.9 45 529.9 48.6 531.6 49.4 531.6 53.1 528.9 53.1 525.4 51.1 508.6 51.1 508.6 44.2 508.6 35.7 525.4 35.7 528.9 33.7 531.6 33.7 531.6 37.5 529.9 38.2 529.9 42 531.6 42.7 531.6 44.2 529.9 45" fill="none" stroke="#231f20" stroke-width=".2"/>
    <rect x="508.6" y="35.7" width="16.9" height="15.4" fill="#919497"/>
    <rect x="508.6" y="35.7" width="16.9" height="15.4" fill="none" stroke="#231f20" stroke-linecap="round" stroke-linejoin="round" stroke-width=".2"/>
    <polygon points="513.7 51.1 508.6 51.1 508.6 44.2 513.7 44.2 513.7 45.5 510.6 45.5 510.6 48 513.7 48 513.7 51.1" fill="#f4f4f4"/>
    <polygon points="513.7 51.1 508.6 51.1 508.6 44.2 513.7 44.2 513.7 45.5 510.6 45.5 510.6 48 513.7 48 513.7 51.1" fill="none" stroke="#231f20" stroke-width=".2"/>
    <rect x="508.6" y="42.7" width="14.4" height="1.5" fill="#e1e1e1"/>
    <rect x="508.6" y="42.7" width="14.4" height="1.5" fill="none" stroke="#231f20" stroke-width=".2"/>
    <rect x="513.7" y="49.4" width="9.1" height="1.8" fill="#e1e1e1"/>
    <rect x="513.7" y="49.4" width="9.1" height="1.8" fill="none" stroke="#231f20" stroke-width=".2"/>
    <rect x="513.7" y="35.7" width="9.1" height="1.8" fill="#e1e1e1"/>
    <rect x="513.7" y="35.7" width="9.1" height="1.8" fill="none" stroke="#231f20" stroke-width=".2"/>
    <line x1="516.2" y1="44.7" x2="516.2" y2="48.9" fill="none" stroke="#000" stroke-width=".2"/>
    <line x1="525.4" y1="51.1" x2="525.4" y2="44.8" fill="none" stroke="#000" stroke-width=".2"/>
    <line x1="512.1" y1="48" x2="512.1" y2="45.5" fill="none" stroke="#000" stroke-width=".2"/>
    <line x1="512.1" y1="41.4" x2="512.1" y2="38.9" fill="none" stroke="#000" stroke-width=".2"/>
    <line x1="516.2" y1="37.9" x2="516.2" y2="42.3" fill="none" stroke="#000" stroke-width=".2"/>
    <line x1="529.9" y1="38.2" x2="529.9" y2="33.7" fill="none" stroke="#000" stroke-linecap="round" stroke-linejoin="round" stroke-width=".2"/>
    <line x1="525.4" y1="44.8" x2="525.4" y2="35.7" fill="none" stroke="#000" stroke-width=".2"/>
    <rect x="529.9" y="42.7" width="1.7" height="1.5" fill="#fff"/>
    <rect x="529.9" y="42.7" width="1.7" height="1.5" fill="none" stroke="#000" stroke-linecap="round" stroke-linejoin="round" stroke-width=".2"/>
    <rect x="525.4" y="42" width="4.5" height="2.9" fill="#fff"/>
    <rect x="525.4" y="42" width="4.5" height="2.9" fill="none" stroke="#000" stroke-width=".2"/>
    <rect x="528.9" y="45" width="1" height="8.2" fill="#fff"/>
    <rect x="528.9" y="45" width="1" height="8.2" fill="none" stroke="#000" stroke-linecap="round" stroke-linejoin="round" stroke-width=".2"/>
    <rect x="528.9" y="33.7" width="1" height="8.3" fill="#fff"/>
    <rect x="528.9" y="33.7" width="1" height="8.3" fill="none" stroke="#000" stroke-linecap="round" stroke-linejoin="round" stroke-width=".2"/>
    <rect x="510.6" y="38.9" width="5.2" height="2.5" fill="#f1eed9"/>
    <rect x="510.6" y="38.9" width="5.2" height="2.5" fill="none" stroke="#000" stroke-linecap="round" stroke-linejoin="round" stroke-width=".2"/>
    <rect x="515.1" y="38.9" width=".7" height="2.5" fill="#e6e1cc"/>
    <rect x="515.1" y="38.9" width=".7" height="2.5" fill="none" stroke="#000" stroke-linecap="round" stroke-linejoin="round" stroke-width=".2"/>
    <line x1="513.7" y1="44.2" x2="513.7" y2="42.7" fill="none" stroke="#6e7071" stroke-linecap="round" stroke-linejoin="round" stroke-width=".2"/>
    <rect x="510.6" y="45.5" width="5.2" height="2.5" fill="#f1eed9"/>
    <rect x="510.6" y="45.5" width="5.2" height="2.5" fill="none" stroke="#000" stroke-linecap="round" stroke-linejoin="round" stroke-width=".2"/>
    <rect x="515.1" y="45.5" width=".7" height="2.5" fill="#e6e1cc"/>
    <rect x="515.1" y="45.5" width=".7" height="2.5" fill="none" stroke="#000" stroke-linecap="round" stroke-linejoin="round" stroke-width=".2"/>
    <path d="M522.5,51.1h3v-15.4h-3v1.2c0,.6-.5,1-1,1h-5.7v4.4h5.7c.6,0,1,.5,1,1v.3c0,.6-.5,1-1,1h-5.7v4.3h5.7c.6,0,1,.5,1,1v1.2Z" fill="#f4f4f4"/>
    <path d="M522.5,51.1h3v-15.4h-3v1.2c0,.6-.5,1-1,1h-5.7v4.4h5.7c.6,0,1,.5,1,1v.3c0,.6-.5,1-1,1h-5.7v4.3h5.7c.6,0,1,.5,1,1v1.2Z" fill="none" stroke="#231f20" stroke-width=".2"/>
    <polyline points="513.7 35.7 508.6 35.7 508.6 42.7 513.7 42.7 513.7 41.4 510.6 41.4 510.6 38.9 513.7 38.9 513.7 35.7" fill="#f4f4f4"/>
    <polyline points="513.7 35.7 508.6 35.7 508.6 42.7 513.7 42.7 513.7 41.4 510.6 41.4 510.6 38.9 513.7 38.9 513.7 35.7" fill="none" stroke="#231f20" stroke-width=".2"/>
  </g>
  <g>
    <path d="M617.2,53.4h-17.2c-.9-.1-1.6-.8-1.6-1.8,0-.3.1-.6.2-.9,0,0,0-.1.1-.1l8.5-13.8.1-.1c.3-.4.8-.7,1.4-.7s1.1.3,1.4.7c0,0,0,.1.1.1l8.5,13.8.1.1c.1.2.2.5.2.8,0,.9-.7,1.7-1.6,1.8,0,.1-.1.1-.2.1M608.7,36.4c-.5,0-.9.2-1.2.6l-.1.1-8.5,13.8v.1c-.1.2-.2.5-.2.7,0,.8.6,1.4,1.3,1.5h17.2c.8-.1,1.3-.7,1.3-1.5,0-.2-.1-.5-.2-.7,0,0,0-.1-.1-.1l-8.2-13.8-.1-.1c-.3-.4-.7-.6-1.2-.6" fill="#a3a5a7"/>
    <path d="M618.1,51.6c0,.5-.4.9-.9.9h-17c-.5,0-.9-.4-.9-.9,0-.2.1-.3.1-.5h0l8.5-13.8h0c.2-.2.4-.4.7-.4s.6.2.8.4h0l8.5,13.8h0c.2001.2.2001.4.2001.5" fill="#f39337" fill-rule="evenodd"/>
    <path d="M617.2,52.7h-17.2c-.5-.1-.9-.5-.9-1,0-.1,0-.3.1-.4h0l.1-.1,8.6-13.9h0c.2-.2.5-.4.8-.4s.6.1.8.4h0l.1.1,8.6,13.9h0c.1.1.1.3.1.4,0,.5-.4.9-.9,1h-.1998ZM600.3,52.4h16.8c.4,0,.7-.3.7-.7,0-.1,0-.3-.1-.4l-.1-.1h0l-8.4-13.6h0l-.1-.1c-.1-.2-.4-.4-.6-.4s-.5.1-.6.3l-.1.1h0l-8.4,13.5h0l-.1.1c-.1.1-.1.3-.1.4,0,.4.3.7.7.7l.3998.2h0Z" fill="#e3e4e4"/>
    <path d="M609.9,42c0-.6-.5-1.2-1.2-1.2-.6,0-1.2.5-1.2,1.2v4.4c0,.7.5,1.2,1.2,1.2.6,0,1.2-.5,1.2-1.2v-4.4Z" fill="#fff" fill-rule="evenodd"/>
    <path d="M608.7,48.4c-.6,0-1.2.5-1.2,1.2,0,.6.5,1.2,1.2,1.2.6,0,1.2-.5,1.2-1.2s-.5-1.2-1.2-1.2" fill="#fff" fill-rule="evenodd"/>
  </g>
  <g>
    <path d="M724.2,36.6v19.8c0,1.4-.7,2.3-2,2.3h-40.3" fill="none" stroke="blue" stroke-linecap="round" stroke-linejoin="round" stroke-width=".7087"/>
    <path d="M720.9,30.6v18.9c0,1-.9,1.9-1.8,1.9h-41.4" fill="none" stroke="red" stroke-linecap="round" stroke-linejoin="round" stroke-width=".7087"/>
    <path d="M727.5,31.4v31.3c0,2.8-.5,3.2-3.2,3.2h-35.7" fill="none" stroke="#ff0" stroke-linecap="round" stroke-linejoin="round" stroke-width=".7087"/>
    <path d="M717.5,23.7v18.6c0,1-.9,1.9-1.9,1.9h-37.9" fill="none" stroke="#000" stroke-linecap="round" stroke-linejoin="round" stroke-width=".7087"/>
    <path d="M677.4,55.5h18.2c.6,0,1.1.5,1.1,1.1v3.8c0,.6-.5,1.1-1.1,1.1h-18.2c-.6,0-1.1-.5-1.1-1.1v-3.8c0-.6.4999-1.1,1.1-1.1Z" fill="blue"/>
    <path d="M677.4,41h18.2c.6,0,1.1.5,1.1,1.1v3.8c0,.6-.5,1.1-1.1,1.1h-18.2c-.6,0-1.1-.5-1.1-1.1v-3.8c0-.6.4999-1.1,1.1-1.1Z"/>
    <text transform="translate(681.131 45.8295)" fill="#fff" font-family="CourierNewPS-BoldMT, &apos;Courier New&apos;" font-size="6" font-weight="700" isolation="isolate"><tspan x="0" y="0">GND</tspan></text>
    <path d="M677.4,62.7h18.2c.6,0,1.1.5,1.1,1.1v3.8c0,.6-.5,1.1-1.1,1.1h-18.2c-.6,0-1.1-.5-1.1-1.1v-3.8c0-.6.4999-1.1,1.1-1.1Z" fill="#ff0"/>
    <g>
      <rect id="rect184274" data-name="rect18427" x="715" y="22.5" width="15.5" height="12.6" fill="#333" stroke="#333" stroke-miterlimit="3.8362" stroke-width=".2877"/>
      <rect id="rect184294" data-name="rect18429" x="712.3" y="35" width="20.8" height="3.3" fill="#666"/>
      <g>
        <rect id="rect184314" data-name="rect18431" x="728" y="31.4" width="2.8" height="3.9" fill="#666"/>
        <rect id="rect184334" data-name="rect18433" x="725.3" y="31.4" width="1.5" height="3.9" fill="#666"/>
        <rect id="rect184354" data-name="rect18435" x="722.1" y="31.4" width="1.1" height="3.9" fill="#666"/>
        <rect id="rect184374" data-name="rect18437" x="718.6" y="31.4" width="1.5" height="3.9" fill="#666"/>
        <rect id="rect184394" data-name="rect18439" x="714.7" y="31.4" width="2.6" height="3.9" fill="#666"/>
      </g>
    </g>
    <path d="M677.4,48.2h18.2c.6,0,1.1.5,1.1,1.1v3.8c0,.6-.5,1.1-1.1,1.1h-18.2c-.6,0-1.1-.5-1.1-1.1v-3.8c0-.5.4999-1.1,1.1-1.1Z" fill="#920000"/>
    <text transform="translate(679.3307 53.0297)" fill="#fff" font-family="CourierNewPS-BoldMT, &apos;Courier New&apos;" font-size="6" font-weight="700" isolation="isolate"><tspan x="0" y="0">3.3V</tspan></text>
    <path d="M677.4,55.5h18.2c.6,0,1.1.5,1.1,1.1v3.8c0,.6-.5,1.1-1.1,1.1h-18.2c-.6,0-1.1-.5-1.1-1.1v-3.8c0-.6.4999-1.1,1.1-1.1Z" fill="blue"/>
    <text transform="translate(681.131 60.2296)" fill="#fff" font-family="CourierNewPS-BoldMT, &apos;Courier New&apos;" font-size="6" font-weight="700" isolation="isolate"><tspan x="0" y="0">SDA</tspan></text>
    <path d="M677.4,62.7h18.2c.6,0,1.1.5,1.1,1.1v3.8c0,.6-.5,1.1-1.1,1.1h-18.2c-.6,0-1.1-.5-1.1-1.1v-3.8c0-.6.4999-1.1,1.1-1.1Z" fill="#ff0"/>
    <text transform="translate(681.131 67.4295)" font-family="CourierNewPS-BoldMT, &apos;Courier New&apos;" font-size="6" font-weight="700" isolation="isolate"><tspan x="0" y="0">SCL</tspan></text>
  </g>
  <g>
    <path d="M617.2,83.2h-17.2c-1-.1-1.7-.9-1.6-1.9,0-.2.1-.5.2-.7,0,0,0-.1.1-.1l8.5-13.8.1-.1c.6-.8,1.7-.9,2.5-.3.1.1.3.2.4.4,0,0,0,.1.1.1l8.5,13.8.1.1c.4.9.1,1.9-.8,2.4-.2.1-.4.2-.6.2q-.2-.1-.3-.1M608.7,66.1c-.5,0-.9.2-1.2.6l-.1.1-8.5,13.8v.1c-.1.2-.2.5-.2.7,0,.8.6,1.4,1.3,1.5h17.2c.8-.1,1.3-.7,1.3-1.5,0-.2-.1-.5-.2-.7,0,0,0-.1-.1-.1l-8.2-13.8-.1-.1c-.3-.3-.7-.6-1.2-.6" fill="#a3a5a7"/>
    <path d="M618.1,81.4c0,.5-.4.9-.9.9h-17c-.5,0-.9-.4-.9-.9,0-.2,0-.3.1-.5h0l8.5-13.8h0c.3-.4.8-.5,1.2-.3.1.1.2.2.3.3h0l8.6001,13.9h0c.1.1.1.3.1.4" fill="#1536ff" fill-rule="evenodd"/>
    <path d="M617.2,82.4h-17.2c-.5-.1-.9-.5-.9-1,0-.1,0-.3.1-.4h0l.1-.1,8.6-13.9h0c.4-.4,1-.5,1.4-.1l.1.1h0l.1.1,8.6,13.9h0c.2.5,0,1.1-.5,1.3-.1,0-.2.1-.3.1h-.0999ZM600.3,82.2h16.8c.4,0,.7-.3.7-.7,0-.1,0-.3-.1-.4l-.1-.1h0l-8.4-13.6h0l-.1-.1c-.2-.3-.7-.5-1-.3-.1.1-.2.1-.2.2l-.1.1h0l-8.4,13.6h0l-.1.1c-.2.3-.1.8.2,1,.1.1.3.1.4.1l.3999.1h0Z" fill="#e3e4e4"/>
    <text transform="translate(604.9225 80.8256)" fill="#fff" font-family="ArialRoundedMTBold, &apos;Arial Rounded MT Bold&apos;" font-size="13" isolation="isolate"><tspan x="0" y="0">?</tspan></text>
  </g>
  <g>
    <path d="M780.7648,49.9665v-18.9c0-1,.9-1.9,1.9-1.9h43.7" fill="none" stroke="red" stroke-linecap="round" stroke-linejoin="round" stroke-width=".7087"/>
    <path d="M777.4648,49.9665v-26.1c0-1,.7156-1.9,1.5107-1.9h37.3708" fill="none" stroke="#000" stroke-linecap="round" stroke-linejoin="round" stroke-width=".7087"/>
    <path d="M787.4648,49.9665v-4.5c0-1,.7454-1.9,1.5736-1.9h30.6431" fill="none" stroke="#ff0" stroke-linecap="round" stroke-linejoin="round" stroke-width=".7087"/>
    <path d="M784.0648,49.9665v-11.7c0-1,.7706-1.9,1.6269-1.9h34.5937" fill="none" stroke="blue" stroke-linecap="round" stroke-linejoin="round" stroke-width=".7087"/>
    <g>
      <rect id="rect184275" data-name="rect18427" x="774.6648" y="52.4665" width="15.5" height="12.6" fill="#333" stroke="#333" stroke-miterlimit="3.8362" stroke-width=".2877"/>
      <rect id="rect184295" data-name="rect18429" x="771.9648" y="49.3665" width="20.8" height="3.3" fill="#666"/>
      <g>
        <rect id="rect184315" data-name="rect18431" x="787.6648" y="52.3665" width="2.8" height="3.9" fill="#666"/>
        <rect id="rect184335" data-name="rect18433" x="784.9648" y="52.3665" width="1.5" height="3.9" fill="#666"/>
        <rect id="rect184355" data-name="rect18435" x="781.7648" y="52.3665" width="1.1" height="3.9" fill="#666"/>
        <rect id="rect184375" data-name="rect18437" x="778.2648" y="52.3665" width="1.5" height="3.9" fill="#666"/>
        <rect id="rect184395" data-name="rect18439" x="774.3648" y="52.3665" width="2.6" height="3.9" fill="#666"/>
      </g>
    </g>
    <path d="M801.7148,40.7107h18.1984c.5284,0,.9567.4283.9567.9567v3.7984c0,.5284-.4283.9567-.9567.9567h-18.1984c-.5284,0-.9567-.4283-.9567-.9567v-3.7984c.0001-.5284.4285-.9567.9567-.9567Z" fill="#ff0" stroke="#737373" stroke-width=".3543"/>
    <text transform="translate(805.4132 45.3166)" font-family="CourierNewPS-BoldMT, &apos;Courier New&apos;" font-size="6" font-weight="700" isolation="isolate"><tspan x="0" y="0">SCL</tspan></text>
    <path d="M801.7148,33.5107h18.1984c.5284,0,.9567.4283.9567.9567v3.7984c0,.5284-.4283.9567-.9567.9567h-18.1984c-.5284,0-.9567-.4283-.9567-.9567v-3.7984c.0001-.5284.4285-.9567.9567-.9567Z" fill="blue" stroke="#737373" stroke-width=".3543"/>
    <text transform="translate(805.4132 38.1166)" fill="#fff" font-family="CourierNewPS-BoldMT, &apos;Courier New&apos;" font-size="6" font-weight="700" isolation="isolate"><tspan x="0" y="0">SDA</tspan></text>
    <g>
      <path d="M801.7148,26.3106h25.3984c.5283,0,.9567.4283.9567.9567v3.7984c0,.5284-.4283.9567-.9567.9567h-25.3984c-.5284,0-.9567-.4283-.9567-.9567v-3.7984c.0001-.5284.4285-.9567.9567-.9567Z" fill="#920000" stroke="#737373" stroke-width=".3543"/>
      <text transform="translate(801.812 30.9165)" fill="#fff" font-family="CourierNewPS-BoldMT, &apos;Courier New&apos;" font-size="6" font-weight="700" isolation="isolate"><tspan x="0" y="0">VSENSOR</tspan></text>
    </g>
    <path d="M801.7148,18.9335h18.1983c.6262,0,1.1339.5077,1.1339,1.1339v3.7983c0,.6262-.5077,1.1339-1.1339,1.1339h-18.1983c-.6262,0-1.1339-.5077-1.1339-1.1339v-3.7983c0-.6262.5078-1.1339,1.1339-1.1339Z"/>
    <text transform="translate(805.4132 23.7166)" fill="#fff" font-family="CourierNewPS-BoldMT, &apos;Courier New&apos;" font-size="6" font-weight="700" isolation="isolate"><tspan x="0" y="0">GND</tspan></text>
  </g>
  <g>
    <polygon points="183.2591 44.422 184.4936 44.422 184.4936 45.839 185.6044 45.839 185.6044 55.761 184.4936 55.761 184.4936 57.178 183.2591 57.178 183.2591 55.761 180.5417 55.761 180.5417 57.178 179.3073 57.178 179.3073 55.761 178.1955 55.761 178.1955 45.839 179.3073 45.839 179.3073 44.422 180.5417 44.422 180.5417 45.839 183.2591 45.839 183.2591 44.422" fill="#dcdcdc"/>
    <ellipse cx="181.997" cy="50.8615" rx="3.2202" ry="4.3886" fill="#1e1e1e"/>
    <rect x="178.1955" y="55.7674" width="7.4089" height=".397" fill="#b4b4b4"/>
    <rect x="178.1955" y="45.5624" width="7.4089" height=".397" fill="#b4b4b4"/>
  </g>
  <g>
    <rect x="175.619" y="17.4079" width="12.756" height="1.3462" fill="#dcdcdc"/>
    <rect x="176.8311" y="10.9257" width="10.1269" height="8.0787" fill="#dcdcdc"/>
    <rect x="175.619" y="11.2114" width="12.756" height="1.3462" fill="#dcdcdc"/>
    <ellipse cx="181.9354" cy="15.0707" rx="4.3886" ry="3.5113" fill="#1e1e1e"/>
    <rect x="176.6326" y="10.9257" width=".397" height="8.0787" fill="#b4b4b4"/>
    <rect x="186.8376" y="10.9257" width=".397" height="8.0787" fill="#b4b4b4"/>
  </g>
  <g>
    <path d="M526.9501,84.25c-.1,0-.1.1-.1.1v2.3c0,.1.1.1.1.1h25.6c.1,0,.1-.1.1-.1v-2.3c0-.1-.1-.1-.1-.1h-25.6Z" fill="#e91e32"/>
    <path d="M526.9501,84.25c-.1,0-.1.1-.1.1v2.3c0,.1.1.1.1.1h25.6c.1,0,.1-.1.1-.1v-2.3c0-.1-.1-.1-.1-.1h-25.6Z" fill="none" stroke="#000" stroke-linecap="round" stroke-linejoin="round" stroke-width=".2"/>
    <path d="M526.9501,77.65c-.1,0-.1.1-.1.1v2.3c0,.1.1.1.1.1h25.6c.1,0,.1-.1.1-.1v-2.3c0-.1-.1-.1-.1-.1h-25.6Z" fill="#231f20"/>
    <path d="M526.9501,77.65c-.1,0-.1.1-.1.1v2.3c0,.1.1.1.1.1h25.6c.1,0,.1-.1.1-.1v-2.3c0-.1-.1-.1-.1-.1h-25.6Z" fill="none" stroke="#000" stroke-linecap="round" stroke-linejoin="round" stroke-width=".2"/>
    <polygon points="527.4501 83.75 527.4501 87.35 529.15 88.15 529.15 91.85 526.4501 91.85 522.9501 89.85 506.15 89.85 506.15 82.95 506.15 74.45 522.9501 74.45 526.4501 72.45 529.15 72.45 529.15 76.25 527.4501 76.95 527.4501 80.75 529.15 81.45 529.15 82.95 527.4501 83.75" fill="#f4f4f4"/>
    <polygon points="527.4501 83.75 527.4501 87.35 529.15 88.15 529.15 91.85 526.4501 91.85 522.9501 89.85 506.15 89.85 506.15 82.95 506.15 74.45 522.9501 74.45 526.4501 72.45 529.15 72.45 529.15 76.25 527.4501 76.95 527.4501 80.75 529.15 81.45 529.15 82.95 527.4501 83.75" fill="none" stroke="#231f20" stroke-width=".2"/>
    <rect x="506.15" y="74.45" width="16.9" height="15.4" fill="none" stroke="#231f20" stroke-linecap="round" stroke-linejoin="round" stroke-width=".2"/>
    <rect x="506.15" y="81.45" width="16.6555" height="1.5" fill="#e1e1e1"/>
    <polygon points="506.15 81.45 522.9501 81.3767 522.9501 82.8767 506.15 82.95 506.15 81.45" fill="none" stroke="#231f20" stroke-width=".2"/>
    <path d="M513.75,87.65" fill="none" stroke="#000" stroke-width=".2"/>
    <path d="M513.75,83.45" fill="none" stroke="#000" stroke-width=".2"/>
    <line x1="522.9501" y1="89.85" x2="522.9501" y2="83.55" fill="none" stroke="#000" stroke-width=".2"/>
    <path d="M509.65,84.25" fill="none" stroke="#000" stroke-width=".2"/>
    <path d="M509.65,86.75" fill="none" stroke="#000" stroke-width=".2"/>
    <path d="M509.65,77.65" fill="none" stroke="#000" stroke-width=".2"/>
    <path d="M509.65,80.15" fill="none" stroke="#000" stroke-width=".2"/>
    <path d="M513.75,81.05" fill="none" stroke="#000" stroke-width=".2"/>
    <path d="M513.75,76.65" fill="none" stroke="#000" stroke-width=".2"/>
    <line x1="527.4501" y1="76.95" x2="527.4501" y2="72.45" fill="none" stroke="#000" stroke-linecap="round" stroke-linejoin="round" stroke-width=".2"/>
    <line x1="522.9501" y1="83.55" x2="522.9501" y2="74.45" fill="none" stroke="#000" stroke-width=".2"/>
    <rect x="527.4501" y="81.45" width="1.7" height="1.5" fill="#fff"/>
    <rect x="527.4501" y="81.45" width="1.7" height="1.5" fill="none" stroke="#000" stroke-linecap="round" stroke-linejoin="round" stroke-width=".2"/>
    <rect x="522.9501" y="80.75" width="4.5" height="2.9" fill="#fff"/>
    <rect x="522.9501" y="80.75" width="4.5" height="2.9" fill="none" stroke="#000" stroke-width=".2"/>
    <rect x="526.4501" y="83.75" width="1" height="8.2" fill="#fff"/>
    <rect x="526.4501" y="83.75" width="1" height="8.2" fill="none" stroke="#000" stroke-linecap="round" stroke-linejoin="round" stroke-width=".2"/>
    <rect x="526.4501" y="72.45" width="1" height="8.3" fill="#fff"/>
    <rect x="526.4501" y="72.45" width="1" height="8.3" fill="none" stroke="#000" stroke-linecap="round" stroke-linejoin="round" stroke-width=".2"/>
    <path d="M511.25,81.45" fill="none" stroke="#6e7071" stroke-linecap="round" stroke-linejoin="round" stroke-width=".2"/>
    <path d="M511.25,82.95" fill="none" stroke="#6e7071" stroke-linecap="round" stroke-linejoin="round" stroke-width=".2"/>
    <path d="M513.35,86.75" fill="none" stroke="#000" stroke-linecap="round" stroke-linejoin="round" stroke-width=".2"/>
    <path d="M513.35,84.25" fill="none" stroke="#000" stroke-linecap="round" stroke-linejoin="round" stroke-width=".2"/>
    <path d="M508.15,84.25" fill="none" stroke="#000" stroke-linecap="round" stroke-linejoin="round" stroke-width=".2"/>
    <path d="M508.15,86.75" fill="none" stroke="#000" stroke-linecap="round" stroke-linejoin="round" stroke-width=".2"/>
    <path d="M520.05,89.85h3v-15.4h-3v1.2c0,.6-.5,1-1,1h-5.7v4.4h5.7c.6,0,1,.5,1,1v.3c0,.6-.5,1-1,1h-5.7v4.3h5.7c.6,0,1,.5,1,1v1.2Z" display="none" fill="none" stroke="#231f20" stroke-width=".2"/>
  </g>
  <metadata>
    <sfw xmlns="http://ns.adobe.com/SaveForWeb/1.0/">
      <slices/>
      <sliceSourceBounds x="30.15" y="931.95" width="798.1" height="81.12" bottomLeftOrigin="true"/>
    </sfw>
  </metadata>
</svg>